<?xml version="1.0" encoding="UTF-8"?>
<svg width="250px" height="52px" viewBox="0 0 250 52" version="1.1" xmlns="http://www.w3.org/2000/svg" xmlns:xlink="http://www.w3.org/1999/xlink">
    <!-- Generator: Sketch 49 (51002) - http://www.bohemiancoding.com/sketch -->
    <title>aimmo_logo</title>
    <desc>Created with Sketch.</desc>
    <defs></defs>
    <g id="Teaching-Pack-+-KS3-MMO" stroke="none" stroke-width="1" fill="none" fill-rule="evenodd">
        <g id="Teaching-Packs---L-Desktops" transform="translate(-774.000000, -7132.000000)" fill="#FFFFFF">
            <g id="Group-4" transform="translate(569.000000, 7132.000000)">
                <g id="Group-5">
                    <path d="M239.935,51 L236.855,40.5 L221.245,40.5 L218.235,51 L205.635,51 L222.645,0.95 L235.525,0.95 L252.535,51 L239.935,51 Z M229.155,12.36 L229.015,12.36 C229.015,12.36 227.895,17.82 226.985,20.97 L224.115,30.7 L233.985,30.7 L231.185,20.97 C230.275,17.82 229.155,12.36 229.155,12.36 Z M255.135,51 L255.135,0.95 L267.385,0.95 L267.385,51 L255.135,51 Z M275.025,26.43 L275.025,14.95 L286.505,14.95 L286.505,26.43 L275.025,26.43 Z M275.025,51 L275.025,39.52 L286.505,39.52 L286.505,51 L275.025,51 Z M294.425,51 L298.345,2 L301.285,2 L315.565,32.8 C316.685,35.18 317.945,38.33 317.945,38.33 L318.085,38.33 C318.085,38.33 319.345,35.18 320.465,32.8 L334.745,2 L337.685,2 L341.605,51 L338.595,51 L335.585,13.62 C335.375,11.24 335.375,7.11 335.375,7.11 L335.235,7.11 C335.235,7.11 333.835,11.24 332.715,13.62 L319.555,41.55 L316.475,41.55 L303.385,13.62 C302.335,11.31 300.795,6.97 300.795,6.97 L300.655,6.97 C300.655,6.97 300.655,11.24 300.445,13.62 L297.435,51 L294.425,51 Z M350.925,51 L354.845,2 L357.785,2 L372.065,32.8 C373.185,35.18 374.445,38.33 374.445,38.33 L374.585,38.33 C374.585,38.33 375.845,35.18 376.965,32.8 L391.245,2 L394.185,2 L398.105,51 L395.095,51 L392.085,13.62 C391.875,11.24 391.875,7.11 391.875,7.11 L391.735,7.11 C391.735,7.11 390.335,11.24 389.215,13.62 L376.055,41.55 L372.975,41.55 L359.885,13.62 C358.835,11.31 357.295,6.97 357.295,6.97 L357.155,6.97 C357.155,6.97 357.155,11.24 356.945,13.62 L353.935,51 L350.925,51 Z M405.395,26.15 C405.395,12.08 416.525,1.16 430.175,1.16 C443.825,1.16 454.955,12.08 454.955,26.15 C454.955,40.57 443.825,51.84 430.175,51.84 C416.525,51.84 405.395,40.57 405.395,26.15 Z M408.545,26.15 C408.545,39.03 418.205,48.97 430.175,48.97 C442.145,48.97 451.805,39.03 451.805,26.15 C451.805,13.62 442.145,4.03 430.175,4.03 C418.205,4.03 408.545,13.62 408.545,26.15 Z" id="aimmo_logo"></path>
                </g>
            </g>
        </g>
    </g>
</svg>