<?xml version="1.0" encoding="UTF-8" standalone="no"?>
<!-- Created with Inkscape (http://www.inkscape.org/) -->

<svg
   xmlns:dc="http://purl.org/dc/elements/1.1/"
   xmlns:cc="http://creativecommons.org/ns#"
   xmlns:rdf="http://www.w3.org/1999/02/22-rdf-syntax-ns#"
   xmlns:svg="http://www.w3.org/2000/svg"
   xmlns="http://www.w3.org/2000/svg"
   xmlns:sodipodi="http://sodipodi.sourceforge.net/DTD/sodipodi-0.dtd"
   xmlns:inkscape="http://www.inkscape.org/namespaces/inkscape"
   version="1.1"
   width="411.01749"
   height="205.50751"
   id="svg2"
   xml:space="preserve"
   inkscape:version="0.48.4 r9939"
   sodipodi:docname="codeForLife_logo.svg"><sodipodi:namedview
     pagecolor="#ffffff"
     bordercolor="#666666"
     borderopacity="1"
     objecttolerance="10"
     gridtolerance="10"
     guidetolerance="10"
     inkscape:pageopacity="0"
     inkscape:pageshadow="2"
     inkscape:window-width="1855"
     inkscape:window-height="1056"
     id="namedview62"
     showgrid="false"
     inkscape:zoom="2.8417282"
     inkscape:cx="220.72234"
     inkscape:cy="109.73749"
     inkscape:window-x="1985"
     inkscape:window-y="24"
     inkscape:window-maximized="1"
     inkscape:current-layer="svg2" /><metadata
     id="metadata8"><rdf:RDF><cc:Work
         rdf:about=""><dc:format>image/svg+xml</dc:format><dc:type
           rdf:resource="http://purl.org/dc/dcmitype/StillImage" /><dc:title></dc:title></cc:Work></rdf:RDF></metadata><defs
     id="defs6"><clipPath
       id="clipPath16"><path
         d="m 0,164.406 328.814,0 L 328.814,0 0,0 0,164.406 z"
         inkscape:connector-curvature="0"
         id="path18" /></clipPath><clipPath
       id="clipPath24"><path
         d="m 58.2666,90.2441 5.4609,0 0,-16.6035 -5.4609,0 0,16.6035 z"
         inkscape:connector-curvature="0"
         id="path26" /></clipPath><clipPath
       id="clipPath56"><path
         d="m 138.647,90.2441 5.462,0 0,-16.6035 -5.462,0 0,16.6035 z"
         inkscape:connector-curvature="0"
         id="path58" /></clipPath><clipPath
       id="clipPath84"><path
         d="m 197.926,90.5449 7.282,0 0,-17.123 -7.282,0 0,17.123 z"
         inkscape:connector-curvature="0"
         id="path86" /></clipPath><clipPath
       id="clipPath112"><path
         d="m 263.265,90.5449 7.282,0 0,-17.123 -7.282,0 0,17.123 z"
         inkscape:connector-curvature="0"
         id="path114" /></clipPath></defs><rect
     style="fill:#00072c;fill-opacity:1"
     id="rect3953"
     width="434.2428"
     height="226.27075"
     x="-15.131637"
     y="-10.91009"
     inkscape:export-xdpi="300"
     inkscape:export-ydpi="300" /><g
     id="g20"
     transform="matrix(1.25,0,0,-1.25,0,205.5075)"
     style="fill:#ffffff"><g
       id="g22"
       style="fill:#ffffff" /><g
       id="g28"
       style="fill:#ffffff"><g
         style="opacity:0.50000000000000000;fill:#ffffff"
         id="g30"
         clip-path="url(#clipPath24)"><g
           id="g32"
           transform="translate(63.7271,89.4844)"
           style="fill:#ffffff"><path
             style="fill:#ffffff;fill-opacity:1;fill-rule:nonzero;stroke:none"
             id="path34"
             inkscape:connector-curvature="0"
             d="m 0,0 -4.541,0 0,-15.082 4.541,0 0,-0.762 -5.461,0 0,16.604 L 0,0.76 0,0 z" /></g></g></g></g><g
     id="g36"
     transform="matrix(1.25,0,0,-1.25,96.159,110.505)"
     style="fill:#ffffff"><path
       style="fill:#ffffff;fill-opacity:1;fill-rule:nonzero;stroke:none"
       id="path38"
       inkscape:connector-curvature="0"
       d="m 0,0 c -3.221,0 -5.581,2.48 -5.581,5.541 l 0,0.041 c 0,3.061 2.34,5.58 5.621,5.58 2.021,0 3.281,-0.68 4.281,-1.801 l -1.861,-2 c -0.68,0.721 -1.359,1.18 -2.439,1.18 -1.522,0 -2.602,-1.34 -2.602,-2.92 l 0,-0.039 c 0,-1.641 1.06,-2.961 2.721,-2.961 1.02,0 1.72,0.44 2.461,1.139 L 4.381,1.961 C 3.341,0.82 2.141,0 0,0" /></g><g
     id="g40"
     transform="matrix(1.25,0,0,-1.25,118.338,103.5275)"
     style="fill:#ffffff"><path
       style="fill:#ffffff;fill-opacity:1;fill-rule:nonzero;stroke:none"
       id="path42"
       inkscape:connector-curvature="0"
       d="m 0,0 c 0,1.58 -1.141,2.959 -2.82,2.959 -1.742,0 -2.782,-1.34 -2.782,-2.92 l 0,-0.039 c 0,-1.582 1.141,-2.961 2.821,-2.961 1.74,0 2.781,1.34 2.781,2.92 L 0,0 z m -2.82,-5.582 c -3.322,0 -5.782,2.461 -5.782,5.541 l 0,0.041 c 0,3.08 2.481,5.58 5.821,5.58 C 0.539,5.58 3,3.119 3,0.039 L 3,0 C 3,-3.082 0.52,-5.582 -2.82,-5.582" /></g><g
     id="g44"
     transform="matrix(1.25,0,0,-1.25,139.06313,103.47875)"
     style="fill:#ffffff"><path
       style="fill:#ffffff;fill-opacity:1;fill-rule:nonzero;stroke:none"
       id="path46"
       inkscape:connector-curvature="0"
       d="m 0,0 c 0,1.781 -1.181,2.961 -2.602,2.961 -1.419,0 -2.62,-1.16 -2.62,-2.961 l 0,-0.039 C -5.222,-1.82 -4.021,-3 -2.602,-3 -1.181,-3 0,-1.82 0,-0.039 L 0,0 z m -0.041,-5.381 0,1.541 c -0.74,-1.002 -1.76,-1.742 -3.34,-1.742 -2.501,0 -4.881,1.961 -4.881,5.543 l 0,0.039 c 0,3.58 2.34,5.541 4.881,5.541 1.619,0 2.62,-0.74 3.34,-1.6 l 0,5.282 3.041,0 0,-14.604 -3.041,0 z" /></g><g
     id="g48"
     transform="matrix(1.25,0,0,-1.25,156.68512,99.60175)"
     style="fill:#ffffff"><path
       style="fill:#ffffff;fill-opacity:1;fill-rule:nonzero;stroke:none"
       id="path50"
       inkscape:connector-curvature="0"
       d="m 0,0 c -1.26,0 -2.08,-0.9 -2.32,-2.281 l 4.582,0 C 2.081,-0.922 1.281,0 0,0 m 5.182,-4.182 -7.461,0 c 0.299,-1.38 1.259,-2.099 2.62,-2.099 1.02,0 1.761,0.318 2.6,1.099 l 1.741,-1.541 c -1,-1.24 -2.441,-2 -4.381,-2 -3.221,0 -5.602,2.26 -5.602,5.541 l 0,0.041 c 0,3.061 2.181,5.58 5.301,5.58 3.582,0 5.222,-2.781 5.222,-5.82 l 0,-0.041 c 0,-0.299 -0.021,-0.48 -0.04,-0.76" /></g><g
     id="g52"
     transform="matrix(1.25,0,0,-1.25,0,205.5075)"
     style="fill:#ffffff"><g
       id="g54"
       style="fill:#ffffff" /><g
       id="g60"
       style="fill:#ffffff"><g
         style="opacity:0.50000000000000000;fill:#ffffff"
         id="g62"
         clip-path="url(#clipPath56)"><g
           id="g64"
           transform="translate(144.1089,90.2441)"
           style="fill:#ffffff"><path
             style="fill:#ffffff;fill-opacity:1;fill-rule:nonzero;stroke:none"
             id="path66"
             inkscape:connector-curvature="0"
             d="m 0,0 0,-16.604 -5.462,0 0,0.762 4.541,0 0,15.082 -4.541,0 0,0.76 L 0,0 z" /></g></g></g></g><g
     id="g68"
     transform="matrix(1.25,0,0,-1.25,199.06063,94.97775)"
     style="fill:#ffffff"><path
       style="fill:#ffffff;fill-opacity:1;fill-rule:nonzero;stroke:none"
       id="path70"
       inkscape:connector-curvature="0"
       d="m 0,0 c -0.701,0 -1.102,-0.359 -1.102,-1.16 l 0,-0.42 2.461,0 0,-2.481 -2.42,0 0,-8.121 -3.041,0 0,8.121 -1.259,0 0,2.5 1.259,0 0,0.682 c 0,2.359 1.18,3.44 3.321,3.44 0.961,0 1.601,-0.12 2.162,-0.299 l 0,-2.522 C 0.939,-0.1 0.52,0 0,0" /></g><g
     id="g72"
     transform="matrix(1.25,0,0,-1.25,217.18563,103.5275)"
     style="fill:#ffffff"><path
       style="fill:#ffffff;fill-opacity:1;fill-rule:nonzero;stroke:none"
       id="path74"
       inkscape:connector-curvature="0"
       d="m 0,0 c 0,1.58 -1.141,2.959 -2.82,2.959 -1.741,0 -2.782,-1.34 -2.782,-2.92 l 0,-0.039 c 0,-1.582 1.141,-2.961 2.821,-2.961 1.74,0 2.781,1.34 2.781,2.92 L 0,0 z m -2.82,-5.582 c -3.321,0 -5.782,2.461 -5.782,5.541 l 0,0.041 c 0,3.08 2.481,5.58 5.821,5.58 C 0.539,5.58 3,3.119 3,0.039 L 3,0 C 3,-3.082 0.52,-5.582 -2.82,-5.582" /></g><g
     id="g76"
     transform="matrix(1.25,0,0,-1.25,236.06012,100.527)"
     style="fill:#ffffff"><path
       style="fill:#ffffff;fill-opacity:1;fill-rule:nonzero;stroke:none"
       id="path78"
       inkscape:connector-curvature="0"
       d="m 0,0 c -2.021,0 -3.262,-1.221 -3.262,-3.781 l 0,-3.961 -3.039,0 0,10.722 3.039,0 0,-2.16 c 0.621,1.479 1.621,2.44 3.422,2.36 L 0.16,0 0,0 z" /></g><g
     id="g80"
     transform="matrix(1.25,0,0,-1.25,0,205.5075)"
     style="fill:#ffffff"><g
       id="g82"
       style="fill:#ffffff" /><g
       id="g88"
       style="fill:#ffffff"><g
         style="opacity:0.50000000000000000;fill:#ffffff"
         id="g90"
         clip-path="url(#clipPath84)"><g
           id="g92"
           transform="translate(201.8267,86.3633)"
           style="fill:#ffffff"><path
             style="fill:#ffffff;fill-opacity:1;fill-rule:nonzero;stroke:none"
             id="path94"
             inkscape:connector-curvature="0"
             d="M 0,0 0,-1.5 C 0,-3.279 -0.82,-4 -2.08,-4.381 -0.74,-4.82 0,-5.48 0,-7.26 l 0,-1.502 c 0,-2.019 0.32,-2.759 3.381,-3.541 L 3.24,-12.941 c -3.58,0.679 -4.22,1.98 -4.22,4.06 l 0,1.58 c 0,1.561 -0.52,2.541 -2.401,2.541 l -0.519,0 0,0.76 0.519,0 c 1.881,0 2.401,0.98 2.401,2.541 l 0,1.58 c 0,2.08 0.64,3.381 4.22,4.061 L 3.381,3.541 C 0.32,2.762 0,2.021 0,0" /></g></g></g></g><path
     style="fill:#ffffff;fill-opacity:1;fill-rule:nonzero;stroke:none"
     id="path96"
     inkscape:connector-curvature="0"
     d="m 269.3075,91.95 3.80125,0 0,18.255 -3.80125,0 0,-18.255 z" /><path
     style="fill:#ffffff;fill-opacity:1;fill-rule:nonzero;stroke:none"
     id="path98"
     inkscape:connector-curvature="0"
     d="m 281.3575,96.80125 3.80125,0 0,13.40375 -3.80125,0 0,-13.40375 z m -0.1,-4.85125 4.00125,0 0,3.37625 -4.00125,0 0,-3.37625 z" /><g
     id="g100"
     transform="matrix(1.25,0,0,-1.25,299.00938,94.97775)"
     style="fill:#ffffff"><path
       style="fill:#ffffff;fill-opacity:1;fill-rule:nonzero;stroke:none"
       id="path102"
       inkscape:connector-curvature="0"
       d="m 0,0 c -0.701,0 -1.102,-0.359 -1.102,-1.16 l 0,-0.42 2.461,0 0,-2.481 -2.42,0 0,-8.121 -3.041,0 0,8.121 -1.259,0 0,2.5 1.259,0 0,0.682 c 0,2.359 1.18,3.44 3.321,3.44 0.961,0 1.599,-0.12 2.16,-0.299 l 0,-2.522 C 0.939,-0.1 0.52,0 0,0" /></g><g
     id="g104"
     transform="matrix(1.25,0,0,-1.25,313.00837,99.60175)"
     style="fill:#ffffff"><path
       style="fill:#ffffff;fill-opacity:1;fill-rule:nonzero;stroke:none"
       id="path106"
       inkscape:connector-curvature="0"
       d="m 0,0 c -1.262,0 -2.08,-0.9 -2.32,-2.281 l 4.58,0 C 2.08,-0.922 1.279,0 0,0 m 5.18,-4.182 -7.461,0 c 0.301,-1.38 1.26,-2.099 2.621,-2.099 1.019,0 1.76,0.318 2.599,1.099 L 4.68,-6.723 c -1,-1.24 -2.44,-2 -4.381,-2 -3.221,0 -5.6,2.26 -5.6,5.541 l 0,0.041 c 0,3.061 2.18,5.58 5.301,5.58 3.58,0 5.221,-2.781 5.221,-5.82 l 0,-0.041 c 0,-0.299 -0.02,-0.48 -0.041,-0.76" /></g><g
     id="g108"
     transform="matrix(1.25,0,0,-1.25,0,205.5075)"
     style="fill:#ffffff"><g
       id="g110"
       style="fill:#ffffff" /><g
       id="g116"
       style="fill:#ffffff"><g
         style="opacity:0.50000000000000000;fill:#ffffff"
         id="g118"
         clip-path="url(#clipPath112)"><g
           id="g120"
           transform="translate(266.645,77.6016)"
           style="fill:#ffffff"><path
             style="fill:#ffffff;fill-opacity:1;fill-rule:nonzero;stroke:none"
             id="path122"
             inkscape:connector-curvature="0"
             d="M 0,0 0,1.502 C 0,3.281 0.82,4.002 2.082,4.381 0.74,4.822 0,5.482 0,7.262 l 0,1.5 c 0,2.021 -0.32,2.761 -3.381,3.541 l 0.141,0.64 c 3.58,-0.679 4.22,-1.98 4.22,-4.06 l 0,-1.58 c 0,-1.561 0.522,-2.541 2.401,-2.541 l 0.521,0 0,-0.76 -0.521,0 C 1.502,4.002 0.98,3.021 0.98,1.461 l 0,-1.58 c 0,-2.08 -0.64,-3.381 -4.22,-4.061 l -0.141,0.639 C -0.32,-2.76 0,-2.02 0,0" /></g></g></g></g><g
     inkscape:groupmode="layer"
     id="layer1"
     inkscape:label="background"><rect
       style="fill:none"
       id="rect3947"
       width="425.09344"
       height="213.2505"
       x="-7.0379705"
       y="-2.8164244" /><rect
       style="fill:none"
       id="rect3949"
       width="416.29596"
       height="209.37962"
       x="-3.8708839"
       y="-2.4645259" /></g></svg>