<?xml version="1.0" encoding="UTF-8"?>
<svg width="142px" height="113px" viewBox="0 0 142 113" version="1.1" xmlns="http://www.w3.org/2000/svg" xmlns:xlink="http://www.w3.org/1999/xlink">
    <!-- Generator: Sketch 47.1 (45422) - http://www.bohemiancoding.com/sketch -->
    <title>Future</title>
    <desc>Created with Sketch.</desc>
    <defs></defs>
    <g id="Play-landing-" stroke="none" stroke-width="1" fill="none" fill-rule="evenodd" opacity="0.8">
        <g id="AIMMO-Prototype-landing---L-Desktops" transform="translate(-1529.000000, -2167.000000)" fill="#000000">
            <g id="Deliver-through-time-Copy" transform="translate(0.000000, 1829.000000)">
                <g id="Group-4" transform="translate(153.000000, 322.000000)">
                    <g id="Future" transform="translate(1376.000000, 16.000000)">
                        <path d="M89.3295713,72 C85.7900224,71.8318542 82.027586,71.6528213 78.227598,71.4713691 C78.3996089,69.8189438 78.5970581,68.4507938 78.6709501,67.077805 C78.8078321,64.5447315 78.5255888,62.068513 77.1543467,59.8572148 C74.9460655,56.2947021 71.0406905,55.8398617 67.9723546,58.4189032 C64.9888128,60.9265734 63.7544527,64.3499727 62.9937282,68.012889 C62.9380064,68.282648 62.8786505,68.5524071 62.7623614,69.1016026 C59.0641264,68.039502 55.4228245,66.9931273 51.9511108,65.9951399 C52.3435865,63.5902926 52.7869386,61.4612528 53.01346,59.3104386 C53.2000071,57.5358355 52.8705214,55.7733292 52.074668,54.151146 C49.7452523,49.4055646 44.657605,49.4309679 41.6631611,53.4422725 C40.5814304,54.8902616 39.8110152,56.5705095 38.7765269,58.3547901 C37.2998978,56.9370431 35.7336293,55.4757475 34.2364073,53.9467098 C34.0110972,53.7156606 33.9178237,53.0418679 34.0862006,52.7854154 C39.715319,44.2269171 46.411632,36.7571324 55.730506,32.0478414 C61.3099592,29.2280733 67.2431251,28.051053 73.4900293,28.510732 C74.0036394,28.5482322 74.3682541,28.563958 74.5354196,27.8708104 C75.7140579,22.9522445 76.9617429,18.0494044 78.1331131,13.1296288 C78.1985257,12.8550311 77.8496585,12.3590616 77.5613585,12.1449479 C75.5226655,10.6292167 74.5111928,8.59332233 74.7570957,6.10500701 C75.0344936,3.29491634 76.5002206,1.20579599 79.268143,0.294905649 C83.5962773,-1.13009943 87.9704427,2.83160824 87.1697439,7.3969471 C86.6222161,10.521555 84.7664362,12.5405138 81.8265028,13.1259998 C81.6242083,14.9864903 81.4001095,16.8723841 81.2171965,18.7631167 C80.8986129,22.0437735 80.5885086,25.32564 80.3268582,28.6111356 C80.3038427,28.9026689 80.6018334,29.419203 80.8598498,29.5038808 C87.6021939,31.7309048 92.9660278,35.945436 97.6212251,41.1398093 C103.681582,47.9019302 108.008505,55.6705063 110.867278,64.2749725 C111.147099,65.1169109 111.000526,65.6007836 110.27372,66.1028016 C108.491832,67.3342576 106.629995,68.3661161 104.659137,68.864505 C103.99532,66.7052231 103.451427,64.5652961 102.670109,62.5160952 C102.025674,60.8273795 100.910026,59.4410843 99.0324416,58.9088243 C96.1106784,58.0789826 92.8061303,59.9007633 91.6601983,63.0749682 C90.6584163,65.8511878 90.1423835,68.8028112 89.3295713,72" id="Fill-1"></path>
                        <path d="M29.5546935,80.1389903 C27.0606225,79.070675 24.6675801,78.0460636 22.0347467,76.9182626 C24.2780717,75.7601118 26.2901261,74.7148624 28.3082666,73.6805391 C33.087048,71.233126 37.8780014,68.8063508 42.6421762,66.3285878 C43.4248447,65.9206856 44.0407549,65.8794098 44.8623742,66.2788141 C53.1917682,70.325058 62.0603879,72.575804 71.1627127,74.0338115 C76.4149902,74.8751097 81.7001325,75.4335472 87.0157051,75.3777035 C90.4287726,75.3412836 93.8369712,74.9224555 97.2512559,74.7233604 C97.7125799,74.6966525 98.3406623,74.807126 98.6413141,75.1057687 C104.298924,80.7095677 109.9188,86.3510006 115.544762,91.9875774 C115.639705,92.082269 115.715172,92.1975985 116,92.5545129 C112.844982,92.975769 109.877415,93.3715313 106.721179,93.7915734 C106.935409,95.2702188 107.142335,96.7367243 107.361434,98.2020157 C107.746073,100.782968 108.141668,103.361493 108.527525,105.942445 C108.612729,106.510595 108.736885,106.925781 109.430697,107.147942 C110.968038,107.63961 111.764096,108.813542 111.689846,110.170788 C111.621682,111.441841 110.686862,112.453098 109.120308,112.828223 C107.79111,113.147503 106.469216,113.035816 105.254437,112.374189 C103.558858,111.449125 103.197345,109.460602 104.508285,108.05601 C104.962305,107.569198 105.013428,107.161296 104.849104,106.568866 C103.735354,102.54933 102.641079,98.5249383 101.566279,94.4944763 C101.403172,93.887479 101.119561,93.6810999 100.480524,93.6932398 C92.8802412,93.8486311 85.3359501,93.1105224 77.8050483,92.2170224 C75.144219,91.9001698 72.4979962,91.4643458 69.7422242,91.0697975 C69.177437,93.2392058 68.6150842,95.3479144 68.0977683,97.466335 C68.050297,97.6593601 68.2474856,97.9507188 68.3996373,98.14253 C68.5919571,98.3853289 68.8731335,98.5565021 69.0812771,98.7895891 C70.3909991,100.258523 69.9491505,102.06616 68.0770757,102.679228 C66.3839313,103.232809 64.7504304,102.936595 63.2666468,101.984823 C62.3878184,101.419101 61.9325805,100.587515 62.0701256,99.49492 C62.2101052,98.3792589 62.9185236,97.7419118 63.922725,97.474833 C64.6347951,97.2854498 64.8441559,96.9333914 64.8648485,96.2341305 C64.8928444,95.2629348 65.0596027,94.2965951 65.1630659,93.3278275 C65.2640946,92.3942656 65.3590373,91.4607038 65.4685865,90.4190964 C63.6488519,90.0536841 61.8352034,89.7501854 60.0532024,89.3180033 C55.6164581,88.2411901 51.1651072,87.2080807 46.7746171,85.9613083 C43.0901109,84.913631 39.4762032,83.6122288 35.8501233,82.3678843 C35.1258811,82.1190154 34.8227948,82.2853327 34.4551963,82.9105399 C32.2167401,86.7273389 29.9247265,90.512574 27.672881,94.320875 C27.5024711,94.6098057 27.3746636,95.0371318 27.4549997,95.3418445 C27.9418852,97.2004702 27.1446102,98.6584777 25.1727239,99.0590959 C23.4211532,99.4147963 21.6756686,99.3031088 20.2198809,98.0539084 C19.2059418,97.1846883 18.7567899,96.0593153 19.1304746,94.774909 C19.4919871,93.5354205 20.5363565,92.8155217 21.7426154,92.8907894 C23.4442803,92.9964069 24.0224568,92.090767 24.6115883,90.7517309 C26.1684047,87.2141507 27.8652008,83.7396982 29.5546935,80.1389903" id="Fill-3"></path>
                        <path d="M101,74.3250138 C103.787501,73.4344922 106.343619,72.7568684 108.785863,71.7897035 C110.543648,71.0926149 112.214211,70.1072015 113.804819,69.0670431 C115.206443,68.1521902 115.408752,66.9331974 114.757003,65.403982 C113.735767,63.0049264 112.7218,60.6022211 111.619398,58 C112.124565,58.1824839 112.462554,58.2834584 112.782371,58.4221462 C120.149079,61.6362968 127.464907,64.9550715 134.090219,69.5901637 C136.523983,71.2933472 138.813586,73.1704987 140.516857,75.6632294 C142.994232,79.2885772 142.330368,83.0076 138.807529,85.6341522 C135.491844,88.107418 131.615267,89.2205701 127.728999,90.2716776 C125.221338,90.9505179 122.64826,91.3884793 120.105468,91.942014 C119.419798,92.0916508 118.906152,91.9639121 118.359797,91.4152437 C112.972566,86.0003367 107.547781,80.6231431 102.12663,75.2422998 C101.808024,74.9259943 101.427635,74.6705168 101,74.3250138" id="Fill-5"></path>
                        <path d="M36.0804808,45 C35.0066464,46.4615631 34.0709803,47.7478846 33.1219821,49.0232535 C32.3935685,50.0029024 31.6518228,50.9715986 30.9100771,51.9402949 C30.0640992,53.0428562 29.9477469,53.7754631 30.9282572,54.8220445 C32.8056494,56.8263695 34.7787899,58.7479416 36.8040465,60.6025812 C38.0814974,61.772075 39.5249927,62.7590256 41,63.9102651 C39.2110839,64.860707 37.4985241,65.8001963 35.7605121,66.6897905 C30.43982,69.4109021 25.113068,72.121061 19.7741958,74.805664 C19.4251391,74.9809055 18.8688298,75.0770449 18.5452251,74.9224916 C14.0511189,72.7769998 9.58610073,70.5670094 5.66042383,67.4370009 C3.49457491,65.7113586 1.47416633,63.8433325 0.471840055,61.1429092 C-0.540182241,58.4193637 0.075515156,56.136356 2.32135625,54.3145742 C5.02533439,52.1228381 8.21896163,50.9119678 11.464705,49.8568677 C17.9319517,47.7539694 24.5749387,46.437224 31.31125,45.5780537 C32.8226174,45.3845578 34.3376209,45.2105332 36.0804808,45" id="Fill-7"></path>
                    </g>
                </g>
            </g>
        </g>
    </g>
</svg>