<?xml version="1.0" encoding="UTF-8"?>
<svg width="360px" height="262px" viewBox="0 0 360 262" version="1.1" xmlns="http://www.w3.org/2000/svg" xmlns:xlink="http://www.w3.org/1999/xlink">
    <!-- Generator: Sketch 64 (93537) - https://sketch.com -->
    <title>Routine</title>
    <desc>Created with Sketch.</desc>
    <g id="Routine" stroke="none" stroke-width="1" fill="none" fill-rule="evenodd">
        <rect id="Rectangle" fill="#87C9C8" x="0" y="0" width="360" height="264"></rect>
        <g id="Group-38" transform="translate(95.000000, 46.000000)">
            <path d="M170,85 C170,38.0558761 131.944519,0 84.9992841,0 C38.0554807,0 0,38.0558761 0,85 C0,131.944124 38.0554807,170 84.9992841,170 C131.944519,170 170,131.944124 170,85" id="Fill-4" fill="#E95A0C"></path>
            <path d="M159,85 C159,44.1315436 125.869011,11 84.9996426,11 C44.1309888,11 11,44.1315436 11,85 C11,125.868456 44.1309888,159 84.9996426,159 C125.869011,159 159,125.868456 159,85" id="Fill-6" fill="#FEFEFE"></path>
            <path d="M84.9996278,34 L84.9996278,34 C83.3427614,34 82,32.7018783 82,31.1009815 L82,19.8990185 C82,18.2981217 83.3427614,17 84.9996278,17 C86.6572386,17 88,18.2981217 88,19.8990185 L88,31.1009815 C88,32.7018783 86.6572386,34 84.9996278,34" id="Fill-8" fill="#1D1D1B"></path>
            <path d="M59.4739824,40.5985355 L59.4739824,40.5985355 C58.0136614,41.4248029 56.1475694,40.934833 55.3049891,39.503527 L49.4091984,29.4888393 C48.5666181,28.0575333 49.0670184,26.22757 50.5265824,25.4013025 C51.9853894,24.5750351 53.8522384,25.0657474 54.6948187,26.496311 L60.5906095,36.5109988 C61.4331897,37.9423048 60.9335464,39.7722681 59.4739824,40.5985355" id="Fill-10" fill="#1D1D1B"></path>
            <path d="M40.5987289,59.4739534 L40.5987289,59.4739534 C39.7724717,60.9335452 37.942531,61.433198 36.5105003,60.5906017 L26.4966785,54.6946987 C25.0653902,53.8521024 24.5754263,51.9859749 25.4009412,50.5263831 C26.2279408,49.0667912 28.0578815,48.5663814 29.4891698,49.4097348 L39.5029916,55.3056378 C40.9342799,56.147477 41.4249861,58.0143616 40.5987289,59.4739534" id="Fill-12" fill="#1D1D1B"></path>
            <path d="M34,85 L34,85 C34,86.6566609 32.7018783,88 31.1017007,88 L19.8997377,88 C18.2981217,88 17,86.6566609 17,85 C17,83.3433391 18.2981217,82 19.8997377,82 L31.1017007,82 C32.7018783,82 34,83.3433391 34,85" id="Fill-14" fill="#1D1D1B"></path>
            <path d="M40.5990588,110.526047 L40.5990588,110.526047 C41.4245737,111.985638 40.9346098,113.851766 39.5033215,114.694362 L29.4894997,120.590265 C28.057469,121.433619 26.2282707,120.933209 25.4012711,119.473617 C24.5750139,118.014025 25.0657201,116.147898 26.4970084,115.305301 L36.5108302,109.409398 C37.9421185,108.566802 39.7728016,109.066455 40.5990588,110.526047" id="Fill-16" fill="#1D1D1B"></path>
            <path d="M59.473783,129.401435 L59.473783,129.401435 C60.9333193,130.227695 61.432953,132.058385 60.5911458,133.488937 L54.6947103,143.50354 C53.8521461,144.934834 51.9853326,145.424799 50.5265534,144.598539 C49.0670172,143.772278 48.5666264,141.942331 49.4091906,140.511037 L55.3048691,130.497176 C56.1474333,129.06514 58.0142468,128.575174 59.473783,129.401435" id="Fill-18" fill="#1D1D1B"></path>
            <path d="M85.0003722,136 L85.0003722,136 C86.6572386,136 88,137.298122 88,138.899019 L88,150.100981 C88,151.702598 86.6572386,153 85.0003722,153 C83.3427614,153 82,151.702598 82,150.100981 L82,138.899019 C82,137.298122 83.3427614,136 85.0003722,136" id="Fill-20" fill="#1D1D1B"></path>
            <path d="M110.526751,129.401464 L110.526751,129.401464 C111.986318,128.575197 113.852414,129.065167 114.694997,130.496473 L120.590801,140.511161 C121.433383,141.942467 120.932981,143.77243 119.473414,144.598697 C118.014604,145.424965 116.148508,144.934253 115.305168,143.503689 L109.409364,133.489001 C108.566782,132.057695 109.066427,130.227732 110.526751,129.401464" id="Fill-22" fill="#1D1D1B"></path>
            <path d="M129.400941,110.526047 L129.400941,110.526047 C130.227198,109.066455 132.057882,108.566802 133.48917,109.409398 L143.502992,115.305301 C144.93428,116.147898 145.424986,118.014025 144.598729,119.473617 C143.771729,120.933209 141.942531,121.433619 140.5105,120.590265 L130.496679,114.694362 C129.06539,113.851766 128.575426,111.985638 129.400941,110.526047" id="Fill-24" fill="#1D1D1B"></path>
            <path d="M136,85 L136,85 C136,83.3433391 137.298122,82 138.898299,82 L150.100981,82 C151.701878,82 153,83.3433391 153,85 C153,86.6566609 151.701878,88 150.100981,88 L138.898299,88 C137.298122,88 136,86.6566609 136,85" id="Fill-26" fill="#1D1D1B"></path>
            <path d="M128.401465,59.4739534 L128.401465,59.4739534 C127.575196,58.0143616 128.065167,56.147477 129.496475,55.3056378 L139.51118,49.4097348 C140.942488,48.5663814 142.771712,49.0667912 143.598723,50.5263831 C144.424992,51.9859749 143.934279,53.8521024 142.502971,54.6946987 L132.489009,60.5906017 C131.0577,61.433198 129.226992,60.9335452 128.401465,59.4739534" id="Fill-28" fill="#1D1D1B"></path>
            <path d="M110.526018,40.5985654 L110.526018,40.5985654 C109.066454,39.772305 108.56681,37.9416148 109.409391,36.5110633 L115.305181,26.4964603 C116.148519,25.0651664 118.014611,24.5752007 119.473418,25.4014611 C120.932982,26.2277215 121.433382,28.0576694 120.590802,29.4889632 L114.695011,39.5028238 C113.852431,40.9348601 111.986339,41.4248258 110.526018,40.5985654" id="Fill-30" fill="#1D1D1B"></path>
            <path d="M85.6019471,89 L83.3980529,89 C82.0736591,89 81,87.7979788 81,86.315246 L81,42.6854738 C81,41.2020212 82.0736591,40 83.3980529,40 L85.6019471,40 C86.9269838,40 88,41.2020212 88,42.6854738 L88,86.315246 C88,87.7979788 86.9269838,89 85.6019471,89" id="Fill-32" fill="#2FAB66"></path>
            <path d="M83.3872599,88.1985779 L81.8014221,86.6127401 C80.7328593,85.5441773 80.7328593,83.8116601 81.8014221,82.7430973 L103.743097,60.8014221 C104.810951,59.7328593 106.544177,59.7328593 107.61274,60.8014221 L109.198578,62.3872599 C110.267141,63.4565313 110.267141,65.1890485 109.198578,66.2576113 L87.2576113,88.1985779 C86.1883399,89.2671407 84.4558227,89.2671407 83.3872599,88.1985779" id="Fill-34" fill="#2FAB66"></path>
            <path d="M95,84.5 C95,78.7015367 90.2990377,74 84.4996299,74 C78.7009623,74 74,78.7015367 74,84.5 C74,90.2984633 78.7009623,95 84.4996299,95 C90.2990377,95 95,90.2984633 95,84.5" id="Fill-36" fill="#FFDD00"></path>
        </g>
        <g id="Star-1" transform="translate(8.000000, 8.000000)">
            <polygon id="Star" fill="#0051A9" points="49.0789474 75.5063477 20.27747 88.6418327 23.8699127 57.1909119 2.47717807 33.8581673 33.4989071 27.5559143 49.0789474 0 64.6589876 27.5559143 95.6807167 33.8581673 74.287982 57.1909119 77.8804247 88.6418327"></polygon>
            <path d="M47.5058947,64.768 C49.2338947,64.768 50.8258947,64.568 52.2818947,64.168 C53.7378947,63.768 54.9938947,63.184 56.0498947,62.416 C57.1058947,61.648 57.9298947,60.72 58.5218947,59.632 C59.1138947,58.544 59.4098947,57.312 59.4098947,55.936 C59.4098947,54.912 59.2818947,54.016 59.0258947,53.248 C58.7698947,52.48 58.4178947,51.808 57.9698947,51.232 C57.5218947,50.656 57.0098947,50.176 56.4338947,49.792 C55.8578947,49.408 55.2338947,49.088 54.5618947,48.832 C55.6818947,48.288 56.6498947,47.48 57.4658947,46.408 C58.2818947,45.336 58.6898947,44.032 58.6898947,42.496 C58.6898947,39.936 57.7298947,37.896 55.8098947,36.376 C53.8898947,34.856 51.0898947,34.096 47.4098947,34.096 C44.6258947,34.096 42.4018947,34.472 40.7378947,35.224 C39.0738947,35.976 38.2418947,37.152 38.2418947,38.752 C38.2418947,39.52 38.4178947,40.184 38.7698947,40.744 C39.1218947,41.304 39.5698947,41.776 40.1138947,42.16 C40.7538947,41.712 41.5698947,41.336 42.5618947,41.032 C43.5538947,40.728 44.7058947,40.576 46.0178947,40.576 C47.4898947,40.576 48.5938947,40.832 49.3298947,41.344 C50.0658947,41.856 50.4338947,42.528 50.4338947,43.36 C50.4338947,45.12 49.2818947,46 46.9778947,46 L46.9778947,46 L42.4658947,46 C42.2098947,46.352 42.0098947,46.792 41.8658947,47.32 C41.7218947,47.848 41.6498947,48.48 41.6498947,49.216 C41.6498947,49.92 41.7298947,50.528 41.8898947,51.04 C42.0498947,51.552 42.2418947,51.984 42.4658947,52.336 L42.4658947,52.336 L46.9778947,52.336 C48.5138947,52.336 49.5938947,52.576 50.2178947,53.056 C50.8418947,53.536 51.1538947,54.24 51.1538947,55.168 C51.1538947,56.096 50.7618947,56.848 49.9778947,57.424 C49.1938947,58 47.9858947,58.288 46.3538947,58.288 C44.6258947,58.288 43.2258947,58.04 42.1538947,57.544 C41.0818947,57.048 40.2258947,56.576 39.5858947,56.128 C38.9778947,56.48 38.4658947,56.968 38.0498947,57.592 C37.6338947,58.216 37.4258947,58.96 37.4258947,59.824 C37.4258947,61.264 38.2738947,62.448 39.9698947,63.376 C41.6658947,64.304 44.1778947,64.768 47.5058947,64.768 Z" id="3" fill="#FFFEFF" fill-rule="nonzero"></path>
        </g>
    </g>
</svg>