<?xml version="1.0" encoding="UTF-8"?>
<svg width="360px" height="262px" viewBox="0 0 360 262" version="1.1" xmlns="http://www.w3.org/2000/svg" xmlns:xlink="http://www.w3.org/1999/xlink">
    <!-- Generator: Sketch 64 (93537) - https://sketch.com -->
    <title>Outside</title>
    <desc>Created with Sketch.</desc>
    <g id="Outside" stroke="none" stroke-width="1" fill="none" fill-rule="evenodd">
        <rect id="Rectangle" fill="#9DCE81" x="0" y="0" width="360" height="264"></rect>
        <g id="Group-31" transform="translate(53.000000, 7.000000)">
            <path d="M0.00490834663,185.334272 C0.255816404,169.267619 13.3165022,156.456412 26.4934279,147.202382 C39.6703536,137.947645 54.5816635,129.576195 62.1372564,115.381406 C67.4495611,105.40096 68.4652426,93.5896344 73.7286416,83.5837494 C80.6668873,70.394495 95.0969357,61.5425373 110.026674,61.0245773 C124.956412,60.5066173 139.847876,68.2138339 148.258966,80.5219204 C151.481079,85.2372643 153.808712,90.5525374 157.412149,94.9852292 C165.585089,105.039872 179.143338,109.124195 192.079988,110.201099 C203.735872,111.171303 216.506667,110.457606 225.856181,117.464552 C236.801159,125.667117 238.646822,141.036326 239.585246,154.653798 C240.573994,169.006166 240.655504,185.646603 229.658076,194.95999 C225.070144,198.84575 219.169552,200.79181 213.355432,202.34781 C198.870807,206.223677 183.882949,208.224854 168.885877,208.285624 C159.429336,208.323782 149.603522,207.658843 140.889074,211.318481 C124.032163,218.39821 115.344649,239.951848 97.3983438,243.47228 C76.6169194,247.550243 61.8735903,226.802871 43.0654089,222.108726 C23.3613298,217.191286 -0.392008354,210.606198 0.00490834663,185.334272" id="Fill-1" fill="#D2E8DC"></path>
            <path d="M134.595897,108.270143 C129.825503,104.487457 124.819979,99.6306386 125.004976,93.5575044 C125.249992,85.4839244 134.074797,80.9079572 141.449984,77.5644956 C142.91443,76.9014343 144.438895,76.164465 145.363882,74.8517164 C146.257095,73.5847204 146.455509,71.9671888 146.531767,70.4207498 C146.936361,62.2429946 144.672613,54.1595601 144.449486,45.9754699 C144.227065,37.7906758 146.725944,28.6528191 153.832108,24.5477521 C155.672904,23.4848832 157.780605,22.7831082 159.261291,21.2598975 C163.802203,16.5860901 159.422281,8.62653967 161.21365,2.36969112 C162.609605,-0.0925044251 166.199404,-0.598598936 168.730763,0.677547584 C171.262828,1.95299022 172.884028,4.51302601 174.013078,7.10684836 C175.956964,11.574417 176.806399,16.5100703 176.468884,21.3675922 C176.014864,27.8764321 173.485623,34.0966786 172.920745,40.596368 C172.356573,47.0967614 174.503815,54.6290525 180.462571,57.3256423 C183.471958,58.6869591 187.064582,58.6271288 189.828247,60.4318942 C194.160154,63.2615186 194.689727,69.4895078 193.351673,74.4779525 C192.012912,79.4656934 189.292319,84.0895249 188.690724,89.2180432 C187.865296,96.2604292 190.852794,104.467044 186.235623,109.860927 C182.108484,114.681143 167.822722,117.479797 161.755933,118.636986 C151.588131,120.576898 142.322015,114.398181 134.595897,108.270143" id="Fill-3" fill="#517261"></path>
            <path d="M164,85 C160.06587,103.54207 154.019816,121.679904 146,139" id="Stroke-5" stroke="#AE9D6C" stroke-width="3.33" stroke-linecap="round"></path>
            <path d="M51.9044762,172.075325 C44.5027174,171.781028 36.9453175,170.850032 30.3330327,167.496039 C23.7207479,164.142754 18.153583,157.978087 17.1683251,150.60369 C15.4950065,138.083345 26.8504735,127.040143 26.7793434,114.408022 C26.7096218,101.917389 15.458385,90.6308268 18.2676729,78.4627889 C21.5347289,64.3132002 40.7342292,60.4562152 48.019081,47.9082798 C51.3861418,42.1100683 51.80588,35.0915157 54.057395,28.7719179 C56.3082058,22.4509052 61.8267768,16.1914401 68.4489212,17.0856494 C71.8723227,17.5476104 74.8111942,19.8963247 76.803542,22.7296382 C84.2595287,33.3342247 79.4811335,48.0681622 82.2854916,60.7420226 C83.8679609,67.8914523 88.0209743,74.4388471 93.8050509,78.8992819 C98.820077,82.7668786 104.939381,85.0696091 109.689606,89.2590928 C120.235879,98.5598599 120.846472,116.99656 110.936848,126.98001 C108.432504,129.503463 105.370387,131.554344 103.512553,134.591401 C100.776508,139.0674 101.199767,144.816797 102.632934,149.867241 C103.668194,153.51553 105.193618,157.158867 104.912619,160.940863 C104.144273,171.273083 92.7719034,173.606941 84.587009,172.876859 C73.6717036,171.902708 62.997959,172.516062 51.9044762,172.075325" id="Fill-7" fill="#517261"></path>
            <path d="M66,106 C67.2246668,141.76336 68.7208566,178.693725 84,211" id="Stroke-9" stroke="#AE9D6C" stroke-width="4.129" stroke-linecap="round"></path>
            <path d="M41,87 C44.6355393,101.310871 53.2668062,114.2586 65,123" id="Stroke-11" stroke="#AE9D6C" stroke-width="4.129" stroke-linecap="round"></path>
            <path d="M36,140 C43.49879,150.688503 55.192973,158.363107 68,161" id="Stroke-13" stroke="#AE9D6C" stroke-width="4.129" stroke-linecap="round"></path>
            <path d="M68,143 C83.8844833,134.455847 96.0695318,119.31718 101,102" id="Stroke-15" stroke="#AE9D6C" stroke-width="4.129" stroke-linecap="round"></path>
            <path d="M192.592728,193.933504 C189.543175,174.56872 182.609148,154.134468 166.088021,143 C168.234646,146.925618 167.167483,151.79011 165.352944,155.871736 C163.538406,159.953363 161.006878,163.81686 160.227669,168.201326 C158.979631,175.221696 162.971182,182.819508 169.541287,185.929789 C170.455791,186.362518 171.454945,186.748656 172.067027,187.540697 C173.294806,189.12831 172.38392,191.350545 172.030852,193.309471 C171.287093,197.439101 173.647875,201.916042 177.525112,203.724608 C179.283218,204.544886 181.26995,204.853373 182.967281,205.786599 C188.944117,209.072654 186.968961,217.841586 194.181535,219 C196.29922,211.906921 193.774928,201.440958 192.592728,193.933504" id="Fill-17" fill="#81C8BC"></path>
            <path d="M190,186 C195.541344,203.136495 196.497045,221.469052 192.765597,239" id="Stroke-19" stroke="#B1DDE8" stroke-width="2.359" stroke-linecap="round"></path>
            <path d="M221.528215,185.536646 C230.920519,178.927723 242.460629,175.048104 253.843928,176.202008 C254.62727,181.694366 252.417734,187.529232 248.207978,191.085011 C243.996803,194.64079 237.928738,195.795413 232.72987,194.031167 C231.654193,197.731992 230.528848,201.532625 228.168887,204.561356 C225.808926,207.590805 221.889376,209.704742 218.188367,208.781331 C212.412636,207.340206 207.568543,199.868188 202,206.393099 C206.989551,198.330845 213.792709,190.980894 221.528215,185.536646" id="Fill-21" fill="#81C8BC"></path>
            <path d="M195,219 C196.745139,211.228246 201.192933,204.229098 206.631654,198.294014 C212.070374,192.358238 218.502864,187.37922 224.899101,182.43274 C226.160151,181.45729 227.461008,180.461071 229,180" id="Stroke-23" stroke="#B1DDE8" stroke-width="2.359" stroke-linecap="round"></path>
            <path d="M186.133004,162.171472 C184.639756,159.807992 183.012817,157.452986 182.311818,154.747024 C181.610112,152.041768 182.038776,148.838677 184.15026,147.004103 C187.680718,143.935886 193.226459,146.326906 196.761162,149.390885 C197.489748,150.022889 198.331512,150.725507 199.289284,150.600518 C200.233616,150.477648 200.866708,149.600612 201.383084,148.800545 L208.349921,138 C213.716699,141.578056 210.420378,151.269947 215.383958,155.388913 C216.48674,156.303376 217.907129,156.829456 218.858535,157.900684 C220.703342,159.978174 220.08935,163.306959 218.593273,165.647842 C217.095781,167.987313 214.884558,169.812001 213.440119,172.185367 C209.640862,178.429134 212.352899,200.792159 201.435429,195.07306 C194.653922,191.520426 190.473395,169.03665 186.133004,162.171472" id="Fill-25" fill="#81C8BC"></path>
            <path d="M204,162 C202.825582,166.651104 203.349351,171.495976 203.494026,176.268007 C203.914897,190.192326 200.9951,204.193728 195,217" id="Stroke-27" stroke="#B1DDE8" stroke-width="2.359" stroke-linecap="round"></path>
            <path d="M202.816153,218.235653 C207.097952,214.979877 213.27023,213.838831 218,216.413099 C215.763719,217.36409 214.680588,219.820637 213.582452,221.975789 C212.485031,224.130942 210.768882,226.427927 208.336838,226.474732 C207.282285,226.494588 206.126278,226.090364 205.23248,226.647059 C204.637329,227.017952 204.352257,227.711515 203.987879,228.308632 C202.165988,231.287834 195.971562,234.090454 195.059188,229.801424 C194.335433,226.402397 200.442695,220.039769 202.816153,218.235653" id="Fill-29" fill="#81C8BC"></path>
        </g>
        <g id="Star-1" transform="translate(8.000000, 8.000000)">
            <polygon id="Star" fill="#0051A9" points="49.0789474 75.5063477 20.27747 88.6418327 23.8699127 57.1909119 2.47717807 33.8581673 33.4989071 27.5559143 49.0789474 0 64.6589876 27.5559143 95.6807167 33.8581673 74.287982 57.1909119 77.8804247 88.6418327"></polygon>
            <path d="M54.2258947,64.384 C54.8658947,64.384 55.5378947,64.328 56.2418947,64.216 C56.9458947,64.104 57.4738947,64.016 57.8258947,63.952 L57.8258947,63.952 L57.8258947,58.288 L60.0818947,58.288 C60.9138947,58.288 61.6018947,58.032 62.1458947,57.52 C62.6898947,57.008 62.9618947,56.144 62.9618947,54.928 C62.9618947,54.288 62.8658947,53.68 62.6738947,53.104 C62.4818947,52.528 62.2898947,52.064 62.0978947,51.712 L62.0978947,51.712 L57.8258947,51.712 L57.8258947,38.944 C57.8258947,38.08 57.6658947,37.36 57.3458947,36.784 C57.0258947,36.208 56.5938947,35.752 56.0498947,35.416 C55.5058947,35.08 54.8898947,34.84 54.2018947,34.696 C53.5138947,34.552 52.8018947,34.48 52.0658947,34.48 C51.4258947,34.48 50.7138947,34.544 49.9298947,34.672 C49.1458947,34.8 48.4498947,34.96 47.8418947,35.152 L47.8418947,35.152 L36.1778947,49.888 C35.7938947,50.432 35.5218947,51.072 35.3618947,51.808 C35.2018947,52.544 35.1218947,53.216 35.1218947,53.824 C35.1218947,54.912 35.3858947,55.832 35.9138947,56.584 C36.4418947,57.336 37.0738947,57.904 37.8098947,58.288 L37.8098947,58.288 L49.8578947,58.288 L49.8578947,60.976 C49.8578947,61.744 49.9538947,62.352 50.1458947,62.8 C50.3378947,63.248 50.6178947,63.592 50.9858947,63.832 C51.3538947,64.072 51.8098947,64.224 52.3538947,64.288 C52.8978947,64.352 53.5218947,64.384 54.2258947,64.384 Z M50.2898947,51.712 L43.7618947,51.712 L50.1458947,42.688 L50.2898947,42.688 L50.2898947,51.712 Z" id="4" fill="#FFFEFF" fill-rule="nonzero"></path>
        </g>
    </g>
</svg>