<?xml version="1.0" encoding="UTF-8"?>
<svg width="360px" height="262px" viewBox="0 0 360 262" version="1.1" xmlns="http://www.w3.org/2000/svg" xmlns:xlink="http://www.w3.org/1999/xlink">
    <!-- Generator: Sketch 64 (93537) - https://sketch.com -->
    <title>Reward</title>
    <desc>Created with Sketch.</desc>
    <defs>
        <polygon id="path-1" points="0 0.347013423 385.272399 0.347013423 385.272399 270 0 270"></polygon>
    </defs>
    <g id="Reward" stroke="none" stroke-width="1" fill="none" fill-rule="evenodd">
        <rect id="Rectangle" fill="#CFD1CF" x="0" y="0" width="360" height="264"></rect>
        <g id="Group-24" transform="translate(-13.000000, 8.000000)">
            <g id="Group-3">
                <mask id="mask-2" fill="white">
                    <use xlink:href="#path-1"></use>
                </mask>
                <g id="Clip-2"></g>
            </g>
            <path d="M233.371412,154.693901 C232.098209,155.625496 231.003924,156.931547 230,158.429371 L254.716762,226.360392 L268,228 L240.347371,152 C237.684398,152.569864 235.225644,153.336953 233.371412,154.693901" id="Fill-4" fill="#FCC75C"></path>
            <path d="M217.727144,175.971174 C217.35706,176.091262 216.980658,176.170718 216.599742,176.232117 C216.495035,176.249272 216.389426,176.261913 216.282914,176.274554 C215.969697,176.312476 215.653772,176.334146 215.333333,176.336855 C215.257511,176.337758 215.182592,176.344078 215.105867,176.343175 C214.713217,176.337758 214.315152,176.307059 213.913475,176.255592 C213.829529,176.244757 213.744681,176.228505 213.660735,176.215864 C213.323146,176.165301 212.98285,176.101194 212.639845,176.023543 C212.54597,176.001874 212.452998,175.982009 212.359123,175.959437 C211.508833,175.749058 210.643198,175.463737 209.766731,175.124241 C209.699033,175.098056 209.632237,175.071872 209.565442,175.045687 C207.066022,174.057899 204.482656,172.668314 201.907415,171.431322 L199,179.375161 L220.814184,239 L234.70677,223.995373 L255,226.48561 L230.309994,159 C226.316699,164.921311 223.809155,173.995598 217.727144,175.971174" id="Fill-6" fill="#E59400"></path>
            <polygon id="Fill-8" fill="#FCC75C" points="193 196.460404 211.96444 249 221 239.10923 199.302626 179"></polygon>
            <path d="M202,170.847033 C199.688464,169.743602 197.384266,168.759634 195.155285,168.300024 C194.29488,168.122198 193.441813,168 192.607092,168 C191.773288,168 190.92389,168.108519 190.064402,168.286345 L164,239.090101 L173.231467,249 L192.607092,196.362721 L199.046371,178.870158 L202,170.847033 Z" id="Fill-10" fill="#FCC75C"></path>
            <path d="M183.235778,171.416875 C177.674506,174.087696 172.069787,177.490779 167.37656,175.970272 C161.277626,173.995598 158.763106,164.922214 154.758701,159 L130,226.48561 L150.349691,223.99447 L164.28093,239 L190,168.895036 C187.796853,169.351911 185.520389,170.319835 183.235778,171.416875" id="Fill-12" fill="#E59400"></path>
            <path d="M151.627604,154.693901 C149.774232,153.336953 147.314515,152.569864 144.652383,152 L117,228 L130.28265,226.361301 L155,158.429371 C153.996053,156.931547 152.900837,155.625496 151.627604,154.693901" id="Fill-14" fill="#FCC75C"></path>
            <path d="M128.827345,97.9993727 C128.827345,62.8497579 157.391017,34.2535688 192.500454,34.2535688 C227.608983,34.2535688 256.172655,62.8497579 256.172655,97.9993727 C256.172655,133.149896 227.608983,161.746993 192.500454,161.746993 C157.391017,161.746993 128.827345,133.149896 128.827345,97.9993727 M154.662027,158.548849 C158.675674,164.506426 161.195998,173.63399 167.309008,175.621363 C172.013069,177.15095 177.630724,173.727546 183.204831,171.040777 C185.494715,169.936278 187.776434,168.963482 189.984666,168.503879 C190.834754,168.325852 191.674862,168.218671 192.500454,168.218671 C193.325138,168.218671 194.168875,168.339476 195.01987,168.516596 C197.225381,168.97529 199.50347,169.954444 201.789725,171.054402 C204.378093,172.298781 206.975532,173.696663 209.487691,174.69035 C209.554827,174.716691 209.621963,174.743031 209.689099,174.769372 C210.57094,175.109987 211.440987,175.39792 212.295611,175.609555 C212.389965,175.632263 212.483411,175.652245 212.577764,175.674045 C212.922517,175.752159 213.263641,175.816649 213.60295,175.867514 C213.688231,175.88023 213.773512,175.89658 213.857886,175.907479 C214.261609,175.959253 214.660796,175.990135 215.056355,175.995585 C215.132563,175.996493 215.207865,175.990135 215.28498,175.989227 C215.606145,175.986502 215.924587,175.964703 216.239401,175.926554 C216.345549,175.913838 216.451696,175.901121 216.557844,175.883863 C216.940701,175.822099 217.319022,175.742168 217.690992,175.621363 C223.804002,173.63399 226.324326,164.505518 230.337973,158.548849 C231.345922,157.051961 232.444594,155.747634 233.722901,154.815712 C235.584566,153.459612 238.054084,152.693002 240.726825,152.123494 C247.288014,150.723795 255.112086,150.541225 258.437136,145.966998 C263.070431,139.592508 256.738775,127.364897 259.222809,119.706063 C261.618841,112.317904 274,106.188657 274,97.9993727 C274,89.8109966 261.618841,83.6817496 259.222809,76.2935909 C256.738775,68.6356653 263.071338,56.4071454 258.438043,50.0335641 C253.758478,43.5954932 240.154354,45.8698907 233.723808,41.1848498 C227.357677,36.5452242 225.339966,22.8643234 217.690992,20.3782906 C210.310561,17.9785469 200.679259,27.7809823 192.500454,27.7809823 C184.320741,27.7809823 174.689439,17.9785469 167.309008,20.3782906 C159.660034,22.8643234 157.64323,36.5452242 151.277099,41.1839415 C144.846553,45.8689824 131.242429,43.5954932 126.562864,50.0326558 C121.928662,56.4071454 128.261225,68.6356653 125.777191,76.2935909 C123.381159,83.6817496 111,89.8109966 111,97.9993727 C111,106.188657 123.381159,112.317904 125.777191,119.706063 C128.260318,127.363988 121.928662,139.592508 126.561957,145.96609 C129.887006,150.540317 137.711079,150.722887 144.273175,152.122586 C146.945916,152.693002 149.414527,153.459612 151.276192,154.815712 C152.554499,155.746726 153.653171,157.051961 154.662027,158.548849" id="Fill-16" fill="#E6E137"></path>
            <path d="M182.002003,84.0505756 L190.136972,59.0157691 C190.880652,56.7255618 194.120258,56.7255618 194.863938,59.0157691 L202.997997,84.0505756 L229.321728,84.0505756 C231.729359,84.0505756 232.730642,87.1317966 230.782691,88.5463364 L209.486311,104.01889 L217.621281,129.054607 C218.364961,131.344814 215.74433,133.248162 213.79638,131.833622 L192.5,116.361069 L171.20362,131.833622 C169.25567,133.248162 166.635039,131.344814 167.379629,129.054607 L175.513689,104.01889 L154.217309,88.5463364 C152.269358,87.1317966 153.270641,84.0505756 155.678272,84.0505756 L182.002003,84.0505756 Z M140,98.5 C140,127.448913 163.551087,151 192.5,151 C221.448913,151 245,127.448913 245,98.5 C245,69.5510871 221.448913,46 192.5,46 C163.551087,46 140,69.5510871 140,98.5 L140,98.5 Z" id="Fill-18" fill="#F3E84D"></path>
            <path d="M244.684772,98.4990952 C244.684772,127.275049 221.275297,150.684691 192.500452,150.684691 C163.724703,150.684691 140.315228,127.275049 140.315228,98.4990952 C140.315228,69.7249508 163.724703,46.3153088 192.500452,46.3153088 C221.275297,46.3153088 244.684772,69.7249508 244.684772,98.4990952 M256,98.4990952 C256,63.4855162 227.513782,35 192.500452,35 C157.486218,35 129,63.4855162 129,98.4990952 C129,133.513579 157.486218,162 192.500452,162 C227.513782,162 256,133.513579 256,98.4990952" id="Fill-20" fill="#FFF7BC"></path>
            <path d="M155.021398,88.2397464 L176.148691,103.70799 L168.078311,128.736734 C167.340535,131.025393 169.940359,132.929121 171.872844,131.514065 L193.000137,116.045821 L214.12743,131.514065 C216.059914,132.929121 218.659738,131.025393 217.921962,128.736734 L209.851582,103.70799 L230.978875,88.2397464 C232.91136,86.8246906 231.918026,83.7452379 229.529512,83.7452379 L203.414783,83.7452379 L195.345306,58.7164946 C194.606627,56.4278351 191.393646,56.4278351 190.654967,58.7164946 L182.58549,83.7452379 L156.469859,83.7452379 C154.081344,83.7452379 153.088914,86.8246906 155.021398,88.2397464" id="Fill-22" fill="#FEFEFE"></path>
        </g>
        <g id="Star-1" transform="translate(8.000000, 8.000000)">
            <polygon id="Star" fill="#0051A9" points="49.0789474 75.5063477 20.27747 88.6418327 23.8699127 57.1909119 2.47717807 33.8581673 33.4989071 27.5559143 49.0789474 0 64.6589876 27.5559143 95.6807167 33.8581673 74.287982 57.1909119 77.8804247 88.6418327"></polygon>
            <path d="M51.1778947,64.384 C51.8818947,64.384 52.5778947,64.328 53.2658947,64.216 C53.9538947,64.104 54.4738947,64.016 54.8258947,63.952 L54.8258947,63.952 L54.8258947,38.944 C54.8258947,37.568 54.4258947,36.48 53.6258947,35.68 C52.8258947,34.88 51.7378947,34.48 50.3618947,34.48 L50.3618947,34.48 L48.5858947,34.48 L43.2098947,36.304 C40.8738947,37.072 39.7058947,38.416 39.7058947,40.336 C39.7058947,41.36 39.9458947,42.16 40.4258947,42.736 C40.9058947,43.312 41.3858947,43.76 41.8658947,44.08 L41.8658947,44.08 L46.6658947,42.592 L46.6658947,60.544 C46.6658947,61.344 46.7698947,61.992 46.9778947,62.488 C47.1858947,62.984 47.4818947,63.376 47.8658947,63.664 C48.2498947,63.952 48.7218947,64.144 49.2818947,64.24 C49.8418947,64.336 50.4738947,64.384 51.1778947,64.384 Z" id="1" fill="#FFFEFF" fill-rule="nonzero"></path>
        </g>
    </g>
</svg>