<?xml version="1.0" encoding="UTF-8"?>
<svg width="360px" height="262px" viewBox="0 0 360 262" version="1.1" xmlns="http://www.w3.org/2000/svg" xmlns:xlink="http://www.w3.org/1999/xlink">
    <!-- Generator: Sketch 64 (93537) - https://sketch.com -->
    <title>Communication</title>
    <desc>Created with Sketch.</desc>
    <defs>
        <polygon id="path-1" points="0 0.383454545 304.43789 0.383454545 304.43789 199.999818 0 199.999818"></polygon>
    </defs>
    <g id="Communication" stroke="none" stroke-width="1" fill="none" fill-rule="evenodd">
        <rect id="Rectangle" fill="#914389" x="0" y="0" width="360" height="264"></rect>
        <g id="Group-46" transform="translate(-132.000000, 26.000000)">
            <path d="M332.439465,147.087732 L322,177.803729 L332.45757,197.817919 C332.45757,197.817919 350.242319,210.618367 367.28566,204.198191 C377.601104,200.312891 392.688177,195.456267 403,192.225772 L387.980822,132 L332.439465,147.087732 Z" id="Fill-1" fill="#A09B91"></path>
            <path d="M427.27166,183.812418 L421.401428,168.229689 L433.968982,165.747274 L429.459831,149.14361 L441.975177,146.691357 L437.517317,130.057532 L447,127.517535 L433.478041,119 L388,131.305137 L403.19629,192 C410.003524,189.874958 414.760894,188.445467 414.760894,188.445467 C414.760894,188.445467 420.793247,187.068988 427.27166,183.812418" id="Fill-3" fill="#75736D"></path>
            <path d="M397.058046,201.244539 L330.854439,173.257058 C325.9859,171.197897 323.701703,165.5691 325.752855,160.683711 L379.411972,32.8747004 C381.464031,27.9893117 387.073415,25.69721 391.941954,27.7554609 L458.145561,55.7429418 C463.0141,57.8011927 465.298297,63.4299903 463.247145,68.3162889 L409.587121,196.1253 C407.536876,201.010688 401.926585,203.30279 397.058046,201.244539" id="Fill-5" fill="#78C2A5"></path>
            <path d="M446.146217,66.0613099 L436.447391,61.9927485 L392.64527,43.6188054 C392.122415,43.3989323 391.587698,43.2426588 391.051155,43.1399908 C387.452306,42.454023 383.737571,44.3320302 382.257516,47.8300118 L339.624292,148.592778 C337.923416,152.612276 339.817739,157.242332 343.852757,158.9359 L397.353704,181.378405 C401.390547,183.071973 406.041494,181.185789 407.741458,177.167198 L450.375595,76.4044325 C452.076471,72.3849337 450.18306,67.7548781 446.146217,66.0613099" id="Fill-7" fill="#FCFCFC"></path>
            <path d="M371.645556,180.246368 C370.681005,182.536688 368.042802,183.610495 365.754304,182.645918 C363.464044,181.681342 362.389384,179.04307 363.353936,176.753632 C364.319368,174.463312 366.957571,173.389505 369.246069,174.354082 C371.536329,175.318658 372.610989,177.95693 371.645556,180.246368" id="Fill-9" fill="#1D1D1B"></path>
            <path d="M440.591699,57.8614689 L402.061626,41.3831993 C401.178885,41.0056944 400.764593,39.9730538 401.136463,39.0769379 C401.508333,38.180822 402.525561,37.7611686 403.408301,38.1386734 L441.938374,54.6160268 C442.821115,54.9944479 443.235407,56.0270885 442.863537,56.9222881 C442.490764,57.818404 441.474439,58.2389737 440.591699,57.8614689" id="Fill-11" fill="#1D1D1B"></path>
            <path d="M312.172229,132.025717 C313.57467,127.710409 314.499027,123.044794 317.429338,119.578027 C319.758862,116.822764 323.097272,115.152 326.370241,113.629163 C334.108662,110.029897 342.037044,106.839019 350.112669,104.073773 C355.377049,102.271417 361.474896,100.724985 366.253012,103.573723 C369.83319,105.707328 371.695538,109.775788 373.348837,113.598307 C375.512941,118.604246 377.678862,123.611093 379.843875,128.61794 C380.941833,131.156303 381.845285,134.581323 379.674819,136.298372 C378.545049,137.189567 376.968098,137.215885 375.53839,137.054345 C366.953778,136.078749 359.348966,129.270454 357.4439,120.856737 C352.557625,120.715163 348.478457,124.837167 346.573391,129.332166 C344.668325,133.826258 344.295674,138.807694 342.938678,143.496905 C340.594611,151.596616 335.186624,158.773368 328.041718,163.266553 C328.966075,176.3477 340.888187,186.426735 342.81234,199.398071 C343.010482,200.733048 342.037044,199.808275 341.099962,200.78024 C340.517354,201.385563 339.671163,201.645117 338.864055,201.88289 C325.664021,205.767121 313.464692,212.10713 300.26375,215.991361 C298.614086,216.477798 288.005342,196.267998 286.875572,194.039102 C283.719853,187.810719 277.539295,176.547356 279.314388,169.281666 C280.960416,162.544158 292.239932,159.214428 297.138933,154.841038 C304.010258,148.706131 309.323719,140.793371 312.172229,132.025717" id="Fill-13" fill="#A09B91"></path>
            <path d="M414.001709,119.633713 L414.001709,119.633713 C414.097105,114.771428 418.164594,110.906557 423.085194,111.00172 L443.26365,111.390452 C448.183341,111.485615 452.094563,115.504002 451.998259,120.366287 C451.902863,125.228572 447.836282,129.093443 442.915683,128.99828 L422.737227,128.609548 C417.816627,128.514385 413.906313,124.495998 414.001709,119.633713" id="Fill-15" fill="#A09B91"></path>
            <path d="M428.078439,119.52063 C428.118667,117.513345 428.826856,115.660537 430,114.110321 L424.268061,114.001279 C420.867441,113.936762 418.061813,116.32206 418.001004,119.329806 C417.940195,122.336645 420.648529,124.826441 424.049149,124.890958 L429.781088,125 C428.67156,123.405258 428.038212,121.527006 428.078439,119.52063" id="Fill-17" fill="#C0BCB7"></path>
            <path d="M408.001709,138.633696 L408.001709,138.633696 C408.097105,133.771403 412.164594,129.907423 417.085194,130.001689 L437.262741,130.390421 C442.183341,130.485584 446.094563,134.503979 445.998259,139.366272 C445.902863,144.228566 441.835374,148.093443 436.915683,147.99828 L416.737227,147.609548 C411.816627,147.514385 407.906313,143.49599 408.001709,138.633696" id="Fill-19" fill="#A09B91"></path>
            <path d="M422.078439,139.520195 C422.118667,137.51366 422.826856,135.659795 424,134.109456 L418.268061,134.001314 C414.867441,133.935883 412.060878,136.322279 412.001004,139.329356 C411.940195,142.336433 414.648529,144.826427 418.049149,144.890949 L423.781088,145 C422.67156,143.40604 422.038212,141.527639 422.078439,139.520195" id="Fill-21" fill="#C0BCB7"></path>
            <path d="M400.001709,157.633713 L400.001709,157.633713 C400.098013,152.771428 404.164591,148.906557 409.085186,149.00172 L429.263625,149.390452 C434.18422,149.485615 438.095439,153.504002 437.998226,158.366287 C437.902831,163.228572 433.836253,167.093443 428.915658,166.99828 L408.737219,166.609548 C403.816624,166.514385 399.906313,162.495998 400.001709,157.633713" id="Fill-23" fill="#A09B91"></path>
            <path d="M414.077509,158.52063 C414.118672,156.513345 414.825924,154.660537 416,153.110321 L410.268076,153.001279 C406.866529,152.936762 404.060908,155.32206 404.001035,158.329806 C403.93929,161.336645 406.648553,163.826441 410.048229,163.890958 L415.780153,164 C414.670628,162.406167 414.037281,160.527915 414.077509,158.52063" id="Fill-25" fill="#C0BCB7"></path>
            <path d="M392.001709,176.633713 L392.001709,176.633713 C392.097105,171.771428 396.163686,167.906557 401.084285,168.00172 L421.262741,168.390452 C426.183341,168.485615 430.094563,172.504002 429.998259,177.366287 C429.902863,182.228572 425.835374,186.093443 420.914774,185.99828 L400.737227,185.609548 C395.816627,185.514385 391.906313,181.495998 392.001709,176.633713" id="Fill-27" fill="#A09B91"></path>
            <path d="M406.078439,177.52063 C406.118667,175.513345 406.826856,173.660537 408,172.110321 L402.268061,172.001279 C398.866506,171.936762 396.060878,174.32206 396.001004,177.329806 C395.940195,180.336645 398.648529,182.826441 402.048214,182.890958 L407.780153,183 C406.670624,181.405258 406.038212,179.527915 406.078439,177.52063" id="Fill-29" fill="#C0BCB7"></path>
            <polygon id="Fill-31" fill="#36A9E0" points="309 221.751494 295.253958 228 266 162.248506 279.746042 156"></polygon>
            <g id="Group-35" transform="translate(0.000000, 152.000000)">
                <mask id="mask-2" fill="white">
                    <use xlink:href="#path-1"></use>
                </mask>
                <g id="Clip-34"></g>
                <polygon id="Fill-33" fill="#F8B133" mask="url(#mask-2)" points="304.43789 79.598 246.564191 102.345795 118.65206 102.379087 118.089698 57.9956534 268.312233 0.383454545"></polygon>
            </g>
            <path d="M376,48 C376,74.5095421 346.675308,96 310.500455,96 C274.325602,96 245,74.5095421 245,48 C245,21.4904579 274.325602,0 310.500455,0 C346.675308,0 376,21.4904579 376,48" id="Fill-36" fill="#C0E3E9"></path>
            <polygon id="Fill-38" fill="#C0E3E9" points="370.492688 60 390 92 356 72.9229198"></polygon>
            <path d="M300,46.4995418 C300,49.5375323 297.537532,52 294.500458,52 C291.462468,52 289,49.5375323 289,46.4995418 C289,43.4624677 291.462468,41 294.500458,41 C297.537532,41 300,43.4624677 300,46.4995418" id="Fill-40" fill="#FEFEFE"></path>
            <path d="M317,46.4995418 C317,49.5375323 314.537532,52 311.499542,52 C308.462468,52 306,49.5375323 306,46.4995418 C306,43.4624677 308.462468,41 311.499542,41 C314.537532,41 317,43.4624677 317,46.4995418" id="Fill-42" fill="#FEFEFE"></path>
            <path d="M335,46.4995418 C335,49.5375323 332.537532,52 329.499542,52 C326.462468,52 324,49.5375323 324,46.4995418 C324,43.4624677 326.462468,41 329.499542,41 C332.537532,41 335,43.4624677 335,46.4995418" id="Fill-44" fill="#FEFEFE"></path>
        </g>
        <g id="Star-1" transform="translate(8.000000, 8.000000)">
            <polygon id="Star" fill="#0051A9" points="49.0789474 75.5063477 20.27747 88.6418327 23.8699127 57.1909119 2.47717807 33.8581673 33.4989071 27.5559143 49.0789474 0 64.6589876 27.5559143 95.6807167 33.8581673 74.287982 57.1909119 77.8804247 88.6418327"></polygon>
            <path d="M56.7218947,64 C57.5538947,64 58.2258947,63.752 58.7378947,63.256 C59.2498947,62.76 59.5058947,61.936 59.5058947,60.784 C59.5058947,60.144 59.4178947,59.552 59.2418947,59.008 C59.0658947,58.464 58.8818947,58.016 58.6898947,57.664 L58.6898947,57.664 L47.1698947,57.664 L53.4578947,52.624 C57.2658947,49.584 59.1698947,46.384 59.1698947,43.024 C59.1698947,41.776 58.9138947,40.608 58.4018947,39.52 C57.8898947,38.432 57.1378947,37.488 56.1458947,36.688 C55.1538947,35.888 53.9538947,35.256 52.5458947,34.792 C51.1378947,34.328 49.5218947,34.096 47.6978947,34.096 C45.0418947,34.096 42.9298947,34.504 41.3618947,35.32 C39.7938947,36.136 39.0098947,37.376 39.0098947,39.04 C39.0098947,39.808 39.1858947,40.48 39.5378947,41.056 C39.8898947,41.632 40.3378947,42.112 40.8818947,42.496 C41.5538947,42.048 42.3938947,41.624 43.4018947,41.224 C44.4098947,40.824 45.5538947,40.624 46.8338947,40.624 C47.9858947,40.624 48.9538947,40.88 49.7378947,41.392 C50.5218947,41.904 50.9138947,42.608 50.9138947,43.504 C50.9138947,43.856 50.8418947,44.224 50.6978947,44.608 C50.5538947,44.992 50.3138947,45.408 49.9778947,45.856 C49.6418947,46.304 49.2018947,46.808 48.6578947,47.368 C48.1138947,47.928 47.4258947,48.56 46.5938947,49.264 L46.5938947,49.264 L39.9698947,54.928 C39.4258947,55.376 38.9298947,55.976 38.4818947,56.728 C38.0338947,57.48 37.8098947,58.4 37.8098947,59.488 C37.8098947,60.512 38.0098947,61.4 38.4098947,62.152 C38.8098947,62.904 39.3618947,63.52 40.0658947,64 L40.0658947,64 L56.7218947,64 Z" id="2" fill="#FFFEFF" fill-rule="nonzero"></path>
        </g>
    </g>
</svg>