<?xml version="1.0" encoding="UTF-8"?>
<svg width="360px" height="262px" viewBox="0 0 360 262" version="1.1" xmlns="http://www.w3.org/2000/svg" xmlns:xlink="http://www.w3.org/1999/xlink">
    <!-- Generator: Sketch 64 (93537) - https://sketch.com -->
    <title>Fun</title>
    <desc>Created with Sketch.</desc>
    <defs>
        <polygon id="path-1" points="0.344350707 0.166368876 82.6129536 0.166368876 82.6129536 85.6546542 0.344350707 85.6546542"></polygon>
        <polygon id="path-3" points="0.367660155 0.180336573 82.6358333 0.180336573 82.6358333 85.6681084 0.367660155 85.6681084"></polygon>
        <polygon id="path-5" points="0.117512295 0.467424207 54.3244932 0.467424207 54.3244932 91.8645533 0.117512295 91.8645533"></polygon>
        <polygon id="path-7" points="0 0.214292608 27.8481068 0.214292608 27.8481068 24.2393859 0 24.2393859"></polygon>
        <polygon id="path-9" points="0.413428962 0.348072622 56.5347814 0.348072622 56.5347814 58.5907781 0.413428962 58.5907781"></polygon>
    </defs>
    <g id="Fun" stroke="none" stroke-width="1" fill="none" fill-rule="evenodd">
        <rect id="Rectangle" fill="#F8B844" x="0" y="0" width="360" height="264"></rect>
        <g id="Group-78" transform="translate(47.000000, 11.000000)">
            <polygon id="Fill-1" fill="#B6A88E" points="160.517241 90.7857201 160.517241 59 119.517241 85.3986071 119.517241 104 160.517241 104"></polygon>
            <g id="Group-77" transform="translate(0.517241, 0.000000)">
                <g id="Group-4" transform="translate(83.989071, 0.000000)">
                    <mask id="mask-2" fill="white">
                        <use xlink:href="#path-1"></use>
                    </mask>
                    <g id="Clip-3"></g>
                    <path d="M76.5548798,65.9182421 C76.5548798,65.9182421 85.0978716,57.9166225 81.8939781,49.3826225 C78.6908087,40.8471758 69.0798525,29.645487 76.5548798,16.3099366 L82.6129536,4.57442075 C82.6129536,4.57442075 80.070112,-0.759510086 73.7738279,0.307420749 C67.4782678,1.37435159 58.4009317,8.84214409 58.4009317,15.2430058 L58.4009317,28.9221441 L46.1204262,21.1107637 L0.346382514,56.2413602 C0.346382514,56.2413602 -0.552155738,70.8716945 35.4422295,85.6546542 L61.6048251,81.7948963 L76.5548798,65.9182421 Z" id="Fill-2" fill="#B6A88E" mask="url(#mask-2)"></path>
                </g>
                <path d="M134.350366,33.028779 L134.350366,33.028779 C131.835762,35.9800182 127.314833,36.4451277 124.252128,34.0674994 L108.402087,21.7641594 C105.339383,19.3865311 104.894096,15.0660037 107.407975,12.1147646 C109.922579,9.1642487 114.444232,8.69913919 117.506937,11.0767674 L133.356254,23.3801075 C136.418959,25.7577357 136.86497,30.0775398 134.350366,33.028779" id="Fill-5" fill="#8D816B"></path>
                <path d="M132.411594,29.8111326 L131.047496,31.3757233 C128.876089,33.8669164 123.944627,33.3866167 120.032619,30.3030058 L109.754094,22.2001182 C105.84281,19.1165072 104.431649,14.5963372 106.603056,12.1051441 L107.967154,10.53983 C110.138561,8.04863689 115.070747,8.5289366 118.982755,11.6132709 L129.260556,19.7161585 C133.172564,22.8004928 134.583725,27.3199395 132.411594,29.8111326" id="Fill-7" fill="#B6A88E"></path>
                <path d="M124.835273,43.7256467 L124.835273,43.7256467 C122.320669,46.6761625 117.79974,47.141272 114.736311,44.7636438 L98.8869945,32.4603037 C95.8242896,30.0826755 95.3790027,25.7628715 97.8928825,22.8116323 C100.407486,19.8603931 104.929139,19.3952836 107.991844,21.7729118 L123.841161,34.0762519 C126.903866,36.4538801 127.349877,40.7744075 124.835273,43.7256467" id="Fill-9" fill="#8D816B"></path>
                <path d="M122.896501,40.5073493 L121.532403,42.0726634 C119.360996,44.5638565 114.429534,44.0835568 110.517526,40.9999458 L100.239001,32.8970582 C96.3277172,29.8127239 94.916556,25.2932772 97.0879631,22.8013608 L98.4520615,21.23677 C100.623469,18.7455769 105.555654,19.2258767 109.467663,22.310211 L119.745463,30.4130986 C123.657471,33.4967095 125.068633,38.0168795 122.896501,40.5073493" id="Fill-11" fill="#B6A88E"></path>
                <path d="M118.71276,56.7394542 L118.71276,56.7394542 C116.198156,59.6906934 111.677227,60.1558029 108.614522,57.7781746 L92.7644809,45.4741112 C89.701776,43.096483 89.2564891,38.776679 91.7710929,35.8254398 C94.2856967,32.8742006 98.8066257,32.4090911 101.869331,34.7867193 L117.719372,47.0907827 C120.782077,49.468411 121.227363,53.788215 118.71276,56.7394542" id="Fill-13" fill="#8D816B"></path>
                <path d="M116.774639,53.5218078 L115.409817,55.0863986 C113.23841,57.5775916 108.307672,57.0972919 104.39494,54.013681 L94.1171393,45.9107934 C90.2051311,42.8264591 88.7939699,38.3070124 90.9661011,35.815096 L92.3301995,34.2505052 C94.5016066,31.7593121 99.4337923,32.2396118 103.345077,35.3239461 L113.622877,43.4268337 C117.535609,46.511168 118.946046,51.0306147 116.774639,53.5218078" id="Fill-15" fill="#B6A88E"></path>
                <path d="M112.203462,69.9743876 L112.203462,69.9743876 C109.688858,72.9249035 105.242505,75.5195346 99.2351148,71.0123847 L86.2551831,59.6645807 C83.1924781,57.2869524 82.7464672,52.010889 85.261071,49.0603732 C87.7756749,46.109134 92.2973279,45.6440245 95.3600328,48.0216527 L111.20935,60.3249928 C114.272055,62.702621 114.718066,67.0231484 112.203462,69.9743876" id="Fill-17" fill="#8D816B"></path>
                <path d="M110.264617,66.7560179 L108.900519,68.321332 C106.729112,70.8125251 101.79765,70.331502 97.8856421,67.2486144 L87.6071175,59.1457268 C83.6958333,56.0613925 82.2846721,51.5419458 84.4560792,49.0500294 L85.8201776,47.4847153 C87.9915847,44.9942455 92.9237705,45.4745452 96.8357787,48.5588795 L107.113579,56.6610438 C111.025587,59.7453781 112.436749,64.2648248 110.264617,66.7560179" id="Fill-19" fill="#B6A88E"></path>
                <polygon id="Fill-21" fill="#CCCAC9" points="117.794238 95.2115334 162.946328 95.2115334 162.946328 89.1217092 117.794238 87.2099138"></polygon>
                <polygon id="Fill-23" fill="#BF60A1" points="167.485286 250.475938 111.363933 250.475938 113.832198 95.2118228 164.281392 95.2118228"></polygon>
                <polygon id="Fill-25" fill="#B9B5AA" points="258.313167 155.380356 258.313167 123.908429 217.199792 150.045702 217.199792 168.464184 258.313167 168.464184"></polygon>
                <g id="Group-29" transform="translate(181.734973, 64.377522)">
                    <mask id="mask-4" fill="white">
                        <use xlink:href="#path-3"></use>
                    </mask>
                    <g id="Clip-28"></g>
                    <path d="M76.578194,65.9316963 C76.578194,65.9316963 85.1211858,57.9300767 81.9172923,49.3960767 C78.7133989,40.8613533 69.1031667,29.6589412 76.578194,16.3241141 L82.6362678,4.58859827 C82.6362678,4.58859827 80.0934262,-0.746055908 73.7971421,0.321598271 C67.5008579,1.38852911 58.4242459,8.85632161 58.4242459,15.2564599 L58.4242459,28.9363216 L46.1437404,21.1249412 L0.369696721,56.2555378 C0.369696721,56.2555378 -0.529565574,70.885872 35.4648197,85.6681084 L61.6281393,81.8083504 L76.578194,65.9316963 Z" id="Fill-27" fill="#B9B5AA" mask="url(#mask-4)"></path>
                </g>
                <path d="M232.119654,97.4204058 L232.119654,97.4204058 C229.605051,100.370922 225.083398,100.836031 222.020693,98.4584029 L206.171376,86.1550628 C203.108671,83.7774346 202.66266,79.4576305 205.177264,76.5063914 C207.691867,73.5551522 212.212796,73.0900427 215.275501,75.4676709 L231.125542,87.771011 C234.188247,90.1486392 234.633534,94.4691666 232.119654,97.4204058" id="Fill-30" fill="#99948A"></path>
                <path d="M230.180883,94.2021084 L228.816784,95.7674225 C226.644653,98.2586156 221.713915,97.7775925 217.801183,94.6947049 L207.523383,86.5918173 C203.612098,83.507483 202.200213,78.9880363 204.372344,76.4961199 L205.736443,74.9315291 C207.90785,72.440336 212.840036,72.9206357 216.75132,76.00497 L227.02912,84.1078576 C230.941852,87.1914686 232.35229,91.7116386 230.180883,94.2021084" id="Fill-32" fill="#B9B5AA"></path>
                <path d="M222.604561,108.11655 L222.604561,108.11655 C220.089958,111.067789 215.568305,111.532899 212.5056,109.155271 L196.656283,96.8519305 C193.593578,94.4743023 193.147567,90.1537749 195.662171,87.2025357 C198.176775,84.2520199 202.697704,83.7869104 205.760408,86.1645386 L221.610449,98.4678787 C224.673154,100.845507 225.118441,105.165311 222.604561,108.11655" id="Fill-34" fill="#99948A"></path>
                <path d="M220.66579,104.898976 L219.301691,106.463567 C217.12956,108.95476 212.198822,108.47446 208.28609,105.390849 L198.00829,97.2879617 C194.097005,94.2043507 192.68512,89.6841807 194.857251,87.1929876 L196.22135,85.6276735 C198.392757,83.1364804 203.324943,83.6167801 207.236227,86.7011144 L217.514027,94.804002 C221.42676,97.8883363 222.837197,102.407783 220.66579,104.898976" id="Fill-36" fill="#B9B5AA"></path>
                <path d="M216.481975,121.130358 L216.481975,121.130358 C213.967372,124.081597 209.446443,124.546706 206.383738,122.169078 L190.533697,109.865738 C187.470992,107.48811 187.025705,103.167582 189.539585,100.217067 C192.054189,97.2658274 196.575842,96.8007179 199.638546,99.1783461 L215.487863,111.481686 C218.550568,113.859314 218.996579,118.179842 216.481975,121.130358" id="Fill-38" fill="#99948A"></path>
                <path d="M214.543928,117.912784 L213.179105,119.478098 C211.007698,121.968567 206.076236,121.488268 202.164228,118.404657 L191.886428,110.302493 C187.974419,107.218158 186.563258,102.698712 188.734665,100.206795 L190.098764,98.641481 C192.270895,96.1510112 197.202357,96.631311 201.114365,99.7156452 L211.392165,107.81781 C215.304173,110.902144 216.715335,115.42159 214.543928,117.912784" id="Fill-40" fill="#B9B5AA"></path>
                <path d="M209.971954,134.365291 L209.971954,134.365291 C207.458074,137.31653 203.010997,139.911161 197.003607,135.404012 L184.024399,124.056207 C180.96097,121.677856 180.515683,116.402516 183.030287,113.451277 C185.544891,110.500037 190.06582,110.034928 193.128525,112.41328 L208.978566,124.71662 C212.04127,127.094248 212.486557,131.414052 209.971954,134.365291" id="Fill-42" fill="#99948A"></path>
                <path d="M208.033906,131.147717 L206.669807,132.712308 C204.497676,135.203501 199.566939,134.723201 195.654206,131.63959 L185.376406,123.536703 C181.465122,120.453092 180.053236,115.932922 182.224643,113.441729 L183.589466,111.876414 C185.760873,109.385221 190.693059,109.865521 194.604343,112.949855 L204.882143,121.052743 C208.794876,124.137077 210.205313,128.656524 208.033906,131.147717" id="Fill-44" fill="#B9B5AA"></path>
                <polygon id="Fill-46" fill="#FEFEFE" points="215.563526 159.60316 260.715616 159.60316 260.715616 153.513336 215.563526 151.601541"></polygon>
                <g id="Group-50" transform="translate(209.972678, 159.135447)">
                    <mask id="mask-6" fill="white">
                        <use xlink:href="#path-5"></use>
                    </mask>
                    <g id="Clip-49"></g>
                    <polygon id="Fill-48" fill="#F5B4B5" mask="url(#mask-6)" points="54.3244932 91.864698 0.117512295 91.864698 1.62931557 0.467424207 52.0777855 0.467424207"></polygon>
                </g>
                <polygon id="Fill-51" fill="#F8D9A1" points="77.1071079 188.53478 77.1071079 157.062852 35.9944577 183.200126 35.9944577 201.618607 77.1071079 201.618607"></polygon>
                <path d="M77.1071079,163.463641 C77.1071079,163.463641 85.6500997,155.462022 82.4469303,146.928022 C79.2430369,138.393299 69.6320806,127.190886 77.1071079,113.856059 L83.1655663,102.120544 C83.1655663,102.120544 80.6223402,96.7858893 74.3267801,97.8535435 C68.0304959,98.9204744 58.9538839,106.388267 58.9538839,112.788405 L58.9538839,126.468267 L46.6733784,118.656886 L0.899334699,153.787483 C0.899334699,153.787483 7.24043716e-05,168.417817 35.9944577,183.200054 L62.1577773,179.340296 L77.1071079,163.463641 Z" id="Fill-53" fill="#F8D9A1"></path>
                <path d="M50.9135956,130.574829 L50.9135956,130.574829 C48.3989918,133.525345 43.8780628,133.990455 40.8153579,131.612827 L24.9653169,119.309486 C21.902612,116.931858 21.4573251,112.612054 23.971929,109.660815 C26.4858087,106.709576 31.0074617,106.244466 34.0701667,108.622095 L49.9202077,120.925435 C52.9829126,123.303063 53.4281995,127.62359 50.9135956,130.574829" id="Fill-55" fill="#E0C18C"></path>
                <path d="M48.9754754,127.356532 L47.610653,128.921846 C45.4392459,131.413039 40.5077842,130.932739 36.595776,127.849129 L26.3179754,119.746241 C22.4059672,116.661907 20.994806,112.14246 23.1662131,109.650544 L24.5310355,108.085953 C26.7024426,105.59476 31.6339044,106.075059 35.5459126,109.159394 L45.8237131,117.262281 C49.7364454,120.345892 51.1468825,124.866062 48.9754754,127.356532" id="Fill-57" fill="#F8D9A1"></path>
                <path d="M41.3985027,141.270974 L41.3985027,141.270974 C38.8838989,144.222213 34.3629699,144.687322 31.300265,142.309694 L15.450224,130.006354 C12.3875191,127.628726 11.9422322,123.308199 14.4568361,120.356959 C16.9707158,117.406444 21.4923689,116.941334 24.5550738,119.318962 L40.4051148,131.622302 C43.4678197,133.999931 43.9131066,138.319735 41.3985027,141.270974" id="Fill-59" fill="#E0C18C"></path>
                <path d="M39.4603825,138.053327 L38.0955601,139.617918 C35.924153,142.109111 30.9926913,141.628812 27.0806831,138.545201 L16.8028825,130.443036 C12.8908743,127.358702 11.4797131,122.838532 13.6511202,120.347339 L15.0159426,118.782025 C17.1873497,116.290832 22.1188115,116.771855 26.0308197,119.855466 L36.3086202,127.958353 C40.2213525,131.042688 41.6317896,135.562134 39.4603825,138.053327" id="Fill-61" fill="#F8D9A1"></path>
                <path d="M35.2766407,154.285505 L35.2766407,154.285505 C32.7620369,157.23602 28.2403839,157.70113 25.177679,155.323502 L9.32836202,143.020162 C6.2656571,140.642533 5.81964617,136.322006 8.33425,133.37149 C10.8488538,130.420251 15.3697828,129.955141 18.4324877,132.33277 L34.2825287,144.63611 C37.3452336,147.013738 37.7905205,151.334265 35.2766407,154.285505" id="Fill-63" fill="#E0C18C"></path>
                <path d="M33.3377964,151.067207 L31.9736981,152.632521 C29.8015669,155.123714 24.8708292,154.642691 20.958097,151.559804 L10.6802964,143.456916 C6.7690123,140.372582 5.35712705,135.853135 7.5292582,133.361219 L8.89335656,131.795905 C11.0647637,129.305435 15.9969495,129.785735 19.9082336,132.870069 L30.1860342,140.972233 C34.0987664,144.056567 35.5092036,148.576014 33.3377964,151.067207" id="Fill-65" fill="#F8D9A1"></path>
                <path d="M28.7666189,167.519715 L28.7666189,167.519715 C26.252015,170.470954 21.8056626,173.065585 15.7982719,168.558435 L2.81834016,157.210631 C-0.244364754,154.83228 -0.689651639,149.556939 1.82495219,146.6057 C4.33883197,143.654461 8.86048497,143.190075 11.9231899,145.567703 L27.7732309,157.871043 C30.8359358,160.248671 31.2812227,164.568476 28.7666189,167.519715" id="Fill-67" fill="#E0C18C"></path>
                <g id="Group-71" transform="translate(0.000000, 143.221902)">
                    <mask id="mask-8" fill="white">
                        <use xlink:href="#path-7"></use>
                    </mask>
                    <g id="Clip-70"></g>
                    <path d="M26.8284986,21.0801663 L25.4636762,22.6447571 C23.2922691,25.1359501 18.3608074,24.6556504 14.4487992,21.5720395 L4.17099863,13.4691519 C0.258990437,10.3855409 -1.15217077,5.86537089 1.01923634,3.37417781 L2.38405874,1.80886369 C4.55546585,-0.682329395 9.4869276,-0.202029683 13.3989358,2.88230461 L23.6767363,10.9851922 C27.5894686,14.0695265 28.9999057,18.5889732 26.8284986,21.0801663" id="Fill-69" fill="#F8D9A1" mask="url(#mask-8)"></path>
                </g>
                <polygon id="Fill-72" fill="#C3CD9B" points="34.3573948 192.757584 79.509485 192.757584 79.509485 186.66776 34.3573948 184.755964"></polygon>
                <g id="Group-76" transform="translate(27.513661, 192.409222)">
                    <mask id="mask-10" fill="white">
                        <use xlink:href="#path-9"></use>
                    </mask>
                    <g id="Clip-75"></g>
                    <polygon id="Fill-74" fill="#3084C5" mask="url(#mask-10)" points="56.5347814 58.5909228 0.413428962 58.5909228 2.88169399 0.348072622 53.330888 0.348072622"></polygon>
                </g>
            </g>
        </g>
        <g id="Star-1" transform="translate(8.000000, 8.000000)">
            <polygon id="Star" fill="#0051A9" points="49.0789474 75.5063477 20.27747 88.6418327 23.8699127 57.1909119 2.47717807 33.8581673 33.4989071 27.5559143 49.0789474 0 64.6589876 27.5559143 95.6807167 33.8581673 74.287982 57.1909119 77.8804247 88.6418327"></polygon>
            <path d="M48.1298947,64.768 C50.2418947,64.768 52.0418947,64.496 53.5298947,63.952 C55.0178947,63.408 56.2418947,62.68 57.2018947,61.768 C58.1618947,60.856 58.8658947,59.792 59.3138947,58.576 C59.7618947,57.36 59.9858947,56.096 59.9858947,54.784 C59.9858947,53.472 59.8018947,52.24 59.4338947,51.088 C59.0658947,49.936 58.4898947,48.928 57.7058947,48.064 C56.9218947,47.2 55.9218947,46.52 54.7058947,46.024 C53.4898947,45.528 52.0498947,45.28 50.3858947,45.28 C49.4258947,45.28 48.6338947,45.344 48.0098947,45.472 C47.3858947,45.6 46.7698947,45.744 46.1618947,45.904 L46.1618947,45.904 L46.4978947,41.392 L55.7138947,41.392 C56.5458947,41.392 57.2338947,41.136 57.7778947,40.624 C58.3218947,40.112 58.5938947,39.248 58.5938947,38.032 C58.5938947,37.392 58.4978947,36.784 58.3058947,36.208 C58.1138947,35.632 57.9218947,35.168 57.7298947,34.816 L57.7298947,34.816 L43.9058947,34.816 C42.5298947,34.816 41.4578947,35.216 40.6898947,36.016 C39.9218947,36.816 39.4898947,37.904 39.3938947,39.28 L39.3938947,39.28 L38.8178947,46.576 C38.7858947,47.024 38.7698947,47.32 38.7698947,47.464 L38.7698947,47.824 C38.7698947,49.456 39.2258947,50.664 40.1378947,51.448 C41.0498947,52.232 42.2898947,52.656 43.8578947,52.72 C44.5938947,52.368 45.2498947,52.096 45.8258947,51.904 C46.4018947,51.712 47.1218947,51.616 47.9858947,51.616 C49.3618947,51.616 50.3298947,51.92 50.8898947,52.528 C51.4498947,53.136 51.7298947,53.904 51.7298947,54.832 C51.7298947,55.792 51.4098947,56.608 50.7698947,57.28 C50.1298947,57.952 49.0578947,58.288 47.5538947,58.288 C45.9858947,58.288 44.6898947,58.04 43.6658947,57.544 C42.6418947,57.048 41.6818947,56.464 40.7858947,55.792 C40.1458947,56.144 39.5698947,56.624 39.0578947,57.232 C38.5458947,57.84 38.2898947,58.592 38.2898947,59.488 C38.2898947,60.352 38.5298947,61.112 39.0098947,61.768 C39.4898947,62.424 40.1618947,62.976 41.0258947,63.424 C41.8898947,63.872 42.9218947,64.208 44.1218947,64.432 C45.3218947,64.656 46.6578947,64.768 48.1298947,64.768 Z" id="5" fill="#FFFEFF" fill-rule="nonzero"></path>
        </g>
    </g>
</svg>