<?xml version="1.0" encoding="UTF-8"?>
<svg width="178px" height="91px" viewBox="0 0 178 91" version="1.1" xmlns="http://www.w3.org/2000/svg" xmlns:xlink="http://www.w3.org/1999/xlink">
    <!-- Generator: Sketch 58 (84663) - https://sketch.com -->
    <title>noun_people_2313468</title>
    <desc>Created with Sketch.</desc>
    <g id="UX" stroke="none" stroke-width="1" fill="none" fill-rule="evenodd">
        <g id="Desktop-HD" transform="translate(-971.000000, -1066.000000)" fill="#4E4E50" fill-rule="nonzero">
            <g id="noun_people_2313468" transform="translate(971.000000, 1066.000000)">
                <circle id="Oval" cx="89.5" cy="23.2236181" r="22.5"></circle>
                <circle id="Oval" cx="38" cy="32.7236181" r="19"></circle>
                <path d="M89,51.7236181 C71.6878571,51.7236181 55.4557143,60.1342848 45.5428571,74.2892848 C44.5335714,75.7712848 44,77.4749514 44,79.2482848 L44,83.3902848 C44,86.8926181 46.8735714,89.7236181 50.4285714,89.7236181 L127.571429,89.7236181 C131.126429,89.7236181 134,86.8926181 134,83.3902848 L134,79.2482848 C134,77.4939514 133.466429,75.7712848 132.412143,74.2259514 C122.544286,60.1342848 106.312143,51.7236181 89,51.7236181 Z" id="Path"></path>
                <path d="M50,60.6052181 C45.9969108,59.4084181 41.8200541,58.7236181 37.540224,58.7236181 C23.091775,58.7236181 9.55721457,65.8084181 1.28716695,77.7252181 C0.444072596,78.9732181 0,80.4260181 0,81.9044181 L0,84.3236181 C0,87.8564181 2.88325396,90.7236181 6.43583473,90.7236181 L37.540224,90.7236181 L37.540224,80.1380181 C37.540224,77.0852181 38.4541125,74.1284181 40.1789162,71.5620181 C43.0235552,67.4660181 46.33801,63.8052181 50,60.6052181 Z" id="Path"></path>
                <circle id="Oval" cx="141" cy="32.7236181" r="19"></circle>
                <path d="M176.719037,77.7252181 C168.447936,65.8084181 154.911652,58.7236181 140.461363,58.7236181 C136.180988,58.7236181 132.003599,59.4084181 128,60.5988181 C131.662456,63.7988181 134.977333,67.4596181 137.815898,71.5556181 C139.540921,74.1092181 140.454926,77.0788181 140.454926,80.1380181 L140.454926,90.7236181 L171.563277,90.7236181 C175.11631,90.7236181 178,87.8564181 178,84.3236181 L178,81.9044181 C178.006368,80.4260181 177.562239,78.9732181 176.719037,77.7252181 Z" id="Path"></path>
            </g>
        </g>
    </g>
</svg>