<svg xmlns="http://www.w3.org/2000/svg" xmlns:xlink="http://www.w3.org/1999/xlink" viewBox="0 0 1330.02 596.66"><defs><style>.a{fill:#f2f2f2;}.b{fill:url(#a);}.c{fill:#fff;}</style><linearGradient id="a" x1="665.01" y1="510.52" x2="665.01" y2="287.55" gradientTransform="matrix(1, 0, 0, -1, 0, 724.17)" gradientUnits="userSpaceOnUse"><stop offset="0" stop-color="#00cea7"/><stop offset="0.2" stop-color="#00c3ac"/><stop offset="0.68" stop-color="#00afb5"/><stop offset="1" stop-color="#00a8b8"/></linearGradient></defs><rect class="a" width="1330.02" height="596.66"/><path class="b" d="M932.17,214a73.34,73.34,0,0,0-58.33,28.88,62.06,62.06,0,0,0-8.2-10.09C853.44,220.62,836.88,214,818.8,214s-34.67,6.61-46.82,18.73a62.32,62.32,0,0,0-8.23,10.1,73.3,73.3,0,0,0-100.32-15.69A31.27,31.27,0,0,0,637.93,214c-18.8,0-36.09,7-48.7,19.55-.45.46-.87.93-1.32,1.4A32.36,32.36,0,0,0,531,228a8.53,8.53,0,0,1-11.86,2.14,8.44,8.44,0,0,1-2.19-2.23,32.39,32.39,0,0,0-28.63-13.83,31.57,31.57,0,0,0-17.77,6.86,32.64,32.64,0,0,0-20.45-7.28,32.29,32.29,0,0,0-19.4,6.44L389.3,250.93v-4.82A32.46,32.46,0,1,0,324.39,245v83a32.39,32.39,0,0,0,11.79,25,32.25,32.25,0,0,0-7,41.49,86.72,86.72,0,0,0,148.64,0,32.25,32.25,0,0,0-7-41.49,31.82,31.82,0,0,0,5.23-5.46,34.75,34.75,0,0,0,2.7-4.12c12,11.16,28,17.31,45.32,17.31,18,0,34.67-6.65,46.82-18.73l1-1a32.38,32.38,0,0,0,62.19-12.66v-24.2A73.39,73.39,0,0,0,755.55,341a32.19,32.19,0,0,0,56.22,5.83,8.52,8.52,0,0,1,14.09,0A32.17,32.17,0,0,0,882.07,341,73.43,73.43,0,1,0,932.17,214Z"/><path class="c" d="M572.33,246.39v47.32c0,29.63-21.24,49.42-48.36,49.42s-48.38-19.77-48.38-49.42V246.39a14.73,14.73,0,0,1,29.45,0v48.36c0,13.68,8.42,21,18.93,21s18.92-7.36,18.92-21V246.39a14.72,14.72,0,0,1,29.44,0Z"/><path class="c" d="M651.6,245.34A13.65,13.65,0,0,1,638,259h-.05c-12,0-21.66,8.41-21.66,25.86v43.53a14.73,14.73,0,0,1-29.45,0V284.88c0-32.59,22.72-53.17,51.11-53.17a13.65,13.65,0,0,1,13.67,13.62Z"/><path class="c" d="M867.16,281.1v47.32a14.72,14.72,0,0,1-29.43,0V280.06c0-13.68-8.41-21-18.93-21s-18.93,7.36-18.93,21v48.36a14.73,14.73,0,0,1-29.45,0V281.1c0-29.63,21.24-49.43,48.38-49.43S867.16,251.45,867.16,281.1Z"/><path class="c" d="M987.91,287.4a55.78,55.78,0,1,1-55.83-55.73h.09a55.74,55.74,0,0,1,55.74,55.73ZM932.17,259a28.4,28.4,0,1,0,28.4,28.4,28.41,28.41,0,0,0-28.4-28.4Z"/><path class="c" d="M761.15,287.4a55.78,55.78,0,1,1-55.83-55.73h.09a55.74,55.74,0,0,1,55.74,55.73ZM705.41,259a28.4,28.4,0,1,0,28.4,28.4h0A28.41,28.41,0,0,0,705.41,259Z"/><path class="c" d="M356.85,342.83a14.74,14.74,0,0,1-14.74-14.74h0v-82a14.74,14.74,0,0,1,29.47-.72q0,.36,0,.72v82A14.74,14.74,0,0,1,356.85,342.83Z"/><path class="c" d="M450.07,342.83a14.7,14.7,0,0,1-8.89-3l-54.67-41.23a14.73,14.73,0,0,1,.07-23.53l54.68-40.77a14.74,14.74,0,0,1,18.14,23.24l-.51.38-39,29,39,29.39a14.74,14.74,0,0,1-8.88,26.49Z"/><path class="c" d="M403.46,418.9a68.44,68.44,0,0,1-59.13-33.44,14.61,14.61,0,0,1,25-15.06,39.79,39.79,0,0,0,68.19,0,14.61,14.61,0,0,1,25.35,14.53c-.1.18-.21.35-.32.53A68.45,68.45,0,0,1,403.46,418.9Z"/></svg>