<?xml version="1.0" encoding="UTF-8"?>
<svg width="855px" height="222px" viewBox="0 0 855 222" version="1.1" xmlns="http://www.w3.org/2000/svg" xmlns:xlink="http://www.w3.org/1999/xlink">
    <!-- Generator: Sketch 64 (93537) - https://sketch.com -->
    <title>CFL_OT_NoTagline@1x</title>
    <desc>Created with Sketch.</desc>
    <g id="Covid-19-response" stroke="none" stroke-width="1" fill="none" fill-rule="evenodd">
        <g id="CFL_OT_NoTagline" fill-rule="nonzero">
            <path d="M843.7,65.5 C842.1,65.5 840.7,65.3 839.5,64.6 C838.1,64.1 836.9,63.2 836,62.3 C835.1,61.4 834.1,60 833.7,58.6 C833,57.2 832.8,55.6 832.8,53.7 C832.8,51.8 833,50.2 833.7,48.8 C834.4,47.4 835.1,46 836,45.1 C836.9,44.2 838.3,43.2 839.5,42.8 C840.9,42.3 842.3,41.9 843.7,41.9 C845.1,41.9 846.7,42.1 848.1,42.8 C849.5,43.3 850.7,44.2 851.6,45.1 C852.5,46 853.5,47.4 853.9,48.8 C854.6,50.2 854.8,51.8 854.8,53.7 C854.8,55.6 854.6,57.2 853.9,58.6 C853.2,60 852.5,61.4 851.6,62.3 C850.7,63.2 849.5,64.2 848.1,64.6 C846.4,65 845.1,65.5 843.7,65.5 M843.7,63.6 C844.9,63.6 846.3,63.4 847.4,62.9 C848.6,62.4 849.5,61.7 850.4,60.8 C851.3,59.9 851.8,58.9 852.3,57.5 C852.8,56.3 853,54.9 853,53.6 C853,52.3 852.8,50.8 852.3,49.4 C851.8,48.2 851.1,47.1 850.4,46.1 C849.5,45.2 848.5,44.5 847.4,44 C846.2,43.5 845.1,43.3 843.7,43.3 C842.3,43.3 841.1,43.5 840,44 C838.8,44.5 837.9,45.2 837,46.1 C836.1,47 835.6,48.2 835.1,49.4 C834.6,50.6 834.4,52 834.4,53.6 C834.4,55 834.6,56.4 835.1,57.5 C835.6,58.7 836.3,59.8 837,60.8 C837.9,61.7 838.9,62.4 840,62.9 C841.1,63.4 842.3,63.6 843.7,63.6 Z M839.5,46.9 L843.7,46.9 C844.4,46.9 844.9,46.9 845.6,47.1 C846.1,47.3 846.8,47.3 847,47.8 C847.5,48 847.7,48.5 848.2,49 C848.4,49.5 848.7,50.2 848.7,50.9 C848.7,51.6 848.5,52.3 848,53 C847.5,53.7 846.8,54.2 846.1,54.4 L849.1,59.7 L846.8,59.7 L844.5,55.1 L841.7,55.1 L841.7,59.7 L839.8,59.7 L839.8,46.9 L839.5,46.9 Z M843.2,53.2 C844.1,53.2 844.8,53 845.5,52.7 C846,52.5 846.4,51.8 846.4,50.8 C846.4,50.1 846.2,49.6 845.7,49.2 C845.2,48.7 844.5,48.5 843.4,48.5 L841.5,48.5 L841.5,53.1 L843.2,53.1 L843.2,53.2 Z" id="Shape" fill="#54575A"></path>
            <path d="M778.2,46.2 C747.3,46.2 723.2,69.9 723.2,101 C723.2,131.9 747.3,155.6 778.2,155.6 C809.1,155.6 833.2,131.9 833.2,101 C833.2,69.9 809.1,46.2 778.2,46.2 M778.2,65 C797.7,65 813.5,81.3 813.5,100.8 C813.5,120.1 797.9,136.6 778.2,136.6 C758.7,136.6 742.9,120.1 742.9,100.8 C742.9,81.3 758.7,65 778.2,65" id="Shape" fill="#54575A"></path>
            <path d="M523.7,136.7 C504.2,136.7 488.4,120.2 488.4,100.9 C488.4,81.4 504,65.1 523.7,65.1 C543.2,65.1 559,81.4 559,100.9 C558.8,120.3 543.2,136.7 523.7,136.7 M558.6,49.2 L558.6,61 L557.9,61 C549.8,51.9 536.8,46.1 523.3,46.1 C492.4,46.1 468.3,69.8 468.3,100.9 C468.3,131.8 492.4,155.5 523.3,155.5 C537,155.5 550,149.5 557.9,140.6 L558.6,140.6 L558.6,152 L578.3,152 L578.3,49.2 L558.6,49.2 Z" id="Shape" fill="#54575A"></path>
            <path d="M651,136.7 C631.5,136.7 615.7,120.2 615.7,100.9 C615.7,81.4 631.3,65.1 651,65.1 C670.5,65.1 686.3,81.4 686.3,100.9 C686.3,120.3 670.5,136.7 651,136.7 M685.8,0 L685.8,61.1 L685.1,61.1 C677.2,52 664,46.2 650.5,46.2 C619.6,46.2 595.5,69.9 595.5,101 C595.5,131.9 619.6,155.6 650.5,155.6 C664.2,155.6 677.2,149.6 685.1,140.7 L685.8,140.7 L685.8,152.1 L705.5,152.1 L705.5,0 L685.8,0 Z" id="Shape" fill="#54575A"></path>
            <path d="M450.2,125.4 C443.7,132.4 434.6,136.8 424.7,136.8 C405.2,136.8 389.4,120.3 389.4,101 C389.4,81.5 405,65.2 424.7,65.2 C434.9,65.2 444,69.6 450.2,76.6 L459.7,58.7 C450.2,51 438.1,46.4 424.4,46.4 C393.5,46.4 369.4,70.1 369.4,101.2 C369.4,132.1 393.5,155.8 424.4,155.8 C437.9,155.8 450.2,151.2 459.7,143.5 L450.2,125.4" id="Path" fill="#54575A"></path>
            <path d="M299.5,46.2 C268.6,46.2 244.5,69.9 244.5,101 C244.5,131.9 268.6,155.6 299.5,155.6 C330.4,155.6 354.5,131.9 354.5,101 C354.5,69.9 330.4,46.2 299.5,46.2 M299.5,65 C319,65 334.8,81.3 334.8,100.8 C334.8,120.1 319.2,136.6 299.5,136.6 C280,136.6 264.2,120.1 264.2,100.8 C264.2,81.3 280,65 299.5,65" id="Shape" fill="#54575A"></path>
            <polyline id="Path" fill="#009FDD" points="303.7 182.9 290.9 182.9 290.9 178.3 322.2 178.3 322.2 182.9 309.2 182.9 309.2 221 303.7 221 303.7 182.9"></polyline>
            <polyline id="Path" fill="#009FDD" points="342.2 178.3 366.8 178.3 366.8 182.9 347.5 182.9 347.5 196.4 363.8 196.4 363.8 201 347.5 201 347.5 216.6 367.5 216.6 367.5 221 342.2 221 342.2 178.3"></polyline>
            <path d="M386.5,199.7 C386.5,196.2 387,193.2 387.9,190.4 C388.8,187.6 390.2,185.3 391.8,183.4 C393.4,181.5 395.5,179.9 397.8,179 C400.1,178.1 402.7,177.4 405.5,177.4 C408.1,177.4 410.4,177.9 412.5,179 C414.4,180.2 416,181.3 417.4,182.7 L414.4,186.2 C413.2,185 412.1,184.1 410.7,183.4 C409.3,182.7 407.7,182.2 405.8,182.2 C403.7,182.2 401.9,182.7 400.2,183.4 C398.6,184.1 397.2,185.3 396,186.9 C394.8,188.3 393.9,190.2 393.2,192.2 C392.5,194.3 392.3,196.6 392.3,199.4 C392.3,202.2 392.5,204.5 393.2,206.6 C393.9,208.7 394.8,210.5 395.8,212.2 C397,213.8 398.4,215 400,215.7 C401.6,216.6 403.5,216.9 405.6,216.9 C407.7,216.9 409.5,216.4 410.9,215.7 C412.5,214.8 413.9,213.6 415.3,212.2 L418.3,215.5 C416.7,217.4 414.6,219 412.5,220.1 C410.4,221.3 407.9,221.7 405.3,221.7 C402.5,221.7 400.2,221.2 397.9,220.3 C395.6,219.4 393.7,217.7 391.9,215.9 C390,214 388.9,211.7 388,208.9 C387,206.4 386.5,203.1 386.5,199.7" id="Path" fill="#009FDD"></path>
            <polyline id="Path" fill="#009FDD" points="438.8 178.3 444.1 178.3 444.1 196.4 464.1 196.4 464.1 178.3 469.4 178.3 469.4 221 464.1 221 464.1 201 444.1 201 444.1 221 438.8 221 438.8 178.3"></polyline>
            <path d="M493.6,178.3 L499.2,178.3 L514.8,205.2 L519.4,214 L519.6,214 C519.4,211.9 519.4,209.6 519.1,207.3 C518.9,205 518.9,202.7 518.9,200.3 L518.9,178.2 L524,178.2 L524,221 L518.4,221 L502.8,194.1 L498.2,185.3 L498,185.3 C498.2,187.4 498.2,189.7 498.5,191.8 C498.7,194.1 498.7,196.2 498.7,198.5 L498.7,220.8 L493.6,220.8 L493.6,178.3" id="Path" fill="#009FDD"></path>
            <path d="M564.1,221.9 C561.3,221.9 559,221.4 556.7,220.3 C554.4,219.4 552.5,217.7 550.9,215.9 C549.3,214 548.1,211.7 547.2,208.9 C546.3,206.1 545.8,203.1 545.8,199.6 C545.8,196.1 546.3,193.1 547.2,190.3 C548.1,187.5 549.3,185.2 550.9,183.3 C552.5,181.4 554.4,180 556.7,178.9 C559,178 561.3,177.5 564.1,177.5 C566.9,177.5 569.2,178 571.5,179.1 C573.8,180 575.7,181.7 577.3,183.5 C578.9,185.4 580.1,187.7 581,190.5 C581.9,193.3 582.4,196.3 582.4,199.6 C582.4,203.1 581.9,206.1 581,208.9 C580.1,211.7 578.9,214 577.3,215.9 C575.7,217.8 573.8,219.4 571.5,220.3 C569.2,221.5 566.7,221.9 564.1,221.9 M564.1,217.1 C566,217.1 567.8,216.6 569.2,215.9 C570.8,215 572,213.8 573.1,212.4 C574.3,210.8 575,208.9 575.7,206.8 C576.4,204.7 576.6,202.2 576.6,199.6 C576.6,197 576.4,194.5 575.7,192.4 C575,190.3 574.3,188.5 573.1,187.1 C571.9,185.7 570.5,184.5 569.2,183.6 C567.6,182.9 565.9,182.4 564.1,182.4 C562.2,182.4 560.4,182.9 559,183.6 C557.4,184.3 556.2,185.5 555.1,187.1 C553.9,188.5 553.2,190.4 552.5,192.4 C551.8,194.5 551.6,196.8 551.6,199.6 C551.6,202.4 551.8,204.7 552.5,206.8 C553.2,208.9 553.9,210.7 555.1,212.4 C556.3,214 557.4,215.2 559,215.9 C560.4,216.8 562.3,217.1 564.1,217.1 Z" id="Shape" fill="#009FDD"></path>
            <polyline id="Path" fill="#009FDD" points="604.1 178.3 609.4 178.3 609.4 216.6 628.2 216.6 628.2 221 604.1 221 604.1 178.3"></polyline>
            <path d="M662.3,221.9 C659.5,221.9 657.2,221.4 654.9,220.3 C652.6,219.4 650.7,217.7 649.1,215.9 C647.5,214 646.3,211.7 645.4,208.9 C644.5,206.1 644,203.1 644,199.6 C644,196.1 644.5,193.1 645.4,190.3 C646.3,187.5 647.5,185.2 649.1,183.3 C650.7,181.4 652.6,180 654.9,178.9 C657.2,178 659.5,177.5 662.3,177.5 C665.1,177.5 667.4,178 669.7,179.1 C672,180 673.9,181.7 675.5,183.5 C677.1,185.4 678.3,187.7 679.2,190.5 C680.1,193.3 680.6,196.3 680.6,199.6 C680.6,203.1 680.1,206.1 679.2,208.9 C678.3,211.7 677.1,214 675.5,215.9 C673.9,217.8 672,219.4 669.7,220.3 C667.5,221.5 664.9,221.9 662.3,221.9 M662.3,217.1 C664.2,217.1 666,216.6 667.4,215.9 C669,215 670.2,213.8 671.3,212.4 C672.5,210.8 673.2,208.9 673.9,206.8 C674.6,204.7 674.8,202.2 674.8,199.6 C674.8,197 674.6,194.5 673.9,192.4 C673.2,190.3 672.5,188.5 671.3,187.1 C670.1,185.7 669,184.5 667.4,183.6 C665.8,182.9 664.1,182.4 662.3,182.4 C660.4,182.4 658.6,182.9 657.2,183.6 C655.6,184.3 654.4,185.5 653.3,187.1 C652.1,188.5 651.4,190.4 650.7,192.4 C650,194.5 649.8,196.8 649.8,199.6 C649.8,202.4 650,204.7 650.7,206.8 C651.4,208.9 652.1,210.7 653.3,212.4 C654.5,214 655.9,215.2 657.2,215.9 C658.6,216.8 660.3,217.1 662.3,217.1 Z" id="Shape" fill="#009FDD"></path>
            <path d="M699.7,199.7 C699.7,196.2 700.2,193.2 701.1,190.4 C702,187.6 703.4,185.3 705.3,183.4 C707.2,181.5 709.2,179.9 711.6,179 C713.9,178.1 716.7,177.4 719.5,177.4 C722.5,177.4 724.8,177.9 726.9,179 C729,180.2 730.6,181.3 731.8,182.7 L728.8,186.2 C727.6,185 726.5,184.1 725.1,183.4 C723.7,182.7 721.8,182.2 719.8,182.2 C717.8,182.2 715.6,182.7 714,183.4 C712.4,184.1 710.7,185.3 709.6,186.9 C708.4,188.3 707.5,190.2 706.8,192.2 C706.1,194.3 705.9,196.6 705.9,199.4 C705.9,202.2 706.1,204.5 706.8,206.6 C707.5,208.7 708.4,210.5 709.6,212.2 C710.8,213.9 712.4,215 714,215.7 C715.9,216.6 717.7,216.9 720,216.9 C721.6,216.9 723,216.7 724.4,216.2 C725.8,215.7 727,215 727.7,214.3 L727.7,203.2 L718.6,203.2 L718.6,198.8 L732.5,198.8 L732.5,216.7 C731.1,218.1 729.2,219.3 726.9,220.2 C724.6,221.1 722,221.6 719.2,221.6 C716.4,221.6 713.9,221.1 711.5,220.2 C709.2,219.3 707.1,217.6 705.5,215.8 C703.9,213.9 702.5,211.6 701.6,208.8 C700.2,206.4 699.7,203.1 699.7,199.7" id="Path" fill="#009FDD"></path>
            <path d="M761.7,204.5 L748.9,178.3 L754.7,178.3 L760.3,190.4 C761,192 761.7,193.4 762.4,195 C763.1,196.6 763.8,198 764.5,199.6 L764.7,199.6 C765.4,198 766.1,196.3 767,195 C767.7,193.4 768.4,192 769.1,190.4 L774.7,178.3 L780.3,178.3 L767.5,204.5 L767.5,221 L761.9,221 L761.9,204.5" id="Path" fill="#009FDD"></path>
            <path d="M198.3,169.5 C198.3,169.5 198,169.5 198.3,169.5 C198.1,169.7 198.1,169.7 198.1,169.7 C197.9,169.7 197.9,169.9 197.6,170.2 L197.6,170.2 C197.4,170.4 197.1,170.7 196.9,170.9 L196.9,170.9 C196.7,171.1 196.2,171.4 196,171.6 C196,171.6 195.8,171.6 195.8,171.8 C195.6,172 195.1,172.3 194.9,172.5 C194.7,172.7 194.4,172.7 194.4,173 C194.2,173.2 193.9,173.2 193.7,173.5 C193.2,173.7 193,174 192.5,174.2 C192.5,174.2 192.3,174.2 192.3,174.4 C186.7,177.7 177.9,181.4 166.8,181.6 L146,181.6 L77.5,181.6 L77.5,181.6 L77.5,181.6 C77.5,181.6 79.4,185.1 87.7,199 C97.9,216.4 114.4,221.5 114.4,221.5 L99.8,221.5 L99.8,221.5 L153.9,221.5 C163,221.5 171.1,216.6 175.7,209 L198.3,169.5 L198.3,169.5" id="Path" fill="#A8AD19"></path>
            <g id="Group" transform="translate(0.000000, 62.000000)" fill="#009FDD">
                <path d="M218.7,47.1 L195.9,7.9 L195.9,7.9 C195.9,8.1 199.8,23.9 189.9,42.3 L179.7,59.7 L145.1,119.1 L165.8,119.1 C176.9,118.9 185.8,115.2 191.3,111.9 C191.3,111.9 191.5,111.9 191.5,111.7 C192,111.5 192.4,111.2 192.7,111 C192.9,110.8 193.2,110.8 193.4,110.5 C193.6,110.3 193.9,110.3 193.9,110 C194.4,109.8 194.6,109.5 194.8,109.3 C194.8,109.3 195,109.3 195,109.1 C195.5,108.9 195.7,108.6 195.9,108.4 L195.9,108.4 C196.1,108.2 196.4,107.9 196.6,107.7 L196.6,107.7 C196.8,107.5 197.1,107.5 197.1,107.2 C197.1,107.2 197.1,107.2 197.3,107 C197.3,107 197.5,107 197.5,106.8 L197.5,106.8 L202.1,99.1 L217.9,71.7 C223.1,64.5 223.1,55 218.7,47.1" id="Path"></path>
                <path d="M56.6,0.5 C37.3,0.5 24.6,11.4 23.6,12.6 L23.6,12.6 L19.3,20 L3.5,47.1 C-0.9,54.8 -0.9,64.5 3.5,72.2 L26.3,111.4 C26.3,111.4 25.4,106.8 25.8,99.6 C26.3,93.3 27.9,85.2 32.5,77.1 L76.8,0.5 L76.8,0.5 L56.6,0.5" id="Path"></path>
            </g>
            <path d="M86.8,198.5 C78.7,184.6 76.6,181.1 76.6,181.1 L42.2,121.9 L32.2,139.1 C27.6,147.2 25.9,155.4 25.5,161.6 C25,168.6 26,173.4 26,173.4 L19.3,161.8 L19.3,161.8 L46.2,208.5 C50.6,216.1 59,221 68,221 L113.3,221 C113.3,221 97,215.9 86.8,198.5" id="Path" fill="#54575A"></path>
            <path d="M195.9,70.1 L175.7,35 C171.3,27.3 162.9,22.5 153.9,22.5 L108.9,22.5 C108.9,22.5 108.9,22.5 108.7,22.5 C109.4,22.7 125.2,28.1 135.2,45 C143.3,58.9 145.4,62.4 145.4,62.4 L179.8,121.6 L190,104.4 C199.9,86.1 196.2,70.3 195.9,70.1" id="Path" fill="#54575A"></path>
            <path d="M135.3,45 C125.3,28.1 109.5,22.7 108.8,22.5 L68.3,22.5 C59.2,22.5 51.1,27.4 46.5,35 L30.6,62.5 L23.6,74.3 C24.5,73.4 37.3,62.2 56.6,62.2 L76.6,62.2 L76.6,62.2 L76.8,62.2 L76.8,62.2 L145.3,62.2 C145.3,62.5 143.5,59 135.3,45" id="Path" fill="#A8AD19"></path>
        </g>
    </g>
</svg>