<?xml version="1.0" encoding="UTF-8"?>
<svg width="854px" height="324px" viewBox="0 0 854 324" version="1.1" xmlns="http://www.w3.org/2000/svg" xmlns:xlink="http://www.w3.org/1999/xlink">
    <!-- Generator: Sketch 64 (93537) - https://sketch.com -->
    <title>CFL_OT_Tagline</title>
    <desc>Created with Sketch.</desc>
    <g id="Covid-19-response" stroke="none" stroke-width="1" fill="none" fill-rule="evenodd">
        <g id="CFL_OT_Tagline" transform="translate(0.000000, -1.000000)" fill-rule="nonzero">
            <path d="M842.02439,168.682927 C840.402439,168.682927 839.012195,168.45122 837.853659,167.756098 C836.463415,167.292683 835.304878,166.365854 834.378049,165.439024 C833.45122,164.512195 832.52439,163.121951 832.060976,161.731707 C831.365854,160.341463 831.134146,158.719512 831.134146,156.865854 C831.134146,155.012195 831.365854,153.390244 832.060976,152 C832.756098,150.609756 833.45122,149.219512 834.378049,148.292683 C835.304878,147.365854 836.695122,146.439024 837.853659,145.97561 C839.243902,145.512195 840.634146,145.04878 842.02439,145.04878 C843.414634,145.04878 845.036585,145.280488 846.426829,145.97561 C847.817073,146.439024 848.97561,147.365854 849.902439,148.292683 C850.829268,149.219512 851.756098,150.609756 852.219512,152 C852.914634,153.390244 853.146341,155.012195 853.146341,156.865854 C853.146341,158.719512 852.914634,160.341463 852.219512,161.731707 C851.52439,163.121951 850.829268,164.512195 849.902439,165.439024 C848.97561,166.365854 847.817073,167.292683 846.426829,167.756098 C844.804878,168.219512 843.414634,168.682927 842.02439,168.682927 M842.02439,166.829268 C843.182927,166.829268 844.573171,166.597561 845.731707,166.134146 C846.890244,165.670732 847.817073,164.97561 848.743902,164.04878 C849.670732,163.121951 850.134146,162.195122 850.597561,160.804878 C851.060976,159.646341 851.292683,158.256098 851.292683,156.865854 C851.292683,155.47561 851.060976,154.085366 850.597561,152.695122 C850.134146,151.536585 849.439024,150.378049 848.743902,149.45122 C847.817073,148.52439 846.890244,147.829268 845.731707,147.365854 C844.573171,146.902439 843.414634,146.670732 842.02439,146.670732 C840.634146,146.670732 839.47561,146.902439 838.317073,147.365854 C837.158537,147.829268 836.231707,148.52439 835.304878,149.45122 C834.378049,150.378049 833.914634,151.536585 833.45122,152.695122 C832.987805,153.853659 832.756098,155.243902 832.756098,156.865854 C832.756098,158.256098 832.987805,159.646341 833.45122,160.804878 C833.914634,161.963415 834.609756,163.121951 835.304878,164.04878 C836.231707,164.97561 837.158537,165.670732 838.317073,166.134146 C839.47561,166.597561 840.634146,166.829268 842.02439,166.829268 Z M837.853659,150.146341 L842.02439,150.146341 C842.719512,150.146341 843.182927,150.146341 843.878049,150.378049 C844.341463,150.609756 845.036585,150.609756 845.268293,151.073171 C845.731707,151.304878 845.963415,151.768293 846.426829,152.231707 C846.658537,152.695122 846.890244,153.390244 846.890244,154.085366 C846.890244,154.780488 846.658537,155.47561 846.195122,156.170732 C845.731707,156.865854 845.036585,157.329268 844.341463,157.560976 L847.353659,162.890244 L845.036585,162.890244 L842.719512,158.256098 L839.939024,158.256098 L839.939024,162.890244 L838.085366,162.890244 L838.085366,150.146341 L837.853659,150.146341 Z M841.560976,156.402439 C842.487805,156.402439 843.182927,156.170732 843.878049,155.939024 C844.341463,155.707317 844.804878,155.012195 844.804878,154.085366 C844.804878,153.390244 844.573171,152.926829 844.109756,152.463415 C843.646341,152 842.95122,151.768293 841.792683,151.768293 L839.939024,151.768293 L839.939024,156.402439 L841.560976,156.402439 Z" id="Shape" fill="#54575A"></path>
            <path d="M776.682927,149.45122 C745.865854,149.45122 721.768293,173.085366 721.768293,204.134146 C721.768293,234.95122 745.865854,258.585366 776.682927,258.585366 C807.5,258.585366 831.597561,234.95122 831.597561,204.134146 C831.597561,173.085366 807.5,149.45122 776.682927,149.45122 M776.682927,168.219512 C796.146341,168.219512 811.902439,184.439024 811.902439,203.902439 C811.902439,223.134146 796.378049,239.585366 776.682927,239.585366 C757.219512,239.585366 741.463415,223.134146 741.463415,203.902439 C741.463415,184.439024 757.219512,168.219512 776.682927,168.219512" id="Shape" fill="#54575A"></path>
            <path d="M522.731707,239.817073 C503.268293,239.817073 487.512195,223.365854 487.512195,204.134146 C487.512195,184.670732 503.036585,168.45122 522.731707,168.45122 C542.195122,168.45122 557.95122,184.670732 557.95122,204.134146 C557.719512,223.365854 542.195122,239.817073 522.731707,239.817073 M557.487805,152.463415 L557.487805,164.280488 L556.792683,164.280488 C548.682927,155.243902 535.707317,149.45122 522.268293,149.45122 C491.45122,149.45122 467.353659,173.085366 467.353659,204.134146 C467.353659,234.95122 491.45122,258.585366 522.268293,258.585366 C535.939024,258.585366 548.914634,252.560976 556.792683,243.756098 L557.487805,243.756098 L557.487805,255.109756 L577.182927,255.109756 L577.182927,152.463415 L557.487805,152.463415 Z" id="Shape" fill="#54575A"></path>
            <path d="M649.707317,239.817073 C630.243902,239.817073 614.487805,223.365854 614.487805,204.134146 C614.487805,184.670732 630.012195,168.45122 649.707317,168.45122 C669.170732,168.45122 684.926829,184.670732 684.926829,204.134146 C684.926829,223.365854 669.170732,239.817073 649.707317,239.817073 M684.463415,103.341463 L684.463415,164.280488 L683.768293,164.280488 C675.890244,155.243902 662.682927,149.45122 649.243902,149.45122 C618.426829,149.45122 594.329268,173.085366 594.329268,204.134146 C594.329268,234.95122 618.426829,258.585366 649.243902,258.585366 C662.914634,258.585366 675.890244,252.560976 683.768293,243.756098 L684.463415,243.756098 L684.463415,255.109756 L704.158537,255.109756 L704.158537,103.341463 L684.463415,103.341463 Z" id="Shape" fill="#54575A"></path>
            <path d="M449.280488,228.463415 C442.792683,235.414634 433.756098,239.817073 423.792683,239.817073 C404.329268,239.817073 388.573171,223.365854 388.573171,204.134146 C388.573171,184.670732 404.097561,168.45122 423.792683,168.45122 C433.987805,168.45122 443.02439,172.853659 449.280488,179.804878 L458.780488,161.963415 C449.280488,154.317073 437.231707,149.682927 423.560976,149.682927 C392.743902,149.682927 368.646341,173.317073 368.646341,204.365854 C368.646341,235.182927 392.743902,258.817073 423.560976,258.817073 C437,258.817073 449.280488,254.182927 458.780488,246.536585 L449.280488,228.463415" id="Path" fill="#54575A"></path>
            <path d="M298.902439,149.45122 C268.085366,149.45122 243.987805,173.085366 243.987805,204.134146 C243.987805,234.95122 268.085366,258.585366 298.902439,258.585366 C329.719512,258.585366 353.817073,234.95122 353.817073,204.134146 C353.817073,173.085366 329.719512,149.45122 298.902439,149.45122 M298.902439,168.219512 C318.365854,168.219512 334.121951,184.439024 334.121951,203.902439 C334.121951,223.134146 318.597561,239.585366 298.902439,239.585366 C279.439024,239.585366 263.682927,223.134146 263.682927,203.902439 C263.682927,184.439024 279.439024,168.219512 298.902439,168.219512" id="Shape" fill="#54575A"></path>
            <polyline id="Path" fill="#009FDD" points="303.073171 285.926829 290.329268 285.926829 290.329268 281.292683 321.609756 281.292683 321.609756 285.926829 308.634146 285.926829 308.634146 323.926829 303.073171 323.926829 303.073171 285.926829"></polyline>
            <polyline id="Path" fill="#009FDD" points="341.536585 281.292683 366.097561 281.292683 366.097561 285.926829 346.865854 285.926829 346.865854 299.365854 363.085366 299.365854 363.085366 304 346.865854 304 346.865854 319.52439 366.792683 319.52439 366.792683 323.926829 341.536585 323.926829 341.536585 281.292683"></polyline>
            <path d="M385.792683,302.609756 C385.792683,299.134146 386.256098,296.121951 387.182927,293.341463 C388.109756,290.560976 389.5,288.243902 391.121951,286.390244 C392.743902,284.536585 394.829268,282.914634 397.146341,281.987805 C399.463415,281.060976 402.012195,280.365854 404.792683,280.365854 C407.341463,280.365854 409.658537,280.829268 411.743902,281.987805 C413.597561,283.146341 415.219512,284.304878 416.609756,285.695122 L413.597561,289.170732 C412.439024,288.012195 411.280488,287.085366 409.890244,286.390244 C408.5,285.695122 406.878049,285.231707 405.02439,285.231707 C402.939024,285.231707 401.085366,285.695122 399.463415,286.390244 C397.841463,287.085366 396.45122,288.243902 395.292683,289.865854 C394.134146,291.256098 393.207317,293.109756 392.512195,295.195122 C391.817073,297.280488 391.585366,299.597561 391.585366,302.378049 C391.585366,305.158537 391.817073,307.47561 392.512195,309.560976 C393.207317,311.646341 394.134146,313.5 395.060976,315.121951 C396.219512,316.743902 397.609756,317.902439 399.231707,318.597561 C400.853659,319.52439 402.707317,319.756098 404.792683,319.756098 C406.878049,319.756098 408.731707,319.292683 410.121951,318.597561 C411.743902,317.670732 413.134146,316.512195 414.52439,315.121951 L417.536585,318.365854 C415.914634,320.219512 413.829268,321.841463 411.743902,323 C409.658537,324.158537 407.109756,324.621951 404.560976,324.621951 C401.780488,324.621951 399.463415,324.158537 397.146341,323.231707 C394.829268,322.304878 392.97561,320.682927 391.121951,318.829268 C389.268293,316.97561 388.109756,314.658537 387.182927,311.878049 C386.256098,309.329268 385.792683,306.085366 385.792683,302.609756" id="Path" fill="#009FDD"></path>
            <polyline id="Path" fill="#009FDD" points="437.926829 281.292683 443.256098 281.292683 443.256098 299.365854 463.182927 299.365854 463.182927 281.292683 468.512195 281.292683 468.512195 323.926829 463.182927 323.926829 463.182927 304 443.256098 304 443.256098 323.926829 437.926829 323.926829 437.926829 281.292683"></polyline>
            <path d="M492.609756,281.292683 L498.170732,281.292683 L513.695122,308.170732 L518.329268,316.97561 L518.560976,316.97561 C518.329268,314.890244 518.329268,312.573171 518.097561,310.256098 C517.865854,307.939024 517.865854,305.621951 517.865854,303.304878 L517.865854,281.292683 L522.963415,281.292683 L522.963415,323.926829 L517.402439,323.926829 L501.878049,297.04878 L497.243902,288.243902 L497.012195,288.243902 C497.243902,290.329268 497.243902,292.646341 497.47561,294.731707 C497.707317,297.04878 497.707317,299.134146 497.707317,301.45122 L497.707317,323.695122 L492.609756,323.695122 L492.609756,281.292683" id="Path" fill="#009FDD"></path>
            <path d="M563.04878,324.853659 C560.268293,324.853659 557.95122,324.390244 555.634146,323.231707 C553.317073,322.304878 551.463415,320.682927 549.841463,318.829268 C548.219512,316.97561 547.060976,314.658537 546.134146,311.878049 C545.207317,309.097561 544.743902,306.085366 544.743902,302.609756 C544.743902,299.134146 545.207317,296.121951 546.134146,293.341463 C547.060976,290.560976 548.219512,288.243902 549.841463,286.390244 C551.463415,284.536585 553.317073,283.146341 555.634146,281.987805 C557.95122,281.060976 560.268293,280.597561 563.04878,280.597561 C565.829268,280.597561 568.146341,281.060976 570.463415,282.219512 C572.780488,283.146341 574.634146,284.768293 576.256098,286.621951 C577.878049,288.47561 579.036585,290.792683 579.963415,293.573171 C580.890244,296.353659 581.353659,299.365854 581.353659,302.609756 C581.353659,306.085366 580.890244,309.097561 579.963415,311.878049 C579.036585,314.658537 577.878049,316.97561 576.256098,318.829268 C574.634146,320.682927 572.780488,322.304878 570.463415,323.231707 C568.146341,324.390244 565.597561,324.853659 563.04878,324.853659 M563.04878,319.987805 C564.902439,319.987805 566.756098,319.52439 568.146341,318.829268 C569.768293,317.902439 570.926829,316.743902 572.085366,315.353659 C573.243902,313.731707 573.939024,311.878049 574.634146,309.792683 C575.329268,307.707317 575.560976,305.158537 575.560976,302.609756 C575.560976,300.060976 575.329268,297.512195 574.634146,295.426829 C573.939024,293.341463 573.243902,291.487805 572.085366,290.097561 C570.926829,288.707317 569.536585,287.54878 568.146341,286.621951 C566.52439,285.926829 564.902439,285.463415 563.04878,285.463415 C561.195122,285.463415 559.341463,285.926829 557.95122,286.621951 C556.329268,287.317073 555.170732,288.47561 554.012195,290.097561 C552.853659,291.487805 552.158537,293.341463 551.463415,295.426829 C550.768293,297.512195 550.536585,299.829268 550.536585,302.609756 C550.536585,305.390244 550.768293,307.707317 551.463415,309.792683 C552.158537,311.878049 552.853659,313.731707 554.012195,315.353659 C555.170732,316.97561 556.329268,318.134146 557.95122,318.829268 C559.341463,319.756098 561.195122,319.987805 563.04878,319.987805 Z" id="Shape" fill="#009FDD"></path>
            <polyline id="Path" fill="#009FDD" points="602.902439 281.292683 608.231707 281.292683 608.231707 319.52439 627 319.52439 627 323.926829 602.902439 323.926829 602.902439 281.292683"></polyline>
            <path d="M661.060976,324.853659 C658.280488,324.853659 655.963415,324.390244 653.646341,323.231707 C651.329268,322.304878 649.47561,320.682927 647.853659,318.829268 C646.231707,316.97561 645.073171,314.658537 644.146341,311.878049 C643.219512,309.097561 642.756098,306.085366 642.756098,302.609756 C642.756098,299.134146 643.219512,296.121951 644.146341,293.341463 C645.073171,290.560976 646.231707,288.243902 647.853659,286.390244 C649.47561,284.536585 651.329268,283.146341 653.646341,281.987805 C655.963415,281.060976 658.280488,280.597561 661.060976,280.597561 C663.841463,280.597561 666.158537,281.060976 668.47561,282.219512 C670.792683,283.146341 672.646341,284.768293 674.268293,286.621951 C675.890244,288.47561 677.04878,290.792683 677.97561,293.573171 C678.902439,296.353659 679.365854,299.365854 679.365854,302.609756 C679.365854,306.085366 678.902439,309.097561 677.97561,311.878049 C677.04878,314.658537 675.890244,316.97561 674.268293,318.829268 C672.646341,320.682927 670.792683,322.304878 668.47561,323.231707 C666.158537,324.390244 663.609756,324.853659 661.060976,324.853659 M661.060976,319.987805 C662.914634,319.987805 664.768293,319.52439 666.158537,318.829268 C667.780488,317.902439 668.939024,316.743902 670.097561,315.353659 C671.256098,313.731707 671.95122,311.878049 672.646341,309.792683 C673.341463,307.707317 673.573171,305.158537 673.573171,302.609756 C673.573171,300.060976 673.341463,297.512195 672.646341,295.426829 C671.95122,293.341463 671.256098,291.487805 670.097561,290.097561 C668.939024,288.707317 667.780488,287.54878 666.158537,286.621951 C664.536585,285.926829 662.914634,285.463415 661.060976,285.463415 C659.207317,285.463415 657.353659,285.926829 655.963415,286.621951 C654.341463,287.317073 653.182927,288.47561 652.02439,290.097561 C650.865854,291.487805 650.170732,293.341463 649.47561,295.426829 C648.780488,297.512195 648.54878,299.829268 648.54878,302.609756 C648.54878,305.390244 648.780488,307.707317 649.47561,309.792683 C650.170732,311.878049 650.865854,313.731707 652.02439,315.353659 C653.182927,316.97561 654.573171,318.134146 655.963415,318.829268 C657.353659,319.756098 658.97561,319.987805 661.060976,319.987805 Z" id="Shape" fill="#009FDD"></path>
            <path d="M698.365854,302.609756 C698.365854,299.134146 698.829268,296.121951 699.756098,293.341463 C700.682927,290.560976 702.073171,288.243902 703.926829,286.390244 C705.780488,284.536585 707.865854,282.914634 710.182927,281.987805 C712.5,281.060976 715.280488,280.365854 718.060976,280.365854 C721.073171,280.365854 723.390244,280.829268 725.47561,281.987805 C727.560976,283.146341 729.182927,284.304878 730.341463,285.695122 L727.329268,289.170732 C726.170732,288.012195 725.012195,287.085366 723.621951,286.390244 C722.231707,285.695122 720.378049,285.231707 718.292683,285.231707 C716.207317,285.231707 714.121951,285.695122 712.5,286.390244 C710.878049,287.085366 709.256098,288.243902 708.097561,289.865854 C706.939024,291.256098 706.012195,293.109756 705.317073,295.195122 C704.621951,297.280488 704.390244,299.597561 704.390244,302.378049 C704.390244,305.158537 704.621951,307.47561 705.317073,309.560976 C706.012195,311.646341 706.939024,313.5 708.097561,315.121951 C709.256098,316.743902 710.878049,317.902439 712.5,318.597561 C714.353659,319.52439 716.207317,319.756098 718.52439,319.756098 C720.146341,319.756098 721.536585,319.52439 722.926829,319.060976 C724.317073,318.597561 725.47561,317.902439 726.170732,317.207317 L726.170732,306.085366 L717.134146,306.085366 L717.134146,301.682927 L731.036585,301.682927 L731.036585,319.52439 C729.646341,320.914634 727.792683,322.073171 725.47561,323 C723.158537,323.926829 720.609756,324.390244 717.829268,324.390244 C715.04878,324.390244 712.5,323.926829 710.182927,323 C707.865854,322.073171 705.780488,320.45122 704.158537,318.597561 C702.536585,316.743902 701.146341,314.426829 700.219512,311.646341 C698.829268,309.329268 698.365854,306.085366 698.365854,302.609756" id="Path" fill="#009FDD"></path>
            <path d="M760.231707,307.47561 L747.487805,281.292683 L753.280488,281.292683 L758.841463,293.341463 C759.536585,294.963415 760.231707,296.353659 760.926829,297.97561 C761.621951,299.597561 762.317073,300.987805 763.012195,302.609756 L763.243902,302.609756 C763.939024,300.987805 764.634146,299.365854 765.560976,297.97561 C766.256098,296.353659 766.95122,294.963415 767.646341,293.341463 L773.207317,281.292683 L778.768293,281.292683 L766.02439,307.47561 L766.02439,323.926829 L760.463415,323.926829 L760.463415,307.47561" id="Path" fill="#009FDD"></path>
            <path d="M197.878049,272.487805 C197.878049,272.487805 197.646341,272.487805 197.878049,272.487805 C197.646341,272.719512 197.646341,272.719512 197.646341,272.719512 C197.414634,272.719512 197.414634,272.95122 197.182927,273.182927 C197.182927,273.182927 197.182927,273.182927 197.182927,273.182927 C196.95122,273.414634 196.719512,273.646341 196.487805,273.878049 C196.487805,273.878049 196.487805,273.878049 196.487805,273.878049 C196.256098,274.109756 195.792683,274.341463 195.560976,274.573171 C195.560976,274.573171 195.329268,274.573171 195.329268,274.804878 C195.097561,275.036585 194.634146,275.268293 194.402439,275.5 C194.170732,275.731707 193.939024,275.731707 193.939024,275.963415 C193.707317,276.195122 193.47561,276.195122 193.243902,276.426829 C192.780488,276.658537 192.54878,276.890244 192.085366,277.121951 C192.085366,277.121951 191.853659,277.121951 191.853659,277.353659 C186.292683,280.597561 177.487805,284.304878 166.365854,284.536585 L145.743902,284.536585 L77.3902439,284.536585 L77.3902439,284.536585 L77.3902439,284.536585 C77.3902439,284.536585 79.2439024,288.012195 87.5853659,301.914634 C97.7804878,319.292683 114.231707,324.390244 114.231707,324.390244 L99.6341463,324.390244 L99.6341463,324.390244 L153.621951,324.390244 C162.658537,324.390244 170.768293,319.52439 175.402439,311.878049 L197.878049,272.487805 C197.878049,272.487805 197.878049,272.487805 197.878049,272.487805" id="Path" fill="#A8AD19"></path>
            <g id="Group" transform="translate(0.000000, 164.512195)" fill="#009FDD">
                <path d="M218.268293,47.7317073 L195.560976,8.57317073 L195.560976,8.57317073 C195.560976,8.80487805 199.5,24.5609756 189.536585,42.8658537 L179.341463,60.2439024 L144.817073,119.560976 L165.439024,119.560976 C176.560976,119.329268 185.365854,115.621951 190.926829,112.378049 C190.926829,112.378049 191.158537,112.378049 191.158537,112.146341 C191.621951,111.914634 192.085366,111.682927 192.317073,111.45122 C192.54878,111.219512 192.780488,111.219512 193.012195,110.987805 C193.243902,110.756098 193.47561,110.756098 193.47561,110.52439 C193.939024,110.292683 194.170732,110.060976 194.402439,109.829268 C194.402439,109.829268 194.634146,109.829268 194.634146,109.597561 C195.097561,109.365854 195.329268,109.134146 195.560976,108.902439 C195.560976,108.902439 195.560976,108.902439 195.560976,108.902439 C195.792683,108.670732 196.02439,108.439024 196.256098,108.207317 C196.256098,108.207317 196.256098,108.207317 196.256098,108.207317 C196.487805,107.97561 196.719512,107.97561 196.719512,107.743902 C196.719512,107.743902 196.719512,107.743902 196.95122,107.512195 C196.95122,107.512195 197.182927,107.512195 197.182927,107.280488 C197.182927,107.280488 197.182927,107.280488 197.182927,107.280488 L201.817073,99.6341463 L217.573171,72.2926829 C222.670732,65.1097561 222.670732,55.6097561 218.268293,47.7317073" id="Path"></path>
                <path d="M56.5365854,1.15853659 C37.304878,1.15853659 24.5609756,12.0487805 23.6341463,13.2073171 L23.6341463,13.2073171 L19.2317073,20.6219512 L3.47560976,47.7317073 C-0.926829268,55.3780488 -0.926829268,65.1097561 3.47560976,72.7560976 L26.1829268,111.914634 C26.1829268,111.914634 25.2560976,107.280488 25.7195122,100.097561 C26.1829268,93.8414634 27.804878,85.7317073 32.4390244,77.6219512 L76.695122,1.15853659 L76.695122,1.15853659 L56.5365854,1.15853659" id="Path"></path>
            </g>
            <path d="M86.6585366,301.45122 C78.5487805,287.54878 76.4634146,284.073171 76.4634146,284.073171 L42.1707317,224.987805 L32.2073171,242.134146 C27.5731707,250.243902 25.9512195,258.353659 25.4878049,264.609756 C25.0243902,271.560976 25.9512195,276.426829 25.9512195,276.426829 L19.2317073,264.841463 L19.2317073,264.841463 L46.1097561,311.414634 C50.5121951,319.060976 58.8536585,323.926829 67.8902439,323.926829 L113.073171,323.926829 C113.073171,323.926829 96.8536585,318.829268 86.6585366,301.45122" id="Path" fill="#54575A"></path>
            <path d="M195.560976,173.317073 L175.402439,138.329268 C171,130.682927 162.658537,125.817073 153.621951,125.817073 L108.670732,125.817073 C108.670732,125.817073 108.670732,125.817073 108.439024,125.817073 C109.134146,126.04878 124.890244,131.378049 134.853659,148.292683 C142.963415,162.195122 145.04878,165.670732 145.04878,165.670732 L179.341463,224.756098 L189.536585,207.609756 C199.5,189.304878 195.792683,173.54878 195.560976,173.317073" id="Path" fill="#54575A"></path>
            <path d="M135.085366,148.292683 C125.121951,131.378049 109.365854,126.04878 108.670732,125.817073 L68.1219512,125.817073 C59.0853659,125.817073 50.9756098,130.682927 46.3414634,138.329268 L30.5853659,165.670732 L23.6341463,177.487805 C24.5609756,176.560976 37.304878,165.439024 56.5365854,165.439024 L76.4634146,165.439024 L76.4634146,165.439024 C76.4634146,165.439024 76.695122,165.439024 76.695122,165.439024 L76.695122,165.439024 L145.04878,165.439024 C145.04878,165.670732 143.195122,162.195122 135.085366,148.292683" id="Path" fill="#A8AD19"></path>
            <path d="M134.853659,4.40243902 L150.146341,4.40243902 C152.463415,4.40243902 154.54878,4.63414634 156.634146,5.09756098 C158.719512,5.56097561 160.341463,6.25609756 161.963415,7.41463415 C163.585366,8.57317073 164.512195,9.96341463 165.439024,11.5853659 C166.365854,13.2073171 166.829268,15.5243902 166.829268,18.0731707 C166.829268,20.6219512 166.365854,22.7073171 165.439024,24.5609756 C164.512195,26.4146341 163.353659,27.804878 161.963415,28.9634146 C160.341463,30.1219512 158.719512,31.0487805 156.634146,31.5121951 C154.54878,31.9756098 152.463415,32.4390244 150.378049,32.4390244 L144.585366,32.4390244 L144.585366,46.804878 L135.085366,46.804878 L135.085366,4.40243902 M149.682927,24.5609756 C154.780488,24.5609756 157.329268,22.2439024 157.329268,17.8414634 C157.329268,15.7560976 156.634146,14.1341463 155.243902,13.2073171 C153.853659,12.2804878 152,11.8170732 149.45122,11.8170732 L144.121951,11.8170732 L144.121951,24.5609756 L149.682927,24.5609756 Z" id="Shape" fill="#54575A"></path>
            <path d="M173.317073,14.597561 L180.963415,14.597561 L181.658537,20.1585366 L181.890244,20.1585366 C183.04878,17.8414634 184.439024,16.2195122 186.292683,15.2926829 C187.914634,14.3658537 189.536585,13.6707317 191.158537,13.6707317 C192.085366,13.6707317 192.780488,13.6707317 193.47561,13.902439 C194.170732,13.902439 194.634146,14.1341463 195.097561,14.3658537 L193.47561,22.4756098 C192.780488,22.2439024 192.317073,22.2439024 191.853659,22.0121951 C191.390244,22.0121951 190.695122,21.7804878 190,21.7804878 C188.841463,21.7804878 187.45122,22.2439024 186.292683,23.1707317 C184.902439,24.097561 183.97561,25.4878049 183.04878,27.804878 L183.04878,46.3414634 L173.54878,46.3414634 L173.54878,14.597561" id="Path" fill="#54575A"></path>
            <path d="M196.487805,30.5853659 C196.487805,27.804878 196.95122,25.4878049 197.878049,23.402439 C198.804878,21.3170732 199.963415,19.4634146 201.353659,18.0731707 C202.743902,16.6829268 204.365854,15.5243902 206.45122,14.8292683 C208.304878,14.1341463 210.390244,13.6707317 212.243902,13.6707317 C214.329268,13.6707317 216.182927,14.1341463 218.036585,14.8292683 C219.890244,15.5243902 221.512195,16.6829268 222.902439,18.0731707 C224.292683,19.4634146 225.45122,21.3170732 226.378049,23.402439 C227.304878,25.4878049 227.768293,27.804878 227.768293,30.5853659 C227.768293,33.3658537 227.304878,35.6829268 226.378049,37.7682927 C225.45122,39.8536585 224.292683,41.7073171 222.902439,43.097561 C221.512195,44.4878049 219.890244,45.6463415 218.036585,46.3414634 C216.182927,47.0365854 214.329268,47.5 212.243902,47.5 C210.158537,47.5 208.304878,47.0365854 206.45122,46.3414634 C204.597561,45.6463415 202.97561,44.4878049 201.353659,43.097561 C199.963415,41.7073171 198.804878,39.8536585 197.878049,37.7682927 C196.95122,35.4512195 196.487805,33.1341463 196.487805,30.5853659 M206.219512,30.5853659 C206.219512,33.3658537 206.682927,35.6829268 207.609756,37.304878 C208.536585,38.9268293 210.158537,39.8536585 212.012195,39.8536585 C213.865854,39.8536585 215.487805,38.9268293 216.414634,37.304878 C217.341463,35.6829268 217.804878,33.3658537 217.804878,30.5853659 C217.804878,27.804878 217.341463,25.4878049 216.414634,23.8658537 C215.487805,22.2439024 213.865854,21.3170732 212.012195,21.3170732 C209.926829,21.3170732 208.536585,22.2439024 207.609756,23.8658537 C206.682927,25.4878049 206.219512,27.5731707 206.219512,30.5853659 Z" id="Shape" fill="#54575A"></path>
            <path d="M234.02439,14.597561 L243.52439,14.597561 L243.52439,33.1341463 C243.52439,35.4512195 243.756098,37.0731707 244.45122,38 C245.146341,38.9268293 246.073171,39.3902439 247.463415,39.3902439 C248.621951,39.3902439 249.780488,39.1585366 250.47561,38.4634146 C251.402439,38 252.097561,37.0731707 253.02439,35.6829268 L253.02439,14.597561 L262.52439,14.597561 L262.52439,46.5731707 L254.878049,46.5731707 L254.182927,42.1707317 L253.95122,42.1707317 C252.560976,43.7926829 251.170732,45.1829268 249.54878,46.1097561 C247.926829,47.0365854 246.073171,47.5 243.987805,47.5 C240.512195,47.5 237.963415,46.3414634 236.341463,44.0243902 C234.719512,41.7073171 234.02439,38.695122 234.02439,34.5243902 L234.02439,14.597561" id="Path" fill="#54575A"></path>
            <path d="M269.243902,30.5853659 C269.243902,28.0365854 269.707317,25.7195122 270.402439,23.6341463 C271.097561,21.5487805 272.256098,19.9268293 273.414634,18.304878 C274.573171,16.9146341 275.963415,15.7560976 277.585366,15.0609756 C279.207317,14.3658537 280.829268,13.902439 282.45122,13.902439 C284.304878,13.902439 285.695122,14.1341463 286.853659,14.8292683 C288.012195,15.5243902 289.170732,16.2195122 290.329268,17.3780488 L289.865854,12.5121951 L289.865854,1.15853659 L299.365854,1.15853659 L299.365854,46.3414634 L291.719512,46.3414634 L291.02439,43.097561 L290.792683,43.097561 C289.634146,44.2560976 288.243902,45.1829268 286.853659,45.8780488 C285.231707,46.5731707 283.841463,47.0365854 282.219512,47.0365854 C280.134146,47.0365854 278.512195,46.5731707 276.890244,45.8780488 C275.268293,45.1829268 273.878049,44.0243902 272.719512,42.6341463 C271.560976,41.2439024 270.634146,39.3902439 270.170732,37.304878 C269.47561,35.4512195 269.243902,33.1341463 269.243902,30.5853659 M278.97561,30.3536585 C278.97561,33.597561 279.439024,35.9146341 280.597561,37.304878 C281.52439,38.695122 283.146341,39.3902439 285,39.3902439 C285.926829,39.3902439 287.085366,39.1585366 287.780488,38.695122 C288.707317,38.2317073 289.402439,37.5365854 290.097561,36.3780488 L290.097561,23.402439 C289.170732,22.7073171 288.243902,22.0121951 287.54878,21.7804878 C286.621951,21.5487805 285.695122,21.3170732 285,21.3170732 C283.378049,21.3170732 282.219512,22.0121951 281.060976,23.402439 C279.670732,25.0243902 278.97561,27.3414634 278.97561,30.3536585 Z" id="Shape" fill="#54575A"></path>
            <path d="M307.939024,1.15853659 L317.439024,1.15853659 L317.439024,36.8414634 C317.439024,37.7682927 317.670732,38.4634146 317.902439,38.9268293 C318.365854,39.3902439 318.597561,39.6219512 319.060976,39.6219512 C319.292683,39.6219512 319.52439,39.6219512 319.52439,39.6219512 C319.756098,39.6219512 319.987805,39.6219512 320.219512,39.3902439 L321.378049,46.3414634 C320.914634,46.5731707 320.219512,46.804878 319.292683,46.804878 C318.597561,47.0365854 317.670732,47.0365854 316.512195,47.0365854 C314.890244,47.0365854 313.5,46.804878 312.341463,46.3414634 C311.182927,45.8780488 310.256098,45.1829268 309.560976,44.2560976 C308.865854,43.3292683 308.402439,42.1707317 308.170732,41.0121951 C307.939024,39.6219512 307.707317,38.2317073 307.707317,36.6097561 L307.707317,1.15853659" id="Path" fill="#54575A"></path>
            <path d="M328.097561,51.4390244 C328.560976,51.4390244 328.792683,51.6707317 329.256098,51.6707317 C330.878049,51.6707317 332.036585,51.2073171 332.963415,50.5121951 C333.890244,49.8170732 334.585366,48.6585366 334.817073,47.5 L335.280488,45.8780488 L323,14.8292683 L332.5,14.8292683 L337.134146,28.5 C337.597561,29.8902439 338.060976,31.5121951 338.52439,32.902439 C338.987805,34.2926829 339.219512,35.9146341 339.682927,37.5365854 L339.914634,37.5365854 C340.146341,36.1463415 340.609756,34.5243902 341.073171,32.902439 C341.536585,31.2804878 341.768293,29.8902439 342.231707,28.2682927 L346.170732,14.597561 L355.207317,14.597561 L344.085366,46.804878 C343.390244,48.8902439 342.463415,50.5121951 341.768293,52.1341463 C340.841463,53.7560976 339.914634,54.9146341 338.756098,55.8414634 C337.597561,56.7682927 336.439024,57.695122 335.04878,58.1585366 C333.658537,58.6219512 332.036585,58.8536585 330.182927,58.8536585 C329.256098,58.8536585 328.329268,58.8536585 327.634146,58.6219512 C326.939024,58.6219512 326.243902,58.3902439 325.54878,58.1585366 L327.170732,50.9756098 C327.402439,51.2073171 327.865854,51.2073171 328.097561,51.4390244" id="Path" fill="#54575A"></path>
            <path d="M371.890244,30.5853659 C371.890244,28.0365854 372.353659,25.7195122 373.04878,23.6341463 C373.743902,21.5487805 374.902439,19.9268293 376.060976,18.304878 C377.219512,16.9146341 378.609756,15.7560976 380.231707,15.0609756 C381.853659,14.3658537 383.47561,13.902439 385.097561,13.902439 C386.95122,13.902439 388.341463,14.1341463 389.5,14.8292683 C390.658537,15.5243902 391.817073,16.2195122 392.97561,17.3780488 L392.512195,12.5121951 L392.512195,1.15853659 L402.012195,1.15853659 L402.012195,46.3414634 L394.365854,46.3414634 L393.670732,43.097561 L393.439024,43.097561 C392.280488,44.2560976 390.890244,45.1829268 389.5,45.8780488 C387.878049,46.5731707 386.487805,47.0365854 384.865854,47.0365854 C382.780488,47.0365854 381.158537,46.5731707 379.536585,45.8780488 C377.914634,45.1829268 376.52439,44.0243902 375.365854,42.6341463 C374.207317,41.2439024 373.280488,39.3902439 372.817073,37.304878 C372.121951,35.4512195 371.890244,33.1341463 371.890244,30.5853659 M381.621951,30.3536585 C381.621951,33.597561 382.085366,35.9146341 383.243902,37.304878 C384.170732,38.695122 385.792683,39.3902439 387.646341,39.3902439 C388.573171,39.3902439 389.731707,39.1585366 390.426829,38.695122 C391.353659,38.2317073 392.04878,37.5365854 392.743902,36.3780488 L392.743902,23.402439 C391.817073,22.7073171 390.890244,22.0121951 390.195122,21.7804878 C389.268293,21.5487805 388.341463,21.3170732 387.646341,21.3170732 C386.02439,21.3170732 384.865854,22.0121951 383.707317,23.402439 C382.085366,25.0243902 381.621951,27.3414634 381.621951,30.3536585 Z" id="Shape" fill="#54575A"></path>
            <path d="M408.731707,30.5853659 C408.731707,28.0365854 409.195122,25.7195122 410.121951,23.6341463 C411.04878,21.5487805 412.207317,19.695122 413.597561,18.304878 C414.987805,16.9146341 416.609756,15.7560976 418.463415,15.0609756 C420.317073,14.3658537 422.170732,13.902439 424.02439,13.902439 C426.341463,13.902439 428.195122,14.3658537 430.04878,15.0609756 C431.670732,15.7560976 433.060976,16.9146341 434.219512,18.304878 C435.378049,19.695122 436.304878,21.3170732 436.768293,23.1707317 C437.231707,25.0243902 437.695122,27.1097561 437.695122,29.195122 C437.695122,30.1219512 437.695122,30.8170732 437.463415,31.5121951 C437.463415,32.2073171 437.231707,32.6707317 437.231707,33.1341463 L418,33.1341463 C418.463415,35.6829268 419.390244,37.304878 420.780488,38.4634146 C422.170732,39.6219512 424.02439,40.0853659 426.341463,40.0853659 C428.658537,40.0853659 430.97561,39.3902439 433.292683,38 L436.536585,43.7926829 C434.914634,44.9512195 433.060976,45.8780488 430.97561,46.3414634 C428.890244,47.0365854 427.036585,47.2682927 424.95122,47.2682927 C422.634146,47.2682927 420.54878,46.804878 418.463415,46.1097561 C416.378049,45.4146341 414.756098,44.2560976 413.365854,42.8658537 C411.97561,41.4756098 410.817073,39.6219512 409.890244,37.5365854 C409.195122,35.4512195 408.731707,33.1341463 408.731707,30.5853659 M429.353659,27.1097561 C429.353659,25.2560976 428.890244,23.8658537 428.195122,22.7073171 C427.268293,21.5487805 426.109756,20.8536585 424.02439,20.8536585 C422.402439,20.8536585 421.243902,21.3170732 420.085366,22.4756098 C418.926829,23.402439 418.231707,25.0243902 417.768293,27.1097561 L429.353659,27.1097561 L429.353659,27.1097561 Z" id="Shape" fill="#54575A"></path>
            <path d="M440.243902,14.597561 L449.743902,14.597561 L453.914634,29.6585366 C454.378049,31.2804878 454.841463,32.902439 455.073171,34.5243902 C455.536585,36.1463415 456,37.7682927 456.231707,39.6219512 L456.463415,39.6219512 C456.926829,38 457.158537,36.3780488 457.621951,34.5243902 C458.085366,32.902439 458.54878,31.2804878 458.780488,29.6585366 L462.95122,14.597561 L471.987805,14.597561 L461.560976,46.5731707 L450.670732,46.5731707 L440.243902,14.597561" id="Path" fill="#54575A"></path>
            <path d="M475,30.5853659 C475,28.0365854 475.463415,25.7195122 476.390244,23.6341463 C477.317073,21.5487805 478.47561,19.695122 479.865854,18.304878 C481.256098,16.9146341 482.878049,15.7560976 484.731707,15.0609756 C486.585366,14.3658537 488.439024,13.902439 490.292683,13.902439 C492.609756,13.902439 494.463415,14.3658537 496.317073,15.0609756 C497.939024,15.7560976 499.329268,16.9146341 500.487805,18.304878 C501.646341,19.695122 502.573171,21.3170732 503.036585,23.1707317 C503.5,25.0243902 503.963415,27.1097561 503.963415,29.195122 C503.963415,30.1219512 503.963415,30.8170732 503.731707,31.5121951 C503.731707,32.2073171 503.5,32.6707317 503.5,33.1341463 L484.268293,33.1341463 C484.731707,35.6829268 485.658537,37.304878 487.04878,38.4634146 C488.439024,39.6219512 490.292683,40.0853659 492.609756,40.0853659 C494.926829,40.0853659 497.243902,39.3902439 499.560976,38 L502.804878,43.7926829 C501.182927,44.9512195 499.329268,45.8780488 497.243902,46.3414634 C495.158537,47.0365854 493.304878,47.2682927 491.219512,47.2682927 C488.902439,47.2682927 486.817073,46.804878 484.731707,46.1097561 C482.646341,45.4146341 481.02439,44.2560976 479.634146,42.8658537 C478.243902,41.4756098 477.085366,39.6219512 476.158537,37.5365854 C475.463415,35.4512195 475,33.1341463 475,30.5853659 M495.621951,27.1097561 C495.621951,25.2560976 495.158537,23.8658537 494.463415,22.7073171 C493.536585,21.5487805 492.378049,20.8536585 490.292683,20.8536585 C488.670732,20.8536585 487.512195,21.3170732 486.353659,22.4756098 C485.195122,23.402439 484.5,25.0243902 484.036585,27.1097561 L495.621951,27.1097561 L495.621951,27.1097561 Z" id="Shape" fill="#54575A"></path>
            <path d="M510.45122,1.15853659 L519.95122,1.15853659 L519.95122,36.8414634 C519.95122,37.7682927 520.182927,38.4634146 520.414634,38.9268293 C520.878049,39.3902439 521.109756,39.6219512 521.573171,39.6219512 C521.804878,39.6219512 522.036585,39.6219512 522.036585,39.6219512 C522.268293,39.6219512 522.5,39.6219512 522.731707,39.3902439 L523.890244,46.3414634 C523.426829,46.5731707 522.731707,46.804878 521.804878,46.804878 C521.109756,47.0365854 520.182927,47.0365854 519.02439,47.0365854 C517.402439,47.0365854 516.012195,46.804878 514.853659,46.3414634 C513.695122,45.8780488 512.768293,45.1829268 512.073171,44.2560976 C511.378049,43.3292683 510.914634,42.1707317 510.682927,41.0121951 C510.45122,39.6219512 510.219512,38.2317073 510.219512,36.6097561 L510.219512,1.15853659" id="Path" fill="#54575A"></path>
            <path d="M526.902439,30.5853659 C526.902439,27.804878 527.365854,25.4878049 528.292683,23.402439 C529.219512,21.3170732 530.378049,19.4634146 531.768293,18.0731707 C533.158537,16.6829268 534.780488,15.5243902 536.865854,14.8292683 C538.719512,14.1341463 540.804878,13.6707317 542.658537,13.6707317 C544.743902,13.6707317 546.597561,14.1341463 548.45122,14.8292683 C550.304878,15.5243902 551.926829,16.6829268 553.317073,18.0731707 C554.707317,19.4634146 555.865854,21.3170732 556.792683,23.402439 C557.719512,25.4878049 558.182927,27.804878 558.182927,30.5853659 C558.182927,33.3658537 557.719512,35.6829268 556.792683,37.7682927 C555.865854,39.8536585 554.707317,41.7073171 553.317073,43.097561 C551.926829,44.4878049 550.304878,45.6463415 548.45122,46.3414634 C546.597561,47.0365854 544.743902,47.5 542.658537,47.5 C540.573171,47.5 538.719512,47.0365854 536.865854,46.3414634 C535.012195,45.6463415 533.390244,44.4878049 531.768293,43.097561 C530.378049,41.7073171 529.219512,39.8536585 528.292683,37.7682927 C527.365854,35.4512195 526.902439,33.1341463 526.902439,30.5853659 M536.634146,30.5853659 C536.634146,33.3658537 537.097561,35.6829268 538.02439,37.304878 C538.95122,38.9268293 540.573171,39.8536585 542.426829,39.8536585 C544.280488,39.8536585 545.902439,38.9268293 546.829268,37.304878 C547.756098,35.6829268 548.219512,33.3658537 548.219512,30.5853659 C548.219512,27.804878 547.756098,25.4878049 546.829268,23.8658537 C545.902439,22.2439024 544.280488,21.3170732 542.426829,21.3170732 C540.341463,21.3170732 538.95122,22.2439024 538.02439,23.8658537 C537.097561,25.4878049 536.634146,27.5731707 536.634146,30.5853659 Z" id="Shape" fill="#54575A"></path>
            <path d="M574.170732,48.8902439 L574.170732,58.1585366 L564.670732,58.1585366 L564.670732,14.597561 L572.317073,14.597561 L573.012195,17.8414634 L573.243902,17.8414634 C574.402439,16.6829268 575.792683,15.7560976 577.414634,15.0609756 C579.036585,14.3658537 580.658537,13.902439 582.280488,13.902439 C584.134146,13.902439 585.987805,14.3658537 587.609756,15.0609756 C589.231707,15.7560976 590.390244,16.9146341 591.54878,18.304878 C592.707317,19.695122 593.402439,21.3170732 594.097561,23.402439 C594.792683,25.4878049 595.02439,27.5731707 595.02439,30.1219512 C595.02439,32.902439 594.560976,35.2195122 593.865854,37.5365854 C593.170732,39.6219512 592.012195,41.4756098 590.853659,42.8658537 C589.695122,44.2560976 588.073171,45.4146341 586.45122,46.3414634 C584.829268,47.0365854 583.207317,47.5 581.353659,47.5 C579.963415,47.5 578.573171,47.2682927 577.414634,46.5731707 C576.02439,45.8780488 574.865854,45.1829268 573.707317,44.0243902 L574.170732,48.8902439 M574.170732,37.5365854 C575.097561,38.2317073 575.792683,38.9268293 576.719512,39.1585366 C577.646341,39.3902439 578.341463,39.6219512 579.268293,39.6219512 C580.890244,39.6219512 582.280488,38.9268293 583.439024,37.304878 C584.597561,35.9146341 585.292683,33.3658537 585.292683,30.1219512 C585.292683,24.3292683 583.439024,21.5487805 579.731707,21.5487805 C577.878049,21.5487805 576.02439,22.4756098 574.170732,24.5609756 L574.170732,37.5365854 Z" id="Shape" fill="#54575A"></path>
            <path d="M599.890244,30.5853659 C599.890244,28.0365854 600.353659,25.7195122 601.280488,23.6341463 C602.207317,21.5487805 603.365854,19.695122 604.756098,18.304878 C606.146341,16.9146341 607.768293,15.7560976 609.621951,15.0609756 C611.47561,14.3658537 613.329268,13.902439 615.182927,13.902439 C617.5,13.902439 619.353659,14.3658537 621.207317,15.0609756 C622.829268,15.7560976 624.219512,16.9146341 625.378049,18.304878 C626.536585,19.695122 627.463415,21.3170732 627.926829,23.1707317 C628.390244,25.0243902 628.853659,27.1097561 628.853659,29.195122 C628.853659,30.1219512 628.853659,30.8170732 628.621951,31.5121951 C628.621951,32.2073171 628.390244,32.6707317 628.390244,33.1341463 L609.158537,33.1341463 C609.621951,35.6829268 610.54878,37.304878 611.939024,38.4634146 C613.329268,39.6219512 615.182927,40.0853659 617.5,40.0853659 C619.817073,40.0853659 622.134146,39.3902439 624.45122,38 L627.695122,43.7926829 C626.073171,44.9512195 624.219512,45.8780488 622.134146,46.3414634 C620.04878,47.0365854 618.195122,47.2682927 616.109756,47.2682927 C613.792683,47.2682927 611.707317,46.804878 609.621951,46.1097561 C607.536585,45.4146341 605.914634,44.2560976 604.52439,42.8658537 C603.134146,41.4756098 601.97561,39.6219512 601.04878,37.5365854 C600.353659,35.4512195 599.890244,33.1341463 599.890244,30.5853659 M620.512195,27.1097561 C620.512195,25.2560976 620.04878,23.8658537 619.353659,22.7073171 C618.426829,21.5487805 617.268293,20.8536585 615.182927,20.8536585 C613.560976,20.8536585 612.402439,21.3170732 611.243902,22.4756098 C610.085366,23.6341463 609.390244,25.0243902 608.926829,27.1097561 L620.512195,27.1097561 L620.512195,27.1097561 Z" id="Shape" fill="#54575A"></path>
            <path d="M633.487805,30.5853659 C633.487805,28.0365854 633.95122,25.7195122 634.646341,23.6341463 C635.341463,21.5487805 636.5,19.9268293 637.658537,18.304878 C638.817073,16.9146341 640.207317,15.7560976 641.829268,15.0609756 C643.45122,14.3658537 645.073171,13.902439 646.695122,13.902439 C648.54878,13.902439 649.939024,14.1341463 651.097561,14.8292683 C652.256098,15.5243902 653.414634,16.2195122 654.573171,17.3780488 L654.109756,12.5121951 L654.109756,1.15853659 L663.609756,1.15853659 L663.609756,46.3414634 L655.963415,46.3414634 L655.268293,43.097561 L655.036585,43.097561 C653.878049,44.2560976 652.487805,45.1829268 651.097561,45.8780488 C649.47561,46.5731707 648.085366,47.0365854 646.463415,47.0365854 C644.378049,47.0365854 642.756098,46.5731707 641.134146,45.8780488 C639.512195,45.1829268 638.121951,44.0243902 636.963415,42.6341463 C635.804878,41.2439024 634.878049,39.3902439 634.414634,37.304878 C633.719512,35.4512195 633.487805,33.1341463 633.487805,30.5853659 M643.219512,30.3536585 C643.219512,33.597561 643.682927,35.9146341 644.841463,37.304878 C645.768293,38.695122 647.390244,39.3902439 649.243902,39.3902439 C650.170732,39.3902439 651.329268,39.1585366 652.02439,38.695122 C652.95122,38.2317073 653.646341,37.5365854 654.341463,36.3780488 L654.341463,23.402439 C653.414634,22.7073171 652.487805,22.0121951 651.792683,21.7804878 C650.865854,21.5487805 649.939024,21.3170732 649.243902,21.3170732 C647.621951,21.3170732 646.463415,22.0121951 645.304878,23.402439 C643.914634,25.0243902 643.219512,27.3414634 643.219512,30.3536585 Z" id="Shape" fill="#54575A"></path>
            <path d="M685.621951,1.15853659 L695.121951,1.15853659 L695.121951,12.2804878 L694.890244,17.1463415 C696.04878,15.9878049 697.439024,15.0609756 698.829268,14.597561 C700.219512,13.902439 701.841463,13.6707317 703.231707,13.6707317 C705.085366,13.6707317 706.939024,14.1341463 708.560976,14.8292683 C710.182927,15.5243902 711.341463,16.6829268 712.5,18.0731707 C713.658537,19.4634146 714.353659,21.0853659 715.04878,23.1707317 C715.743902,25.2560976 715.97561,27.3414634 715.97561,29.8902439 C715.97561,32.6707317 715.512195,34.9878049 714.817073,37.304878 C714.121951,39.3902439 712.963415,41.2439024 711.804878,42.8658537 C710.646341,44.2560976 709.02439,45.4146341 707.402439,46.3414634 C705.780488,47.0365854 704.158537,47.5 702.304878,47.5 C700.914634,47.5 699.52439,47.2682927 697.902439,46.5731707 C696.512195,45.8780488 695.121951,44.9512195 693.963415,43.5609756 L693.731707,43.5609756 L693.036585,46.804878 L685.621951,46.804878 L685.621951,1.15853659 M695.121951,37.5365854 C696.04878,38.2317073 696.743902,38.9268293 697.670732,39.1585366 C698.597561,39.3902439 699.292683,39.6219512 700.219512,39.6219512 C701.841463,39.6219512 703.231707,38.9268293 704.390244,37.304878 C705.54878,35.9146341 706.243902,33.3658537 706.243902,30.1219512 C706.243902,24.3292683 704.390244,21.5487805 700.682927,21.5487805 C698.829268,21.5487805 696.97561,22.4756098 695.121951,24.5609756 L695.121951,37.5365854 L695.121951,37.5365854 Z" id="Shape" fill="#54575A"></path>
            <path d="M723.853659,51.4390244 C724.317073,51.4390244 724.54878,51.6707317 725.012195,51.6707317 C726.634146,51.6707317 727.792683,51.2073171 728.719512,50.5121951 C729.646341,49.8170732 730.341463,48.6585366 730.573171,47.5 L731.036585,45.8780488 L718.756098,14.8292683 L728.256098,14.8292683 L732.890244,28.5 C733.353659,29.8902439 733.817073,31.5121951 734.280488,32.902439 C734.743902,34.2926829 734.97561,35.9146341 735.439024,37.5365854 L735.670732,37.5365854 C735.902439,36.1463415 736.365854,34.5243902 736.829268,32.902439 C737.292683,31.2804878 737.52439,29.8902439 737.987805,28.2682927 L741.926829,14.597561 L750.963415,14.597561 L739.841463,46.804878 C739.146341,48.8902439 738.219512,50.5121951 737.52439,52.1341463 C736.597561,53.7560976 735.670732,54.9146341 734.512195,55.8414634 C733.353659,56.7682927 732.195122,57.695122 730.804878,58.1585366 C729.414634,58.6219512 727.792683,58.8536585 725.939024,58.8536585 C725.012195,58.8536585 724.085366,58.8536585 723.390244,58.6219512 C722.695122,58.6219512 722,58.3902439 721.304878,58.1585366 L722.926829,50.9756098 C723.158537,51.2073171 723.390244,51.2073171 723.853659,51.4390244" id="Path" fill="#54575A"></path>
        </g>
    </g>
</svg>