<?xml version="1.0" encoding="UTF-8"?>
<svg width="105px" height="72px" viewBox="0 0 105 72" version="1.1" xmlns="http://www.w3.org/2000/svg" xmlns:xlink="http://www.w3.org/1999/xlink">
    <!-- Generator: Sketch 47.1 (45422) - http://www.bohemiancoding.com/sketch -->
    <title>medieval </title>
    <desc>Created with Sketch.</desc>
    <defs>
        <polygon id="path-1" points="104.904451 0.616 0 0.616 0 68.9072 104.904451 68.9072 104.904451 0.616"></polygon>
    </defs>
    <g id="Play-landing-" stroke="none" stroke-width="1" fill="none" fill-rule="evenodd" opacity="0.8">
        <g id="AIMMO-Prototype-landing---L-Desktops" transform="translate(-761.000000, -2222.000000)">
            <g id="Deliver-through-time-Copy" transform="translate(0.000000, 1829.000000)">
                <g id="Group-4" transform="translate(153.000000, 322.000000)">
                    <g id="medieval-" transform="translate(608.000000, 70.000000)">
                        <g id="Group-3" transform="translate(0.000000, 0.384300)">
                            <mask id="mask-2" fill="white">
                                <use xlink:href="#path-1"></use>
                            </mask>
                            <g id="Clip-2"></g>
                            <path d="M104.3466,7.7692 C104.3466,7.7692 105.0216,5.7502 104.8866,4.6732 C104.7526,3.5952 104.3506,3.1952 102.3306,1.5792 C100.3096,-0.0378 98.6986,0.7802 98.0246,1.1842 C97.3516,1.5882 96.1506,1.3372 96.1506,1.3372 C96.1506,1.3372 94.4226,1.5092 93.4796,1.7782 C92.5356,2.0482 91.1006,5.2212 90.2926,5.7602 C89.4836,6.2982 91.3286,11.7012 91.3286,11.7012 C91.3286,11.7012 92.3546,11.6742 90.8726,11.8082 C89.3906,11.9432 85.3496,12.6172 84.2716,13.5602 C83.1936,14.5032 78.2086,19.6222 76.9966,21.2392 C75.7836,22.8562 72.9546,30.6702 71.6076,33.2302 C71.2276,33.9522 70.9246,34.9012 70.6796,35.9072 L52.9996,35.9072 L52.9996,31.1602 L52.8336,29.9072 L-0.0004,29.9072 L-0.0004,61.9072 L53.9996,61.9072 L53.9996,39.9072 L64.9866,39.9072 C65.1016,39.4422 65.4616,38.4712 66.4996,38.2822 C67.8746,38.0322 69.9996,38.2822 69.9996,38.2822 L69.8836,39.9072 L69.9736,39.9072 C69.8426,40.9262 69.7666,41.7162 69.7216,41.9872 C69.5866,42.7952 69.5866,44.5472 69.5866,44.5472 C69.5866,44.5472 70.6646,45.0862 71.2036,46.0292 C71.7426,46.9722 72.9546,46.8392 73.6286,47.3782 C74.3016,47.9172 75.5146,48.1892 75.5146,48.1892 C75.5146,48.1892 76.4576,48.8672 75.7836,49.4062 C75.1106,49.9452 72.9546,53.3242 72.8196,54.8062 C72.6856,56.2872 72.1466,59.8112 72.1466,59.8112 L71.6076,61.4692 L70.7986,63.1672 C70.7986,63.1672 69.9906,64.4092 69.4516,65.3522 C68.9126,66.2952 69.3946,68.9072 69.3946,68.9072 L73.2246,68.9072 L80.7686,68.2452 L80.9026,66.9102 L79.5556,65.8322 L76.3216,64.3502 L75.2426,62.8682 L74.7006,61.3862 C74.7006,61.3862 74.8296,59.6352 75.7726,58.5572 C76.7156,57.4802 79.5336,52.0912 79.5336,52.0912 L80.9936,49.5312 C80.9936,49.5312 82.9706,47.5102 81.8926,51.0132 C80.8146,54.5162 83.6906,61.5212 83.6906,61.5212 L82.9996,63.0652 L82.9996,66.6412 L87.0036,67.0452 C87.0036,67.0452 91.6816,66.5062 92.4896,66.7752 C93.2976,67.0452 94.3756,66.1022 94.3756,66.1022 L93.8366,64.8892 L91.1426,63.4072 L89.2566,62.8682 L88.8516,62.1952 L87.3696,62.0602 C87.3696,62.0602 87.5046,60.1742 87.6396,59.0962 C87.7746,58.0182 88.3126,55.0542 88.1786,53.9772 C88.0436,52.8992 87.7746,51.5522 87.7746,51.5522 C87.7746,51.5522 87.2356,50.8782 88.9866,50.4742 C90.7376,50.0702 91.2766,49.5312 92.2196,47.5102 C93.1636,45.4892 90.4686,26.4932 90.4686,26.4932 C90.4686,26.4932 93.1636,25.9542 95.0496,24.4722 C96.9356,22.9902 97.0706,20.0272 97.7436,17.1972 C97.8846,16.6072 97.9516,16.2132 97.9746,15.9452 C98.5776,16.0572 99.7186,16.2612 101.3816,16.5242 C103.9406,16.9282 102.5936,15.9852 102.8636,15.1772 C103.1326,14.3682 103.2676,13.8292 103.2676,13.8292 L104.4796,13.0212 L104.8846,11.6742 L104.0766,9.2502 L104.3466,7.7692 Z" id="Fill-1" fill="#000000" mask="url(#mask-2)"></path>
                        </g>
                        <path d="M43.8703,52.9986 C43.8703,50.8456 43.5083,48.7776 42.8413,46.8516 C40.2953,39.4956 33.3073,34.2126 25.0843,34.2126 C14.7093,34.2126 6.2993,42.6236 6.2993,52.9986 C6.2993,63.3736 14.7093,71.7846 25.0843,71.7846 C35.4593,71.7846 43.8703,63.3736 43.8703,52.9986" id="Fill-4" fill="#000000"></path>
                        <path d="M25.0845,34.813 C15.0565,34.813 6.8985,42.971 6.8985,52.999 C6.8985,63.027 15.0565,71.185 25.0845,71.185 C35.1125,71.185 43.2705,63.027 43.2705,52.999 C43.2705,50.959 42.9355,48.957 42.2745,47.048 C39.7415,39.73 32.8335,34.813 25.0845,34.813 M25.0845,72.384 C14.3955,72.384 5.6985,63.688 5.6985,52.999 C5.6985,42.309 14.3955,33.614 25.0845,33.614 C33.3445,33.614 40.7085,38.855 43.4085,46.656 C44.1135,48.691 44.4705,50.825 44.4705,52.999 C44.4705,63.688 35.7735,72.384 25.0845,72.384" id="Fill-6" fill="#FFFFFF"></path>
                        <path d="M30,70.8749 L42,45.0419" id="Stroke-8" stroke="#FFFFFF" stroke-width="1.2"></path>
                        <path d="M7.5833,60.3749 L19.1663,35.2919" id="Stroke-10" stroke="#FFFFFF" stroke-width="1.2"></path>
                        <path d="M20.5403,71.0415 L36.5643,37.8655" id="Stroke-12" stroke="#FFFFFF" stroke-width="1.2"></path>
                        <path d="M13,67.1249 L28.75,34.7079" id="Stroke-14" stroke="#FFFFFF" stroke-width="1.2"></path>
                        <path d="M27.1322,53.0444 C27.1322,51.6304 25.9862,50.4844 24.5722,50.4844 C23.1582,50.4844 22.0122,51.6304 22.0122,53.0444 C22.0122,54.4584 23.1582,55.6044 24.5722,55.6044 C25.9862,55.6044 27.1322,54.4584 27.1322,53.0444" id="Fill-16" fill="#FFFFFF"></path>
                        <polygon id="Fill-18" fill="#000000" points="23.8905 54.9833 26.5215 53.7103 25.2485 51.0793 22.6175 52.3523"></polygon>
                        <polygon id="Fill-20" fill="#000000" points="41.7995 51.9919 14.7045 39.5279 13.4405 42.2379 40.7155 55.2429"></polygon>
                        <polygon id="Stroke-22" stroke="#FFFFFF" stroke-width="1.2" points="41.7995 51.9919 14.7045 39.5279 13.4405 42.2379 40.7155 55.2429"></polygon>
                        <polygon id="Fill-24" fill="#000000" points="36.3806 62.8384 9.2856 51.3664 8.0216 53.8604 35.2966 65.8314"></polygon>
                        <polygon id="Stroke-26" stroke="#FFFFFF" stroke-width="1.2" points="36.3806 62.8384 9.2856 51.3664 8.0216 53.8604 35.2966 65.8314"></polygon>
                    </g>
                </g>
            </g>
        </g>
    </g>
</svg>