<?xml version="1.0" encoding="UTF-8"?>
<svg width="180px" height="89px" viewBox="0 0 180 89" version="1.1" xmlns="http://www.w3.org/2000/svg" xmlns:xlink="http://www.w3.org/1999/xlink">
    <!-- Generator: Sketch 47.1 (45422) - http://www.bohemiancoding.com/sketch -->
    <title>Modern</title>
    <desc>Created with Sketch.</desc>
    <defs>
        <polygon id="path-1" points="110.682648 0.322970588 0.00023125 0.322970588 0.00023125 78.4194275 110.682648 78.4194275 110.682648 0.322970588"></polygon>
    </defs>
    <g id="Play-landing-" stroke="none" stroke-width="1" fill="none" fill-rule="evenodd" opacity="0.8">
        <g id="AIMMO-Prototype-landing---L-Desktops" transform="translate(-1249.000000, -2207.000000)">
            <g id="Deliver-through-time-Copy" transform="translate(0.000000, 1829.000000)">
                <g id="Group-4" transform="translate(153.000000, 322.000000)">
                    <g id="Modern" transform="translate(1096.000000, 56.000000)">
                        <g id="Group-3">
                            <mask id="mask-2" fill="white">
                                <use xlink:href="#path-1"></use>
                            </mask>
                            <g id="Clip-2"></g>
                            <path d="M110.100669,3.16263333 L104.19069,1.09701569 L1.15648125,0.322505882 L0.00023125,1.74295686 C0.00023125,1.74295686 0.25691875,66.1558392 0.642335417,70.4156431 C1.02775208,74.6754471 4.49650208,76.3538098 4.49650208,76.3538098 L29.8530646,76.9935549 C30.1930021,69.927702 35.8647938,64.2993392 42.9811271,64.2993392 C50.3171479,64.2993392 56.1423354,70.2739078 56.1423354,77.6449176 L56.1423354,77.6557608 L109.85169,78.4194275 L110.682648,69.8998196 L110.100669,3.16263333 Z" id="Fill-1" fill="#000000" mask="url(#mask-2)"></path>
                        </g>
                        <path d="M43.5,85.0190508 C39.3475254,85.0190508 35.9809492,81.6524746 35.9809492,77.5 C35.9809492,73.3475254 39.3475254,69.9809492 43.5,69.9809492 C47.6524746,69.9809492 51.0190508,73.3475254 51.0190508,77.5 C51.0190508,81.6524746 47.6524746,85.0190508 43.5,85.0190508 M43.5,66 C37.1488814,66 32,71.1488814 32,77.5 C32,83.8511186 37.1488814,89 43.5,89 C49.8511186,89 55,83.8511186 55,77.5 C55,71.1488814 49.8511186,66 43.5,66" id="Fill-4" fill="#000000"></path>
                        <path d="M37,77 C37,73.6864333 39.6864333,71 43,71 C46.3135667,71 49,73.6864333 49,77 C49,80.3135667 46.3135667,83 43,83 C39.6864333,83 37,80.3135667 37,77" id="Fill-6" fill="#FFFFFF"></path>
                        <path d="M37,77 C37,73.6864333 39.6864333,71 43,71 C46.3135667,71 49,73.6864333 49,77 C49,80.3135667 46.3135667,83 43,83 C39.6864333,83 37,80.3135667 37,77 Z" id="Stroke-8" stroke="#000000" stroke-width="0.75"></path>
                        <path d="M39,77 C39,74.7910884 40.7910884,73 43,73 C45.2096421,73 47,74.7910884 47,77 C47,79.2089116 45.2096421,81 43,81 C40.7910884,81 39,79.2089116 39,77 Z" id="Stroke-10" stroke="#000000" stroke-width="0.75"></path>
                        <path d="M40,77.5 C40,75.5669456 41.5669456,74 43.5,74 C45.4330544,74 47,75.5669456 47,77.5 C47,79.4330544 45.4330544,81 43.5,81 C41.5669456,81 40,79.4330544 40,77.5" id="Fill-12" fill="#000000"></path>
                        <path d="M43,72.489 C43,72.219 43.219,72 43.489,72 C43.759,72 43.977,72.219 43.977,72.489 C43.977,72.759 43.759,72.978 43.489,72.978 C43.219,72.978 43,72.759 43,72.489" id="Fill-14" fill="#000000"></path>
                        <path d="M43,82.489 C43,82.219 43.219,82 43.489,82 C43.759,82 43.977,82.219 43.977,82.489 C43.977,82.759 43.759,82.978 43.489,82.978 C43.219,82.978 43,82.759 43,82.489" id="Fill-16" fill="#000000"></path>
                        <path d="M41.0168114,72.6154701 C40.9468114,72.3544701 41.1018114,72.0864701 41.3628114,72.0164701 C41.6228114,71.9474701 41.8908114,72.1014701 41.9608114,72.3624701 C42.0308114,72.6234701 41.8758114,72.8914701 41.6158114,72.9614701 C41.3548114,73.0304701 41.0868114,72.8764701 41.0168114,72.6154701" id="Fill-18" fill="#000000"></path>
                        <path d="M44.0168114,82.6154701 C43.9468114,82.3544701 44.1018114,82.0864701 44.3628114,82.0164701 C44.6228114,81.9474701 44.8908114,82.1014701 44.9608114,82.3624701 C45.0308114,82.6234701 44.8758114,82.8914701 44.6158114,82.9614701 C44.3548114,83.0304701 44.0868114,82.8764701 44.0168114,82.6154701" id="Fill-20" fill="#000000"></path>
                        <path d="M40.0656019,73.7333841 C39.9306019,73.4993841 40.0106019,73.2003841 40.2446019,73.0653841 C40.4786019,72.9303841 40.7776019,73.0113841 40.9116019,73.2443841 C41.0466019,73.4783841 40.9666019,73.7773841 40.7336019,73.9123841 C40.4996019,74.0473841 40.2006019,73.9673841 40.0656019,73.7333841" id="Fill-22" fill="#000000"></path>
                        <path d="M45.0656019,82.7333841 C44.9306019,82.4993841 45.0106019,82.2003841 45.2446019,82.0653841 C45.4786019,81.9303841 45.7776019,82.0113841 45.9116019,82.2443841 C46.0466019,82.4783841 45.9666019,82.7773841 45.7336019,82.9123841 C45.4996019,83.0473841 45.2006019,82.9673841 45.0656019,82.7333841" id="Fill-24" fill="#000000"></path>
                        <path d="M39.14325,73.83425 C38.95225,73.64325 38.95225,73.33425 39.14325,73.14325 C39.33425,72.95225 39.64325,72.95225 39.83425,73.14325 C40.02525,73.33425 40.02525,73.64325 39.83425,73.83425 C39.64325,74.02525 39.33425,74.02525 39.14325,73.83425" id="Fill-26" fill="#000000"></path>
                        <path d="M46.14325,81.83425 C45.95225,81.64325 45.95225,81.33425 46.14325,81.14325 C46.33425,80.95225 46.64325,80.95225 46.83425,81.14325 C47.02525,81.33425 47.02525,81.64325 46.83425,81.83425 C46.64325,82.02525 46.33425,82.02525 46.14325,81.83425" id="Fill-28" fill="#000000"></path>
                        <path d="M38.2446019,74.9116377 C38.0106019,74.7766377 37.9306019,74.4776377 38.0656019,74.2436377 C38.2006019,74.0106377 38.4996019,73.9306377 38.7336019,74.0656377 C38.9666019,74.1996377 39.0476019,74.4986377 38.9126019,74.7326377 C38.7776019,74.9666377 38.4786019,75.0466377 38.2446019,74.9116377" id="Fill-30" fill="#000000"></path>
                        <path d="M47.2446019,79.9116377 C47.0106019,79.7766377 46.9306019,79.4776377 47.0656019,79.2436377 C47.2006019,79.0106377 47.4996019,78.9306377 47.7336019,79.0656377 C47.9666019,79.1996377 48.0476019,79.4986377 47.9126019,79.7326377 C47.7776019,79.9666377 47.4786019,80.0466377 47.2446019,79.9116377" id="Fill-32" fill="#000000"></path>
                        <path d="M38.3624701,76.9608157 C38.1014701,76.8908157 37.9474701,76.6228157 38.0164701,76.3618157 C38.0864701,76.1018157 38.3544701,75.9468157 38.6154701,76.0168157 C38.8764701,76.0868157 39.0304701,76.3548157 38.9614701,76.6148157 C38.8914701,76.8758157 38.6234701,77.0308157 38.3624701,76.9608157" id="Fill-34" fill="#000000"></path>
                        <path d="M48.3624701,78.9608157 C48.1014701,78.8908157 47.9474701,78.6228157 48.0164701,78.3618157 C48.0864701,78.1018157 48.3544701,77.9468157 48.6154701,78.0168157 C48.8764701,78.0868157 49.0304701,78.3548157 48.9614701,78.6148157 C48.8914701,78.8758157 48.6234701,79.0308157 48.3624701,78.9608157" id="Fill-36" fill="#000000"></path>
                        <path d="M38.489,77.977 C38.219,77.977 38,77.758 38,77.488 C38,77.218 38.219,77 38.489,77 C38.759,77 38.978,77.218 38.978,77.488 C38.978,77.758 38.759,77.977 38.489,77.977" id="Fill-38" fill="#000000"></path>
                        <path d="M48.489,77.977 C48.219,77.977 48,77.758 48,77.488 C48,77.218 48.219,77 48.489,77 C48.759,77 48.978,77.218 48.978,77.488 C48.978,77.758 48.759,77.977 48.489,77.977" id="Fill-40" fill="#000000"></path>
                        <path d="M38.6154701,78.9608157 C38.3544701,79.0308157 38.0864701,78.8758157 38.0164701,78.6148157 C37.9474701,78.3548157 38.1014701,78.0868157 38.3624701,78.0168157 C38.6234701,77.9468157 38.8914701,78.1018157 38.9614701,78.3618157 C39.0304701,78.6228157 38.8764701,78.8908157 38.6154701,78.9608157" id="Fill-42" fill="#000000"></path>
                        <path d="M48.6154701,76.9608157 C48.3544701,77.0308157 48.0864701,76.8758157 48.0164701,76.6148157 C47.9474701,76.3548157 48.1014701,76.0868157 48.3624701,76.0168157 C48.6234701,75.9468157 48.8914701,76.1018157 48.9614701,76.3618157 C49.0304701,76.6228157 48.8764701,76.8908157 48.6154701,76.9608157" id="Fill-44" fill="#000000"></path>
                        <path d="M38.7333841,79.9116377 C38.4993841,80.0466377 38.2003841,79.9666377 38.0653841,79.7326377 C37.9303841,79.4986377 38.0113841,79.1996377 38.2443841,79.0656377 C38.4783841,78.9306377 38.7773841,79.0106377 38.9123841,79.2436377 C39.0473841,79.4776377 38.9673841,79.7766377 38.7333841,79.9116377" id="Fill-46" fill="#000000"></path>
                        <path d="M47.7333841,74.9116377 C47.4993841,75.0466377 47.2003841,74.9666377 47.0653841,74.7326377 C46.9303841,74.4986377 47.0113841,74.1996377 47.2443841,74.0656377 C47.4783841,73.9306377 47.7773841,74.0106377 47.9123841,74.2436377 C48.0473841,74.4776377 47.9673841,74.7766377 47.7333841,74.9116377" id="Fill-48" fill="#000000"></path>
                        <path d="M39.83425,81.83425 C39.64325,82.02525 39.33425,82.02525 39.14325,81.83425 C38.95225,81.64325 38.95225,81.33425 39.14325,81.14325 C39.33425,80.95225 39.64325,80.95225 39.83425,81.14325 C40.02525,81.33425 40.02525,81.64325 39.83425,81.83425" id="Fill-50" fill="#000000"></path>
                        <path d="M46.83425,73.83425 C46.64325,74.02525 46.33425,74.02525 46.14325,73.83425 C45.95225,73.64325 45.95225,73.33425 46.14325,73.14325 C46.33425,72.95225 46.64325,72.95225 46.83425,73.14325 C47.02525,73.33425 47.02525,73.64325 46.83425,73.83425" id="Fill-52" fill="#000000"></path>
                        <path d="M40.9116377,82.7333841 C40.7766377,82.9673841 40.4776377,83.0473841 40.2436377,82.9123841 C40.0106377,82.7773841 39.9306377,82.4783841 40.0656377,82.2443841 C40.1996377,82.0113841 40.4986377,81.9303841 40.7326377,82.0653841 C40.9666377,82.2003841 41.0466377,82.4993841 40.9116377,82.7333841" id="Fill-54" fill="#000000"></path>
                        <path d="M45.9116377,73.7333841 C45.7766377,73.9673841 45.4776377,74.0473841 45.2436377,73.9123841 C45.0106377,73.7773841 44.9306377,73.4783841 45.0656377,73.2443841 C45.1996377,73.0113841 45.4986377,72.9303841 45.7326377,73.0653841 C45.9666377,73.2003841 46.0466377,73.4993841 45.9116377,73.7333841" id="Fill-56" fill="#000000"></path>
                        <path d="M41.9608157,82.6154701 C41.8908157,82.8764701 41.6228157,83.0304701 41.3618157,82.9614701 C41.1018157,82.8914701 40.9468157,82.6234701 41.0168157,82.3624701 C41.0868157,82.1014701 41.3548157,81.9474701 41.6148157,82.0164701 C41.8758157,82.0864701 42.0308157,82.3544701 41.9608157,82.6154701" id="Fill-58" fill="#000000"></path>
                        <path d="M44.9608157,72.6154701 C44.8908157,72.8764701 44.6228157,73.0304701 44.3618157,72.9614701 C44.1018157,72.8914701 43.9468157,72.6234701 44.0168157,72.3624701 C44.0868157,72.1014701 44.3548157,71.9474701 44.6148157,72.0164701 C44.8758157,72.0864701 45.0308157,72.3544701 44.9608157,72.6154701" id="Fill-60" fill="#000000"></path>
                        <path d="M177.784602,62.0717949 C177.401882,62.1692308 174.053084,60.8051282 172.713564,59.7333333 C171.374045,58.6615385 169.269086,54.6666667 169.269086,54.6666667 L173.479004,54.2769231 L174.627163,55.1538462 C174.627163,55.1538462 175.488283,55.8358974 176.062363,57.0051282 C176.636442,58.174359 178.167321,61.974359 177.784602,62.0717949 L177.784602,62.0717949 Z M142.191662,47.5538462 C142.191662,47.5538462 131.953908,45.8 125.160632,44.6307692 C118.367356,43.4615385 118.558716,39.8564103 118.558716,39.8564103 C118.558716,39.8564103 116.645117,30.1128205 116.358077,27.1897436 C116.071037,24.2666667 118.558716,24.7538462 118.558716,24.7538462 L126.500151,25.3384615 C126.500151,25.3384615 128.03103,25.1435897 129.17919,25.6307692 C130.327349,26.1179487 132.815027,26.9948718 134.154547,28.0666667 C135.494066,29.1384615 146.688619,41.6102564 146.688619,41.6102564 L146.975659,48.3333333 L142.191662,47.5538462 Z M179.98524,67.3333333 C179.88956,66.4564103 178.837081,65.9692308 178.837081,65.9692308 C178.837081,65.9692308 179.028441,64.2153846 178.741401,62.8512821 C178.454361,61.4871795 177.401882,56.3230769 175.296923,54.7641026 C173.191964,53.2051282 156.639334,44.3384615 156.639334,44.3384615 L154.247335,44.7282051 L133.006387,23.0974359 C133.006387,23.0974359 124.203832,10.625641 122.481593,9.65128205 C120.759354,8.67692308 114.922878,5.26666667 113.487679,4.77948718 L111.19136,4 L111,19.5897436 L111.28704,65.1897436 L111.19136,72.7897436 L111,78.7333333 L136.833585,79.1230769 L139.608304,79.9025641 L140.182383,80 L142.963991,79.8869744 C142.869841,79.2657231 142.80631,78.6343385 142.80631,77.9865846 C142.80631,71.1387897 148.257005,65.5880615 154.980626,65.5880615 C161.705013,65.5880615 167.155708,71.1387897 167.155708,77.9865846 C167.155708,78.296041 167.131979,78.5992615 167.109781,78.9032615 L168.886367,78.8307692 C168.886367,78.8307692 175.966683,76.7846154 176.445082,76.4923077 C176.923482,76.2 178.741401,75.0307692 179.219801,72.8871795 C179.6982,70.7435897 180.08092,68.2102564 179.98524,67.3333333 L179.98524,67.3333333 Z" id="Fill-62" fill="#000000"></path>
                        <path d="M155.5,85.0190508 C151.347525,85.0190508 147.980949,81.6524746 147.980949,77.5 C147.980949,73.3475254 151.347525,69.9809492 155.5,69.9809492 C159.652475,69.9809492 163.019051,73.3475254 163.019051,77.5 C163.019051,81.6524746 159.652475,85.0190508 155.5,85.0190508 M155.5,66 C149.148881,66 144,71.1488814 144,77.5 C144,83.8511186 149.148881,89 155.5,89 C161.851119,89 167,83.8511186 167,77.5 C167,71.1488814 161.851119,66 155.5,66" id="Fill-64" fill="#000000"></path>
                        <path d="M149,77 C149,73.6864333 151.686433,71 155,71 C158.313567,71 161,73.6864333 161,77 C161,80.3135667 158.313567,83 155,83 C151.686433,83 149,80.3135667 149,77" id="Fill-66" fill="#FFFFFF"></path>
                        <path d="M149,77 C149,73.6864333 151.686433,71 155,71 C158.313567,71 161,73.6864333 161,77 C161,80.3135667 158.313567,83 155,83 C151.686433,83 149,80.3135667 149,77 Z" id="Stroke-68" stroke="#000000" stroke-width="0.75"></path>
                        <path d="M151,77 C151,74.7910884 152.791088,73 155,73 C157.209642,73 159,74.7910884 159,77 C159,79.2089116 157.209642,81 155,81 C152.791088,81 151,79.2089116 151,77 Z" id="Stroke-70" stroke="#000000" stroke-width="0.75"></path>
                        <path d="M152,77.5 C152,75.5669456 153.566946,74 155.5,74 C157.433054,74 159,75.5669456 159,77.5 C159,79.4330544 157.433054,81 155.5,81 C153.566946,81 152,79.4330544 152,77.5" id="Fill-72" fill="#000000"></path>
                        <path d="M155,72.489 C155,72.219 155.219,72 155.489,72 C155.759,72 155.977,72.219 155.977,72.489 C155.977,72.759 155.759,72.978 155.489,72.978 C155.219,72.978 155,72.759 155,72.489" id="Fill-74" fill="#000000"></path>
                        <path d="M155,82.489 C155,82.219 155.219,82 155.489,82 C155.759,82 155.977,82.219 155.977,82.489 C155.977,82.759 155.759,82.978 155.489,82.978 C155.219,82.978 155,82.759 155,82.489" id="Fill-76" fill="#000000"></path>
                        <path d="M154.016811,72.6154701 C153.946811,72.3544701 154.101811,72.0864701 154.362811,72.0164701 C154.622811,71.9474701 154.890811,72.1014701 154.960811,72.3624701 C155.030811,72.6234701 154.875811,72.8914701 154.615811,72.9614701 C154.354811,73.0304701 154.086811,72.8764701 154.016811,72.6154701" id="Fill-78" fill="#000000"></path>
                        <path d="M156.016811,82.6154701 C155.946811,82.3544701 156.101811,82.0864701 156.362811,82.0164701 C156.622811,81.9474701 156.890811,82.1014701 156.960811,82.3624701 C157.030811,82.6234701 156.875811,82.8914701 156.615811,82.9614701 C156.354811,83.0304701 156.086811,82.8764701 156.016811,82.6154701" id="Fill-80" fill="#000000"></path>
                        <path d="M152.065602,73.7333841 C151.930602,73.4993841 152.010602,73.2003841 152.244602,73.0653841 C152.478602,72.9303841 152.777602,73.0113841 152.911602,73.2443841 C153.046602,73.4783841 152.966602,73.7773841 152.733602,73.9123841 C152.499602,74.0473841 152.200602,73.9673841 152.065602,73.7333841" id="Fill-82" fill="#000000"></path>
                        <path d="M158.065602,82.7333841 C157.930602,82.4993841 158.010602,82.2003841 158.244602,82.0653841 C158.478602,81.9303841 158.777602,82.0113841 158.911602,82.2443841 C159.046602,82.4783841 158.966602,82.7773841 158.733602,82.9123841 C158.499602,83.0473841 158.200602,82.9673841 158.065602,82.7333841" id="Fill-84" fill="#000000"></path>
                        <path d="M151.14325,73.83425 C150.95225,73.64325 150.95225,73.33425 151.14325,73.14325 C151.33425,72.95225 151.64325,72.95225 151.83425,73.14325 C152.02525,73.33425 152.02525,73.64325 151.83425,73.83425 C151.64325,74.02525 151.33425,74.02525 151.14325,73.83425" id="Fill-86" fill="#000000"></path>
                        <path d="M159.14325,81.83425 C158.95225,81.64325 158.95225,81.33425 159.14325,81.14325 C159.33425,80.95225 159.64325,80.95225 159.83425,81.14325 C160.02525,81.33425 160.02525,81.64325 159.83425,81.83425 C159.64325,82.02525 159.33425,82.02525 159.14325,81.83425" id="Fill-88" fill="#000000"></path>
                        <path d="M150.244602,74.9116377 C150.010602,74.7766377 149.930602,74.4776377 150.065602,74.2436377 C150.200602,74.0106377 150.499602,73.9306377 150.733602,74.0656377 C150.966602,74.1996377 151.047602,74.4986377 150.912602,74.7326377 C150.777602,74.9666377 150.478602,75.0466377 150.244602,74.9116377" id="Fill-90" fill="#000000"></path>
                        <path d="M159.244602,79.9116377 C159.010602,79.7766377 158.930602,79.4776377 159.065602,79.2436377 C159.200602,79.0106377 159.499602,78.9306377 159.733602,79.0656377 C159.966602,79.1996377 160.047602,79.4986377 159.912602,79.7326377 C159.777602,79.9666377 159.478602,80.0466377 159.244602,79.9116377" id="Fill-92" fill="#000000"></path>
                        <path d="M150.36247,76.9608157 C150.10147,76.8908157 149.94747,76.6228157 150.01647,76.3618157 C150.08647,76.1018157 150.35447,75.9468157 150.61547,76.0168157 C150.87647,76.0868157 151.03047,76.3548157 150.96147,76.6148157 C150.89147,76.8758157 150.62347,77.0308157 150.36247,76.9608157" id="Fill-94" fill="#000000"></path>
                        <path d="M160.36247,78.9608157 C160.10147,78.8908157 159.94747,78.6228157 160.01647,78.3618157 C160.08647,78.1018157 160.35447,77.9468157 160.61547,78.0168157 C160.87647,78.0868157 161.03047,78.3548157 160.96147,78.6148157 C160.89147,78.8758157 160.62347,79.0308157 160.36247,78.9608157" id="Fill-96" fill="#000000"></path>
                        <path d="M149.489,77.977 C149.219,77.977 149,77.758 149,77.488 C149,77.218 149.219,77 149.489,77 C149.759,77 149.978,77.218 149.978,77.488 C149.978,77.758 149.759,77.977 149.489,77.977" id="Fill-98" fill="#000000"></path>
                        <path d="M160.489,77.977 C160.219,77.977 160,77.758 160,77.488 C160,77.218 160.219,77 160.489,77 C160.759,77 160.978,77.218 160.978,77.488 C160.978,77.758 160.759,77.977 160.489,77.977" id="Fill-100" fill="#000000"></path>
                        <path d="M150.61547,78.9608157 C150.35447,79.0308157 150.08647,78.8758157 150.01647,78.6148157 C149.94747,78.3548157 150.10147,78.0868157 150.36247,78.0168157 C150.62347,77.9468157 150.89147,78.1018157 150.96147,78.3618157 C151.03047,78.6228157 150.87647,78.8908157 150.61547,78.9608157" id="Fill-102" fill="#000000"></path>
                        <path d="M160.61547,76.9608157 C160.35447,77.0308157 160.08647,76.8758157 160.01647,76.6148157 C159.94747,76.3548157 160.10147,76.0868157 160.36247,76.0168157 C160.62347,75.9468157 160.89147,76.1018157 160.96147,76.3618157 C161.03047,76.6228157 160.87647,76.8908157 160.61547,76.9608157" id="Fill-104" fill="#000000"></path>
                        <path d="M150.733384,79.9116377 C150.499384,80.0466377 150.200384,79.9666377 150.065384,79.7326377 C149.930384,79.4986377 150.011384,79.1996377 150.244384,79.0656377 C150.478384,78.9306377 150.777384,79.0106377 150.912384,79.2436377 C151.047384,79.4776377 150.967384,79.7766377 150.733384,79.9116377" id="Fill-106" fill="#000000"></path>
                        <path d="M159.733384,74.9116377 C159.499384,75.0466377 159.200384,74.9666377 159.065384,74.7326377 C158.930384,74.4986377 159.011384,74.1996377 159.244384,74.0656377 C159.478384,73.9306377 159.777384,74.0106377 159.912384,74.2436377 C160.047384,74.4776377 159.967384,74.7766377 159.733384,74.9116377" id="Fill-108" fill="#000000"></path>
                        <path d="M151.83425,81.83425 C151.64325,82.02525 151.33425,82.02525 151.14325,81.83425 C150.95225,81.64325 150.95225,81.33425 151.14325,81.14325 C151.33425,80.95225 151.64325,80.95225 151.83425,81.14325 C152.02525,81.33425 152.02525,81.64325 151.83425,81.83425" id="Fill-110" fill="#000000"></path>
                        <path d="M159.83425,73.83425 C159.64325,74.02525 159.33425,74.02525 159.14325,73.83425 C158.95225,73.64325 158.95225,73.33425 159.14325,73.14325 C159.33425,72.95225 159.64325,72.95225 159.83425,73.14325 C160.02525,73.33425 160.02525,73.64325 159.83425,73.83425" id="Fill-112" fill="#000000"></path>
                        <path d="M152.911638,82.7333841 C152.776638,82.9673841 152.477638,83.0473841 152.243638,82.9123841 C152.010638,82.7773841 151.930638,82.4783841 152.065638,82.2443841 C152.199638,82.0113841 152.498638,81.9303841 152.732638,82.0653841 C152.966638,82.2003841 153.046638,82.4993841 152.911638,82.7333841" id="Fill-114" fill="#000000"></path>
                        <path d="M158.911638,73.7333841 C158.776638,73.9673841 158.477638,74.0473841 158.243638,73.9123841 C158.010638,73.7773841 157.930638,73.4783841 158.065638,73.2443841 C158.199638,73.0113841 158.498638,72.9303841 158.732638,73.0653841 C158.966638,73.2003841 159.046638,73.4993841 158.911638,73.7333841" id="Fill-116" fill="#000000"></path>
                        <path d="M154.960816,82.6154701 C154.890816,82.8764701 154.622816,83.0304701 154.361816,82.9614701 C154.101816,82.8914701 153.946816,82.6234701 154.016816,82.3624701 C154.086816,82.1014701 154.354816,81.9474701 154.614816,82.0164701 C154.875816,82.0864701 155.030816,82.3544701 154.960816,82.6154701" id="Fill-118" fill="#000000"></path>
                        <path d="M156.960816,72.6154701 C156.890816,72.8764701 156.622816,73.0304701 156.361816,72.9614701 C156.101816,72.8914701 155.946816,72.6234701 156.016816,72.3624701 C156.086816,72.1014701 156.354816,71.9474701 156.614816,72.0164701 C156.875816,72.0864701 157.030816,72.3544701 156.960816,72.6154701" id="Fill-120" fill="#000000"></path>
                    </g>
                </g>
            </g>
        </g>
    </g>
</svg>