<?xml version="1.0" encoding="UTF-8"?>
<svg width="670px" height="670px" viewBox="0 0 670 670" version="1.1" xmlns="http://www.w3.org/2000/svg" xmlns:xlink="http://www.w3.org/1999/xlink">
    <!-- Generator: Sketch 47.1 (45422) - http://www.bohemiancoding.com/sketch -->
    <title>ocado-swirl</title>
    <desc>Created with Sketch.</desc>
    <defs>
        <polygon id="path-1" points="5.17780764e-14 0 670 0 670 670 0 670"></polygon>
    </defs>
    <g id="Play-landing-" stroke="none" stroke-width="1" fill="none" fill-rule="evenodd">
        <g id="AIMMO-Prototype-landing---L-Desktops" transform="translate(-566.000000, -1829.000000)">
            <g id="Deliver-through-time-Copy" transform="translate(0.000000, 1829.000000)">
                <g id="ocado-swirl" transform="translate(566.000000, 0.000000)">
                    <mask id="mask-2" fill="white">
                        <use xlink:href="#path-1"></use>
                    </mask>
                    <g id="Clip-2"></g>
                    <path d="M658.260758,254.973547 C674.312291,312.597644 673.719847,369.91571 657.606601,427.057142 C614.658514,579.343237 470.873555,679.663717 310.541302,669.260735 C156.532567,659.268533 27.1699201,539.8612 3.90825914,386.229804 C-28.5815422,171.653161 145.926171,-15.4115496 362.664044,1.00523855 C421.599894,5.46835385 477.814203,18.1573213 528.562804,49.3950207 C579.57677,80.7970316 617.72359,122.756066 631.654256,182.735982 C654.510668,281.150447 570.864961,412.905801 427.11703,374.563676 C370.388446,359.432627 332.965724,305.567159 334.165012,247.189282 C335.341672,189.838353 374.768007,138.897632 428.873791,125.00919 C446.291238,120.537859 463.73954,119.673169 479.651191,124.787369 C472.920367,137.546169 463.840338,149.321153 460.263045,162.576996 C450.370462,199.222602 471.498913,234.781698 507.712061,246.16028 C543.176426,257.304718 580.146586,238.480764 594.317932,201.288821 C605.61757,171.634676 600.09632,143.516844 583.246632,117.572034 C561.624478,84.2804387 528.931024,66.8942118 491.901208,55.983918 C363.661736,18.1983992 220.981439,115.8406 238.084149,280.285757 C249.902176,393.925751 356.017561,459.58058 441.267805,460.679414 C542.250732,461.981584 635.392002,386.601559 653.712515,287.460014 C655.697614,276.71814 656.767305,265.805792 658.260758,254.973547" id="Fill-1" fill="#F0F0F0" opacity="0.468353714" mask="url(#mask-2)"></path>
                </g>
            </g>
        </g>
    </g>
</svg>