<?xml version="1.0" encoding="UTF-8"?>
<svg width="265px" height="138px" viewBox="0 0 265 138" version="1.1" xmlns="http://www.w3.org/2000/svg" xmlns:xlink="http://www.w3.org/1999/xlink">
    <!-- Generator: Sketch 47.1 (45422) - http://www.bohemiancoding.com/sketch -->
    <title>prehistoric</title>
    <desc>Created with Sketch.</desc>
    <defs></defs>
    <g id="Play-landing-" stroke="none" stroke-width="1" fill="none" fill-rule="evenodd" opacity="0.8">
        <g id="AIMMO-Prototype-landing---L-Desktops" transform="translate(-153.000000, -2151.000000)" fill="#000000">
            <g id="Deliver-through-time-Copy" transform="translate(0.000000, 1829.000000)">
                <g id="Group-4" transform="translate(153.000000, 322.000000)">
                    <g id="prehistoric">
                        <path d="M265,13.5216798 C263.301,14.9316798 259.382,13.5176798 259.673,17.6606798 C259.681,17.7806798 257.356,18.4626798 256.332,18.1606798 C254.954,17.7536798 253.848,16.5126798 252.513,15.8606798 C247.171,13.2546798 242.962,15.0456798 241.29,20.7536798 C240.356,23.9396798 239.66,27.2086798 239.078,30.4796798 C235.24,52.0596798 227.112,71.6676798 212.014,87.8556798 C205.291,95.0636798 197.617,101.26368 187.631,103.50468 C184.589,104.18668 184.025,105.95568 185.184,108.18168 C188.542,114.63168 192.162,120.94568 195.725,127.28768 C196.69,129.00468 198.203,130.50668 198.792,132.32468 C200.117,136.41468 198.663,137.78768 194.369,137.39368 C191.96,137.17368 189.501,137.46368 187.067,137.55868 C184.307,137.66768 181.842,137.10468 181.745,133.79368 C181.616,129.34768 179.262,126.55968 175.872,124.09168 C174.2,122.87468 173.066,120.91968 171.33,118.87568 C168.289,124.04168 166.081,128.80468 172.188,134.87468 C168.877,135.03868 167.076,135.16068 165.273,135.20668 C163.91,135.24068 162.478,134.89768 161.193,135.20768 C156.719,136.28268 154.402,134.96668 154.023,130.32768 C153.767,127.20468 154.189,124.02068 154.373,120.86768 C154.952,110.93168 154.086,109.78168 142.881,106.53468 C141.604,116.24568 139.23,125.76468 145.788,135.00168 C145.283,135.15868 144.778,135.31568 144.272,135.47268 C142.715,134.71368 141.157,133.95468 140.378,133.57468 C137.088,134.42568 134.44,135.66568 131.842,135.56868 C130.343,135.51168 128.209,133.57268 127.599,132.00068 C125.176,125.75468 123.302,119.29668 121.074,112.97068 C120.628,111.70568 119.524,110.67368 117.985,108.48368 C114.675,115.04468 111.679,120.52968 109.202,126.24068 C108.655,127.50068 109.743,129.64868 110.447,131.22268 C111.089,132.65768 112.231,133.86868 113.927,136.27968 C106.506,136.27968 100.235,136.46668 93.983,136.20868 C90.272,136.05568 89.344,132.89768 89.728,130.00968 C90.558,123.77368 92.086,117.63268 92.996,111.40468 C93.319,109.19668 92.679,106.84868 92.478,104.56468 C90.199,105.03768 87.439,104.85768 85.738,106.11268 C81.619,109.15368 77.969,112.83768 74.171,116.30768 C62.875,126.63268 50.869,135.35068 34.366,133.70968 C26.598,132.93668 19.317,131.42968 14.786,123.79868 C12.435,119.83868 12.3,116.06968 13.11,111.84968 C15.001,101.99068 14.904,101.89668 6.052,96.9376798 C4.031,95.8046798 2.017,94.6606798 0,93.5216798 L0,89.5216798 C6.503,87.0176798 15.52,90.1296798 19.154,96.9876798 C21.35,101.13268 22.624,105.92268 23.492,110.57568 C24.758,117.36468 26.109,118.85968 32.961,118.43568 C39.876,118.00868 44.958,114.16268 48.431,108.67668 C54.56,98.9956798 60.046,88.9096798 65.937,79.0736798 C72.859,67.5176798 79.924,56.0576798 90.105,46.9276798 C105.969,32.7006798 124.431,29.6996798 144.672,34.0656798 C156.016,36.5136798 165.672,42.0176798 174.472,49.4906798 C179.937,54.1306798 185.994,57.8776798 193.693,58.0496798 C200.6,58.2026798 206.411,56.0086798 209.918,50.1486798 C215.622,40.6196798 220.485,30.5886798 226.131,21.0226798 C229.309,15.6376798 232.762,10.1836798 237.119,5.77667984 C245.501,-2.70032016 257.54,-1.61732016 265,7.52167984 L265,13.5216798 Z" id="Page-1"></path>
                    </g>
                </g>
            </g>
        </g>
    </g>
</svg>