<?xml version="1.0" encoding="UTF-8"?>
<svg width="155px" height="35px" viewBox="0 0 155 35" version="1.1" xmlns="http://www.w3.org/2000/svg" xmlns:xlink="http://www.w3.org/1999/xlink">
    <!-- Generator: Sketch 49 (51002) - http://www.bohemiancoding.com/sketch -->
    <title>preview_version_label</title>
    <desc>Created with Sketch.</desc>
    <defs></defs>
    <g id="Teaching-Pack-+-KS3-MMO" stroke="none" stroke-width="1" fill="none" fill-rule="evenodd">
        <g id="Teaching-Packs---L-Desktops" transform="translate(-823.000000, -7208.000000)">
            <g id="Group-4" transform="translate(569.000000, 7132.000000)">
                <g id="Group-5">
                    <g id="preview_version_label" transform="translate(255.000000, 77.000000)">
                        <g id="Preview-version-label">
                            <rect id="BG" stroke="#FFFFFF" x="0" y="0" width="153" height="33"></rect>
                            <path d="M7.695,23 L7.695,10.22 L12.627,10.22 C15.021,10.22 16.695,11.894 16.695,14.378 C16.695,16.862 15.021,18.59 12.627,18.59 L10.017,18.59 L10.017,23 L7.695,23 Z M10.017,16.574 L12.195,16.574 C13.545,16.574 14.337,15.71 14.337,14.378 C14.337,13.064 13.545,12.218 12.231,12.218 L10.017,12.218 L10.017,16.574 Z M18.747,23 L18.747,10.22 L22.869,10.22 C24.255,10.22 24.885,10.328 25.443,10.58 C26.721,11.156 27.531,12.38 27.531,14.072 C27.531,15.602 26.721,17.024 25.371,17.564 L25.371,17.6 C25.371,17.6 25.551,17.78 25.803,18.23 L28.431,23 L25.839,23 L23.301,18.23 L21.069,18.23 L21.069,23 L18.747,23 Z M21.069,16.214 L23.157,16.214 C24.399,16.214 25.173,15.476 25.173,14.198 C25.173,12.974 24.651,12.218 22.833,12.218 L21.069,12.218 L21.069,16.214 Z M30.591,23 L30.591,10.22 L38.241,10.22 L38.241,12.218 L32.913,12.218 L32.913,15.566 L37.215,15.566 L37.215,17.564 L32.913,17.564 L32.913,21.002 L38.529,21.002 L38.529,23 L30.591,23 Z M43.965,23 L39.303,10.22 L41.805,10.22 L44.613,18.554 C44.865,19.292 45.081,20.426 45.099,20.426 L45.135,20.426 C45.153,20.426 45.369,19.292 45.621,18.554 L48.447,10.22 L50.931,10.22 L46.269,23 L43.965,23 Z M52.533,23 L52.533,10.22 L54.855,10.22 L54.855,23 L52.533,23 Z M58.095,23 L58.095,10.22 L65.745,10.22 L65.745,12.218 L60.417,12.218 L60.417,15.566 L64.719,15.566 L64.719,17.564 L60.417,17.564 L60.417,21.002 L66.033,21.002 L66.033,23 L58.095,23 Z M76.509,10.22 L78.777,19.058 C78.975,19.796 78.993,20.408 79.011,20.408 L79.047,20.408 C79.047,20.408 79.101,19.778 79.263,19.058 L81.369,10.22 L83.763,10.22 L80.469,23 L77.787,23 L75.825,15.44 C75.609,14.612 75.501,13.766 75.501,13.766 L75.465,13.766 C75.465,13.766 75.357,14.612 75.141,15.44 L73.179,23 L70.497,23 L67.293,10.22 L69.687,10.22 L71.703,19.058 C71.865,19.778 71.919,20.408 71.919,20.408 L71.955,20.408 C71.973,20.408 71.991,19.796 72.189,19.058 L74.493,10.22 L76.509,10.22 Z M91.521,23 L88.047,13.946 L89.343,13.946 L91.863,20.588 C92.025,21.038 92.169,21.668 92.169,21.668 L92.205,21.668 C92.205,21.668 92.349,21.056 92.529,20.588 L95.031,13.946 L96.309,13.946 L92.853,23 L91.521,23 Z M104.912998,21.02 C104.912998,21.02 104.912998,21.02 104.912998,21.02 Z M104.913,21.02 L105.471,21.956 C105.471,21.956 104.157,23.216 102.123,23.216 C99.423,23.216 97.389,21.272 97.389,18.482 C97.389,15.512 99.405,13.73 101.853,13.73 C104.355,13.73 105.633,15.656 105.633,17.906 C105.633,18.122 105.597,18.536 105.597,18.536 L98.649,18.536 C98.703,20.858 100.287,22.118 102.159,22.118 C103.813725,22.118 104.911309,21.0216896 104.912998,21.020002 L104.913,21.02 Z M98.703,17.528 L104.391,17.528 C104.319,15.638 103.167,14.756 101.817,14.756 C100.305,14.756 98.991,15.71 98.703,17.528 Z M107.973,23 L107.973,13.946 L109.179,13.946 L109.179,15.548 C109.179,15.944 109.143,16.268 109.143,16.268 L109.179,16.268 C109.611,14.9 110.619,13.856 112.041,13.856 C112.293,13.856 112.527,13.91 112.527,13.91 L112.527,15.116 C112.527,15.116 112.311,15.08 112.077,15.08 C110.799,15.08 109.845,16.088 109.449,17.42 C109.269,17.996 109.197,18.608 109.197,19.184 L109.197,23 L107.973,23 Z M113.643,21.902 L114.309,21.02 C114.309,21.02 115.317,22.118 117.009,22.118 C117.981,22.118 118.827,21.632 118.827,20.678 C118.827,18.698 113.949,19.184 113.949,16.232 C113.949,14.612 115.407,13.73 117.045,13.73 C118.953,13.73 119.835,14.72 119.835,14.72 L119.277,15.656 C119.277,15.656 118.503,14.828 117.009,14.828 C116.091,14.828 115.209,15.224 115.209,16.232 C115.209,18.23 120.087,17.69 120.087,20.678 C120.087,22.154 118.809,23.216 116.991,23.216 C114.795,23.216 113.643,21.902 113.643,21.902 Z M122.319,11.876 L122.319,10.346 L123.597,10.346 L123.597,11.876 L122.319,11.876 Z M122.355,23 L122.355,13.946 L123.579,13.946 L123.579,23 L122.355,23 Z M125.865,18.428 C125.865,15.746 128.007,13.73 130.653,13.73 C133.299,13.73 135.441,15.746 135.441,18.428 C135.441,21.164 133.299,23.216 130.653,23.216 C128.007,23.216 125.865,21.164 125.865,18.428 Z M127.125,18.428 C127.125,20.534 128.709,22.118 130.653,22.118 C132.597,22.118 134.181,20.534 134.181,18.428 C134.181,16.376 132.597,14.846 130.653,14.846 C128.709,14.846 127.125,16.376 127.125,18.428 Z M137.727,23 L137.727,13.946 L138.933,13.946 L138.933,15.296 C138.933,15.692 138.897,16.016 138.897,16.016 L138.933,16.016 C139.257,15.188 140.409,13.73 142.551,13.73 C144.783,13.73 145.575,15.008 145.575,17.24 L145.575,23 L144.351,23 L144.351,17.564 C144.351,16.142 144.135,14.882 142.389,14.882 C140.841,14.882 139.509,15.944 139.095,17.438 C138.987,17.816 138.951,18.23 138.951,18.662 L138.951,23 L137.727,23 Z" id="5:5" fill="#FFFFFF"></path>
                        </g>
                    </g>
                </g>
            </g>
        </g>
    </g>
</svg>