<?xml version="1.0" encoding="UTF-8"?>
<svg width="104px" height="91px" viewBox="0 0 104 91" version="1.1" xmlns="http://www.w3.org/2000/svg" xmlns:xlink="http://www.w3.org/1999/xlink">
    <!-- Generator: Sketch 53.2 (72643) - https://sketchapp.com -->
    <title>LKS2-blockly-icon</title>
    <desc>Created with Sketch.</desc>
    <g id="Teaching-Packs-KS1-KS2-KS3-AI-Reset" stroke="none" stroke-width="1" fill="none" fill-rule="evenodd">
        <g id="Teaching-Packs---L-Desktops" transform="translate(-788.000000, -5128.000000)">
            <g id="KS3-Copy" transform="translate(0.000000, 5047.000000)">
                <g id="KS3-intro" transform="translate(428.000000, 0.000000)">
                    <g id="KS3-Blockly-python-icons" transform="translate(360.000000, 81.000000)">
                        <g id="LKS2-blockly-icon">
                            <polygon id="Polygon" fill="#FF637D" transform="translate(51.912791, 45.613872) rotate(90.000000) translate(-51.912791, -45.613872) " points="51.9127907 -6 96.8255814 19.8069361 96.8255814 71.4208082 51.9127907 97.2277443 7 71.4208082 7 19.8069361"></polygon>
                            <g id="Group" transform="translate(30.151163, 20.490066)" fill="#FFFFFF">
                                <path d="M39.7235202,24.8434821 C39.366809,26.3441719 38.0556434,27.4690765 36.4695886,27.4690765 C34.613078,27.4690765 32.842017,25.9299913 32.842017,24.0482064 L32.842017,11.2837656 C32.842017,9.40238918 34.613078,7.86289551 36.4695886,7.86289551 C37.9012701,7.86289551 39.0786186,8.7803014 39.5671316,10.0620555 C40.3023194,10.6588186 42.1124776,11.7142847 42.9186047,10.3573736 L42.9186047,0 L11.0765877,0 L11.0765877,10.180918 C9.86739714,11.8074141 8.32245472,10.6833263 7.55703712,10.0620555 C7.06852415,8.7803014 5.82426711,7.86289551 4.39258553,7.86289551 C2.53567196,7.86289551 1,9.40238918 1,11.2837656 L1,24.0482064 C1,25.9299913 2.67029517,27.4690765 4.52680568,27.4690765 C6.11286058,27.4690765 7.25635174,26.3441719 7.61265988,24.8434821 C9.51834414,22.9139071 10.6735242,24.1021234 11.0765877,24.8512429 L11.0765877,36.7615894 L42.9186047,36.7615894 L42.9186047,24.6339411 C42.5155411,23.9081039 41.4518566,23.0936305 39.7235202,24.8434821 L39.7235202,24.8434821 Z" id="Page-1"></path>
                                <path d="M2.536,47.728 L3.208,47.728 C3.62400208,47.728 3.95999872,47.6360009 4.216,47.452 C4.47200128,47.2679991 4.6,46.9280025 4.6,46.432 C4.6,46.1839988 4.56600034,45.9780008 4.498,45.814 C4.42999966,45.6499992 4.33800058,45.5180005 4.222,45.418 C4.10599942,45.3179995 3.9680008,45.2480002 3.808,45.208 C3.6479992,45.1679998 3.47200096,45.148 3.28,45.148 L2.536,45.148 L2.536,47.728 Z M2.536,43.948 L3.028,43.948 C3.5080024,43.948 3.8579989,43.8620009 4.078,43.69 C4.2980011,43.5179991 4.408,43.228002 4.408,42.82 C4.408,42.411998 4.308001,42.1240008 4.108,41.956 C3.907999,41.7879992 3.59200216,41.704 3.16,41.704 L2.536,41.704 L2.536,43.948 Z M0.808,40.432 L3.7,40.432 C4.05200176,40.432 4.3779985,40.4679996 4.678,40.54 C4.9780015,40.6120004 5.23599892,40.7319992 5.452,40.9 C5.66800108,41.0680008 5.8359994,41.2919986 5.956,41.572 C6.0760006,41.8520014 6.136,42.195998 6.136,42.604 C6.136,43.0680023 6.02800108,43.4659983 5.812,43.798 C5.59599892,44.1300017 5.27200216,44.3559994 4.84,44.476 L4.84,44.5 C5.3200024,44.5640003 5.6999986,44.7679983 5.98,45.112 C6.2600014,45.4560017 6.4,45.9159971 6.4,46.492 C6.4,46.8280017 6.35600044,47.1479985 6.268,47.452 C6.17999956,47.7560015 6.03000106,48.0219989 5.818,48.25 C5.60599894,48.4780011 5.3300017,48.6599993 4.99,48.796 C4.6499983,48.9320007 4.22800252,49 3.724,49 L0.808,49 L0.808,40.432 Z M7.48,49 L7.48,40.432 L9.208,40.432 L9.208,47.584 L12.268,47.584 L12.268,49 L7.48,49 Z M14.584,44.716 C14.584,45.2920029 14.5979999,45.781998 14.626,46.186 C14.6540001,46.590002 14.7099996,46.9179987 14.794,47.17 C14.8780004,47.4220013 14.9979992,47.6059994 15.154,47.722 C15.3100008,47.8380006 15.5159987,47.896 15.772,47.896 C16.0280013,47.896 16.2339992,47.8380006 16.39,47.722 C16.5460008,47.6059994 16.6659996,47.4220013 16.75,47.17 C16.8340004,46.9179987 16.8899999,46.590002 16.918,46.186 C16.9460001,45.781998 16.96,45.2920029 16.96,44.716 C16.96,44.1399971 16.9460001,43.652002 16.918,43.252 C16.8899999,42.851998 16.8340004,42.5240013 16.75,42.268 C16.6659996,42.0119987 16.5460008,41.8260006 16.39,41.71 C16.2339992,41.5939994 16.0280013,41.536 15.772,41.536 C15.5159987,41.536 15.3100008,41.5939994 15.154,41.71 C14.9979992,41.8260006 14.8780004,42.0119987 14.794,42.268 C14.7099996,42.5240013 14.6540001,42.851998 14.626,43.252 C14.5979999,43.652002 14.584,44.1399971 14.584,44.716 Z M12.856,44.716 C12.856,44.0679968 12.8859997,43.4700027 12.946,42.922 C13.0060003,42.3739973 13.137999,41.904002 13.342,41.512 C13.546001,41.119998 13.8399981,40.8140011 14.224,40.594 C14.6080019,40.3739989 15.1239968,40.264 15.772,40.264 C16.4200032,40.264 16.9359981,40.3739989 17.32,40.594 C17.7040019,40.8140011 17.997999,41.119998 18.202,41.512 C18.406001,41.904002 18.5379997,42.3739973 18.598,42.922 C18.6580003,43.4700027 18.688,44.0679968 18.688,44.716 C18.688,45.3720033 18.6580003,45.9719973 18.598,46.516 C18.5379997,47.0600027 18.406001,47.527998 18.202,47.92 C17.997999,48.312002 17.7040019,48.611999 17.32,48.82 C16.9359981,49.028001 16.4200032,49.132 15.772,49.132 C15.1239968,49.132 14.6080019,49.028001 14.224,48.82 C13.8399981,48.611999 13.546001,48.312002 13.342,47.92 C13.137999,47.527998 13.0060003,47.0600027 12.946,46.516 C12.8859997,45.9719973 12.856,45.3720033 12.856,44.716 Z M23.368,43.324 C23.368,42.6999969 23.2940007,42.2460014 23.146,41.962 C22.9979993,41.6779986 22.728002,41.536 22.336,41.536 C22.1199989,41.536 21.9420007,41.5939994 21.802,41.71 C21.6619993,41.8260006 21.5520004,42.0139987 21.472,42.274 C21.3919996,42.5340013 21.3360002,42.8739979 21.304,43.294 C21.2719998,43.7140021 21.256,44.227997 21.256,44.836 C21.256,45.4840032 21.2779998,46.007998 21.322,46.408 C21.3660002,46.808002 21.4339995,47.1179989 21.526,47.338 C21.6180005,47.5580011 21.7339993,47.7059996 21.874,47.782 C22.0140007,47.8580004 22.1759991,47.896 22.36,47.896 C22.5120008,47.896 22.6539993,47.8700003 22.786,47.818 C22.9180007,47.7659997 23.0319995,47.6620008 23.128,47.506 C23.2240005,47.3499992 23.2999997,47.1300014 23.356,46.846 C23.4120003,46.5619986 23.44,46.1880023 23.44,45.724 L25.168,45.724 C25.168,46.1880023 25.1320004,46.6279979 25.06,47.044 C24.9879996,47.4600021 24.854001,47.8239984 24.658,48.136 C24.461999,48.4480016 24.1860018,48.6919991 23.83,48.868 C23.4739982,49.0440009 23.0120028,49.132 22.444,49.132 C21.7959968,49.132 21.2800019,49.028001 20.896,48.82 C20.5119981,48.611999 20.218001,48.312002 20.014,47.92 C19.809999,47.527998 19.6780003,47.0600027 19.618,46.516 C19.5579997,45.9719973 19.528,45.3720033 19.528,44.716 C19.528,44.0679968 19.5579997,43.4700027 19.618,42.922 C19.6780003,42.3739973 19.809999,41.904002 20.014,41.512 C20.218001,41.119998 20.5119981,40.8140011 20.896,40.594 C21.2800019,40.3739989 21.7959968,40.264 22.444,40.264 C23.0600031,40.264 23.5459982,40.363999 23.902,40.564 C24.2580018,40.764001 24.5239991,41.0179985 24.7,41.326 C24.8760009,41.6340015 24.9859998,41.9659982 25.03,42.322 C25.0740002,42.6780018 25.096,43.0119984 25.096,43.324 L23.368,43.324 Z M27.88,40.432 L27.88,43.864 L27.904,43.864 L30.088,40.432 L31.96,40.432 L29.632,44.104 L32.224,49 L30.28,49 L28.516,45.484 L27.88,46.456 L27.88,49 L26.152,49 L26.152,40.432 L27.88,40.432 Z M32.596,49 L32.596,40.432 L34.324,40.432 L34.324,47.584 L37.384,47.584 L37.384,49 L32.596,49 Z M39.532,40.432 L40.66,43.744 L40.684,43.744 L41.884,40.432 L43.756,40.432 L41.536,45.628 L41.536,49 L39.808,49 L39.808,45.628 L37.588,40.432 L39.532,40.432 Z" id="BLOCKLY" fill-rule="nonzero"></path>
                            </g>
                        </g>
                    </g>
                </g>
            </g>
        </g>
    </g>
</svg>