<?xml version="1.0" encoding="UTF-8"?>
<svg width="104px" height="91px" viewBox="0 0 104 91" version="1.1" xmlns="http://www.w3.org/2000/svg" xmlns:xlink="http://www.w3.org/1999/xlink">
    <!-- Generator: Sketch 53.2 (72643) - https://sketchapp.com -->
    <title>KS1-blockly-icon</title>
    <desc>Created with Sketch.</desc>
    <g id="Teaching-Packs-KS1-KS2-KS3-AI-Reset" stroke="none" stroke-width="1" fill="none" fill-rule="evenodd">
        <g id="Teaching-Packs---L-Desktops" transform="translate(-845.000000, -1352.000000)">
            <g id="KS1-Copy" transform="translate(0.000000, 1268.000000)">
                <g id="KS1-Intro" transform="translate(423.000000, 0.000000)">
                    <g id="KS1-blockly-icon" transform="translate(422.000000, 84.000000)">
                        <polygon id="Polygon" fill="#7ED321" transform="translate(51.912791, 45.613872) rotate(90.000000) translate(-51.912791, -45.613872) " points="51.9127907 -6 96.8255814 19.8069361 96.8255814 71.4208082 51.9127907 97.2277443 7 71.4208082 7 19.8069361"></polygon>
                        <g id="Group" transform="translate(29.000000, 20.000000)" fill="#FFFFFF">
                            <path d="M40.7235202,24.8434821 C40.366809,26.3441719 39.0556434,27.4690765 37.4695886,27.4690765 C35.613078,27.4690765 33.842017,25.9299913 33.842017,24.0482064 L33.842017,11.2837656 C33.842017,9.40238918 35.613078,7.86289551 37.4695886,7.86289551 C38.9012701,7.86289551 40.0786186,8.7803014 40.5671316,10.0620555 C41.3023194,10.6588186 43.1124776,11.7142847 43.9186047,10.3573736 L43.9186047,0 L12.0765877,0 L12.0765877,10.180918 C10.8673971,11.8074141 9.32245472,10.6833263 8.55703712,10.0620555 C8.06852415,8.7803014 6.82426711,7.86289551 5.39258553,7.86289551 C3.53567196,7.86289551 2,9.40238918 2,11.2837656 L2,24.0482064 C2,25.9299913 3.67029517,27.4690765 5.52680568,27.4690765 C7.11286058,27.4690765 8.25635174,26.3441719 8.61265988,24.8434821 C10.5183441,22.9139071 11.6735242,24.1021234 12.0765877,24.8512429 L12.0765877,36.7615894 L43.9186047,36.7615894 L43.9186047,24.6339411 C43.5155411,23.9081039 42.4518566,23.0936305 40.7235202,24.8434821 L40.7235202,24.8434821 Z" id="Page-1"></path>
                            <path d="M3.036,47.728 L3.708,47.728 C4.12400208,47.728 4.45999872,47.6360009 4.716,47.452 C4.97200128,47.2679991 5.1,46.9280025 5.1,46.432 C5.1,46.1839988 5.06600034,45.9780008 4.998,45.814 C4.92999966,45.6499992 4.83800058,45.5180005 4.722,45.418 C4.60599942,45.3179995 4.4680008,45.2480002 4.308,45.208 C4.1479992,45.1679998 3.97200096,45.148 3.78,45.148 L3.036,45.148 L3.036,47.728 Z M3.036,43.948 L3.528,43.948 C4.0080024,43.948 4.3579989,43.8620009 4.578,43.69 C4.7980011,43.5179991 4.908,43.228002 4.908,42.82 C4.908,42.411998 4.808001,42.1240008 4.608,41.956 C4.407999,41.7879992 4.09200216,41.704 3.66,41.704 L3.036,41.704 L3.036,43.948 Z M1.308,40.432 L4.2,40.432 C4.55200176,40.432 4.8779985,40.4679996 5.178,40.54 C5.4780015,40.6120004 5.73599892,40.7319992 5.952,40.9 C6.16800108,41.0680008 6.3359994,41.2919986 6.456,41.572 C6.5760006,41.8520014 6.636,42.195998 6.636,42.604 C6.636,43.0680023 6.52800108,43.4659983 6.312,43.798 C6.09599892,44.1300017 5.77200216,44.3559994 5.34,44.476 L5.34,44.5 C5.8200024,44.5640003 6.1999986,44.7679983 6.48,45.112 C6.7600014,45.4560017 6.9,45.9159971 6.9,46.492 C6.9,46.8280017 6.85600044,47.1479985 6.768,47.452 C6.67999956,47.7560015 6.53000106,48.0219989 6.318,48.25 C6.10599894,48.4780011 5.8300017,48.6599993 5.49,48.796 C5.1499983,48.9320007 4.72800252,49 4.224,49 L1.308,49 L1.308,40.432 Z M7.98,49 L7.98,40.432 L9.708,40.432 L9.708,47.584 L12.768,47.584 L12.768,49 L7.98,49 Z M15.084,44.716 C15.084,45.2920029 15.0979999,45.781998 15.126,46.186 C15.1540001,46.590002 15.2099996,46.9179987 15.294,47.17 C15.3780004,47.4220013 15.4979992,47.6059994 15.654,47.722 C15.8100008,47.8380006 16.0159987,47.896 16.272,47.896 C16.5280013,47.896 16.7339992,47.8380006 16.89,47.722 C17.0460008,47.6059994 17.1659996,47.4220013 17.25,47.17 C17.3340004,46.9179987 17.3899999,46.590002 17.418,46.186 C17.4460001,45.781998 17.46,45.2920029 17.46,44.716 C17.46,44.1399971 17.4460001,43.652002 17.418,43.252 C17.3899999,42.851998 17.3340004,42.5240013 17.25,42.268 C17.1659996,42.0119987 17.0460008,41.8260006 16.89,41.71 C16.7339992,41.5939994 16.5280013,41.536 16.272,41.536 C16.0159987,41.536 15.8100008,41.5939994 15.654,41.71 C15.4979992,41.8260006 15.3780004,42.0119987 15.294,42.268 C15.2099996,42.5240013 15.1540001,42.851998 15.126,43.252 C15.0979999,43.652002 15.084,44.1399971 15.084,44.716 Z M13.356,44.716 C13.356,44.0679968 13.3859997,43.4700027 13.446,42.922 C13.5060003,42.3739973 13.637999,41.904002 13.842,41.512 C14.046001,41.119998 14.3399981,40.8140011 14.724,40.594 C15.1080019,40.3739989 15.6239968,40.264 16.272,40.264 C16.9200032,40.264 17.4359981,40.3739989 17.82,40.594 C18.2040019,40.8140011 18.497999,41.119998 18.702,41.512 C18.906001,41.904002 19.0379997,42.3739973 19.098,42.922 C19.1580003,43.4700027 19.188,44.0679968 19.188,44.716 C19.188,45.3720033 19.1580003,45.9719973 19.098,46.516 C19.0379997,47.0600027 18.906001,47.527998 18.702,47.92 C18.497999,48.312002 18.2040019,48.611999 17.82,48.82 C17.4359981,49.028001 16.9200032,49.132 16.272,49.132 C15.6239968,49.132 15.1080019,49.028001 14.724,48.82 C14.3399981,48.611999 14.046001,48.312002 13.842,47.92 C13.637999,47.527998 13.5060003,47.0600027 13.446,46.516 C13.3859997,45.9719973 13.356,45.3720033 13.356,44.716 Z M23.868,43.324 C23.868,42.6999969 23.7940007,42.2460014 23.646,41.962 C23.4979993,41.6779986 23.228002,41.536 22.836,41.536 C22.6199989,41.536 22.4420007,41.5939994 22.302,41.71 C22.1619993,41.8260006 22.0520004,42.0139987 21.972,42.274 C21.8919996,42.5340013 21.8360002,42.8739979 21.804,43.294 C21.7719998,43.7140021 21.756,44.227997 21.756,44.836 C21.756,45.4840032 21.7779998,46.007998 21.822,46.408 C21.8660002,46.808002 21.9339995,47.1179989 22.026,47.338 C22.1180005,47.5580011 22.2339993,47.7059996 22.374,47.782 C22.5140007,47.8580004 22.6759991,47.896 22.86,47.896 C23.0120008,47.896 23.1539993,47.8700003 23.286,47.818 C23.4180007,47.7659997 23.5319995,47.6620008 23.628,47.506 C23.7240005,47.3499992 23.7999997,47.1300014 23.856,46.846 C23.9120003,46.5619986 23.94,46.1880023 23.94,45.724 L25.668,45.724 C25.668,46.1880023 25.6320004,46.6279979 25.56,47.044 C25.4879996,47.4600021 25.354001,47.8239984 25.158,48.136 C24.961999,48.4480016 24.6860018,48.6919991 24.33,48.868 C23.9739982,49.0440009 23.5120028,49.132 22.944,49.132 C22.2959968,49.132 21.7800019,49.028001 21.396,48.82 C21.0119981,48.611999 20.718001,48.312002 20.514,47.92 C20.309999,47.527998 20.1780003,47.0600027 20.118,46.516 C20.0579997,45.9719973 20.028,45.3720033 20.028,44.716 C20.028,44.0679968 20.0579997,43.4700027 20.118,42.922 C20.1780003,42.3739973 20.309999,41.904002 20.514,41.512 C20.718001,41.119998 21.0119981,40.8140011 21.396,40.594 C21.7800019,40.3739989 22.2959968,40.264 22.944,40.264 C23.5600031,40.264 24.0459982,40.363999 24.402,40.564 C24.7580018,40.764001 25.0239991,41.0179985 25.2,41.326 C25.3760009,41.6340015 25.4859998,41.9659982 25.53,42.322 C25.5740002,42.6780018 25.596,43.0119984 25.596,43.324 L23.868,43.324 Z M28.38,40.432 L28.38,43.864 L28.404,43.864 L30.588,40.432 L32.46,40.432 L30.132,44.104 L32.724,49 L30.78,49 L29.016,45.484 L28.38,46.456 L28.38,49 L26.652,49 L26.652,40.432 L28.38,40.432 Z M33.096,49 L33.096,40.432 L34.824,40.432 L34.824,47.584 L37.884,47.584 L37.884,49 L33.096,49 Z M40.032,40.432 L41.16,43.744 L41.184,43.744 L42.384,40.432 L44.256,40.432 L42.036,45.628 L42.036,49 L40.308,49 L40.308,45.628 L38.088,40.432 L40.032,40.432 Z" id="BLOCKLY" fill-rule="nonzero"></path>
                        </g>
                    </g>
                </g>
            </g>
        </g>
    </g>
</svg>