<?xml version="1.0" encoding="UTF-8"?>
<svg width="104px" height="90px" viewBox="0 0 104 90" version="1.1" xmlns="http://www.w3.org/2000/svg" xmlns:xlink="http://www.w3.org/1999/xlink">
    <!-- Generator: Sketch 53.2 (72643) - https://sketchapp.com -->
    <title>UKS2-Python-icon</title>
    <desc>Created with Sketch.</desc>
    <g id="Teaching-Packs-KS1-KS2-KS3-AI-Reset" stroke="none" stroke-width="1" fill="none" fill-rule="evenodd">
        <g id="Teaching-Packs---L-Desktops" transform="translate(-912.000000, -5129.000000)">
            <g id="KS3-Copy" transform="translate(0.000000, 5047.000000)">
                <g id="KS3-intro" transform="translate(428.000000, 0.000000)">
                    <g id="KS3-Blockly-python-icons" transform="translate(360.000000, 81.000000)">
                        <g id="UKS2-Python-icon" transform="translate(124.000000, 1.000000)">
                            <polygon id="Polygon" fill="#FF637D" transform="translate(51.613872, 44.912791) rotate(90.000000) translate(-51.613872, -44.912791) " points="51.6138721 -6.70108145 96.5266628 19.1058546 96.5266628 70.7197268 51.6138721 96.5266628 6.70108145 70.7197268 6.70108145 19.1058546"></polygon>
                            <path d="M33.328,64.508 L34.096,64.508 C34.4400017,64.508 34.7179989,64.404001 34.93,64.196 C35.1420011,63.987999 35.248,63.6640022 35.248,63.224 C35.248,62.7919978 35.1560009,62.4640011 34.972,62.24 C34.7879991,62.0159989 34.4800022,61.904 34.048,61.904 L33.328,61.904 L33.328,64.508 Z M31.6,60.632 L34.624,60.632 C35.0640022,60.632 35.4339985,60.7059993 35.734,60.854 C36.0340015,61.0020007 36.2759991,61.1959988 36.46,61.436 C36.6440009,61.6760012 36.7759996,61.9499985 36.856,62.258 C36.9360004,62.5660015 36.976,62.8799984 36.976,63.2 C36.976,63.6400022 36.9100007,64.0239984 36.778,64.352 C36.6459993,64.6800016 36.4620012,64.947999 36.226,65.156 C35.9899988,65.364001 35.7040017,65.5199995 35.368,65.624 C35.0319983,65.7280005 34.660002,65.78 34.252,65.78 L33.328,65.78 L33.328,69.2 L31.6,69.2 L31.6,60.632 Z M39.208,60.632 L40.336,63.944 L40.36,63.944 L41.56,60.632 L43.432,60.632 L41.212,65.828 L41.212,69.2 L39.484,69.2 L39.484,65.828 L37.264,60.632 L39.208,60.632 Z M49.084,60.632 L49.084,62.048 L47.212,62.048 L47.212,69.2 L45.484,69.2 L45.484,62.048 L43.612,62.048 L43.612,60.632 L49.084,60.632 Z M49.828,60.632 L51.556,60.632 L51.556,63.908 L53.572,63.908 L53.572,60.632 L55.3,60.632 L55.3,69.2 L53.572,69.2 L53.572,65.396 L51.556,65.396 L51.556,69.2 L49.828,69.2 L49.828,60.632 Z M58.048,64.916 C58.048,65.4920029 58.0619999,65.981998 58.09,66.386 C58.1180001,66.790002 58.1739996,67.1179987 58.258,67.37 C58.3420004,67.6220013 58.4619992,67.8059994 58.618,67.922 C58.7740008,68.0380006 58.9799987,68.096 59.236,68.096 C59.4920013,68.096 59.6979992,68.0380006 59.854,67.922 C60.0100008,67.8059994 60.1299996,67.6220013 60.214,67.37 C60.2980004,67.1179987 60.3539999,66.790002 60.382,66.386 C60.4100001,65.981998 60.424,65.4920029 60.424,64.916 C60.424,64.3399971 60.4100001,63.852002 60.382,63.452 C60.3539999,63.051998 60.2980004,62.7240013 60.214,62.468 C60.1299996,62.2119987 60.0100008,62.0260006 59.854,61.91 C59.6979992,61.7939994 59.4920013,61.736 59.236,61.736 C58.9799987,61.736 58.7740008,61.7939994 58.618,61.91 C58.4619992,62.0260006 58.3420004,62.2119987 58.258,62.468 C58.1739996,62.7240013 58.1180001,63.051998 58.09,63.452 C58.0619999,63.852002 58.048,64.3399971 58.048,64.916 Z M56.32,64.916 C56.32,64.2679968 56.3499997,63.6700027 56.41,63.122 C56.4700003,62.5739973 56.601999,62.104002 56.806,61.712 C57.010001,61.319998 57.3039981,61.0140011 57.688,60.794 C58.0720019,60.5739989 58.5879968,60.464 59.236,60.464 C59.8840032,60.464 60.3999981,60.5739989 60.784,60.794 C61.1680019,61.0140011 61.461999,61.319998 61.666,61.712 C61.870001,62.104002 62.0019997,62.5739973 62.062,63.122 C62.1220003,63.6700027 62.152,64.2679968 62.152,64.916 C62.152,65.5720033 62.1220003,66.1719973 62.062,66.716 C62.0019997,67.2600027 61.870001,67.727998 61.666,68.12 C61.461999,68.512002 61.1680019,68.811999 60.784,69.02 C60.3999981,69.228001 59.8840032,69.332 59.236,69.332 C58.5879968,69.332 58.0720019,69.228001 57.688,69.02 C57.3039981,68.811999 57.010001,68.512002 56.806,68.12 C56.601999,67.727998 56.4700003,67.2600027 56.41,66.716 C56.3499997,66.1719973 56.32,65.5720033 56.32,64.916 Z M65.164,60.632 L67.252,66.5 L67.276,66.5 L67.276,60.632 L68.86,60.632 L68.86,69.2 L66.892,69.2 L64.78,63.2 L64.756,63.2 L64.756,69.2 L63.172,69.2 L63.172,60.632 L65.164,60.632 Z" id="PYTHON" fill="#FFFFFF" fill-rule="nonzero"></path>
                            <g id="Python-logo" transform="translate(32.197674, 17.000000)">
                                <path d="M0,19.4664794 C0.25588104,18.4210567 0.509701846,17.3748217 0.767643119,16.3298052 C1.61851968,12.8828346 3.392381,11.3557214 6.97553965,11.2785535 C11.1594625,11.1883888 15.3470937,11.2229113 19.5322527,11.2631199 C20.8100097,11.2753043 21.367921,10.8951506 20.8503903,9.40905825 L11.59582,9.40905825 C11.59582,7.36126447 11.384028,5.46658815 11.6860582,3.655172 C11.833983,2.76814669 12.7779822,1.62199951 13.6338033,1.30358017 C17.5012742,-0.134180639 21.4977158,-0.538297024 25.4982778,0.887685517 C27.782665,1.70160435 28.8741769,3.23277899 28.910025,5.6582896 C28.9504056,8.43064984 28.9611188,11.2050408 28.9054925,13.9774011 C28.8440975,17.0206614 26.9870027,18.885689 23.8781099,18.9847889 C21.34155,19.0660183 18.8004576,18.9827582 16.2618375,19.0115946 C12.1636204,19.0583015 9.79723588,21.3363807 9.62500033,25.4193777 C9.56319332,26.8912549 9.61511121,28.3675997 9.61511121,29.7976437 C3.8954901,30.9177975 1.66137255,29.4625723 0.523299389,24.0555357 C0.371254133,23.3334061 0.175531921,22.6206179 0,21.9033621 L0,19.4664794" id="Fill-3" fill="#FFFFFF"></path>
                                <path d="M17.4395193,40.2 C10.9885702,37.9517677 10.9877693,37.9517677 10.9885702,30.9620298 C10.9889707,29.3462139 10.9581356,27.729185 11.0033871,26.1145822 C11.0846797,23.2282725 12.9059546,21.3423453 15.7940447,21.2525778 C18.3253284,21.1737279 20.8614175,21.2525778 23.3947035,21.2250814 C27.1329622,21.1846456 29.5056652,18.9267087 29.7295202,15.1390843 C29.8200233,13.6021183 29.7443371,12.0554477 29.7443371,10.554874 C34.5630266,9.14851574 37.1776052,10.663242 38.367761,15.3129584 C39.085779,18.1183964 39.1218201,20.8716722 38.4022003,23.6856018 C37.448714,27.4154029 35.748377,28.8876716 31.9164115,28.9309379 C28.1160822,28.9742043 24.3153523,28.9414512 20.5146225,28.9418556 C19.9888235,28.94226 19.4634249,28.94226 18.9700629,28.94226 C18.5559912,30.7792598 18.5555907,30.8172695 20.0597042,30.83587 C22.5845806,30.8670056 25.1102579,30.8443615 27.7752939,30.8443615 C27.7752939,32.8944582 28.0415973,34.8648963 27.6639671,36.7002787 C27.4729495,37.6290898 26.2455512,38.6056151 25.2612299,39.0407047 C23.8283976,39.6735255 22.192534,39.8364819 20.6431689,40.2 L17.4395193,40.2 Z" id="Fill-5" fill="#FFFFFF"></path>
                                <path d="M13.9728682,5.025 C13.9728682,3.91503333 14.8666882,3.015 15.9689922,3.015 C17.0712963,3.015 17.9651163,3.91503333 17.9651163,5.025 C17.9651163,6.13496667 17.0712963,7.035 15.9689922,7.035 C14.8666882,7.035 13.9728682,6.13496667 13.9728682,5.025" id="Fill-7" fill="#FF637D"></path>
                                <path d="M21.9573643,35.175 C21.9573643,34.0650333 22.8511843,33.165 23.9534884,33.165 C25.0557924,33.165 25.9496124,34.0650333 25.9496124,35.175 C25.9496124,36.2849667 25.0557924,37.185 23.9534884,37.185 C22.8511843,37.185 21.9573643,36.2849667 21.9573643,35.175" id="Fill-9" fill="#FF637D"></path>
                            </g>
                        </g>
                    </g>
                </g>
            </g>
        </g>
    </g>
</svg>