<?xml version="1.0" encoding="UTF-8"?>
<svg width="38px" height="101px" viewBox="0 0 38 101" version="1.1" xmlns="http://www.w3.org/2000/svg" xmlns:xlink="http://www.w3.org/1999/xlink">
    <!-- Generator: Sketch 47.1 (45422) - http://www.bohemiancoding.com/sketch -->
    <title>Stoneage</title>
    <desc>Created with Sketch.</desc>
    <defs>
        <polygon id="path-1" points="6.01168018e-16 0 38 0 38 101 0 101"></polygon>
    </defs>
    <g id="Play-landing-" stroke="none" stroke-width="1" fill="none" fill-rule="evenodd" opacity="0.81">
        <g id="AIMMO-Prototype-landing---L-Desktops" transform="translate(-552.000000, -2188.000000)">
            <g id="Deliver-through-time-Copy" transform="translate(0.000000, 1829.000000)">
                <g id="Group-4" transform="translate(153.000000, 322.000000)">
                    <g id="Stoneage" transform="translate(399.000000, 37.000000)">
                        <mask id="mask-2" fill="white">
                            <use xlink:href="#path-1"></use>
                        </mask>
                        <g id="Clip-2"></g>
                        <path d="M0.378762142,73.749181 C0.447882476,71.706404 0.411475582,69.6074773 0.516475174,67.5673741 C0.820393591,61.669524 1.22086942,55.7454707 1.25833159,49.8358559 C1.28154758,46.1294456 1.65405869,42.4278481 1.50737584,38.7075341 C1.44353187,37.0930986 1.08579457,35.6091441 0.633082761,34.1797349 C0.222581844,32.8861544 0.054793552,31.6513973 0.208863305,30.3171752 C0.248436015,29.9765341 0.309114171,29.6198503 0.26690328,29.2883001 C0.203059307,28.7915095 0.356601424,28.5000662 0.726474358,28.325735 C1.61923471,27.9059497 1.82184698,27.1883039 1.39921044,26.1925838 C1.36438645,26.110231 1.34275337,26.0123702 1.33853228,25.919857 C1.24303014,23.8385774 1.87144478,21.9257467 2.36847802,19.9883171 C2.4761158,19.5674623 2.88397853,19.4899223 2.98317413,19.9883171 C3.41847394,22.181896 5.04464853,24.1685234 3.8295025,26.6744011 C3.68809601,26.9653097 3.53719207,27.5150413 4.05374786,27.7995327 C4.99346782,28.3171788 5.41346619,29.6455187 4.98766382,30.751399 C4.79085554,31.2631627 4.52492693,31.7401672 4.26849576,32.2171717 C4.12023001,32.4936418 4.14872236,32.6861548 4.38826917,32.8326786 C4.64100688,32.9872237 4.7143483,32.7674381 4.78610682,32.5540695 C5.10585432,31.6027343 5.6092192,30.7963187 6.2123073,30.0711863 C6.40806031,29.8358926 6.51094936,29.5931123 6.48034646,29.2337547 C6.3056989,27.1883039 6.99004297,25.4080933 7.84112007,23.7246739 C8.23104317,22.9530176 8.77081494,22.2396499 9.51056081,21.8706666 C11.9698729,20.6455352 13.9970509,18.6428651 16.1250075,16.821478 C16.3102077,16.6631896 16.5771916,16.4626552 16.2949063,16.1519606 C15.925561,15.7455442 15.9092043,15.0904652 15.5651855,14.7113215 C15.3193071,14.4407337 15.3483271,13.7754943 14.8022237,13.9102534 C14.9958661,13.147688 14.0281814,12.893143 14.2371254,12.1086525 C14.2914719,11.905979 14.2455675,11.6669421 14.2455675,11.4353917 C13.9923022,11.6343218 13.7886346,11.7947493 13.5617511,11.9733586 C13.3464755,9.88940521 13.4715253,7.87924847 13.9585335,5.64716701 C13.4826057,6.28727279 13.6430071,6.94769938 13.2504458,7.40277876 C13.0425571,6.83593488 13.292129,6.37978599 13.2625814,5.90705958 C12.941251,5.93326274 12.941251,6.508128 12.5829861,6.41882335 C12.5724333,6.33914435 12.5513279,6.27604286 12.5587148,6.21828896 C12.7787391,4.50438836 13.7142379,3.25679707 14.6486815,2.0680292 C15.5973713,0.861614304 16.9982453,0.406000168 18.2756524,0.149850906 C19.7751943,-0.15121806 21.3797358,0.0156265535 22.8782224,0.522577494 C25.5406744,1.4231106 26.9214982,3.86107404 27.9018461,6.68245923 C28.2653874,7.72844661 28.6880239,8.77924682 28.7624206,10.2214902 C28.5328989,9.83111655 28.4410902,9.6749671 28.3798844,9.57122398 C28.2247594,10.8829863 28.1287296,12.2150694 28.2664427,13.5514306 C28.2696085,13.5819118 28.2632769,13.6156016 28.2548347,13.6444785 C27.7651883,15.3348498 27.6338069,17.1407288 27.0491861,18.8006188 C26.9457694,19.0952707 26.8370764,19.4498155 27.1489093,19.6396547 C28.3788292,20.3883164 29.2494288,21.6744103 30.35852,22.5840343 C31.469194,23.4947278 32.0258502,24.6915171 32.1176589,26.2016747 C32.2295177,28.0268051 32.184141,29.857283 31.7145448,31.6230551 C31.4913548,32.4604867 31.567862,33.2358864 31.8633382,34.0016604 C32.2448192,34.9898939 32.4833107,36.0096781 32.4374064,37.1048632 C32.4178838,37.5594079 32.5302703,37.9898884 32.7001692,38.3765187 C33.7760192,40.8203644 33.993933,43.4914825 34.0414202,46.152975 C34.1216209,50.6764961 34.8064926,55.1647231 34.5616695,59.7032175 C34.5400364,60.1042862 34.6434531,60.4978684 34.6255134,60.9160495 C34.5875236,61.7914489 35.6654843,62.9652436 36.4083959,62.9492008 C37.6314565,62.9229976 38.3590668,64.2149739 37.819295,65.5262014 C37.6662805,65.8978585 37.732235,66.1540077 37.8256266,66.4909055 C38.1416807,67.6294061 37.7944961,68.2203141 36.7967361,68.2411697 C36.5329181,68.2465173 36.396788,68.3497256 36.3260847,68.6245914 C36.1334975,69.3764617 35.6575697,69.9074768 35.2454859,70.4743207 C34.5479509,71.4352815 33.9902395,71.4288644 33.2125038,70.5561387 C32.4057482,69.650258 32.0432622,68.4743243 31.7398714,67.2614923 C31.6037413,66.7165736 31.7989666,66.2598899 32.0991916,65.8823505 C32.4622053,65.4272711 32.8225807,64.9352934 33.2631569,64.6074865 C33.763356,64.2352947 33.8066221,63.9438514 33.4161714,63.4513389 C33.1623784,63.1320882 32.9697912,62.7459926 32.7471288,62.3925173 C32.6030841,62.1636407 32.4542907,61.9016091 32.1756988,61.9529459 C31.6406758,62.052411 31.0803262,61.9919833 31.1431149,61.2278136 C31.2090694,60.4251413 30.4587708,60.3989381 30.4023138,59.8042868 C30.3938716,59.7171212 30.4123389,59.5941267 30.4608814,59.5374424 C30.8951259,59.0278176 30.5922628,58.652952 30.3226407,58.2417228 C30.0440488,57.8165899 29.8071402,57.3572325 29.8176929,56.7855758 C29.8261351,56.3315659 30.0139736,55.9962724 30.3458567,55.8016203 C30.6872373,55.601086 30.8856285,55.904294 31.0887684,56.1615127 C31.170552,56.2652559 31.2159287,56.4476085 31.4618071,56.3775551 C31.474998,55.5069685 32.069644,54.8476114 31.9799458,53.8144582 C31.7583386,51.2748907 30.7864329,49.0695471 30.0171394,46.7647385 C29.5317141,45.3107305 28.6500341,43.9519095 28.7202098,42.3508429 C28.7998828,40.5331992 28.1028755,39.117159 27.4570488,37.4984454 C27.0064476,38.7198335 26.7041121,39.7925588 27.1467988,41.0321288 C27.5889579,42.2711639 27.9762428,43.5401455 27.816369,44.9583248 C27.7525251,45.5246339 27.9076501,46.1481621 28.2912416,46.5994982 C28.9433998,47.3652722 29.8894514,47.9684797 29.3243531,49.3716856 C29.2795041,49.4829154 29.3560113,49.6786369 29.4045538,49.8219522 C29.6251057,50.4706141 29.5512367,51.1101851 29.4119407,51.7647294 C29.1238514,53.1187376 29.0072438,54.4919971 29.2895291,55.8663261 C29.9955063,59.3074963 29.7654569,62.7288803 29.2061626,66.1577511 C28.9428722,67.768978 28.2653874,69.2999913 28.1846591,70.8957103 C28.0453631,73.6400903 27.9804639,76.4149515 28.6505618,79.1358021 C29.0906103,80.9208255 29.2029968,82.7710895 28.9940529,84.6432786 C28.7882748,86.4817779 27.7314196,95.4175904 27.2544366,97.9609012 C27.9377254,98.0780133 33.1871773,98.9961934 33.4874023,99.5844276 C33.8076774,100.213303 34.449283,100.590843 33.273182,100.842714 C32.0976087,101.094585 26.5384343,100.968382 26.5384343,100.968382 L24.18676,100.590843 C24.18676,100.590843 22.6708614,100.627741 22.6903839,99.8357641 C22.723625,98.4715954 23.0750307,97.8480672 23.2839746,97.5951265 C23.1061612,95.7983383 22.5025455,89.6865848 22.4555859,89.4165319 C22.4239277,89.232575 22.4207619,89.0315058 22.3468928,88.8737521 C21.0620988,86.1272331 21.8973468,83.456115 22.5769422,80.7972964 C22.7167658,80.2497038 22.7452581,79.7876725 22.6122938,79.2523794 C22.2086522,77.6256444 21.8509148,75.9834015 21.4456903,74.3572012 C20.9787323,72.4801993 21.1987566,70.5438393 21.0631541,68.6384952 C20.9275516,66.7395682 20.3798653,64.9598923 20.101801,63.1069545 C20.0664494,62.8727304 20.0216004,62.5556186 19.7588376,62.5363673 C19.4100701,62.5101642 19.429065,62.9069549 19.3868541,63.1497352 C18.9431121,65.7112278 18.1738186,68.1663035 17.6335192,70.6925021 C17.3565102,71.9871521 17.3966106,73.3721763 17.2325157,74.7058637 C16.9966624,76.6229725 16.4743026,78.4331296 15.5736277,80.070025 C15.3826234,80.4165484 15.396342,80.7625371 15.4090052,81.1480979 C15.4480503,82.3411438 15.4359147,83.5363288 15.4654623,84.7299095 C15.4981757,86.0304418 14.6560684,86.9010285 14.2788086,87.9892618 C14.0081313,88.7710785 13.7627805,89.5721466 13.6809969,97.9443237 L13.7105445,97.948067 C13.7105445,97.948067 19.6971041,98.955017 20.0173793,99.5844276 C20.338182,100.213303 20.9797876,100.590843 19.8036866,100.842714 C18.6281133,101.094585 13.0689389,100.968382 13.0689389,100.968382 L10.7172647,100.590843 C10.7172647,100.590843 9.2008384,100.627741 9.22036094,99.8357641 C9.24410456,98.8860332 9.42191794,98.2967295 9.59814841,97.9395109 C9.16021042,88.4288331 8.88214617,86.4336496 8.70433279,84.4502308 C8.52651941,82.4710901 8.89322653,80.6074571 9.6651582,78.8866047 C10.4450044,77.14864 10.763169,75.2887503 10.9494246,73.3748501 C10.9874144,72.9882198 10.9367613,72.6133542 10.8249024,72.2604136 C9.49631464,68.0796727 9.56015861,63.8283436 10.3436983,59.5363728 C10.5568633,58.3700648 10.7404807,57.1946659 10.9225151,56.0203365 C11.2369863,53.9925328 10.895078,52.0208786 10.5257327,50.0540373 C10.3938237,49.3518996 10.958922,47.4139352 11.4601763,47.0171445 C11.8965314,46.6711558 11.9049736,46.1486969 11.8743707,45.674901 C11.76515,43.9898773 11.9756769,42.3540515 12.2890927,40.7214341 C12.377208,40.263681 12.427861,39.7706337 12.2241935,39.3337362 C11.4311564,37.632135 11.0649769,35.764224 10.6550036,33.9107515 C10.5985465,33.6546022 10.6011847,33.2540682 10.3331456,33.2118223 C10.0508602,33.1674373 9.98912679,33.5663671 9.89204174,33.8027303 C8.93860324,36.1219773 7.40001625,37.8551292 5.78070094,39.5043241 C4.92909621,40.3717022 4.39090735,40.3700979 3.5229459,39.5647518 C3.35568524,39.4096718 3.18473113,39.1754477 2.96787268,39.2513834 C2.69561243,39.3465704 2.80061202,39.6797248 2.80536075,39.9075319 C2.93568688,45.9813175 2.48825143,52.0347823 2.26136789,58.0914557 C2.02868035,64.3085566 1.98330364,70.6465129 1.62662161,76.8529186 C1.36596936,81.3898086 1.31478865,85.7593193 1.34697446,90.5721447 L0.0289393811,90.5721447 C-0.0913616587,84.6898026 0.19039604,79.3165504 0.378762142,73.749181" id="Fill-1" fill="#000000" mask="url(#mask-2)"></path>
                    </g>
                </g>
            </g>
        </g>
    </g>
</svg>