<?xml version="1.0" encoding="UTF-8"?>
<svg width="202px" height="89px" viewBox="0 0 202 89" version="1.1" xmlns="http://www.w3.org/2000/svg" xmlns:xlink="http://www.w3.org/1999/xlink">
    <!-- Generator: Sketch 47.1 (45422) - http://www.bohemiancoding.com/sketch -->
    <title>Victorian</title>
    <desc>Created with Sketch.</desc>
    <defs>
        <polygon id="path-1" points="97.2363063 0.0667255167 97.2363063 74 0.867255856 74 0.867255856 0.0667255167 97.2363063 0.0667255167"></polygon>
        <polygon id="path-3" points="97.2363063 0.0667255167 97.2363063 74 0.867255856 74 0.867255856 0.0667255167 97.2363063 0.0667255167"></polygon>
        <polygon id="path-5" points="106.906024 0.0731386139 0 0.0731386139 0 88.2803337 106.906024 88.2803337 106.906024 0.0731386139"></polygon>
        <polygon id="path-7" points="5.87239486 0.0732352941 0 0.0732352941 0 30.0345 0 59.9957647 5.87239486 59.9957647 5.87239486 0.0732352941"></polygon>
        <polygon id="path-9" points="31.8055111 0.083 0.615288889 0.083 0.615288889 1.2818049 31.8055111 1.2818049 31.8055111 0.083"></polygon>
        <polygon id="path-11" points="16.4078632 0.083 0.656915789 0.083 0.656915789 1.16475363 16.4078632 1.16475363 16.4078632 0.083"></polygon>
        <polygon id="path-13" points="15.8735111 0.083 0.225511111 0.083 0.225511111 1.16338275 15.8735111 1.16338275 15.8735111 0.083"></polygon>
    </defs>
    <g id="Play-landing-" stroke="none" stroke-width="1" fill="none" fill-rule="evenodd" opacity="0.8">
        <g id="AIMMO-Prototype-landing---L-Desktops" transform="translate(-971.000000, -2200.000000)">
            <g id="Deliver-through-time-Copy" transform="translate(0.000000, 1829.000000)">
                <g id="Group-4" transform="translate(153.000000, 322.000000)">
                    <g id="Victorian" style="mix-blend-mode: multiply;" transform="translate(818.000000, 49.000000)">
                        <g id="Group-3" transform="translate(104.000000, 15.000000)">
                            <mask id="mask-2" fill="white">
                                <use xlink:href="#path-1"></use>
                            </mask>
                            <g id="Clip-2"></g>
                            <path d="M92.6791297,4.11765952 C92.7418144,3.98639762 92.7912559,3.79435 92.9060306,3.65692143 C93.6432378,2.77685 93.8515982,1.69944524 94.0423009,0.622040476 C94.132355,0.118135714 93.8948595,-0.0413166667 93.4022108,0.137516667 C93.3139225,0.170111905 93.2168054,0.20887381 93.152355,0.273183333 C92.3056703,1.12770714 91.3450937,1.90206429 90.6502649,2.86670714 C89.7382468,4.13527857 89.0928595,4.37313571 87.8471117,3.45077857 C87.2705892,3.02439762 86.646391,2.78389762 85.9409676,2.84027857 C84.5672018,2.95127857 83.1952018,3.08694524 81.8258505,3.24287381 C81.4700486,3.28339762 81.1266072,3.43932619 80.7778685,3.53975476 C80.2172378,3.70185 79.6645532,3.91239762 79.092445,4.01194524 C78.2925532,4.15113571 77.4803009,4.21015952 76.8260847,4.77485 C76.7219045,4.86470714 76.5762288,4.92285 76.439382,4.95456429 C75.6218324,5.14573095 74.7954541,5.30518333 73.9823189,5.51485 C73.310445,5.68751667 72.6288595,5.86282619 71.9940667,6.13504048 C71.418427,6.3825881 70.9010577,6.76404048 70.3572018,7.08470714 C69.775382,7.42827857 69.1759045,7.74454048 68.6135081,8.11718333 C67.6494,8.75587381 66.7285532,9.45887381 65.7538505,10.0799452 C64.362427,10.9653024 62.9100847,11.7572786 61.5398505,12.673469 C60.638427,13.2769214 59.6169315,13.4469452 58.6263369,13.74735 C58.007436,13.9358738 57.3452739,14.0266119 56.7705171,14.30235 C55.8867514,14.7260881 55.0409495,15.2388024 54.2172198,15.7717786 C52.9705892,16.57785 51.6648054,17.1945167 50.1550757,17.263231 C48.9790757,17.31785 47.8030757,17.372469 46.6261928,17.3883262 C45.7053459,17.4006595 44.7712559,17.4420643 43.865418,17.3143262 C42.4360306,17.1125881 41.0260667,16.7769452 39.6072739,16.5020881 C37.3161928,16.0580881 35.0048054,15.6986595 32.7402108,15.1471833 C31.2560847,14.7851119 29.7790216,14.5375643 28.2675261,14.597469 C27.4058324,14.6318262 26.5441387,14.8282786 25.6974541,15.0212071 C25.2242288,15.1286833 24.7977964,15.4370167 24.3245712,15.5515405 C23.0284991,15.8669214 21.8277784,16.3778738 20.7065171,17.096731 C20.2659586,17.3786357 19.787436,17.6015167 19.3389315,17.8710881 C17.9819405,18.6886119 16.5287153,19.1000167 14.9324631,19.0145643 C13.7096703,18.9484929 12.4842288,18.9044452 11.2596703,18.9062071 C9.99185045,18.907969 8.82114775,19.26035 7.77228288,20.0073976 C4.96471532,22.0053976 3.61831892,24.8358976 3.10977838,28.1385881 C3.01884144,28.7297071 2.99765225,29.343731 3.03914775,29.9410167 C3.17246306,31.8562071 3.28635495,33.7625881 3.08947207,35.687469 C3.00912973,36.4706357 3.21484144,37.2855167 3.3252018,38.0810167 C3.34109369,38.1964214 3.5521027,38.2845167 3.67305766,38.3849452 C3.74015676,38.242231 3.83197658,38.1056833 3.86729189,37.9559214 C3.89201261,37.8510881 3.83903964,37.7277548 3.8204991,37.613231 C4.33080541,38.4316357 4.71662523,39.2694214 4.4755982,40.2640167 C4.14186847,41.646231 4.23280541,43.0398976 4.44558018,44.4273976 C4.46588649,44.5604214 4.64158018,44.6705405 4.74487748,44.79035 C4.84640901,44.6546833 4.99208468,44.532231 5.03622883,44.3807071 C5.08213874,44.2221357 5.01857117,44.0344929 5.02475135,43.8609452 C5.03534595,43.605469 5.06536396,43.3508738 5.08655315,43.0962786 C5.51298559,45.3708976 4.99738198,47.4402548 3.79401261,49.3713024 C3.16716577,50.37735 2.3248955,51.0935643 1.22923784,51.5340405 C1.08797658,51.5913024 0.987327928,51.74635 0.867255856,51.8555881 C0.898156757,51.9049214 0.929057658,51.9542548 0.959075676,52.0035881 C1.28750811,51.9110881 1.63006667,51.8511833 1.94084144,51.7190405 C2.65421081,51.4159929 3.36404865,51.099731 3.87170631,50.4680881 C3.94233694,50.3791119 4.11185045,50.3685405 4.23545405,50.320969 C4.26812072,50.450469 4.32021081,50.5790881 4.32550811,50.709469 C4.32903964,50.8151833 4.30167027,50.9385167 4.24428288,51.0266119 C3.3870036,52.3550881 2.66833694,53.7892786 1.39963423,54.8111833 C1.28309369,54.9045643 1.19921982,55.0375881 1.10033694,55.1521119 C1.13035495,55.1794214 1.16037297,55.206731 1.19127387,55.2340405 C2.24808468,54.6191357 3.4232018,54.1751357 4.14628288,53.0809929 C4.35464324,52.7673738 4.6301027,52.4925167 4.90467928,52.2308738 C4.98060721,52.1577548 5.1615982,52.1947548 5.29491351,52.1815405 C5.30197658,52.300469 5.34435495,52.431731 5.30992252,52.5365643 C5.25076937,52.7153976 5.15276937,52.8836595 5.0530036,53.0448738 C4.68660721,53.6395167 4.31314775,54.2288738 3.94233694,54.8208738 C4.22927387,54.7089929 4.47206667,54.5548262 4.66276937,54.3522071 C6.12747207,52.7938024 7.3794,51.0953262 8.11660721,49.0594452 C8.17311171,48.9043976 8.33026486,48.78635 8.44150811,48.6506833 C8.48565225,48.8198262 8.5915982,48.9986595 8.56422883,49.1545881 C8.48565225,49.5941833 8.35321982,50.0232071 8.23138198,50.4962786 C8.99154414,49.9448024 9.55658919,49.2902548 9.74464324,48.3925643 C9.91857117,47.5574214 10.0324631,46.7099452 10.1754901,45.8686357 C10.2152198,45.6378262 10.2646613,45.4087786 10.3096883,45.177969 C10.3820847,45.1858976 10.455364,45.1929452 10.5286432,45.1999929 C10.6849135,46.0413024 10.5348234,46.8949452 10.4792018,47.8261119 C11.3806252,47.2208976 11.7611477,46.3399452 11.8768054,45.455469 C12.2573279,42.5245405 11.8926973,39.6693738 10.6972739,36.9393024 C10.5895622,36.6943976 10.5515982,36.3931119 10.568373,36.1235405 C10.6390036,34.9351357 10.7882108,33.746731 10.3132198,32.597969 C10.2832018,32.525731 10.3185171,32.4270643 10.3282288,32.2526357 C11.028355,32.6464214 10.8482468,33.4251833 11.2349495,33.9634452 C11.2861568,33.80135 11.3550216,33.6956357 11.344427,33.598731 C11.2437784,32.6895881 11.2102288,31.7619452 10.9939225,30.879231 C10.8085171,30.1180881 10.4059225,29.4106833 10.1110396,28.6750881 C10.0545351,28.5350167 9.98037297,28.3350405 10.0377604,28.2284452 C10.4668414,27.4267786 10.4050396,26.5696119 10.3741387,25.7133262 C10.3529495,25.1186833 10.5992739,24.6491357 11.0989856,24.3575405 C11.4344811,24.16285 11.8185351,24.0183738 12.1990577,23.9382071 C13.2708775,23.7126833 13.7520486,24.293231 13.4968955,25.3424452 C13.101364,26.9686833 13.0501568,28.585231 13.7520486,30.176231 C14.6887874,32.2984452 15.4145171,34.4893738 15.777382,36.7913024 C15.9221748,37.7136595 16.2064631,38.6219214 16.2735622,39.5469214 C16.4148234,41.5026357 15.5081027,43.2143262 14.6243369,44.8335167 C14.0363369,45.9118024 13.0422108,46.8315167 12.0639766,47.6182071 C11.1466613,48.3555643 10.4659586,49.1175881 10.1410577,50.2742786 C9.63516577,52.0731833 9.00743604,53.8394929 8.41767027,55.6146119 C8.03891351,56.7545643 7.64956216,57.8918738 7.23725586,59.0194929 C6.97239099,59.7427548 6.65896757,60.4475167 6.36055315,61.1575643 C6.28727387,61.3311119 6.20604865,61.5073024 6.09657117,61.6597071 C5.68956216,62.2261595 5.22163423,62.7556119 4.86848108,63.3537786 C4.57624685,63.8479929 4.35552613,64.4038738 4.20896757,64.9606357 C4.05622883,65.5394214 4.34758018,66.0715167 4.82345405,66.3393262 C5.66219279,66.8115167 5.81846306,67.6325643 5.22251712,68.4016357 C5.05741802,68.6139452 4.8728955,68.820969 4.75458919,69.0579452 C4.51621081,69.5380643 4.72545405,71.8294214 5.12716577,72.169469 C5.8837964,72.8108024 6.69693153,73.3957548 7.53831892,73.9243262 C7.95239099,74.1850881 8.79642703,73.7269929 8.83880541,73.2512786 C8.94475135,72.0866595 9.14075135,70.9017786 9.02862523,69.7521357 C8.82026486,67.6272786 8.7875982,65.5517548 9.45152613,63.4920881 C10.3847333,60.5963976 11.7434901,57.8936357 13.1596342,55.2164214 C13.3432739,54.8710881 13.6231477,54.5750881 13.8694721,54.2658738 C14.4371658,53.5549452 15.0128054,52.8510643 15.581382,52.1418976 C15.6396523,52.0687786 15.6590757,51.9657071 15.7146973,51.8899452 C16.0007514,51.4952786 16.2435441,51.0556833 16.5896342,50.7218024 C18.1223189,49.2462071 19.6991477,47.8164214 21.2256523,46.3346595 C21.6167694,45.95585 21.9010577,45.4616357 22.2056523,45.0008976 C22.5217243,44.5234214 22.8307333,44.0521119 23.5273279,43.7860643 C23.5679405,44.2520881 23.6544631,44.6538024 23.6253279,45.0467071 C23.5732378,45.771731 23.4231477,46.4888262 23.368409,47.212969 C23.3021928,48.1088976 22.9870036,48.9290643 22.4908234,49.6338262 C21.7942288,50.6231357 21.7880486,51.59835 22.245382,52.6422786 C22.4996523,53.2228262 22.8210216,53.7795881 23.0196703,54.3777548 C23.9511117,57.1686119 24.8746072,59.9629929 26.2942829,62.5547548 C26.9573279,63.7634214 27.1868775,65.083969 27.5020667,66.3913024 C27.6433279,66.97185 27.8243189,67.5515167 28.0626973,68.0985881 C28.2489856,68.526731 28.5933099,68.8438738 29.0868414,68.7901357 C29.2660667,68.6253976 29.5150396,68.3998738 29.6580667,68.4536119 C30.5277063,68.783969 30.9046973,69.5785881 30.6716162,70.4727548 C30.552427,70.929969 30.469436,71.3915881 30.7846252,71.7950643 C31.4918144,72.7015643 32.1186613,73.7366833 33.5162649,73.6353738 C34.2711297,73.5807548 35.0445351,73.6336119 35.7782108,73.48385 C36.6504991,73.3058976 36.832373,72.6724929 36.3132378,71.94835 C36.1287153,71.6919929 35.8152919,71.484969 35.7323009,71.2048262 C35.4277063,70.1793976 34.6640126,69.5107548 34.0106793,68.7346357 C33.2196162,67.7937786 32.4983009,66.7842071 31.8440847,65.7429214 C31.3938144,65.028469 31.1395441,64.1950881 30.7422468,63.4436357 C30.3308234,62.6657548 29.7754901,61.9557071 29.4196883,61.1558024 C28.7557604,59.663469 28.1827694,58.1165167 28.0688775,56.4744214 C27.8923009,53.9319929 28.3372739,51.4529929 29.0656523,49.0224452 C29.5150396,47.5221833 30.0332919,46.0404214 30.4199946,44.5251833 C30.786391,43.0865881 31.0283009,41.6162786 31.3117063,40.1565405 C31.4220667,39.5839214 31.5227153,39.0060167 31.5801027,38.425469 C31.6542649,37.6775405 31.8590937,37.4934214 32.6086613,37.5339452 C33.8906072,37.6044214 34.9844991,38.1647071 36.0722108,38.778731 C37.4539225,39.5583738 38.8259225,40.3662071 40.2614901,41.035731 C41.6520306,41.683231 43.089364,42.2664214 44.5575982,42.7051357 C46.3860486,43.2513262 48.2815982,42.9377071 50.1550757,42.885731 C51.630373,42.8443262 53.1286252,42.7764929 54.5809676,42.9747071 C56.0924631,43.181731 57.5942468,43.4125405 59.1216342,43.4750881 C60.3550216,43.5261833 60.4486072,43.642469 60.6039946,44.8696357 C60.608409,44.90135 60.6101748,44.9330643 60.6110577,44.9647786 C60.6428414,46.1382071 60.7046432,47.3116357 60.7002288,48.4850643 C60.6914,50.6108024 60.6569676,52.7365405 60.6031117,54.8613976 C60.5836883,55.6013976 60.6596162,56.3026357 60.8988775,57.0100405 C61.045436,57.4425881 61.1160667,57.9544214 61.038373,58.3993024 C60.7584991,60.0043976 60.3664991,61.5901119 60.0857423,63.1960881 C59.9065171,64.2215167 59.8058685,65.2654452 59.7475982,66.30585 C59.6981568,67.1920881 60.1881568,67.76735 60.9854,68.1576119 C61.3968234,68.358469 61.7729315,68.6817786 62.078409,69.0271119 C62.2382108,69.2077071 62.3247333,69.5926833 62.2479225,69.8173262 C62.0007153,70.5353024 62.1719946,71.116731 62.6337423,71.6664452 C62.734391,71.7862548 62.7732378,71.9624452 62.8827153,72.0690405 C63.0999045,72.2787071 63.3215081,72.5667786 63.5854901,72.6266833 C64.2935622,72.7852548 65.0237063,72.8513262 65.7476703,72.9332548 C66.1573279,72.9799452 66.5740486,73.0275167 66.9819405,72.9966833 C67.596427,72.9499929 67.7862468,72.6187548 67.4887153,72.0937071 C67.1576342,71.5087548 66.7930036,70.9343738 66.3762829,70.4075643 C65.8350757,69.7248262 65.2135261,69.1046357 64.6555441,68.434231 C64.3942108,68.1206119 64.1099225,67.7805643 63.9898505,67.4026357 C63.5307514,65.955231 63.0213279,64.5087071 63.0787153,62.9547071 C63.126391,61.6773262 63.0336883,60.3893738 63.5360486,59.1542786 C64.0057423,58.0011119 64.4763189,56.8373738 64.7994541,55.6383976 C65.131418,54.4050643 65.2797423,53.1223976 65.5181207,51.8635167 C65.9772198,49.434731 67.2282649,47.2385167 67.6034901,44.7806595 C67.6670577,44.3683738 68.0493459,44.2952548 68.4325171,44.5736357 C69.7285892,45.5144929 71.0299586,46.4474214 72.3013099,47.4191119 C73.3448775,48.2181357 74.373436,49.0391833 75.3640306,49.9025167 C76.439382,50.8380881 77.4820667,51.8133024 78.5009135,52.8096595 C79.3617243,53.65185 80.118355,54.6059214 81.0109495,55.40935 C82.2028414,56.483231 82.568355,57.9086119 82.914445,59.3568976 C83.065418,59.9858976 83.1051477,60.6413262 83.2623009,61.2685643 C83.3302829,61.5398976 83.5192198,61.8332548 83.7408234,62.0015167 C84.075436,62.255231 84.4921568,62.3979452 84.8647333,62.6040881 C85.7405532,63.087731 86.3956523,63.7237786 86.3885892,64.8196833 C86.3806432,65.8512786 86.7505712,66.732231 87.4471658,67.4951357 C88.3282829,68.4597786 89.390391,69.1601357 90.5557964,69.7309929 C90.9319045,69.9151119 91.0978865,69.7671119 91.0652198,69.4261833 C90.9248414,67.9602786 90.7597423,66.4961357 90.5875802,65.0328738 C90.4992919,64.2814214 89.9527874,63.7801595 89.5501928,63.1943262 C88.2920847,61.365469 87.0816523,59.5040167 85.8200126,57.6778024 C84.5875081,55.8947548 83.8820847,53.8676833 83.1051477,51.8802548 C82.5789495,50.5332786 81.9441568,49.2832071 80.9738685,48.2031595 C80.2207694,47.3662548 79.4385351,46.5443262 78.7754901,45.6387071 C76.9585171,43.1570643 75.4108234,40.4816119 73.3537063,38.1735167 C73.0950216,37.8836833 73.0535261,37.5542071 73.2274541,37.2027071 C73.4102108,36.836231 73.6715441,36.4882548 73.7598324,36.1015167 C73.9470036,35.2857548 74.049418,34.4514929 74.1747874,33.6233976 C74.2595441,33.0587071 74.3416523,32.4931357 74.3937423,31.9258024 C74.449364,31.3161833 74.4634901,30.7030405 74.5067514,30.0925405 C74.5252919,29.8282548 74.4908595,29.5163976 74.6179946,29.3102548 C75.3578505,28.1174452 76.1489135,26.95635 76.9011297,25.7705881 C77.3416883,25.0772786 77.8007874,24.385731 78.1495261,23.645731 C78.6907333,22.49785 79.1966252,21.3420405 79.9559045,20.3078024 C80.3858685,19.721969 80.6551477,19.0154452 81.1045351,18.4489929 C81.6607514,17.7468738 82.2840667,17.0835167 82.9621207,16.5003262 C83.4512378,16.079231 83.6975622,16.2104929 84.1231117,16.6844452 C84.5230577,17.1302071 84.9662649,17.5451357 85.4271297,17.9301119 C86.3400306,18.6930167 87.2908955,19.4109929 88.199382,20.1791833 C88.5092739,20.4408262 88.7547153,20.7852786 88.998391,21.1156357 C89.3709676,21.6204214 89.654373,22.2071357 90.0896342,22.64585 C90.5619766,23.1206833 90.7288414,23.6228262 90.7164811,24.2632786 C90.709418,24.6306357 90.7200126,25.0957786 90.9266072,25.3530167 C91.5578685,26.1370643 91.9216162,27.2955167 93.242409,27.2558738 C93.2715441,27.2549929 93.3015622,27.2805405 93.3324631,27.2849452 C94.0193459,27.3941833 94.7230036,27.4646595 95.2818685,26.9633976 C96.1100126,26.2189929 96.7880667,25.3583024 97.109436,24.2588738 C97.2763009,23.6880167 97.3160306,23.1497548 96.9973099,22.6106119 C96.8887153,22.4256119 96.8392739,22.1948024 96.8066072,21.978969 C96.6185532,20.7465167 96.5134901,19.4973262 96.2495081,18.2816119 C95.7400847,15.93035 95.4672739,13.561469 95.5017063,11.158231 C95.5087694,10.638469 95.3551477,10.2006357 94.9852198,9.82623095 C94.5270036,9.36196905 94.3769135,8.78494524 94.3292378,8.1400881 C94.2762649,7.43620714 94.1464811,6.73320714 93.988445,6.04342143 C93.9019225,5.6646119 93.9822649,5.41354048 94.3080486,5.25232619 C95.4399045,4.69292143 96.1541568,3.7221119 96.8277964,2.71606429 C96.9928955,2.46939762 97.1129676,2.1830881 97.1950757,1.89765952 C97.2418685,1.73556429 97.1712378,1.53999286 97.1535802,1.35851667 C96.9628775,1.39463571 96.7545171,1.39199286 96.5858865,1.47304048 C96.0914721,1.71089762 95.6076523,1.97254048 95.1300126,2.24387381 C94.8148234,2.42270714 94.5014,2.61123095 94.2179946,2.8341119 C93.6979766,3.24199286 93.2017964,3.67894524 92.6791297,4.11765952" id="Fill-1" fill="#FFFFFF" mask="url(#mask-2)"></path>
                        </g>
                        <g id="Group-6" transform="translate(104.000000, 15.000000)">
                            <mask id="mask-4" fill="white">
                                <use xlink:href="#path-3"></use>
                            </mask>
                            <g id="Clip-5"></g>
                            <path d="M92.6791297,4.11765952 C93.2017964,3.67894524 93.6979766,3.24199286 94.2179946,2.8341119 C94.5014,2.61123095 94.8148234,2.42270714 95.1300126,2.24387381 C95.6076523,1.97254048 96.0914721,1.71089762 96.5858865,1.47304048 C96.7545171,1.39199286 96.9628775,1.39463571 97.1535802,1.35851667 C97.1712378,1.53999286 97.2418685,1.73556429 97.1950757,1.89765952 C97.1129676,2.1830881 96.9928955,2.46939762 96.8277964,2.71606429 C96.1541568,3.7221119 95.4399045,4.69292143 94.3080486,5.25232619 C93.9822649,5.41354048 93.9019225,5.6646119 93.988445,6.04342143 C94.1464811,6.73320714 94.2762649,7.43620714 94.3292378,8.1400881 C94.3769135,8.78494524 94.5270036,9.36196905 94.9852198,9.82623095 C95.3551477,10.2006357 95.5087694,10.638469 95.5017063,11.158231 C95.4672739,13.561469 95.7400847,15.93035 96.2495081,18.2816119 C96.5134901,19.4973262 96.6185532,20.7465167 96.8066072,21.978969 C96.8392739,22.1948024 96.8887153,22.4256119 96.9973099,22.6106119 C97.3160306,23.1497548 97.2763009,23.6880167 97.109436,24.2588738 C96.7880667,25.3583024 96.1100126,26.2189929 95.2818685,26.9633976 C94.7230036,27.4646595 94.0193459,27.3941833 93.3324631,27.2849452 C93.3015622,27.2805405 93.2715441,27.2549929 93.242409,27.2558738 C91.9216162,27.2955167 91.5578685,26.1370643 90.9266072,25.3530167 C90.7200126,25.0957786 90.709418,24.6306357 90.7164811,24.2632786 C90.7288414,23.6228262 90.5619766,23.1206833 90.0896342,22.64585 C89.654373,22.2071357 89.3709676,21.6204214 88.998391,21.1156357 C88.7547153,20.7852786 88.5092739,20.4408262 88.199382,20.1791833 C87.2908955,19.4109929 86.3400306,18.6930167 85.4271297,17.9301119 C84.9662649,17.5451357 84.5230577,17.1302071 84.1231117,16.6844452 C83.6975622,16.2104929 83.4512378,16.079231 82.9621207,16.5003262 C82.2840667,17.0835167 81.6607514,17.7468738 81.1045351,18.4489929 C80.6551477,19.0154452 80.3858685,19.721969 79.9559045,20.3078024 C79.1966252,21.3420405 78.6907333,22.49785 78.1495261,23.645731 C77.8007874,24.385731 77.3416883,25.0772786 76.9011297,25.7705881 C76.1489135,26.95635 75.3578505,28.1174452 74.6179946,29.3102548 C74.4908595,29.5163976 74.5252919,29.8282548 74.5067514,30.0925405 C74.4634901,30.7030405 74.449364,31.3161833 74.3937423,31.9258024 C74.3416523,32.4931357 74.2595441,33.0587071 74.1747874,33.6233976 C74.049418,34.4514929 73.9470036,35.2857548 73.7598324,36.1015167 C73.6715441,36.4882548 73.4102108,36.836231 73.2274541,37.2027071 C73.0535261,37.5542071 73.0950216,37.8836833 73.3537063,38.1735167 C75.4108234,40.4816119 76.9585171,43.1570643 78.7754901,45.6387071 C79.4385351,46.5443262 80.2207694,47.3662548 80.9738685,48.2031595 C81.9441568,49.2832071 82.5789495,50.5332786 83.1051477,51.8802548 C83.8820847,53.8676833 84.5875081,55.8947548 85.8200126,57.6778024 C87.0816523,59.5040167 88.2920847,61.365469 89.5501928,63.1943262 C89.9527874,63.7801595 90.4992919,64.2814214 90.5875802,65.0328738 C90.7597423,66.4961357 90.9248414,67.9602786 91.0652198,69.4261833 C91.0978865,69.7671119 90.9319045,69.9151119 90.5557964,69.7309929 C89.390391,69.1601357 88.3282829,68.4597786 87.4471658,67.4951357 C86.7505712,66.732231 86.3806432,65.8512786 86.3885892,64.8196833 C86.3956523,63.7237786 85.7405532,63.087731 84.8647333,62.6040881 C84.4921568,62.3979452 84.075436,62.255231 83.7408234,62.0015167 C83.5192198,61.8332548 83.3302829,61.5398976 83.2623009,61.2685643 C83.1051477,60.6413262 83.065418,59.9858976 82.914445,59.3568976 C82.568355,57.9086119 82.2028414,56.483231 81.0109495,55.40935 C80.118355,54.6059214 79.3617243,53.65185 78.5009135,52.8096595 C77.4820667,51.8133024 76.439382,50.8380881 75.3640306,49.9025167 C74.373436,49.0391833 73.3448775,48.2181357 72.3013099,47.4191119 C71.0299586,46.4474214 69.7285892,45.5144929 68.4325171,44.5736357 C68.0493459,44.2952548 67.6670577,44.3683738 67.6034901,44.7806595 C67.2282649,47.2385167 65.9772198,49.434731 65.5181207,51.8635167 C65.2797423,53.1223976 65.131418,54.4050643 64.7994541,55.6383976 C64.4763189,56.8373738 64.0057423,58.0011119 63.5360486,59.1542786 C63.0336883,60.3893738 63.126391,61.6773262 63.0787153,62.9547071 C63.0213279,64.5087071 63.5307514,65.955231 63.9898505,67.4026357 C64.1099225,67.7805643 64.3942108,68.1206119 64.6555441,68.434231 C65.2135261,69.1046357 65.8350757,69.7248262 66.3762829,70.4075643 C66.7930036,70.9343738 67.1576342,71.5087548 67.4887153,72.0937071 C67.7862468,72.6187548 67.596427,72.9499929 66.9819405,72.9966833 C66.5740486,73.0275167 66.1573279,72.9799452 65.7476703,72.9332548 C65.0237063,72.8513262 64.2935622,72.7852548 63.5854901,72.6266833 C63.3215081,72.5667786 63.0999045,72.2787071 62.8827153,72.0690405 C62.7732378,71.9624452 62.734391,71.7862548 62.6337423,71.6664452 C62.1719946,71.116731 62.0007153,70.5353024 62.2479225,69.8173262 C62.3247333,69.5926833 62.2382108,69.2077071 62.078409,69.0271119 C61.7729315,68.6817786 61.3968234,68.358469 60.9854,68.1576119 C60.1881568,67.76735 59.6981568,67.1920881 59.7475982,66.30585 C59.8058685,65.2654452 59.9065171,64.2215167 60.0857423,63.1960881 C60.3664991,61.5901119 60.7584991,60.0043976 61.038373,58.3993024 C61.1160667,57.9544214 61.045436,57.4425881 60.8988775,57.0100405 C60.6596162,56.3026357 60.5836883,55.6013976 60.6031117,54.8613976 C60.6569676,52.7365405 60.6914,50.6108024 60.7002288,48.4850643 C60.7046432,47.3116357 60.6428414,46.1382071 60.6110577,44.9647786 C60.6101748,44.9330643 60.608409,44.90135 60.6039946,44.8696357 C60.4486072,43.642469 60.3550216,43.5261833 59.1216342,43.4750881 C57.5942468,43.4125405 56.0924631,43.181731 54.5809676,42.9747071 C53.1286252,42.7764929 51.630373,42.8443262 50.1550757,42.885731 C48.2815982,42.9377071 46.3860486,43.2513262 44.5575982,42.7051357 C43.089364,42.2664214 41.6520306,41.683231 40.2614901,41.035731 C38.8259225,40.3662071 37.4539225,39.5583738 36.0722108,38.778731 C34.9844991,38.1647071 33.8906072,37.6044214 32.6086613,37.5339452 C31.8590937,37.4934214 31.6542649,37.6775405 31.5801027,38.425469 C31.5227153,39.0060167 31.4220667,39.5839214 31.3117063,40.1565405 C31.0283009,41.6162786 30.786391,43.0865881 30.4199946,44.5251833 C30.0332919,46.0404214 29.5150396,47.5221833 29.0656523,49.0224452 C28.3372739,51.4529929 27.8923009,53.9319929 28.0688775,56.4744214 C28.1827694,58.1165167 28.7557604,59.663469 29.4196883,61.1558024 C29.7754901,61.9557071 30.3308234,62.6657548 30.7422468,63.4436357 C31.1395441,64.1950881 31.3938144,65.028469 31.8440847,65.7429214 C32.4983009,66.7842071 33.2196162,67.7937786 34.0106793,68.7346357 C34.6640126,69.5107548 35.4277063,70.1793976 35.7323009,71.2048262 C35.8152919,71.484969 36.1287153,71.6919929 36.3132378,71.94835 C36.832373,72.6724929 36.6504991,73.3058976 35.7782108,73.48385 C35.0445351,73.6336119 34.2711297,73.5807548 33.5162649,73.6353738 C32.1186613,73.7366833 31.4918144,72.7015643 30.7846252,71.7950643 C30.469436,71.3915881 30.552427,70.929969 30.6716162,70.4727548 C30.9046973,69.5785881 30.5277063,68.783969 29.6580667,68.4536119 C29.5150396,68.3998738 29.2660667,68.6253976 29.0868414,68.7901357 C28.5933099,68.8438738 28.2489856,68.526731 28.0626973,68.0985881 C27.8243189,67.5515167 27.6433279,66.97185 27.5020667,66.3913024 C27.1868775,65.083969 26.9573279,63.7634214 26.2942829,62.5547548 C24.8746072,59.9629929 23.9511117,57.1686119 23.0196703,54.3777548 C22.8210216,53.7795881 22.4996523,53.2228262 22.245382,52.6422786 C21.7880486,51.59835 21.7942288,50.6231357 22.4908234,49.6338262 C22.9870036,48.9290643 23.3021928,48.1088976 23.368409,47.212969 C23.4231477,46.4888262 23.5732378,45.771731 23.6253279,45.0467071 C23.6544631,44.6538024 23.5679405,44.2520881 23.5273279,43.7860643 C22.8307333,44.0521119 22.5217243,44.5234214 22.2056523,45.0008976 C21.9010577,45.4616357 21.6167694,45.95585 21.2256523,46.3346595 C19.6991477,47.8164214 18.1223189,49.2462071 16.5896342,50.7218024 C16.2435441,51.0556833 16.0007514,51.4952786 15.7146973,51.8899452 C15.6590757,51.9657071 15.6396523,52.0687786 15.581382,52.1418976 C15.0128054,52.8510643 14.4371658,53.5549452 13.8694721,54.2658738 C13.6231477,54.5750881 13.3432739,54.8710881 13.1596342,55.2164214 C11.7434901,57.8936357 10.3847333,60.5963976 9.45152613,63.4920881 C8.7875982,65.5517548 8.82026486,67.6272786 9.02862523,69.7521357 C9.14075135,70.9017786 8.94475135,72.0866595 8.83880541,73.2512786 C8.79642703,73.7269929 7.95239099,74.1850881 7.53831892,73.9243262 C6.69693153,73.3957548 5.8837964,72.8108024 5.12716577,72.169469 C4.72545405,71.8294214 4.51621081,69.5380643 4.75458919,69.0579452 C4.8728955,68.820969 5.05741802,68.6139452 5.22251712,68.4016357 C5.81846306,67.6325643 5.66219279,66.8115167 4.82345405,66.3393262 C4.34758018,66.0715167 4.05622883,65.5394214 4.20896757,64.9606357 C4.35552613,64.4038738 4.57624685,63.8479929 4.86848108,63.3537786 C5.22163423,62.7556119 5.68956216,62.2261595 6.09657117,61.6597071 C6.20604865,61.5073024 6.28727387,61.3311119 6.36055315,61.1575643 C6.65896757,60.4475167 6.97239099,59.7427548 7.23725586,59.0194929 C7.64956216,57.8918738 8.03891351,56.7545643 8.41767027,55.6146119 C9.00743604,53.8394929 9.63516577,52.0731833 10.1410577,50.2742786 C10.4659586,49.1175881 11.1466613,48.3555643 12.0639766,47.6182071 C13.0422108,46.8315167 14.0363369,45.9118024 14.6243369,44.8335167 C15.5081027,43.2143262 16.4148234,41.5026357 16.2735622,39.5469214 C16.2064631,38.6219214 15.9221748,37.7136595 15.777382,36.7913024 C15.4145171,34.4893738 14.6887874,32.2984452 13.7520486,30.176231 C13.0501568,28.585231 13.101364,26.9686833 13.4968955,25.3424452 C13.7520486,24.293231 13.2708775,23.7126833 12.1990577,23.9382071 C11.8185351,24.0183738 11.4344811,24.16285 11.0989856,24.3575405 C10.5992739,24.6491357 10.3529495,25.1186833 10.3741387,25.7133262 C10.4050396,26.5696119 10.4668414,27.4267786 10.0377604,28.2284452 C9.98037297,28.3350405 10.0545351,28.5350167 10.1110396,28.6750881 C10.4059225,29.4106833 10.8085171,30.1180881 10.9939225,30.879231 C11.2102288,31.7619452 11.2437784,32.6895881 11.344427,33.598731 C11.3550216,33.6956357 11.2861568,33.80135 11.2349495,33.9634452 C10.8482468,33.4251833 11.028355,32.6464214 10.3282288,32.2526357 C10.3185171,32.4270643 10.2832018,32.525731 10.3132198,32.597969 C10.7882108,33.746731 10.6390036,34.9351357 10.568373,36.1235405 C10.5515982,36.3931119 10.5895622,36.6943976 10.6972739,36.9393024 C11.8926973,39.6693738 12.2573279,42.5245405 11.8768054,45.455469 C11.7611477,46.3399452 11.3806252,47.2208976 10.4792018,47.8261119 C10.5348234,46.8949452 10.6849135,46.0413024 10.5286432,45.1999929 C10.455364,45.1929452 10.3820847,45.1858976 10.3096883,45.177969 C10.2646613,45.4087786 10.2152198,45.6378262 10.1754901,45.8686357 C10.0324631,46.7099452 9.91857117,47.5574214 9.74464324,48.3925643 C9.55658919,49.2902548 8.99154414,49.9448024 8.23138198,50.4962786 C8.35321982,50.0232071 8.48565225,49.5941833 8.56422883,49.1545881 C8.5915982,48.9986595 8.48565225,48.8198262 8.44150811,48.6506833 C8.33026486,48.78635 8.17311171,48.9043976 8.11660721,49.0594452 C7.3794,51.0953262 6.12747207,52.7938024 4.66276937,54.3522071 C4.47206667,54.5548262 4.22927387,54.7089929 3.94233694,54.8208738 C4.31314775,54.2288738 4.68660721,53.6395167 5.0530036,53.0448738 C5.15276937,52.8836595 5.25076937,52.7153976 5.30992252,52.5365643 C5.34435495,52.431731 5.30197658,52.300469 5.29491351,52.1815405 C5.1615982,52.1947548 4.98060721,52.1577548 4.90467928,52.2308738 C4.6301027,52.4925167 4.35464324,52.7673738 4.14628288,53.0809929 C3.4232018,54.1751357 2.24808468,54.6191357 1.19127387,55.2340405 C1.16037297,55.206731 1.13035495,55.1794214 1.10033694,55.1521119 C1.19921982,55.0375881 1.28309369,54.9045643 1.39963423,54.8111833 C2.66833694,53.7892786 3.3870036,52.3550881 4.24428288,51.0266119 C4.30167027,50.9385167 4.32903964,50.8151833 4.32550811,50.709469 C4.32021081,50.5790881 4.26812072,50.450469 4.23545405,50.320969 C4.11185045,50.3685405 3.94233694,50.3791119 3.87170631,50.4680881 C3.36404865,51.099731 2.65421081,51.4159929 1.94084144,51.7190405 C1.63006667,51.8511833 1.28750811,51.9110881 0.959075676,52.0035881 C0.929057658,51.9542548 0.898156757,51.9049214 0.867255856,51.8555881 C0.987327928,51.74635 1.08797658,51.5913024 1.22923784,51.5340405 C2.3248955,51.0935643 3.16716577,50.37735 3.79401261,49.3713024 C4.99738198,47.4402548 5.51298559,45.3708976 5.08655315,43.0962786 C5.06536396,43.3508738 5.03534595,43.605469 5.02475135,43.8609452 C5.01857117,44.0344929 5.08213874,44.2221357 5.03622883,44.3807071 C4.99208468,44.532231 4.84640901,44.6546833 4.74487748,44.79035 C4.64158018,44.6705405 4.46588649,44.5604214 4.44558018,44.4273976 C4.23280541,43.0398976 4.14186847,41.646231 4.4755982,40.2640167 C4.71662523,39.2694214 4.33080541,38.4316357 3.8204991,37.613231 C3.83903964,37.7277548 3.89201261,37.8510881 3.86729189,37.9559214 C3.83197658,38.1056833 3.74015676,38.242231 3.67305766,38.3849452 C3.5521027,38.2845167 3.34109369,38.1964214 3.3252018,38.0810167 C3.21484144,37.2855167 3.00912973,36.4706357 3.08947207,35.687469 C3.28635495,33.7625881 3.17246306,31.8562071 3.03914775,29.9410167 C2.99765225,29.343731 3.01884144,28.7297071 3.10977838,28.1385881 C3.61831892,24.8358976 4.96471532,22.0053976 7.77228288,20.0073976 C8.82114775,19.26035 9.99185045,18.907969 11.2596703,18.9062071 C12.4842288,18.9044452 13.7096703,18.9484929 14.9324631,19.0145643 C16.5287153,19.1000167 17.9819405,18.6886119 19.3389315,17.8710881 C19.787436,17.6015167 20.2659586,17.3786357 20.7065171,17.096731 C21.8277784,16.3778738 23.0284991,15.8669214 24.3245712,15.5515405 C24.7977964,15.4370167 25.2242288,15.1286833 25.6974541,15.0212071 C26.5441387,14.8282786 27.4058324,14.6318262 28.2675261,14.597469 C29.7790216,14.5375643 31.2560847,14.7851119 32.7402108,15.1471833 C35.0048054,15.6986595 37.3161928,16.0580881 39.6072739,16.5020881 C41.0260667,16.7769452 42.4360306,17.1125881 43.865418,17.3143262 C44.7712559,17.4420643 45.7053459,17.4006595 46.6261928,17.3883262 C47.8030757,17.372469 48.9790757,17.31785 50.1550757,17.263231 C51.6648054,17.1945167 52.9705892,16.57785 54.2172198,15.7717786 C55.0409495,15.2388024 55.8867514,14.7260881 56.7705171,14.30235 C57.3452739,14.0266119 58.007436,13.9358738 58.6263369,13.74735 C59.6169315,13.4469452 60.638427,13.2769214 61.5398505,12.673469 C62.9100847,11.7572786 64.362427,10.9653024 65.7538505,10.0799452 C66.7285532,9.45887381 67.6494,8.75587381 68.6135081,8.11718333 C69.1759045,7.74454048 69.775382,7.42827857 70.3572018,7.08470714 C70.9010577,6.76404048 71.418427,6.3825881 71.9940667,6.13504048 C72.6288595,5.86282619 73.310445,5.68751667 73.9823189,5.51485 C74.7954541,5.30518333 75.6218324,5.14573095 76.439382,4.95456429 C76.5762288,4.92285 76.7219045,4.86470714 76.8260847,4.77485 C77.4803009,4.21015952 78.2925532,4.15113571 79.092445,4.01194524 C79.6645532,3.91239762 80.2172378,3.70185 80.7778685,3.53975476 C81.1266072,3.43932619 81.4700486,3.28339762 81.8258505,3.24287381 C83.1952018,3.08694524 84.5672018,2.95127857 85.9409676,2.84027857 C86.646391,2.78389762 87.2705892,3.02439762 87.8471117,3.45077857 C89.0928595,4.37313571 89.7382468,4.13527857 90.6502649,2.86670714 C91.3450937,1.90206429 92.3056703,1.12770714 93.152355,0.273183333 C93.2168054,0.20887381 93.3139225,0.170111905 93.4022108,0.137516667 C93.8948595,-0.0413166667 94.132355,0.118135714 94.0423009,0.622040476 C93.8515982,1.69944524 93.6432378,2.77685 92.9060306,3.65692143 C92.7912559,3.79435 92.7418144,3.98639762 92.6791297,4.11765952" id="Fill-4" fill="#000000" mask="url(#mask-4)"></path>
                        </g>
                        <g id="Group-9">
                            <mask id="mask-6" fill="white">
                                <use xlink:href="#path-5"></use>
                            </mask>
                            <g id="Clip-8"></g>
                            <path d="M68.7210595,37.6948485 L68.7210595,37.022502 C68.9713157,37.0436505 69.1808942,37.0612743 69.5178116,37.0903535 C69.2021174,37.3300366 68.9836959,37.4957 68.7210595,37.6948485 L68.7210595,37.6948485 Z M24.6715471,56.7152941 C24.920919,56.8087 25.1278446,56.8862446 25.3356545,56.9629079 C25.2772909,57.0686505 25.2357289,57.2475317 25.1570264,57.2660366 C24.8369107,57.3418188 24.683043,57.1708683 24.6715471,56.7152941 L24.6715471,56.7152941 Z M55.1585884,37.6983733 C55.1913074,37.6569574 55.2240264,37.6155416 55.2567455,37.5750069 C55.9049355,38.0922644 56.5531256,38.610403 57.2004314,39.1276604 C57.1677124,39.1690762 57.1349934,39.2096109 57.1031587,39.2501455 C56.4549686,38.7328881 55.8067785,38.2156307 55.1585884,37.6983733 L55.1585884,37.6983733 Z M32.8406876,39.2765812 C33.3297041,38.5540069 33.4331669,38.5249277 33.9663983,38.9769772 C33.5339769,39.0915317 33.1873322,39.1840564 32.8406876,39.2765812 L32.8406876,39.2765812 Z M41.3140264,39.1276604 C41.2804231,39.172601 41.2459355,39.2175416 41.2123322,39.2624822 C40.4783653,38.7064525 39.7452826,38.151304 39.0113157,37.5952743 C39.0466876,37.5494525 39.0811752,37.5027495 39.1165471,37.4569277 C39.8487455,38.0138386 40.5818281,38.5707495 41.3140264,39.1276604 L41.3140264,39.1276604 Z M67.0382413,38.2940564 C67.1505471,39.0765515 66.707514,39.3814426 65.8798116,39.1179673 C66.2706711,38.8395119 66.6447289,38.5733931 67.0382413,38.2940564 L67.0382413,38.2940564 Z M34.1087702,38.0596604 C34.5730264,37.7706307 34.8418529,37.1899277 35.4785471,37.5406406 C35.4608612,37.5847 35.457324,37.6261158 35.4352165,37.6446208 C35.1655058,37.8622743 34.8931421,38.076403 34.607514,38.3019871 C34.4695636,38.2350168 34.3316132,38.1680465 34.1087702,38.0596604 L34.1087702,38.0596604 Z M28.0336463,58.2168386 C28.0575223,58.279403 28.0822826,58.3428485 28.1061587,58.4062941 C27.8532496,58.4626901 27.5932661,58.5807693 27.3500843,58.5516901 C27.2068281,58.5349475 26.9556876,58.2274129 26.9884066,58.1525119 C27.0777207,57.947195 27.2890678,57.7929871 27.4597372,57.6246802 C27.4924562,57.5929574 27.5764645,57.6079376 27.6021091,57.5744525 C27.6737372,57.4810465 27.726795,57.3735416 27.7878116,57.2713238 C27.6693157,57.2404822 27.5490512,57.1814426 27.4332083,57.1884921 C27.3262083,57.1955416 27.2227455,57.2730861 27.1183983,57.3197891 C27.0945223,57.2554624 27.0706463,57.1902545 27.0467702,57.1250465 C27.266076,57.0633634 27.4959934,56.9311851 27.7002661,56.9629079 C27.8470595,56.9858188 28.0610595,57.2290267 28.0592909,57.3717792 C28.0584066,57.5180564 27.8355636,57.666096 27.7011504,57.8053238 C27.5587785,57.9533634 27.4066793,58.0925911 27.2590017,58.2353436 C27.4853818,58.218601 27.711762,58.2018584 27.9390264,58.1886406 C27.9699769,58.1868782 28.0018116,58.2062644 28.0336463,58.2168386 L28.0336463,58.2168386 Z M32.1863074,37.0480564 C32.1898446,37.0066406 32.1933818,36.9661059 32.196919,36.9246901 C32.9096628,37.0374822 33.6232909,37.1502743 34.3820182,37.2701158 C33.9964645,37.7556505 33.6436298,37.9574426 33.1289686,37.5653139 C32.847762,37.350304 32.502886,37.2181257 32.1863074,37.0480564 L32.1863074,37.0480564 Z M89.3154645,57.7727198 L89.3154645,56.794601 L90.4341008,56.794601 C90.1599686,57.815898 90.1148694,57.8564327 89.3154645,57.7727198 L89.3154645,57.7727198 Z M51.6700347,37.5071554 C51.6824149,37.5697198 51.6956793,37.6322842 51.7080595,37.6948485 C50.8794727,38.0984327 50.5213322,39.1972743 49.3947372,39.1708386 C49.9394645,38.5971851 50.5107207,38.0570168 51.1155802,37.556502 C51.2331917,37.4595713 51.4816793,37.5194921 51.6700347,37.5071554 L51.6700347,37.5071554 Z M17.1842,39.2025614 C17.1886215,39.1391158 17.1833157,39.1153238 17.1912744,39.1091554 C17.7421917,38.6694426 18.3072579,38.2464723 18.8404893,37.7864921 C19.1314231,37.5344723 19.4029025,37.5335911 19.7389355,37.6737 C18.370043,38.9734525 17.9597289,39.219304 17.1842,39.2025614 L17.1842,39.2025614 Z M36.5379355,39.2104921 C35.9852496,38.9496604 35.5333736,38.7355317 35.0284397,38.4967297 C35.3635884,38.2253238 35.620919,37.997096 35.8977041,37.7961851 C36.2036711,37.5732446 36.5211339,37.7195218 36.5352826,38.0825713 C36.5476628,38.4218287 36.5379355,38.7619673 36.5379355,39.2104921 L36.5379355,39.2104921 Z M29.2053405,56.8025317 C29.6112331,57.8969673 29.6068116,58.3675218 29.1549355,58.5331851 C28.7879521,58.6671257 28.4474975,58.6230663 28.2396876,58.0626307 C28.4501504,58.0978782 28.582795,58.0996406 28.698638,58.1454624 C28.805638,58.1886406 28.9595058,58.3525416 28.9798446,58.3349178 C29.1036463,58.2291752 29.1938446,58.0855416 29.358324,57.8731752 C28.9205967,57.8335218 28.6199355,57.806205 28.2847868,57.7753634 C28.3068942,57.4264129 28.3263488,57.1241653 28.3466876,56.8025317 L29.2053405,56.8025317 Z M40.4155802,39.1770069 L38.1225967,39.1770069 C38.1225967,38.7804723 38.1111008,38.4209475 38.1296711,38.062304 C38.1358612,37.9442248 38.1951091,37.7662248 38.2782331,37.7318584 C38.3728529,37.6930861 38.5452909,37.7538881 38.6425636,37.8252644 C39.208514,38.2429475 39.7620843,38.6756109 40.4155802,39.1770069 L40.4155802,39.1770069 Z M21.7003074,56.7840267 C21.9912413,56.7840267 22.2998612,56.7646406 22.6031752,56.794601 C22.7084066,56.8042941 22.8525471,56.9126802 22.8941091,57.0113733 C23.1266793,57.567403 23.3477537,58.1287198 23.5352248,58.6997297 C23.571481,58.8072347 23.479514,59.0275317 23.3787041,59.0927396 C23.2009603,59.2090564 22.905605,59.3685515 22.7738446,59.2980564 C21.794043,58.7746307 21.4739273,58.0035911 21.7003074,56.7840267 L21.7003074,56.7840267 Z M22.8065636,39.1761257 L18.5477868,39.1761257 C19.1455719,38.7073337 19.6513901,38.2922941 20.1802,37.908096 C20.2995802,37.8208584 20.4985471,37.7997099 20.6550678,37.8129277 C21.1723818,37.8561059 21.6861587,37.9292446 22.2980926,38.001502 C22.4289686,38.3055119 22.6102496,38.723195 22.8065636,39.1761257 L22.8065636,39.1761257 Z M50.6062248,39.1875812 C51.0253818,38.802502 51.4029769,38.5037792 51.7195554,38.1521851 C52.0564727,37.7785614 52.3933901,37.7001356 52.8594149,37.8975218 C53.0601504,37.982997 53.3254397,37.9310069 53.5597785,37.9186703 C53.9329521,37.9001653 54.3883653,37.7133535 54.6598446,37.8640366 C55.2496711,38.1918386 55.7448777,38.6879475 56.370076,39.1875812 L50.6062248,39.1875812 Z M34.8842992,62.9223832 C38.9202331,63.0651356 42.9110678,63.2052446 46.9231256,63.3471158 C46.9381587,63.6035416 46.9514231,63.8176703 46.962919,64.0212248 C46.8833322,64.0441356 46.8506132,64.0626406 46.8187785,64.0617594 C43.2382579,63.9886208 39.6577372,63.9154822 36.0772165,63.8361752 C35.151357,63.8159079 35.151357,63.807096 34.8842992,62.9223832 L34.8842992,62.9223832 Z M82.5726959,56.8148683 L85.7614727,56.8148683 L85.7614727,57.7515713 C85.2105554,57.7832941 85.3803405,58.1798287 85.3803405,58.3833832 C85.5510099,58.5922248 85.7499769,58.7226406 85.753514,58.8574624 C85.780043,59.8884525 85.7676628,60.9203238 85.7676628,61.9513139 C85.7066463,61.9927297 85.6456298,62.0341455 85.5846132,62.0764426 C85.2936793,61.9724624 84.8303074,61.9486703 84.7383405,61.7530465 C83.9866876,60.1457594 83.3040099,58.5067495 82.5726959,56.8148683 L82.5726959,56.8148683 Z M46.5888612,60.5378881 C45.4905636,60.5378881 44.4692,60.5475812 43.4487207,60.532601 C42.9499769,60.5255515 42.534357,60.6700663 42.1832909,61.0269475 C42.0842496,61.127403 41.9277289,61.2384327 41.8003901,61.2349079 C40.5075471,61.1987792 39.2155884,61.1388584 37.8988694,61.0851059 C38.0465471,60.8251554 38.1694645,60.607502 38.2985719,60.3810366 C38.2349025,60.2858683 38.165043,60.1818881 38.0297455,59.9792149 C38.2614314,60.0972941 38.3825802,60.1598584 38.5063818,60.2224228 C38.5550182,60.0373733 38.593043,59.8893337 38.6319521,59.7412941 C38.6690926,59.7465812 38.7071174,59.7509871 38.7442579,59.7562743 C38.765481,60.0285614 38.7867041,60.2999673 38.8079273,60.5713733 C38.8751339,60.5625614 38.9423405,60.5537495 39.0095471,60.5449376 C38.9830182,60.3775119 38.9564893,60.2100861 38.9202331,59.9809772 C39.0829438,60.0629277 39.2315058,60.1378287 39.3641504,60.204799 C39.6621587,60.0902446 40.0034975,59.9589475 40.477481,59.7756604 C40.5323074,59.7694921 40.7507289,59.7871158 40.9320099,59.7139772 C41.7995058,59.3632644 42.6572744,58.986997 43.5185802,58.621304 C44.2437041,58.3128881 44.9697124,58.0062347 45.7664645,57.6678584 C46.0556298,58.6785812 46.3253405,59.6179277 46.5888612,60.5378881 L46.5888612,60.5378881 Z M86.3512992,39.6017396 C83.7452744,39.6017396 81.1392496,39.6043832 78.5332248,39.5929277 C78.3988116,39.5920465 78.1821587,39.4951158 78.141481,39.3902545 C77.7868777,38.4614822 77.4623405,37.5212545 77.1068529,36.5211059 C80.5069769,36.7599079 83.6409273,37.5388782 86.3512992,39.6017396 L86.3512992,39.6017396 Z M23.743919,37.434898 C23.8526876,37.3917198 23.8960182,37.3670465 23.942886,37.3555911 C25.9139851,36.8647693 27.9213405,36.7299475 29.9446132,36.7643139 C30.0445388,36.7660762 30.1524231,36.7995614 30.2399686,36.8480267 C31.1569851,37.3573535 32.0713488,37.8719673 32.9848281,38.3857 C32.4577868,39.0122248 31.8493901,39.2933238 31.0190347,39.2298782 C30.015357,39.1523337 28.9922248,39.1250168 27.9938529,39.2307594 C26.395043,39.4008287 25.0579851,39.0580465 24.0728777,37.7212842 C24.0030182,37.6278782 23.8933653,37.5635515 23.743919,37.434898 L23.743919,37.434898 Z M75.9997124,56.7787396 C77.7453157,56.7787396 79.3626959,56.7743337 80.9791917,56.7884327 C81.095919,56.7893139 81.2772,56.9012248 81.3178777,57.005205 C81.9483818,58.6089673 82.5612,60.2197792 83.1925884,61.8667198 C82.1500017,61.9292842 81.268357,61.9636505 80.4645306,61.0895119 C79.095638,59.6029475 77.5604975,58.2679475 75.9997124,56.7787396 L75.9997124,56.7787396 Z M89.6753736,62.101997 C90.3704314,60.3801554 91.0336545,58.7138287 91.7295967,57.0607198 C91.7888446,56.9197297 92.0656298,56.794601 92.2442579,56.790195 C93.3045306,56.7655218 94.3656876,56.7822644 95.4268446,56.776096 C96.2032579,56.7708089 96.7046545,56.4077594 96.955795,55.6895911 C97.0044314,55.548601 97.0574893,55.4084921 97.0972826,55.3001059 L98.322919,55.3001059 C98.1557868,55.4886802 98.067357,55.6041158 97.9630099,55.7036901 C95.8937537,57.680195 93.7917785,59.6232149 91.7693901,61.6455416 C91.1273901,62.2879277 90.4836215,62.2262446 89.6753736,62.101997 L89.6753736,62.101997 Z M77.9858446,44.5073139 L90.0388198,44.5073139 C90.0591587,44.5443238 90.0803818,44.5822149 90.1007207,44.6192248 C89.5860595,45.046601 89.0740512,45.4783832 88.5540843,45.9004723 C88.1791421,46.2053634 87.7591008,46.320799 87.2585884,46.3146307 C85.0504975,46.2890762 82.8415223,46.3049376 80.6334314,46.3014129 C80.462762,46.3014129 80.2664479,46.3225614 80.1249603,46.2511851 C79.3016793,45.833502 78.6075058,45.2536802 77.9858446,44.5073139 L77.9858446,44.5073139 Z M39.7443983,37.4199178 C42.147919,36.5880762 48.1876711,36.5616406 50.6973074,37.3591158 C50.0252413,37.9627297 49.3814727,38.5548881 48.7173653,39.1241356 C48.6174397,39.2087297 48.4237785,39.2078485 48.2734479,39.2078485 C46.3271091,39.2131356 44.3816545,39.2131356 42.4353157,39.2078485 C42.2858694,39.2078485 42.1028198,39.1999178 41.9913983,39.1188485 C41.2538942,38.5795614 40.5323074,38.0191257 39.7443983,37.4199178 L39.7443983,37.4199178 Z M69.3179603,65.2337396 C69.5991669,65.2337396 69.8246628,65.2258089 70.0492744,65.2346208 C72.6384975,65.3297891 75.2277207,65.4875218 77.8178281,65.4972149 C78.9983653,65.5007396 79.9613653,65.9404525 80.9588529,66.4286307 C80.9049107,66.6841752 80.8553901,66.9150465 80.8014479,67.1714723 C76.9061174,67.2525416 73.0364314,67.3327297 69.1702826,67.413799 C69.1702826,67.0075713 69.1517124,66.6797693 69.1747041,66.3546109 C69.2003488,65.9959673 69.2640182,65.6399673 69.3179603,65.2337396 L69.3179603,65.2337396 Z M55.8280017,37.5036307 C59.6410926,36.9493634 63.3374562,36.5660465 67.0293983,36.8550762 C67.2460512,37.5133238 67.0037537,37.8992842 66.4917455,38.1997693 C66.1053074,38.4271158 65.7692744,38.7390564 65.3872579,38.976096 C65.1927124,39.0959376 64.9486463,39.1999178 64.7258033,39.2016802 C62.5884562,39.2184228 60.4502248,39.2140168 58.3128777,39.2078485 C58.147514,39.2069673 57.9450099,39.1902248 57.8238612,39.0977 C57.1792083,38.6068782 56.5548942,38.0896208 55.8280017,37.5036307 L55.8280017,37.5036307 Z M18.6211835,37.4507594 C17.8288529,38.071997 17.1673983,38.5998287 16.4935636,39.1100366 C16.3954066,39.1849376 16.2353488,39.2060861 16.1044727,39.2069673 C13.8610099,39.2122545 11.6140099,39.2853931 9.37762149,39.1620267 C8.78514215,39.1294228 8.22538182,38.4905614 7.65500992,38.1239871 C7.62759669,38.1063634 7.63732397,38.0252941 7.63732397,37.9741851 C7.63555537,37.6146604 7.63643967,37.2560168 7.63643967,36.8612446 C11.3053901,36.5766208 14.886795,36.9255713 18.6211835,37.4507594 L18.6211835,37.4507594 Z M70.6903901,60.7167693 C71.3394645,59.3227297 72.1282579,58.0890663 73.0744562,56.9549772 C73.3149851,56.6659475 74.4177041,56.7020762 74.6980264,56.9911059 C76.1677289,58.5102743 77.6365471,60.0303238 79.1035967,61.5521356 C79.1522331,61.6032446 79.1716876,61.6816703 79.226514,61.7900564 C77.4508446,61.7213238 75.7317702,61.5794525 74.0162331,61.6138188 C72.8056298,61.6376109 71.8019521,61.1573634 70.6903901,60.7167693 L70.6903901,60.7167693 Z M89.3446463,42.9625911 L79.360043,42.9625911 C79.0673405,42.105195 78.7772909,41.2566109 78.4881256,40.4124327 C78.5641752,40.3833535 78.5809769,40.371898 78.5968942,40.371898 C81.4655554,40.3666109 84.3342165,40.3613238 87.2028777,40.3613238 C87.2957289,40.3613238 87.4142248,40.390403 87.4770099,40.451205 C88.2260099,41.1737792 88.8688942,41.9747792 89.3446463,42.9625911 L89.3446463,42.9625911 Z M103.725093,67.4146802 C99.8164975,67.3336109 95.9353157,67.2525416 92.0824314,67.1714723 C91.8321752,66.7035614 91.9276793,66.4806208 92.3945884,66.2664921 C93.1462413,65.9237099 93.8961256,66.1043535 94.6495471,66.1025911 C95.6143157,66.0990663 96.5799686,66.1017099 97.5933736,66.1017099 L97.5933736,65.1623634 L101.239332,65.1623634 C101.271167,64.5640366 101.302117,63.9657099 101.337489,63.3048188 C100.803374,63.2766208 100.300208,63.2501851 99.797043,63.2237495 C99.7935058,63.1964327 99.7890843,63.1691158 99.7855471,63.141799 C100.729977,62.7408584 101.674407,62.3399178 102.641828,61.9292842 C103.322737,63.7145713 103.641084,65.5016208 103.725093,67.4146802 L103.725093,67.4146802 Z M92.9888364,62.3311059 C95.0050347,60.2418089 96.9867455,58.1877594 99.0002909,56.1019871 C100.386869,57.562997 101.470134,59.1746901 102.264233,61.0005119 C100.545159,61.6525911 98.8676463,62.2588485 97.2166628,62.9276703 C96.512762,63.2122941 95.8185884,63.1039079 95.1164562,63.0774723 C94.414324,63.0501554 93.6573653,63.1576604 93.1754231,62.443898 C93.1497785,62.4051257 93.088762,62.3901455 92.9888364,62.3311059 L92.9888364,62.3311059 Z M91.3051339,70.7702446 C94.9139521,72.2083436 98.513043,73.6429178 102.109481,75.0766109 C101.649646,76.3975119 99.8244562,79.0490069 98.9587289,79.6693634 C96.2775388,76.8909772 93.5936959,74.1108287 90.9063157,71.3262743 C91.0442661,71.1332941 91.162762,70.9685119 91.3051339,70.7702446 L91.3051339,70.7702446 Z M74.5485802,80.4201356 C77.3907124,77.7078386 80.1842083,75.0413634 82.9785884,72.3740069 C83.1784397,72.514997 83.3455719,72.6339574 83.5383488,72.7705416 C82.0881008,76.3684327 80.6466959,79.9469376 79.1955636,83.5474723 C77.4508446,82.7376604 75.9333901,81.7278188 74.5485802,80.4201356 L74.5485802,80.4201356 Z M87.8510678,73.4014723 C89.3747124,76.941205 90.8948198,80.4730069 92.4326132,84.0471059 C90.6295306,84.7027099 88.8352909,85.0719277 86.9234397,85.0948386 C86.9234397,84.8824723 86.9207868,84.7132842 86.924324,84.544096 C86.9950678,81.0528287 87.079076,77.5606802 87.1259438,74.0694129 C87.1321339,73.5530366 87.2806959,73.3397891 87.8510678,73.4014723 L87.8510678,73.4014723 Z M70.1872248,73.8905317 C69.5452248,72.0867396 69.1393322,70.3111455 69.1517124,68.4024921 C73.0859521,68.4844426 76.955638,68.5646307 80.831514,68.6457 C80.8624645,68.9153436 80.8854562,69.1162545 80.9093322,69.3268584 C77.3429603,70.8451455 73.8022331,72.3519772 70.1872248,73.8905317 L70.1872248,73.8905317 Z M89.2084645,72.8075515 C89.459605,72.6436505 89.6594562,72.5132347 89.8646132,72.3792941 C92.6811008,75.0695614 95.4807868,77.7413238 98.2910843,80.4254228 C96.801043,81.8018386 95.1986959,82.8892248 93.3575884,83.6611455 C91.9648198,80.0183139 90.5932744,76.4301158 89.2084645,72.8075515 L89.2084645,72.8075515 Z M73.8340678,79.7134228 C72.4483736,78.2497693 71.3712992,76.6477693 70.5772,74.8272347 C70.7947372,74.7355911 70.9671752,74.6571653 71.1440347,74.590195 C74.3681835,73.3715119 77.5932165,72.1537099 80.8173653,70.9341455 C81.5212661,70.6680267 81.5212661,70.6662644 81.8944397,71.3632842 C79.220324,74.1328584 76.5400182,76.9103634 73.8340678,79.7134228 L73.8340678,79.7134228 Z M80.1187702,83.9413634 C81.7343818,80.3646208 83.3234645,76.8460366 84.906357,73.3406703 C85.1849107,73.3917792 85.4024479,73.4314327 85.6774645,73.4825416 C85.7579355,77.3509574 85.8384066,81.2105614 85.9188777,85.0983634 C83.8770347,85.0631158 81.993481,84.6560069 80.1187702,83.9413634 L80.1187702,83.9413634 Z M103.723324,68.4042545 C103.637547,70.4336307 103.279407,72.327304 102.529522,74.1672248 C98.9613818,72.5740366 95.4356876,71.0002347 91.8728529,69.4096901 C91.9312165,69.1453337 91.986043,68.9003634 92.0435223,68.6412941 C95.9494645,68.5619871 99.8218033,68.4835614 103.723324,68.4042545 L103.723324,68.4042545 Z M6.78839835,65.1359277 C10.8818116,65.5280564 14.8222413,66.3537297 18.8113074,66.9943535 C15.2352083,68.5170465 11.6591091,70.0397396 8.04410083,71.5782941 C7.27210909,69.5127891 6.88213388,67.4287792 6.78839835,65.1359277 L6.78839835,65.1359277 Z M18.5044562,82.7887693 C16.3432331,81.7806901 13.8707372,80.0817594 13.1500347,79.1124525 C16.3945223,76.0168386 19.6416628,72.9185812 22.8976463,69.8115119 C23.1311008,69.9815812 23.333605,70.1287396 23.5422992,70.280304 C21.8568281,74.4659475 20.1872744,78.6101752 18.5044562,82.7887693 L18.5044562,82.7887693 Z M41.4811587,78.328195 C38.337481,75.0695614 35.2229851,71.8408881 32.0978777,68.6016406 C32.2588198,68.3778188 32.4064975,68.1733832 32.5630182,67.9566109 C36.7775802,69.6343931 40.955886,71.2980762 45.135076,72.9617594 C44.3622,74.7629079 42.7563157,77.1200861 41.4811587,78.328195 L41.4811587,78.328195 Z M28.5456545,70.9940663 C30.3142496,75.1030465 32.0863818,79.2208386 33.8717785,83.3677099 C31.7874893,84.1369871 29.6934727,84.5388089 27.4747702,84.6022545 C27.4747702,84.3837198 27.4712331,84.1969079 27.4747702,84.0092149 C27.5012992,82.8513337 27.5313653,81.6925713 27.5552413,80.5346901 C27.6153736,77.6109079 27.6958446,74.6871257 27.711762,71.7633436 C27.7152992,71.1588485 27.9213405,70.9623436 28.5456545,70.9940663 L28.5456545,70.9940663 Z M30.8828529,69.816799 C34.1485636,72.9353238 37.3974727,76.0362248 40.673795,79.1635614 C38.9609107,80.7461752 37.0906215,82.0159673 34.9435471,82.927997 C33.3252826,78.6947693 31.7300099,74.5205812 30.1267785,70.3270069 C30.3761504,70.1587 30.6034149,70.0053733 30.8828529,69.816799 L30.8828529,69.816799 Z M21.6667041,68.6104525 C18.533638,71.8558683 15.4129521,75.0907099 12.2763488,78.3405317 C10.6625058,76.6283832 9.4076876,74.7637891 8.48448099,72.6462941 C12.7379521,71.0381257 16.9454397,69.4467 21.1600017,67.8535119 C21.3421669,68.125799 21.4942661,68.3531455 21.6667041,68.6104525 L21.6667041,68.6104525 Z M19.5718033,83.2417 C21.4429769,79.0965911 23.2885058,75.0096406 25.1340347,70.9235713 C25.4665306,70.9967099 25.7327041,71.0548683 26.0280595,71.119195 C26.1226793,75.6185416 26.2164149,80.0905713 26.3110347,84.6013733 C23.9773736,84.5388089 21.7692826,84.0964525 19.5718033,83.2417 L19.5718033,83.2417 Z M45.6019851,71.9043337 C41.4298694,70.041502 37.3258446,68.2095119 33.2350843,66.3828089 C33.4031008,65.4425812 33.4031008,65.4496307 34.2369934,65.4637297 C34.6358116,65.469898 35.0346298,65.4417 35.4334479,65.4328881 C38.6469851,65.3632743 41.859638,65.2927792 45.0731752,65.2275713 C45.7045636,65.2152347 46.3350678,65.2258089 46.9673405,65.2258089 C46.8948281,67.5688881 46.4447207,69.7498287 45.6019851,71.9043337 L45.6019851,71.9043337 Z M49.4035802,56.8122248 L66.7349273,56.8122248 C66.7605719,57.028997 66.7826793,57.2096406 66.808324,57.4246505 L68.8032992,57.4246505 C68.7449355,57.5506604 68.7113322,57.6246802 68.6768446,57.6987 C68.1595306,58.8098782 67.6236463,59.9122446 67.135514,61.0357594 C67.0117124,61.3212644 66.8781835,61.3697297 66.5996298,61.3582743 C64.1501256,61.2569376 61.7006215,61.1661752 59.2511174,61.0807 C57.7212826,61.0278287 56.1905636,60.9908188 54.6607289,60.9423535 C54.5272,60.9379475 54.3954397,60.9053436 54.2548364,60.8850762 C54.2707537,60.7097198 54.2831339,60.5669673 54.2972826,60.4074723 C53.1415058,60.143997 52.0166793,59.8884525 50.8697455,59.6267396 C50.8051917,59.9060762 50.7530182,60.1369475 50.699076,60.3722248 C50.9988529,60.4647495 51.266795,60.5475812 51.5356215,60.6295317 C51.5285471,60.6718287 51.5214727,60.7141257 51.5143983,60.7564228 L50.4116793,60.7564228 C50.0712248,59.4249475 49.7387289,58.125195 49.4035802,56.8122248 L49.4035802,56.8122248 Z M43.0764314,57.4519673 C43.0622826,57.239601 43.0481339,57.0281158 43.0322165,56.7981257 L44.626605,56.7981257 C44.6319107,56.8201554 44.6363322,56.8421851 44.641638,56.8642149 C44.1163653,57.0554327 43.5902083,57.2475317 43.0640512,57.4387495 C42.2257372,57.8414525 41.3865388,58.2441554 40.5473405,58.6468584 C40.5597207,58.6979673 40.5721008,58.7499574 40.5835967,58.8010663 C40.756919,58.7684624 40.9275884,58.7261653 41.101795,58.7076604 C41.2255967,58.6953238 41.3529355,58.7155911 41.4785058,58.7217594 C41.3971504,58.8389574 41.3405554,59.0099079 41.2282496,59.0627792 C40.8011339,59.2672149 40.2944314,59.0742347 39.9946545,58.6151356 C39.0290017,58.9817099 38.0598116,59.3500465 37.0508281,59.7333634 C37.160481,60.0179871 37.2506793,60.2497396 37.3735967,60.5696109 C37.5345388,60.2285911 37.6583405,59.9633535 37.7830264,59.698997 C37.826357,59.7113337 37.8688033,59.7236703 37.9121339,59.7360069 L37.9121339,60.8181059 C37.8838364,60.8225119 37.8555388,60.8260366 37.8272413,60.8304426 C37.793638,60.6912149 37.7600347,60.5528683 37.7175884,60.3801554 C37.5982083,60.5845911 37.5088942,60.7370366 37.3877455,60.944997 C37.2444893,60.7026703 37.1472165,60.5370069 37.035795,60.3484327 C36.9986545,60.5405317 36.970357,60.6885713 36.9420595,60.8374921 C36.8987289,60.8330861 36.854514,60.8286802 36.8102992,60.8242743 C36.7926132,60.5264327 36.7749273,60.2285911 36.7545884,59.8902149 C36.5786132,59.9430861 36.4362413,59.9853832 36.313324,60.0232743 C36.3849521,60.3114228 36.4477372,60.5616802 36.5105223,60.8119376 C36.4778033,60.8198683 36.4442,60.8269178 36.4105967,60.8348485 C36.304481,60.5951653 36.1983653,60.3563634 36.0710264,60.069096 C35.7349934,60.2418089 35.4599769,60.382799 35.1849603,60.5237891 C35.2114893,60.588997 35.2380182,60.6550861 35.2645471,60.7202941 C35.448481,60.6621356 35.6324149,60.6048584 35.819886,60.5458188 C35.5890843,61.0657198 35.3600512,61.0701257 34.8869521,60.5599178 C34.583638,60.6647792 34.2767868,60.771403 33.9814314,60.8736208 C33.1820264,59.6584624 33.1873322,59.5659376 34.0972744,58.5878188 C34.1565223,58.5243733 34.221076,58.4635713 34.2697124,58.3930762 C34.5818694,57.9295713 34.3475306,57.2475317 33.7895388,57.1770366 C33.7656628,57.6326109 33.7426711,58.0864228 33.718795,58.5393535 C33.3341256,58.1419376 33.7594727,57.5700465 33.3058281,57.2307891 C32.5895471,57.4616604 33.0865223,58.1745416 32.6938942,58.6177792 C32.6381835,58.2873337 32.6284562,58.0309079 32.5488694,57.7991554 C32.3251421,57.1523634 31.661919,56.9488089 31.4965554,57.4651851 C31.8600017,57.6599277 32.5117289,57.6008881 32.3817372,58.2617792 C32.2782744,58.7869673 31.8149025,58.5384723 31.4815223,58.5226109 C31.4452661,59.1852644 31.0464479,59.4311158 30.4592744,59.1764525 C30.3372413,59.1235812 30.1665719,59.1597099 30.0639934,59.0892149 C29.8853653,58.9649673 29.7429934,58.7896109 29.5855884,58.635403 C29.7456463,58.5041059 29.8906711,58.3428485 30.0710678,58.2503238 C30.1992909,58.1842347 30.3752661,58.2089079 30.5300182,58.1930465 C30.0224314,58.0212149 30.0224314,58.0212149 29.661638,56.9902248 C30.4875719,56.733799 30.9474066,57.1338584 31.1826298,57.9260465 C31.2215388,57.7859376 31.2197702,57.6995812 31.2215388,57.6141059 C31.2321504,57.033403 31.3488777,56.9232545 31.9316298,56.9514525 C31.9820347,56.954096 32.0350926,56.9831752 32.0819603,56.9743634 C32.5568281,56.8853634 33.0308116,56.7919574 33.5410512,56.6923832 C33.5171752,56.9214921 33.5092165,56.9999178 33.5083322,57.0025614 L34.6154727,57.0025614 L34.6154727,57.9269277 C34.6685306,57.9357396 34.7207041,57.9436703 34.773762,57.9524822 C34.8498116,57.6334921 34.9258612,57.314502 35.0257868,56.8941752 C35.1301339,57.0933238 35.1867289,57.1999475 35.2318281,57.286304 C35.3291008,57.1955416 35.406919,57.0633634 35.5165719,57.028997 C36.0674893,56.8545218 36.625481,56.7020762 37.1834727,56.5513931 C37.2382992,56.5364129 37.3320347,56.5672545 37.3718281,56.6104327 C37.6052826,56.8642149 37.8148612,56.869502 38.0571587,56.6104327 C38.1093322,56.5540366 38.2906132,56.5610861 38.3816959,56.6042644 C38.929076,56.8624525 39.4667289,57.1417891 40.0114562,57.4052644 C40.0600926,57.4290564 40.1379107,57.3929277 40.2060017,57.3841158 C40.1688612,57.2325515 40.1379107,57.108304 40.0901587,56.9100366 C40.5270017,56.9734822 41.0204397,56.8994624 41.2211752,57.1074228 C41.5191835,57.4140762 41.8048116,57.4070267 42.1417289,57.4167198 C42.4547702,57.4255317 42.766043,57.4405119 43.0764314,57.4519673 L43.0764314,57.4519673 Z M69.162324,0.0725217822 L68.8492826,0.0725217822 C68.8041835,0.0971950495 68.7608529,0.136848515 68.7131008,0.144779208 C64.7116545,0.791571287 60.6960595,1.27093762 56.6335967,0.889383168 C55.4848942,0.781878218 54.3282331,0.63119505 53.2821091,0.0725217822 L52.8647207,0.0725217822 C52.8249273,0.102482178 52.7886711,0.150947525 52.7462248,0.158878218 C49.1453653,0.795977228 45.5259355,1.24626436 41.8587537,1.09734356 C40.3660595,1.0356604 38.881324,0.857660396 37.4708694,0.299868317 C37.3435306,0.248759406 37.1613653,0.25140297 37.0322579,0.301630693 C35.5351421,0.878808911 33.9681669,1.04799703 32.3835058,1.10791782 C29.9605306,1.1986802 27.5517041,0.99160099 25.1552579,0.66379901 C24.0428116,0.512234653 22.9418612,0.272551485 21.835605,0.0725217822 L21.5216793,0.0725217822 C21.3695802,0.144779208 21.2227868,0.232016832 21.0644975,0.287531683 C19.5903736,0.797739604 18.0561174,0.953709901 16.5085967,1.0057 C13.9848116,1.09117525 11.4734066,0.901719802 8.97261322,0.577442574 C7.96186116,0.446145545 6.96083636,0.243472277 5.95539008,0.0725217822 L5.64146446,0.0725217822 C5.30985289,0.510472277 4.9490595,0.93079901 4.65016694,1.38989802 C2.58267934,4.57539307 1.65416694,8.14949208 1.60199339,11.8601752 C1.48084463,20.3909574 1.5639686,28.923502 1.5639686,37.4560465 L1.5639686,37.9918089 C2.19358843,37.8111653 2.78429917,37.6737 3.35290248,37.4710267 C4.17618347,37.1784723 4.83940661,37.3150564 5.54596033,37.8754921 C6.04912562,38.2755515 6.1260595,38.6456505 6.01198512,39.233403 L1.13950579,39.233403 C1.13950579,40.7428782 1.1342,42.194195 1.14658017,43.6455119 C1.14834876,43.8041257 1.22616694,43.9812446 1.31901818,44.1151851 C2.15556364,45.3259376 3.00448926,46.5287594 3.84810909,47.7351059 C3.98163802,47.9263238 4.10809256,48.1228287 4.29202645,48.3995218 L1.50383636,48.3995218 C1.50383636,48.9634822 1.50383636,49.4789772 1.50383636,49.9953535 C1.50295207,53.0063733 1.50560496,56.0173931 1.4923405,59.0284129 C1.4923405,59.2213931 1.4180595,59.5342149 1.29425785,59.5835614 C0.883059504,59.7457 0.434720661,59.8126703 -0.000353719008,59.9166505 L-0.000353719008,69.474898 C0.165009917,69.4660861 0.330373554,69.4572743 0.538183471,69.4458188 L0.538183471,64.1965812 C1.42867107,64.2697198 2.26610083,64.3393337 3.09999339,64.4080663 C3.11060496,64.5931158 3.12033223,64.6785911 3.12033223,64.7640663 C3.11414215,68.6606802 4.01524132,72.3475713 5.90056364,75.751601 C9.53414215,82.3138089 15.0627702,86.3734426 22.4616876,87.8626505 C23.4255719,88.0565119 24.4115636,88.1437495 25.3878281,88.2803337 L28.4174314,88.2803337 C29.358324,88.1463931 30.3089438,88.0635614 31.2374562,87.8714624 C39.9106463,86.0764822 45.8575471,81.0378485 49.1772,72.8974327 C49.3903157,72.3740069 49.5494893,71.8285515 49.7413818,71.2698782 C50.1251669,71.3553535 50.4744645,71.4461158 50.8290678,71.5095614 C51.7920678,71.6822743 52.7099686,71.0830663 52.9566876,70.1049475 C53.1751091,69.2431455 53.3634645,68.3742941 53.5633157,67.5160168 C54.437886,67.624403 54.5121669,67.5468584 54.5059769,66.6445218 C54.2291917,66.4973634 53.7905802,66.4074822 53.7357537,66.2109772 C53.513795,65.4126208 53.0079769,64.9464723 52.2448281,64.6891653 C52.3394479,64.2935119 52.4269934,63.9313436 52.5224975,63.5356901 C56.3117124,63.6687495 60.0699769,63.8009277 63.8627289,63.9339871 L63.8627289,65.0143238 C64.6338364,65.0566208 65.3686876,65.0971554 66.1212248,65.1385713 C65.8019934,67.4657891 65.8241008,69.7313238 66.3484893,71.9545614 C68.3107455,80.272096 73.4723901,85.5407198 81.7679851,87.7428089 C82.831795,88.0247891 83.9495471,88.1058584 85.0425388,88.2803337 L87.7591008,88.2803337 C87.8926298,88.2512545 88.0243901,88.2054327 88.1588033,88.1957396 C91.2803736,87.9639871 94.1808694,87.0299277 96.8620595,85.4393832 C104.177853,81.1004129 108.010398,72.9679277 106.626473,64.565799 C105.766936,59.3509277 103.167985,55.1027198 98.9914479,51.8238188 C98.7438446,51.6299574 98.6589521,51.4290465 98.6651421,51.1250366 C98.6828281,50.2297495 98.6713322,49.3327 98.6713322,48.3545812 C98.2353736,48.5228881 98.0762,48.2990663 98.0337537,47.9633337 C97.0017785,47.9633337 96.0087124,47.9492347 95.0174149,47.9756703 C94.8149107,47.9809574 94.6168281,48.1378089 94.4169769,48.2259277 C94.4320099,48.2699871 94.447043,48.3149277 94.462076,48.3598683 L93.7236876,48.3598683 C93.7148446,48.2532446 93.7033488,48.1712941 93.7015802,48.0884624 C93.665324,46.7772545 93.1727702,46.3049376 91.837481,46.3040564 C91.2582661,46.3031752 90.6790512,46.3040564 90.0582744,46.3040564 C90.4951174,45.8097099 90.8638694,45.3752842 91.2529603,44.9602446 C91.4687289,44.7293733 91.7172165,44.5293436 91.9993074,44.2720366 C91.8410182,43.4516505 91.4253983,43.0868386 90.4995388,42.9758089 C90.3412496,42.9564228 90.1502413,42.7907594 90.0662331,42.6409574 C89.4392661,41.528898 88.6672744,40.5349178 87.6972,39.702195 C84.7631008,37.1828782 81.2975388,36.0329277 77.4791421,35.8214426 C77.0599851,35.7985317 76.8061917,35.7430168 76.6470182,35.2795119 C76.3843818,34.511997 75.6079686,34.2053436 74.800605,34.4741059 C75.7865967,37.2930267 76.7725884,40.1119475 77.7647702,42.9484921 C76.5612413,43.0630465 76.0731091,43.4965911 76.0439273,44.3927594 C76.2322826,44.4685416 76.4692744,44.4923337 76.5877702,44.6227495 C77.0670595,45.1541059 77.5100926,45.7171851 77.969043,46.2723337 L73.7288364,46.2723337 L73.7288364,39.1963931 L68.7192909,39.1963931 C68.7192909,38.8351059 68.5937207,38.4235911 68.7449355,38.2464723 C69.0747785,37.8605119 69.5222331,37.5529772 69.9705719,37.299195 C70.1545058,37.1943337 70.4737372,37.2745218 70.7178033,37.331799 C71.5516959,37.5256604 72.3802826,37.7459574 73.2380512,37.9636109 L73.2380512,37.3635218 C73.2380512,29.3658584 73.2230182,21.3690762 73.2486628,13.3714129 C73.2548529,11.3869772 73.0461587,9.4386703 72.6066628,7.51063069 C72.0769686,5.18693762 71.3138198,2.9566505 69.8741835,1.01010594 C69.6407289,0.694640594 69.4002,0.385343564 69.162324,0.0725217822 L69.162324,0.0725217822 Z" id="Fill-7" fill="#000000" mask="url(#mask-6)"></path>
                        </g>
                        <g id="Group-12">
                            <mask id="mask-8" fill="white">
                                <use xlink:href="#path-7"></use>
                            </mask>
                            <g id="Clip-11"></g>
                            <path d="M0,59.9957647 C0.420857143,59.8916471 0.856285714,59.8245882 1.25485714,59.6622353 C1.374,59.6137059 1.446,59.2995882 1.44685714,59.1072353 C1.45971429,56.0913529 1.45628571,53.0763529 1.45714286,50.0613529 C1.45714286,49.5442941 1.45714286,49.0281176 1.45714286,48.4634118 L4.16057143,48.4634118 C3.98142857,48.1863529 3.85971429,47.9895882 3.73028571,47.7981176 C2.91257143,46.5901765 2.08971429,45.3857647 1.27885714,44.1734118 C1.18885714,44.0392941 1.11342857,43.8619412 1.11171429,43.704 C1.09885714,42.2498824 1.104,40.7966471 1.104,39.2851765 L5.82771429,39.2851765 C5.93828571,38.6966471 5.86371429,38.3260588 5.37514286,37.9254706 C4.69114286,37.3642941 4.04828571,37.2275294 3.24942857,37.5213529 C2.69914286,37.7234118 2.12657143,37.8610588 1.51628571,38.0419412 L1.51628571,37.5054706 C1.51542857,28.9616471 1.43571429,20.4178235 1.55314286,11.8766471 C1.60371429,8.16017647 2.50285714,4.58135294 4.50771429,1.39164706 C4.79742857,0.931941176 5.14628571,0.511941176 5.46857143,0.0725294118 L0,0.0725294118 L0,59.9957647 Z" id="Fill-10" fill="#FFFFFF" mask="url(#mask-8)"></path>
                        </g>
                        <g id="Group-15" transform="translate(21.000000, 0.000000)">
                            <mask id="mask-10" fill="white">
                                <use xlink:href="#path-9"></use>
                            </mask>
                            <g id="Clip-14"></g>
                            <path d="M0.615288889,0.0825 C1.72728889,0.3095 2.83395556,0.5805 3.95306667,0.7535 C6.36195556,1.1255 8.7824,1.3605 11.2179556,1.2575 C12.8108444,1.1895 14.3868444,0.9965 15.8908444,0.3425 C16.0206222,0.2855 16.2037333,0.2825 16.3326222,0.3405 C17.7495111,0.9735 19.2419556,1.1755 20.7432889,1.2445 C24.4286222,1.4145 28.0668444,0.9035 31.6864,0.1795 C31.7299556,0.1715 31.7655111,0.1165 31.8055111,0.0825 L0.615288889,0.0825 Z" id="Fill-13" fill="#FFFFFF" mask="url(#mask-10)"></path>
                        </g>
                        <g id="Group-18" transform="translate(5.000000, 0.000000)">
                            <mask id="mask-12" fill="white">
                                <use xlink:href="#path-11"></use>
                            </mask>
                            <g id="Clip-17"></g>
                            <path d="M0.656915789,0.0825 C1.67423158,0.2755 2.68796842,0.5065 3.71065263,0.6555 C6.24007368,1.0235 8.78112632,1.2385 11.3356,1.1415 C12.9004947,1.0815 14.4528632,0.9055 15.9452842,0.3255 C16.1054421,0.2635 16.2539684,0.1645 16.4078632,0.0825 L0.656915789,0.0825 Z" id="Fill-16" fill="#FFFFFF" mask="url(#mask-12)"></path>
                        </g>
                        <g id="Group-21" transform="translate(53.000000, 0.000000)">
                            <mask id="mask-14" fill="white">
                                <use xlink:href="#path-13"></use>
                            </mask>
                            <g id="Clip-20"></g>
                            <path d="M0.225511111,0.0825 C1.27706667,0.7165 2.43973333,0.8865 3.5944,1.0095 C7.67795556,1.4425 11.7144,0.8985 15.7366222,0.1635 C15.7846222,0.1555 15.8272889,0.1105 15.8735111,0.0825 L0.225511111,0.0825 Z" id="Fill-19" fill="#FFFFFF" mask="url(#mask-14)"></path>
                        </g>
                        <path d="M49,57 C49.3291093,58.4435977 49.6538882,59.8726625 49.9873279,61.3356373 L51.0681922,61.3356373 C51.0751208,61.290101 51.0811833,61.2435958 51.088112,61.1970907 C50.8256906,61.1069869 50.5624031,61.0159143 50.268803,60.9141843 C50.3216337,60.6554993 50.3735983,60.4016587 50.4359559,60.0945308 C51.5592579,60.3822815 52.660908,60.6632502 53.7937369,60.9529386 C53.7798797,61.1283018 53.7668885,61.2852567 53.7521652,61.4770905 C53.8890054,61.5003431 54.0189169,61.5361908 54.1488285,61.5410351 C55.6471419,61.5943223 57.1463215,61.6350143 58.6446349,61.6931457 C61.0445346,61.7871249 63.4435682,61.8869172 65.8426019,61.9983358 C66.1145501,62.010931 66.2461938,61.9576438 66.3674446,61.643734 C66.8446531,60.4084407 67.3694959,59.1954311 67.876151,57.9746706 C67.909928,57.8932866 67.943705,57.8119026 68,57.673356 L66.0469961,57.673356 C66.0218798,57.4369547 66.0002279,57.2383389 65.9742456,57 L49,57 Z" id="Fill-22" fill="#FFFFFF"></path>
                        <path d="M45.6080237,72 C46.468092,69.7439686 46.9260738,67.4583984 47,65.0048258 C46.3563011,65.0048258 45.7126022,64.9928256 45.0698049,65.0066719 C41.793612,65.0740575 38.517419,65.1488278 35.2412261,65.2217519 C34.834632,65.2300597 34.4280379,65.2595985 34.0214438,65.2531369 C33.172194,65.2392906 33.172194,65.2319058 33,66.2168426 C37.1705197,68.1294846 41.3545624,70.0485882 45.6080237,72" id="Fill-24" fill="#FFFFFF"></path>
                        <path d="M20,83.6082979 C22.2834274,84.4831852 24.5769584,84.9359619 27,85 C26.9017189,80.3829403 26.8043564,75.8055663 26.7060753,71.2002319 C26.3992914,71.1343899 26.123737,71.0748615 25.777457,71 C23.8614355,75.1823219 21.9444955,79.3655457 20,83.6082979" id="Fill-26" fill="#FFFFFF"></path>
                        <path d="M21,68.7939669 C20.8299457,68.5240736 20.679949,68.2856063 20.5003019,68 C16.3448715,69.6711201 12.1946736,71.3403916 8,73.0272246 C8.91044476,75.2482985 10.1487892,77.2041005 11.7394513,79 C14.832696,75.5912108 17.9111156,72.1990589 21,68.7939669" id="Fill-28" fill="#FFFFFF"></path>
                        <path d="M30.7884809,70 C30.4970657,70.1869875 30.2609826,70.3381503 30,70.505041 C31.6719484,74.6633284 33.3355969,78.8032666 35.0232227,83 C37.2623239,82.0965183 39.2136989,80.8365372 41,79.268114 C37.5823273,76.1662186 34.194165,73.0914101 30.7884809,70" id="Fill-30" fill="#FFFFFF"></path>
                        <path d="M28.0054694,71.0033299 C27.4200238,70.9707015 27.2276395,71.1737226 27.2243225,71.7954745 C27.2085669,74.8018175 27.133935,77.8090669 27.0775465,80.8163162 C27.0551569,82.0072522 27.0261334,83.1990945 27.0020854,84.3909368 C26.9979392,84.5830818 27.0012561,84.7752267 27.0012561,85 C29.0818268,84.9347432 31.0454742,84.5214504 33,83.7302121 C31.3265876,79.4649573 29.6639554,75.2296119 28.0054694,71.0033299" id="Fill-32" fill="#FFFFFF"></path>
                        <path d="M41.3565082,78 C42.6280269,76.8351742 44.2293292,74.5624469 45,72.8258284 C40.8327342,71.2217502 36.6663501,69.617672 32.4646951,68 C32.3077393,68.2090059 32.1613647,68.4061172 32,68.6219201 C35.1161907,71.7459643 38.222682,74.8589635 41.3565082,78" id="Fill-34" fill="#FFFFFF"></path>
                        <path d="M18.1531654,83 C19.7724643,78.814083 21.3781484,74.6625925 23,70.4696136 C22.800034,70.3177837 22.6043227,70.1694846 22.380531,70 C19.2465963,73.1116317 16.1220218,76.2153188 13,79.3163577 C13.6943499,80.2873633 16.0726685,81.9892714 18.1531654,83" id="Fill-36" fill="#FFFFFF"></path>
                        <path d="M7,65 C7.09355693,67.1345917 7.48278906,69.0763233 8.25242718,71 C11.8605472,69.56627 15.4298323,68.1489536 19,66.7308166 C15.0185349,66.1333607 11.0847308,65.3652031 7,65" id="Fill-38" fill="#FFFFFF"></path>
                        <path d="M104,68 C100.049545,68.0825688 96.1286375,68.1642202 92.17281,68.246789 C92.1146098,68.5165138 92.059991,68.7715596 92,69.046789 C95.6084167,70.7027523 99.1783316,72.3412844 102.791225,74 C103.549619,72.0844037 103.912252,70.112844 104,68" id="Fill-40" fill="#FFFFFF"></path>
                        <path d="M80,83.8191561 C81.93932,84.5485273 83.8877878,84.9640261 86,85 C85.9167556,81.0320767 85.8335112,77.0929326 85.7511816,73.144795 C85.4657722,73.0926328 85.2407379,73.0521622 84.953499,73 C83.3151395,76.5776062 81.6712914,80.1687027 80,83.8191561" id="Fill-42" fill="#FFFFFF"></path>
                        <path d="M73.1655727,80 C75.7956712,77.179346 78.4008439,74.3852936 81,71.5974482 C80.6372871,70.89694 80.6381466,70.8978267 79.9531177,71.1665027 C76.8193468,72.3928354 73.6847164,73.6182814 70.5509455,74.8455009 C70.3790436,74.9128916 70.2114393,74.9918096 70,75.0831417 C70.7718393,76.9159904 71.8187217,78.5271593 73.1655727,80" id="Fill-44" fill="#FFFFFF"></path>
                        <path d="M89,72.4175584 C90.372213,75.948762 91.7312823,79.447317 93.1113816,83 C94.9348652,82.2465047 96.5226365,81.1862845 98,79.8442553 C95.2152663,77.2280715 92.4410476,74.6221979 89.6501801,72 C89.4468893,72.1305944 89.248856,72.2577521 89,72.4175584" id="Fill-46" fill="#FFFFFF"></path>
                        <path d="M70.0571161,73 C73.7465602,71.5982659 77.3592912,70.2254335 81,68.8421644 C80.9756323,68.650289 80.9521672,68.4672447 80.9205795,68.22158 C76.9648962,68.14772 73.0155304,68.0746628 69.0002817,68 C68.9876466,69.7381182 69.4009943,71.3566153 70.0571161,73" id="Fill-48" fill="#FFFFFF"></path>
                        <path d="M87.8430803,73.0106017 C87.3255714,72.9473569 87.1907784,73.1660031 87.1843597,73.695452 C87.1426381,77.2751051 87.0664159,80.8556616 87.0014264,84.4353147 C86.998217,84.608786 87.0014264,84.7822573 87.0014264,85 C88.7352815,84.9765091 90.3632279,84.5979441 92,83.9257427 C90.6039297,80.261161 89.2255108,76.6408505 87.8430803,73.0106017" id="Fill-50" fill="#FFFFFF"></path>
                        <path d="M74,79.922082 C75.385637,81.2085962 76.9058534,82.2036278 78.65273,83 C80.1056567,79.4553628 81.5488441,75.9332808 83,72.3912461 C82.8069848,72.2567823 82.6405312,72.1396688 82.4404329,72 C79.6417118,74.6268139 76.8447614,77.2518927 74,79.922082" id="Fill-52" fill="#FFFFFF"></path>
                        <path d="M91.3915858,71 C91.2517957,71.2005149 91.136317,71.3671651 91,71.5623329 C93.6386455,74.3784533 96.273818,77.1901178 98.9063857,80 C99.7572816,79.3726111 101.549372,76.6901673 102,75.3551837 C98.4687821,73.9052381 94.9349593,72.4544014 91.3915858,71" id="Fill-54" fill="#FFFFFF"></path>
                        <path d="M93,62.2133481 C93.0969587,62.2722382 93.1561636,62.2871805 93.1810468,62.3258546 C93.6486796,63.0378099 94.3831633,62.9305771 95.0644485,62.9578248 C95.7457336,62.9841935 96.4192964,63.0923052 97.1014396,62.8084021 C98.7042616,62.1412736 100.331109,61.5365511 102,60.8870017 C101.22862,59.0649236 100.177519,57.457311 98.8329679,56 C96.8792068,58.0804916 94.9563352,60.1293407 93,62.2133481" id="Fill-56" fill="#FFFFFF"></path>
                        <path d="M31.9144711,56.9889355 C32.1274741,57.1756744 32.2995805,57.3263478 32.471687,57.4770213 C32.3566654,57.5299173 32.2305676,57.640518 32.1291781,57.6236875 C31.8258618,57.5707915 31.7491808,57.3768395 31.9144711,56.9889355 L31.9144711,56.9889355 Z M30.2624197,56.8502839 C30.4617905,56.7084264 30.6074846,56.5369152 30.6875737,56.5609588 C30.8273037,56.601833 30.9269891,56.7637268 31.0428628,56.8743275 C30.918469,56.9705021 30.8034474,57.1195726 30.6645694,57.1444177 C30.5742561,57.1604468 30.4481583,56.9937442 30.2624197,56.8502839 L30.2624197,56.8502839 Z M43,56.8238359 C42.6992397,56.8126155 42.3984795,56.7989908 42.0977192,56.7909762 C41.7722506,56.7821603 41.4970507,56.7877704 41.2107747,56.5088643 C41.0173679,56.3205225 40.5410932,56.3870432 40.1201992,56.3301399 C40.1670599,56.5096657 40.1968803,56.6234723 40.2326648,56.7613224 C40.1670599,56.769337 40.0920828,56.8013952 40.0443702,56.7805573 C39.5195307,56.540121 39.0023594,56.2860599 38.474964,56.0512338 C38.3872067,56.0127639 38.2125442,56.0055509 38.1614235,56.0576454 C37.9279722,56.2924716 37.7260454,56.2876628 37.5011142,56.0568439 C37.4636256,56.0183741 37.3733124,55.9903232 37.3204876,56.0031465 C36.782868,56.1401952 36.2443964,56.2788468 35.7135929,56.4375348 C35.6087954,56.469593 35.5338183,56.5890097 35.440097,56.672361 C35.3957924,56.5938184 35.3421156,56.4968425 35.2415782,56.3157137 C35.1444488,56.6972061 35.0711758,56.9873326 34.9979027,57.2774591 C34.947634,57.270246 34.8965133,57.2622315 34.8462446,57.2542169 L34.8462446,56.4142926 L33.7795255,56.4142926 C33.7795255,56.4118883 33.7871936,56.3397574 33.8101979,56.1321807 C33.318587,56.222745 32.8627605,56.3076992 32.40523,56.3878446 C32.3592214,56.3958592 32.3081007,56.3694112 32.259536,56.3678083 C31.698912,56.3413603 31.5855944,56.4415421 31.5762223,56.9697006 C31.5745183,57.0482431 31.5753703,57.1259842 31.5378818,57.2542169 C31.3120986,56.5329079 30.8682003,56.169849 30.073273,56.4030723 C30.4200419,57.340774 30.4200419,57.340774 30.9099489,57.4970576 C30.7608468,57.5106824 30.5912964,57.4882416 30.4669026,57.5483507 C30.2930921,57.6333049 30.1542142,57.7791696 30,57.8993878 C30.1516581,58.0388409 30.2888321,58.1983303 30.4609385,58.3113354 C30.5589199,58.3762532 30.7242103,58.3425921 30.8417879,58.3906794 C31.4066719,58.6231012 31.7909293,58.3986939 31.8267139,57.7960002 C32.1470704,57.8112278 32.5935247,58.037238 32.6932101,57.5587696 C32.8193079,56.9584802 32.190523,57.0121777 31.8411981,56.8342548 C32.0005243,56.3654039 32.6386813,56.5497384 32.8542404,57.138006 C32.9317735,57.34959 32.9402936,57.5828133 32.9939704,57.8833587 C33.3722637,57.4794257 32.893433,56.8318504 33.5844147,56.6210679 C34.0214969,56.9296279 33.6116791,57.4505733 33.9823044,57.8120293 C34.0044567,57.3992802 34.027461,56.9873326 34.0496133,56.5729806 C34.5872329,56.6362955 34.8138681,57.2566213 34.5122559,57.6781864 C34.4662472,57.7431042 34.4040503,57.7976031 34.3469655,57.8553078 C33.4702451,58.7457237 33.464281,58.8298765 34.2344999,59.9350822 C34.519072,59.8421135 34.8155722,59.7451375 35.1078123,59.6497644 C35.5627867,60.1130051 35.7834579,60.1089978 36.006685,59.6361397 C35.8260585,59.6898371 35.6479879,59.7427331 35.4707694,59.7956291 C35.4452091,59.73552 35.4196487,59.6762124 35.3940883,59.6161033 C35.6590641,59.4878706 35.9240398,59.3596379 36.2478044,59.2033542 C36.3704942,59.463827 36.4727356,59.6818226 36.5758291,59.8990167 C36.6073535,59.8926051 36.63973,59.885392 36.6721064,59.8789804 C36.6116136,59.6505658 36.5511207,59.4229528 36.4812557,59.1608772 C36.6005374,59.1272161 36.7377114,59.0879448 36.9064098,59.0398575 C36.926006,59.3484175 36.9430463,59.6185077 36.9600865,59.8893993 C37.0026871,59.8934066 37.0452877,59.8974138 37.0878883,59.9014211 C37.1151527,59.7667767 37.1424171,59.6313309 37.1773496,59.4566139 C37.2847031,59.6281251 37.3792764,59.7787986 37.5164504,60 C37.6340281,59.8108567 37.7200813,59.6722051 37.8351029,59.4854662 C37.8751475,59.6425513 37.9083759,59.7691811 37.9407524,59.8950095 C37.9680168,59.8918036 37.9952812,59.8877964 38.0216935,59.8845906 L38.0216935,58.899603 C37.980797,58.8883826 37.9390484,58.8779637 37.8972998,58.8667434 C37.7780181,59.1071797 37.6578844,59.3476161 37.5036702,59.6577789 C37.3843885,59.3676524 37.2983353,59.1568699 37.1918338,58.8980001 C38.1639796,58.5493674 39.0986368,58.2143594 40.0281819,57.8809543 C40.317014,58.2977107 40.8052169,58.4732292 41.2175908,58.2880932 C41.3257963,58.2392045 41.3794731,58.0837223 41.4587102,57.9771289 C41.3377245,57.9723202 41.2150347,57.9530853 41.095753,57.9651071 C40.9279067,57.9811362 40.7626163,58.0204074 40.596474,58.0492598 C40.5845458,58.0027754 40.5734697,57.9562911 40.5615415,57.9090053 C41.3692489,57.5427406 42.1778084,57.1772773 42.9863678,56.8110126 L43,56.8238359 Z" id="Fill-58" fill="#FFFFFF"></path>
                        <path d="M104,67 C103.914403,65.2554217 103.590037,63.626506 102.896254,62 C101.91054,62.3742972 100.948254,62.739759 99.9859669,63.1052209 C99.989571,63.1301205 99.9940761,63.1550201 99.9976801,63.1799197 C100.510359,63.2040161 101.023038,63.2281124 101.567253,63.253012 C101.531212,63.8562249 101.499676,64.4016064 101.46724,64.946988 L97.7523445,64.946988 L97.7523445,65.8032129 C96.7197784,65.8032129 95.7358672,65.8008032 94.7519561,65.8040161 C93.9851902,65.8056225 93.2211273,65.6409639 92.4552624,65.9534137 C91.9795252,66.1477912 91.8822153,66.3518072 92.1372032,66.7783133 C96.0629366,66.8514056 100.017503,66.9253012 104,67" id="Fill-60" fill="#FFFFFF"></path>
                        <path d="M89,43 C88.5179604,41.8607724 87.8665798,40.9359756 87.107681,40.1036585 C87.0440661,40.0335366 86.9240042,40 86.8299259,40 C83.9233526,40 81.0167793,40.0060976 78.1102061,40.0121951 C78.0940784,40.0121951 78.0770547,40.0254065 78,40.0589431 C78.2929869,41.0325203 78.5868698,42.0111789 78.8834406,43 L89,43 Z" id="Fill-62" fill="#FFFFFF"></path>
                        <path d="M71,60.9332486 C72.1710349,61.3708004 73.2301875,61.8486071 74.5065783,61.8241042 C76.3153424,61.7908502 78.1278359,61.9308668 80,62 C79.9421941,61.8914871 79.9216824,61.8136029 79.870403,61.763722 C78.32363,60.2515428 76.7749922,58.7419889 75.2254221,57.2341852 C74.9298664,56.9471511 73.7672226,56.9112719 73.5126904,57.1974308 C72.5160054,58.3236893 71.6843468,59.5488345 71,60.9332486" id="Fill-64" fill="#FFFFFF"></path>
                        <path d="M19,37.5591064 C15.2600025,37.133741 11.6749529,36.8523016 8.00047624,37.0824407 C8.00047624,37.4016429 8.00047624,37.6916324 8.00136165,37.9823344 C8.00136165,38.0236597 7.99250749,38.0884976 8.01995539,38.1027477 C8.59104875,38.3998622 9.15151712,38.9157158 9.74474588,38.9420785 C11.9839631,39.0418292 14.2338053,38.9834038 16.4792205,38.9791287 C16.6111475,38.9784162 16.7705224,38.9613161 16.8688035,38.9007532 C17.544376,38.4882129 18.2066672,38.0614224 19,37.5591064" id="Fill-66" fill="#FFFFFF"></path>
                        <path d="M56,37.608371 C56.709638,38.0853334 57.318392,38.5063514 57.9469778,38.9058522 C58.0651071,38.9811621 58.2617018,38.9947896 58.422944,38.9955068 C60.5070208,39.0005275 62.5919598,39.0041137 64.6760365,38.9904862 C64.8933254,38.9890517 65.1321708,38.9044178 65.3210052,38.8068736 C65.6935005,38.6139369 66.0211585,38.3600351 66.3979651,38.174988 C66.8972122,37.9304103 67.1334708,37.6162606 66.92308,37.0804848 C63.3231543,36.8452312 59.718055,37.1572292 56,37.608371" id="Fill-68" fill="#FFFFFF"></path>
                        <path d="M69.1568526,65.0026455 C69.1028729,65.3748284 69.0380972,65.700993 69.0120071,66.0303869 C68.9886159,66.3282947 69.0066091,66.6286245 69.0066091,67 C72.94083,66.9265322 76.8768502,66.8522571 80.8398602,66.777982 C80.8956392,66.5430466 80.9451206,66.3323314 81,66.0982033 C79.9860812,65.650938 79.0054499,65.2480763 77.8044014,65.2440396 C75.1701918,65.2359662 72.5359822,65.0906453 69.9008729,65.0034528 C69.6723588,64.9961868 69.442945,65.0026455 69.1568526,65.0026455" id="Fill-70" fill="#FFFFFF"></path>
                        <path d="M40,37.5277253 C40.7904085,38.0200522 41.5159858,38.4805227 42.2566607,38.9236169 C42.3676732,38.9902259 42.5515098,38.9960179 42.7024867,38.996742 C44.6563055,39.001086 46.6110124,39.001086 48.5648313,38.996742 C48.7158082,38.996742 48.9111901,38.997466 49.0106572,38.927961 C49.6776199,38.4602504 50.3241563,37.9737156 51,37.4770446 C48.4795737,36.8218154 42.4138544,36.8442597 40,37.5277253" id="Fill-72" fill="#FFFFFF"></path>
                        <path d="M78,44 C78.6158114,44.8268068 79.3034528,45.4673872 80.1181108,45.929541 C80.259143,46.0085166 80.4527338,45.9851164 80.6226732,45.9851164 C82.8099861,45.9890165 84.9972991,45.9714663 87.184612,45.9997416 C87.6812906,46.0065666 88.0973794,45.8788406 88.4687933,45.5414878 C88.9829915,45.0744589 89.4901818,44.5967049 90,44.123826 C89.9798525,44.0828757 89.9597051,44.0409503 89.9395576,44 L78,44 Z" id="Fill-74" fill="#FFFFFF"></path>
                        <path d="M89,61.9182624 C89.8411903,62.0455319 90.5111975,62.1073741 91.1793639,61.4539976 C93.2841804,59.3979678 95.4718274,57.4208093 97.6245015,55.4113852 C97.7340219,55.3101074 97.8260558,55.1918005 98,55 L96.7244094,55 C96.6829942,55.1102405 96.6277738,55.2527465 96.5771551,55.3961487 C96.3157787,56.1266039 95.7939462,56.496761 94.9858881,56.5012423 C93.8814807,56.5084124 92.7770733,56.4904872 91.6735863,56.5164788 C91.4876777,56.5209601 91.1996114,56.6482296 91.1379487,56.7916319 C90.4136415,58.472127 89.7233868,60.1669624 89,61.9182624" id="Fill-76" fill="#FFFFFF"></path>
                        <path d="M76,57.0006368 C77.5189329,58.4556797 79.0137694,59.7600525 80.3450947,61.2125124 C81.1282272,62.0665968 81.9853701,62.0338799 83,61.9727508 C82.3855422,60.362733 81.7891566,58.7888759 81.1755594,57.2219066 C81.1359725,57.1211729 80.9604131,57.0109685 80.8468158,57.0101075 C79.2728055,56.996332 77.6996558,57.0006368 76,57.0006368" id="Fill-78" fill="#FFFFFF"></path>
                        <path d="M24,37.8069661 C24.1455502,37.9606266 24.2532057,38.0374568 24.3203828,38.1490185 C25.2798086,39.7445617 26.5820096,40.1550246 28.1391388,39.9518981 C29.1114833,39.8256018 30.1088038,39.8582283 31.0863158,39.9497931 C31.8941627,40.0266234 32.4866986,39.6908857 33,38.9415278 C32.1103349,38.3289907 31.2206699,37.7143488 30.3275598,37.1060217 C30.2422967,37.0481359 30.1363636,37.008142 30.0390431,37.0060371 C28.069378,36.9649908 26.1143541,37.1260186 24.1946411,37.7122439 C24.1489952,37.725926 24.105933,37.7543426 24,37.8069661" id="Fill-80" fill="#FFFFFF"></path>
                        <path d="M86,38.9997433 C83.3606887,36.991906 80.3107604,36.2325316 77,36 C77.3469154,36.974745 77.6619799,37.8902845 78.0080344,38.7938113 C78.0467719,38.8959192 78.2576758,38.9903047 78.3893831,38.9911628 C80.9262554,39.0023174 83.4631277,38.9997433 86,38.9997433" id="Fill-82" fill="#FFFFFF"></path>
                        <path d="M47,61.2173175 C46.7270785,60.1857206 46.4486619,59.1333732 46.148265,58 C45.3230894,58.3784498 44.5720973,58.7223155 43.8211051,59.0681573 C42.929073,59.4792151 42.0407042,59.9011422 41.1422611,60.2944138 C40.9545131,60.3764277 40.7282996,60.3556772 40.6715172,60.3635822 C40.179709,60.5681229 39.827109,60.7153528 39.5175537,60.8438083 C39.3810929,60.7696993 39.2263153,60.684721 39.0587158,60.593814 C39.0962654,60.849737 39.1237407,61.0374798 39.151216,61.2262106 C39.0816119,61.2360918 39.0110919,61.245973 38.9414877,61.2558542 C38.9195075,60.9505252 38.8984431,60.6461844 38.8764628,60.3418435 C38.8370815,60.3359148 38.7986161,60.3299861 38.7592348,60.3250455 C38.7198535,60.4900615 38.6795563,60.6560656 38.6291849,60.8645588 C38.5018826,60.7934142 38.3764119,60.7242458 38.1355449,60.5918378 C38.2765849,60.8191053 38.3480208,60.9347153 38.4139615,61.0414322 C38.2811641,61.2963671 38.152946,61.5394445 38,61.8309398 C39.3646077,61.8922032 40.7026559,61.9584073 42.0407042,61.9999083 C42.1725857,62.0038608 42.3346901,61.8793577 42.4372647,61.7657239 C42.8017706,61.3655355 43.2313015,61.204472 43.7478376,61.2123769 C44.8056375,61.229175 45.8625216,61.2173175 47,61.2173175" id="Fill-84" fill="#FFFFFF"></path>
                        <path d="M82,57 C82.6860674,58.6080402 83.3265076,60.1658291 84.0316555,61.6934673 C84.1179324,61.879397 84.5526353,61.9020101 84.825569,62 C84.8828104,61.9606365 84.9400518,61.921273 84.9972932,61.8819095 C84.9972932,60.9020101 85.0089074,59.921273 84.9840199,58.9413735 C84.9807015,58.8123953 84.7940447,58.6892797 84.6339347,58.4907873 C84.6339347,58.2973199 84.4746542,57.919598 84.9914861,57.8902848 L84.9914861,57 L82,57 Z" id="Fill-86" fill="#FFFFFF"></path>
                        <path d="M35,63 C35.2653196,63.7764682 35.2653196,63.7842019 36.1851526,63.8019896 C39.7423677,63.8715933 43.2995827,63.9357834 46.8567977,63.9999735 C46.8893038,64.0007469 46.9218098,63.984506 47,63.9643982 C46.988579,63.7857487 46.9762794,63.5978186 46.9604656,63.3727666 C42.9745223,63.2482533 39.009664,63.1245133 35,63" id="Fill-88" fill="#FFFFFF"></path>
                        <path d="M50,39 L56,39 C55.3491869,38.6412422 54.8336913,38.286274 54.2196993,38.0513129 C53.9380178,37.9433065 53.4630255,38.0772091 53.0754833,38.0904731 C52.8306229,38.0986841 52.5544646,38.1359494 52.3455048,38.0753143 C51.8613071,37.9338323 51.5096655,37.9900461 51.1589445,38.2578513 C50.8293955,38.509866 50.4372507,38.7239838 50,39" id="Fill-90" fill="#FFFFFF"></path>
                        <path d="M23,39 C22.8156146,38.6686223 22.6453488,38.3630327 22.5224252,38.1406099 C21.9476744,38.0870994 21.4651163,38.0342337 20.9792359,38.0026433 C20.8322259,37.9929727 20.6453488,38.0084456 20.5332226,38.0722713 C20.0365449,38.3533621 19.5614618,38.6563729 19,39 L23,39 Z" id="Fill-92" fill="#FFFFFF"></path>
                        <path d="M22.0725473,57.0068602 C21.8357542,58.4496067 22.1705945,59.3600474 23.1954648,59.9798555 C23.3332858,60.0621493 23.6422268,59.8746443 23.8281464,59.736099 C23.9335934,59.6590136 24.0288656,59.3985901 23.9918667,59.2715034 C23.7948474,58.5964855 23.5636041,57.9329263 23.3203361,57.276659 C23.2777874,57.1589475 23.1270167,57.0308191 23.01602,57.0193605 C22.6987541,56.9849846 22.3768635,57.0068602 22.0725473,57.0068602" id="Fill-94" fill="#FFFFFF"></path>
                        <path d="M40,39 C39.4307879,38.6559488 38.9486136,38.3584563 38.4564261,38.0724524 C38.3709287,38.0228703 38.2215009,37.9817535 38.1390845,38.0083585 C38.0659111,38.0313356 38.0143046,38.1540814 38.0089129,38.2351058 C37.9927377,38.4805975 38.0035211,38.7279032 38.0035211,39 L40,39 Z" id="Fill-96" fill="#FFFFFF"></path>
                        <path d="M28.7649692,57 L28.0847631,57 C28.0686511,57.3585593 28.0532396,57.6955068 28.0357266,58.0855014 C28.3012241,58.1189014 28.5394014,58.1493544 28.8861594,58.1935604 C28.7558625,58.4303077 28.6837088,58.5904315 28.5863363,58.708314 C28.5695238,58.7289434 28.4483336,58.5452432 28.3635705,58.4971078 C28.2718023,58.4460254 28.1660235,58.4440607 28,58.4047665 C28.163922,59.0295438 28.4343232,59.0786615 28.724339,58.9293437 C29.0830059,58.7446611 29.0865085,58.2200839 28.7649692,57" id="Fill-98" fill="#FFFFFF"></path>
                        <path d="M36.9951984,40 C36.9951984,39.4099083 37.0080556,38.9624124 36.9916919,38.5160758 C36.9729906,38.0384378 36.5533794,37.8459913 36.1489631,38.1381389 C35.7831183,38.4036222 35.4429878,38.7027257 35,39.0609542 C35.6674038,39.3751288 36.2646776,39.6556832 36.9951984,40" id="Fill-100" fill="#FFFFFF"></path>
                        <path d="M17,38.9990432 C17.9106957,39.0196694 18.3925234,38.716789 20,37.1155396 C19.6053998,36.9429303 19.2876428,36.9440159 18.9449637,37.2544955 C18.3198339,37.8211749 17.655244,38.3422595 17.0083074,38.8839703 C16.9989616,38.8915695 17.0051921,38.9208805 17,38.9990432" id="Fill-102" fill="#FFFFFF"></path>
                        <path d="M50.9663737,37.0084181 C50.8035919,37.0231745 50.5888422,36.9515006 50.4879633,37.0684976 C49.9652274,37.666131 49.4715323,38.3122496 49,38.9994753 C49.9736339,39.0300421 50.2831486,37.7167243 51,37.2339799 C50.9885365,37.1580899 50.9778372,37.083254 50.9663737,37.0084181" id="Fill-104" fill="#FFFFFF"></path>
                        <path d="M89,57.9720464 C89.7151899,58.0543638 89.7547468,58.0149565 90,57 L89,57 L89,57.9720464 Z" id="Fill-106" fill="#FFFFFF"></path>
                        <path d="M32,37.14 C32.2883609,37.333 32.602497,37.483 32.8594442,37.727 C33.3274265,38.172 33.6488119,37.943 34,37.392 C33.3089005,37.256 32.6596859,37.128 32.0096657,37 C32.0064438,37.047 32.0032219,37.093 32,37.14" id="Fill-108" fill="#FFFFFF"></path>
                        <path d="M27.9352949,58.5752775 C27.9068878,58.5631472 27.8784807,58.5377838 27.8508627,58.5399893 C27.6480676,58.5565306 27.4460616,58.5785857 27.2440556,58.5984353 C27.3758329,58.4197892 27.5115557,58.246657 27.6385986,58.0613944 C27.7585397,57.8860567 27.9573894,57.7007941 27.9581784,57.5177371 C27.9597566,57.339091 27.7695869,57.0347311 27.6378095,57.0060595 C27.4555306,56.9663604 27.2503682,57.1317734 27.0546749,57.2100689 C27.0759802,57.2905699 27.0972856,57.3721736 27.1185909,57.4526746 C27.2124921,57.3953314 27.3040261,57.2971864 27.3995055,57.2883644 C27.5028758,57.2795423 27.6101915,57.3545296 27.715929,57.3920232 C27.6622712,57.5199426 27.6141369,57.6544785 27.5502209,57.7713703 C27.5273375,57.8132749 27.4523743,57.7945281 27.4231781,57.8342272 C27.2716736,58.0448531 27.0822929,58.2378349 27.0025952,58.4958792 C26.973399,58.5885105 27.1974995,58.9733714 27.3253314,58.9943237 C27.5423301,59.0307146 27.7743214,58.8829456 28,58.8123694 C27.9786947,58.7329712 27.9566003,58.6546757 27.9352949,58.5752775" id="Fill-110" fill="#FFFFFF"></path>
                        <path d="M43.0395604,57.727 C43.6934066,57.51 44.3461538,57.292 45,57.075 C44.9934066,57.05 44.9879121,57.025 44.9813187,57 L43,57 C43.0197802,57.261 43.0373626,57.501 43.056044,57.742 C43.0571429,57.743 43.0395604,57.727 43.0395604,57.727" id="Fill-112" fill="#FFFFFF"></path>
                        <path d="M34,37.712983 C34.1626856,37.835983 34.2627502,37.911983 34.3641059,37.987983 C34.5726275,37.731983 34.7714655,37.488983 34.9683667,37.241983 C34.9845061,37.221983 34.9870884,37.173983 35,37.123983 C34.535184,36.725983 34.3389283,37.384983 34,37.712983" id="Fill-114" fill="#FFFFFF"></path>
                        <path d="M66.9853575,38 C66.6506368,38.3048954 66.3324641,38.5953635 66,38.8983353 C66.7040417,39.1868798 67.0808846,38.85313 66.9853575,38" id="Fill-116" fill="#FFFFFF"></path>
                        <path d="M41,38.8506589 C40.3632873,38.2337726 39.7273425,37.6168863 39.0906298,37 C39.0606759,37.0507565 39.0299539,37.1015129 39,37.1532455 C39.6367127,37.7681796 40.2741935,38.3840898 40.9109063,39 C40.9408602,38.9502196 40.9708141,38.9004392 41,38.8506589" id="Fill-118" fill="#FFFFFF"></path>
                        <path d="M33,39.6795582 C33.3081761,39.5745582 33.6163522,39.4705582 34,39.3405582 C33.5259434,38.8265582 33.4347484,38.8595582 33,39.6795582" id="Fill-120" fill="#FFFFFF"></path>
                        <path d="M55,37.1472909 C55.634632,37.7648606 56.2692641,38.3824303 56.9038961,39 C56.9359307,38.9516044 56.9679654,38.9032088 57,38.8548133 C56.365368,38.2361915 55.7307359,37.6175697 55.0969697,37 C55.0640693,37.0494477 55.0320346,37.0978432 55,37.1472909" id="Fill-122" fill="#FFFFFF"></path>
                        <path d="M25,57 C25.013,57.516 25.187,57.71 25.549,57.624 C25.639,57.603 25.685,57.4 25.752,57.281 C25.517,57.193 25.282,57.105 25,57" id="Fill-124" fill="#FFFFFF"></path>
                        <path d="M69,37.763 C69.297,37.537 69.544,37.349 69.901,37.077 C69.52,37.044 69.283,37.024 69,37 L69,37.763 Z" id="Fill-126" fill="#FFFFFF"></path>
                        <path d="M30,57.3638469 C30.218,57.5428469 30.366,57.7498469 30.471,57.7308469 C30.635,57.6998469 30.769,57.5138469 30.916,57.3938469 C30.779,57.2558469 30.663,57.0538469 30.498,57.0028469 C30.404,56.9728469 30.233,57.1858469 30,57.3638469" id="Fill-128" fill="#000000"></path>
                        <path d="M31.1001199,58 C30.9061199,58.484 30.9961199,58.726 31.3521199,58.792 C31.4711199,58.813 31.6191199,58.675 31.7541199,58.609 C31.5521199,58.421 31.3501199,58.233 31.1001199,58" id="Fill-130" fill="#000000"></path>
                    </g>
                </g>
            </g>
        </g>
    </g>
</svg>