<svg xmlns="http://www.w3.org/2000/svg" width="120" height="44" viewBox="0 0 120 44">
    <g fill="#474C4C" fill-rule="evenodd">
        <path d="M101.9 12.553c3.716 0 6.683 3.103 6.683 6.836 0 3.688-2.967 6.833-6.683 6.833-3.715 0-6.68-3.145-6.68-6.833 0-3.733 2.965-6.836 6.68-6.836m0-3.606c-5.847 0-10.44 4.528-10.44 10.442 0 5.91 4.593 10.435 10.44 10.435 5.847 0 10.436-4.525 10.436-10.435 0-5.914-4.59-10.442-10.436-10.442M59.876 9.53v2.242h-.136c-1.52-1.717-3.994-2.825-6.57-2.825-5.839 0-10.423 4.528-10.423 10.44s4.584 10.437 10.423 10.437c2.576 0 5.05-1.143 6.57-2.825h.136v2.192h3.748V9.53h-3.748zM53.27 26.22c-3.71 0-6.667-3.143-6.667-6.832 0-3.732 2.957-6.835 6.667-6.835 3.715 0 6.672 3.103 6.672 6.835 0 3.689-2.957 6.832-6.672 6.832zM84.724 0v11.698h-.136c-1.516-1.725-3.99-2.837-6.568-2.837-5.835 0-10.42 4.547-10.42 10.484 0 5.935 4.585 10.479 10.42 10.479 2.577 0 5.052-1.148 6.568-2.837h.136v2.201h3.753V0h-3.753zm-6.6 26.205c-3.71 0-6.67-3.156-6.67-6.86 0-3.747 2.96-6.863 6.67-6.863 3.712 0 6.678 3.116 6.678 6.863 0 3.704-2.966 6.86-6.677 6.86zM39.16 24.376c-1.225 1.337-2.944 2.188-4.874 2.188-3.729 0-6.697-3.165-6.697-6.872 0-3.756 2.968-6.878 6.697-6.878 1.936 0 3.66.846 4.874 2.182l1.823-3.45c-1.801-1.483-4.124-2.357-6.697-2.357-5.866 0-10.466 4.552-10.466 10.503 0 5.946 4.6 10.499 10.466 10.499 2.573 0 4.896-.878 6.697-2.358l-1.823-3.457M10.464 12.79c3.732 0 6.705 3.12 6.705 6.876 0 3.71-2.973 6.873-6.705 6.873-3.723 0-6.698-3.164-6.698-6.873 0-3.755 2.975-6.877 6.698-6.877m0-3.627C4.6 9.162 0 13.717 0 19.666c0 5.944 4.6 10.496 10.464 10.496 5.86 0 10.468-4.552 10.468-10.496 0-5.949-4.608-10.504-10.468-10.504M35.058 39.57c0-.646.091-1.227.274-1.742.183-.515.438-.953.767-1.313.33-.36.717-.636 1.164-.828a3.69 3.69 0 0 1 1.474-.288c.553 0 1.013.104 1.383.313.37.208.672.435.908.68l-.573.65a2.827 2.827 0 0 0-.7-.533c-.265-.143-.6-.215-1.006-.215s-.771.076-1.096.227c-.325.152-.601.369-.829.65a3.088 3.088 0 0 0-.53 1.025c-.126.4-.189.85-.189 1.35 0 .506.06.962.177 1.367.118.405.288.75.512 1.037.223.286.499.508.829.663a2.63 2.63 0 0 0 1.139.233c.284 0 .554-.043.81-.129.255-.086.465-.202.627-.35V40.27h-1.694v-.846h2.62v3.386c-.26.27-.603.493-1.03.668a3.756 3.756 0 0 1-1.443.265 3.64 3.64 0 0 1-1.45-.283 3.167 3.167 0 0 1-1.133-.816 3.804 3.804 0 0 1-.743-1.313c-.18-.519-.268-1.106-.268-1.76M45.267 39.362h1.34c.626 0 1.105-.13 1.438-.387.333-.257.5-.648.5-1.172 0-.531-.167-.903-.5-1.117-.333-.212-.812-.318-1.438-.318h-1.34v2.994zm3.375 4.232l-1.925-3.398h-1.45v3.398h-1.011v-8.048h2.498c.406 0 .781.039 1.126.116.345.078.642.207.89.387.248.18.44.413.579.699.138.287.207.638.207 1.055 0 .63-.163 1.133-.487 1.51-.325.375-.76.633-1.304.773l2.022 3.508h-1.145zM55.5 42.846c.358 0 .681-.078.97-.233.287-.155.535-.379.743-.67.207-.289.367-.637.48-1.042.114-.405.171-.86.171-1.368 0-.498-.057-.949-.17-1.35a3.12 3.12 0 0 0-.481-1.018 2.207 2.207 0 0 0-.744-.644 2.05 2.05 0 0 0-.968-.227c-.358 0-.68.076-.969.227a2.196 2.196 0 0 0-.743.644 3.099 3.099 0 0 0-.481 1.019c-.114.4-.17.85-.17 1.349 0 .508.056.963.17 1.368.114.405.274.753.481 1.043.207.29.455.514.743.669.288.155.611.233.969.233zm0 .896c-.503 0-.964-.099-1.382-.295a3.077 3.077 0 0 1-1.078-.84 3.93 3.93 0 0 1-.7-1.325 5.709 5.709 0 0 1-.25-1.749c0-.645.083-1.225.25-1.736.166-.511.4-.945.7-1.3.3-.356.66-.628 1.078-.816a3.331 3.331 0 0 1 1.383-.282c.503 0 .964.096 1.382.288.418.192.78.466 1.084.822.305.356.541.79.708 1.3.166.512.25 1.086.25 1.724 0 .646-.084 1.229-.25 1.749-.167.52-.403.96-.708 1.325a3.14 3.14 0 0 1-1.084.84 3.214 3.214 0 0 1-1.382.295zM61.824 35.546h1.01v4.748c0 .483.05.887.147 1.215.098.326.23.588.396.785.166.196.363.337.59.423.228.086.471.129.732.129.268 0 .516-.043.743-.129.227-.086.427-.227.597-.423.17-.197.305-.459.402-.785.098-.328.146-.732.146-1.215v-4.748h.975v4.723c0 .647-.073 1.19-.22 1.632-.145.442-.347.8-.603 1.074-.255.274-.558.47-.907.589a3.52 3.52 0 0 1-1.133.178c-.407 0-.786-.06-1.14-.178a2.177 2.177 0 0 1-.913-.59c-.256-.273-.457-.631-.603-1.073-.146-.442-.219-.985-.219-1.632v-4.723M73.72 39.765c.644 0 1.12-.132 1.43-.394.311-.262.467-.676.467-1.242 0-.574-.158-.972-.472-1.195-.314-.222-.79-.333-1.425-.333h-1.212v3.164h1.212zm-2.143-3.976h2.256c.403 0 .774.04 1.11.121.337.08.623.212.859.394.236.182.418.422.55.721.13.3.196.667.196 1.104 0 .42-.065.783-.197 1.09a2.014 2.014 0 0 1-.555.765c-.24.201-.525.353-.858.454a3.792 3.792 0 0 1-1.105.151h-1.325v3.153h-.93v-7.953zM116.715 11.394c.21 0 .377-.036.505-.11.127-.071.19-.193.19-.363a.462.462 0 0 0-.143-.354c-.095-.089-.265-.133-.512-.133h-.437v.96h.397zm-.833-1.32h.942c.137 0 .267.013.389.039.123.025.234.07.335.134.1.064.18.148.238.25.06.103.089.235.089.397a.724.724 0 0 1-.156.449.732.732 0 0 1-.39.27l.67 1.1h-.506l-.532-.973h-.643v.974h-.436v-2.64zm.928 3.472c.282 0 .55-.053.806-.16a1.99 1.99 0 0 0 1.093-1.095c.108-.256.163-.539.163-.846a2.189 2.189 0 0 0-.601-1.531 1.909 1.909 0 0 0-.655-.448 2.077 2.077 0 0 0-.806-.16c-.292 0-.562.054-.813.16-.25.106-.466.256-.648.448a2.224 2.224 0 0 0-.601 1.531 2.117 2.117 0 0 0 .601 1.505 2.04 2.04 0 0 0 1.46.596zm0 .372a2.553 2.553 0 0 1-1.748-.68 2.309 2.309 0 0 1-.54-.774 2.536 2.536 0 0 1-.197-1.019c0-.376.066-.717.198-1.025a2.365 2.365 0 0 1 1.33-1.293c.302-.12.62-.18.957-.18.337 0 .657.06.963.18.304.12.569.288.792.506.222.217.4.48.533.787.13.308.197.65.197 1.025 0 .376-.066.716-.197 1.019a2.38 2.38 0 0 1-.533.775 2.39 2.39 0 0 1-.792.499c-.306.12-.626.18-.963.18z"/>
    </g>
</svg>
