<?xml version="1.0" encoding="UTF-8"?>
<svg width="150px" height="58px" viewBox="0 0 150 58" version="1.1" xmlns="http://www.w3.org/2000/svg" xmlns:xlink="http://www.w3.org/1999/xlink">
    <title>OcadoGroup_white-01</title>
    <g id="Symbols" stroke="none" stroke-width="1" fill="none" fill-rule="evenodd">
        <g id="Footers/Desktop" transform="translate(-1098.000000, -128.000000)" fill="#FFFFFF" fill-rule="nonzero">
            <g id="OcadoGroup_white-01" transform="translate(1098.000000, 128.000000)">
                <path d="M136.096461,12 C128.305685,12 122.18543,18.0540541 122.18543,26 C122.18543,33.9459459 128.305685,40 136.096461,40 C143.887237,40 150,33.9459459 150,26 C150,18.0540541 143.883492,12 136.096461,12 M136.096461,16.8356757 C141.048098,16.8356757 144.99967,20.9978378 144.99967,26 C144.99967,30.9416216 141.048098,35.1605405 136.096461,35.1605405 C131.144823,35.1605405 127.196997,30.9416216 127.196997,26 C127.196997,20.9940541 131.144823,16.8356757 136.096461,16.8356757" id="Shape"></path>
                <path d="M70.641987,35.1529595 C65.698338,35.1529595 61.7568812,30.9378268 61.7568812,25.9924243 C61.7568812,20.990265 65.698338,16.8318891 70.641987,16.8318891 C75.585636,16.8318891 79.5308324,20.9940488 79.5308324,25.9924243 C79.5308324,30.9378268 75.5893755,35.1529595 70.641987,35.1529595 M79.4410838,12.779459 L79.4410838,15.7837816 L79.2615867,15.7837816 C77.2347655,13.4832424 73.940246,12 70.5073642,12 C62.7291571,12 56.6225166,18.0540505 56.6225166,26 C56.6225166,33.9459332 62.7291571,39.9999891 70.5073642,39.9999891 C73.8140445,40.003141 76.9776969,38.6357357 79.2615867,36.2162021 L79.4410838,36.2162021 L79.4410838,39.1562004 L84.4370861,39.1562004 L84.4370861,12.779459 L79.4410838,12.779459 Z" id="Shape"></path>
                <path d="M103.425329,35.1324957 C98.4810154,35.1324957 94.5352885,30.8995733 94.5352885,25.9332991 C94.5352885,20.9100285 98.4810154,16.7341024 103.425329,16.7341024 C105.805957,16.755173 108.080832,17.7362312 109.74946,19.4614355 C111.418089,21.1866397 112.343771,23.5146557 112.32285,25.9332991 C112.32285,30.8995733 108.369643,35.1324957 103.425329,35.1324957 M112.218129,0 L112.218129,15.6815715 L112.034868,15.6815715 C110.015254,13.371323 106.720292,11.8818207 103.286948,11.8818207 C95.5114351,11.8818207 89.4039735,17.9614219 89.4039735,25.9408986 C89.4039735,33.9203752 95.5114351,39.9999883 103.286948,39.9999883 C106.592193,40.0046345 109.754506,38.6310504 112.034868,36.2002257 L112.218129,36.2002257 L112.218129,39.152632 L117.218543,39.152632 L117.218543,0.0151990031 L112.218129,0 Z" id="Shape"></path>
                <path d="M52.2076324,32.2393036 C50.5479903,34.0885988 48.1924954,35.1475727 45.7188607,35.1564995 C40.757521,35.1564995 36.8057127,30.9377273 36.8057127,25.9962776 C36.8057127,20.9905057 40.757521,16.832272 45.7188607,16.832272 C48.1918573,16.8331027 50.5490704,17.8887256 52.2076324,19.7381169 L54.6357616,15.1409795 C52.1153322,13.0820288 48.962686,11.9717026 45.7188607,12.0005482 C37.9128195,12.0005482 31.7880795,18.0543917 31.7880795,26.0000612 C31.7880795,33.9457308 37.9128195,39.9995742 45.7188607,39.9995742 C48.9621175,40.0249537 52.1136364,38.9150245 54.6357616,36.8591429 L52.2076324,32.2393036 Z" id="Path"></path>
                <path d="M13.9016657,12 C6.11358619,12 0,18.0540541 0,26 C0,33.9459459 6.11358619,40 13.9016657,40 C21.6897451,40 27.8145695,33.9459459 27.8145695,26 C27.8145695,18.0540541 21.6897451,12 13.9016657,12 M13.9016657,16.8356757 C16.2867962,16.8566544 18.5659194,17.8341107 20.2373522,19.5528858 C21.9087851,21.2716609 22.8355211,23.5908677 22.8135661,26 C22.8135661,30.9416216 18.8614623,35.1605405 13.9016657,35.1605405 C8.94186902,35.1605405 5.00474948,30.9416216 5.00474948,26 C5.00474948,20.9940541 8.9568533,16.8356757 13.9016657,16.8356757" id="Shape"></path>
                <path d="M46.6891787,52.4989617 C46.6798443,51.7167863 46.8201226,50.939027 47.1038336,50.1999492 C47.3463407,49.5595492 47.7316007,48.9708149 48.2358416,48.4700733 C48.7118648,47.9991967 49.2945075,47.6263125 49.9442199,47.3767318 C50.6312613,47.1196853 51.3692704,46.9922628 52.1128652,47.0022998 C52.819874,46.9797798 53.5212927,47.1229672 54.148821,47.4179193 C54.6391334,47.656816 55.0888081,47.9582044 55.4840098,48.3128118 L54.6547,49.1702611 C54.3535075,48.8898097 54.0067459,48.6524411 53.6263557,48.4663289 C53.1658645,48.2645746 52.6575082,48.1681368 52.1460376,48.1855049 C51.5906676,48.1784818 51.0402592,48.2806961 50.5330299,48.4850505 C50.0590852,48.6807239 49.6428614,48.974476 49.318091,49.3424998 C48.9637182,49.7432076 48.6989601,50.2022838 48.5385397,50.6941994 C48.3447447,51.2705314 48.2510264,51.8705011 48.2607209,52.4727515 C48.2527203,53.082225 48.3392556,53.6897088 48.517807,54.2775138 C48.6716157,54.7719899 48.9276797,55.2357101 49.2724789,55.6441906 C49.595024,56.0194807 50.0132668,56.3187921 50.4915644,56.5166172 C51.0125935,56.7281724 51.5790001,56.8330223 52.1501842,56.8236514 C52.5543142,56.8255245 52.9561425,56.7686317 53.3402438,56.655157 C53.6804899,56.5611738 53.9953802,56.4043378 54.2649243,56.1946057 L54.2649243,53.4275531 L51.7769947,53.4275531 L51.7769947,52.3042571 L55.6291391,52.3042571 L55.6291391,56.771231 C55.1971929,57.1555933 54.6819124,57.4551679 54.1156486,57.6511462 C53.4399985,57.8914718 52.7187019,58.0097795 51.9926153,57.9993679 C51.2614021,58.0063895 50.5362518,57.8789949 49.8612889,57.6249359 C49.2267336,57.3809386 48.6601917,57.012597 48.2026692,56.5465717 C47.712919,56.0421205 47.3406288,55.453811 47.1079802,54.8166959 C46.8271575,54.0704017 46.6856292,53.2871549 46.6891787,52.4989617 L46.6891787,52.4989617 Z" id="Path"></path>
                <path d="M64.904542,58 L62.1435295,53.3439893 L60.0586007,53.3439893 L60.0586007,58 L58.6092715,58 L58.6092715,47.0001746 L62.1961587,47.0001746 C62.7403797,46.9965323 63.2833875,47.0498754 63.8155209,47.159255 C64.2745157,47.251283 64.7095502,47.430725 65.094817,47.6869362 C65.4507034,47.934872 65.7360447,48.2643728 65.9247401,48.6452984 C66.1353042,49.0976123 66.2363386,49.58973 66.2202737,50.0847818 C66.260746,50.8314715 66.0128614,51.5662922 65.523948,52.1489465 C65.0275882,52.6774993 64.3729101,53.046107 63.6495363,53.2043089 L66.5562914,58 L64.904542,58 Z M60.0464555,52.2149067 L61.9734964,52.2149067 C62.7034784,52.2607432 63.428942,52.0753332 64.0381832,51.6872254 C64.5346772,51.2965064 64.8019465,50.6988184 64.754751,50.0847818 C64.8189871,49.490046 64.5454586,48.9079823 64.0381832,48.5599382 C63.4052142,48.234655 62.6904329,48.0842128 61.9734964,48.1253772 L60.0464555,48.1253772 L60.0464555,52.2149067 Z" id="Shape"></path>
                <path d="M73.99922,57.999284 C73.3771189,58.0108111 72.7601615,57.8830348 72.1922594,57.6250495 C71.6443314,57.363249 71.1615808,56.9795095 70.77988,56.5023462 C70.3680621,55.9856558 70.0576171,55.3936716 69.8653367,54.7584137 C69.6380641,54.0120749 69.5273224,53.2342303 69.5371336,52.4531296 C69.5264133,51.676876 69.637193,50.9038168 69.8653367,50.1628149 C70.0576643,49.5366567 70.368292,48.9544931 70.77988,48.4488211 C71.1645463,47.9869836 71.6474637,47.619746 72.1922594,47.3747683 C72.7617274,47.1217604 73.3776,46.9942088 73.99922,47.0005339 C74.622362,46.9906414 75.2401755,47.1183344 75.8098683,47.3747683 C76.3535075,47.6269442 76.8366721,47.9959668 77.2259354,48.4563058 C77.6438134,48.9608248 77.9584717,49.5447662 78.1515417,50.1740419 C78.3776019,50.9090177 78.4871395,51.6757796 78.4760571,52.4456449 C78.4866994,53.2265249 78.3772107,54.0043083 78.1515417,54.7509291 C77.9585272,55.3881476 77.6440368,55.9806782 77.2259354,56.4948615 C76.8412543,56.9704733 76.3576851,57.3538625 75.8098683,57.6175648 C75.2412628,57.8781928 74.6230679,58.0085201 73.99922,57.999284 L73.99922,57.999284 Z M73.99922,56.8167031 C74.4407401,56.8239824 74.8769735,56.7184549 75.2677801,56.5098309 C75.6543895,56.2976858 75.9865729,55.9964676 76.2376386,55.63038 C76.5267508,55.2129606 76.7402834,54.7466159 76.8682309,54.2531973 C77.0239023,53.6664227 77.0995893,53.0607639 77.0931791,52.4531296 C77.0991587,51.8516786 77.0234644,51.2522587 76.8682309,50.6717737 C76.7419251,50.1892905 76.5280727,49.7349389 76.2376386,49.3320144 C75.9824408,48.9774717 75.6506894,48.6868861 75.2677801,48.4825022 C74.4691672,48.0830602 73.5329605,48.0830602 72.7343476,48.4825022 C72.3493725,48.6852034 72.0151228,48.9744877 71.7571138,49.3282721 C71.4695468,49.7329284 71.2559566,50.186723 71.1265214,50.6680314 C70.9725786,51.2487017 70.8981264,51.8481121 70.9052609,52.4493873 C70.8976949,53.0568468 70.97214,53.6624963 71.1265214,54.2494549 C71.257611,54.7417175 71.4708984,55.2075266 71.7571138,55.6266376 C72.0095347,55.9928889 72.3429479,56.294077 72.7306599,56.5060886 C73.121241,56.7153216 73.5576305,56.8208868 73.99922,56.8129608 L73.99922,56.8167031 Z" id="Shape"></path>
                <path d="M82.4503311,47 L83.8519459,47 L83.8519459,53.3629368 C83.8392927,53.9117006 83.9063299,54.4594483 84.0510611,54.9898673 C84.1578857,55.3750033 84.345324,55.7343603 84.601556,56.0452766 C84.8192703,56.2995582 85.1002326,56.4950349 85.4175379,56.6129878 C86.0780013,56.8416902 86.7989813,56.8416902 87.4594446,56.6129878 C87.7802517,56.4953878 88.0650965,56.3000143 88.2871392,56.0452766 C88.5489377,55.7368077 88.7393805,55.3767972 88.8454425,54.9898673 C88.9916458,54.4596617 89.0600006,53.9118893 89.048462,53.3629368 L89.048462,47 L90.3954177,47 L90.3954177,53.3400759 C90.4129209,54.0811856 90.3114857,54.820404 90.0947928,55.5309075 C89.9244773,56.0635352 89.6396307,56.5545515 89.2592898,56.9711411 C88.9134509,57.3313744 88.4815237,57.6023511 88.0021311,57.7598404 C87.4984791,57.9224863 86.9709405,58.0035715 86.4404434,57.9998794 C85.9100349,58.0024219 85.3826854,57.9213657 84.8787556,57.7598404 C84.3956913,57.6052562 83.9605407,57.3339424 83.6137885,56.9711411 C83.2320552,56.5555262 82.9470282,56.0641988 82.7782856,55.5309075 C82.5582237,54.8210421 82.4554262,54.0815005 82.4737564,53.3400759 L82.4503311,47 Z" id="Path"></path>
                <path d="M94.3708609,47.0002129 L97.5263522,47.0002129 C98.0486919,46.9960377 98.5698758,47.0532888 99.0804952,47.1709327 C99.5106963,47.2618042 99.918666,47.4467422 100.278783,47.714132 C100.612682,47.9687496 100.87814,48.3126066 101.048592,48.7112909 C101.416474,49.6844813 101.416474,50.7722569 101.048592,51.7454473 C100.874104,52.1597566 100.607309,52.5220981 100.271521,52.8008061 C99.9145499,53.0922944 99.507385,53.3058718 99.0732328,53.4293654 C98.5693122,53.5761539 98.0486114,53.646681 97.5263522,53.6388851 L95.6744528,53.6388851 L95.6744528,58 L94.3708609,58 L94.3708609,47.0002129 Z M97.3702117,52.5020464 C98.2707431,52.5020464 98.9352482,52.3196867 99.3709892,51.9549671 C99.831744,51.5255341 100.073191,50.8870401 100.02097,50.2361291 C100.02097,49.44461 99.8018886,48.894944 99.3637268,48.587131 C98.7535928,48.2344876 98.0622377,48.0743624 97.3702117,48.1254116 L95.6744528,48.1254116 L95.6744528,52.5020464 L97.3702117,52.5020464 Z" id="Shape"></path>
            </g>
        </g>
    </g>
</svg>